ISO-10303-21;
HEADER;
FILE_DESCRIPTION(('3DEXPERIENCE STEP','CAx-IF Rec.Pracs.--- Model Styling and Organization---1.5--- 2016-08-15','CAx-IF Rec.Pracs.---Supplemental Geometry---1.0---2011-11-01','CAx-IF Rec.Pracs.---User Defined Attributes---1.5---2016-08-15','CAx-IF Rec.Pracs.--- Composite Materials ---1.1---2010-07-15'),'2;1');

FILE_NAME('/SPA_UserData/ContentOptimizer/2998071_2026-04-23-03h19m52-190036841/CATTemp/CO_SPACOConvertCgm0002-PID2998113/ResultFile.step','2026-04-23T03:19:57+00:00',('none'),('none'),'3DEXPERIENCE Platform3D Asset Translator 6.1.3','3DEXPERIENCE Platform STEP AP214 v3','none');

FILE_SCHEMA(('AUTOMOTIVE_DESIGN { 1 0 10303 214 1 1 1 1 }'));

ENDSEC;
DATA;
#16=PRODUCT('ResultFile','ResultFile','',(#2)) ;
#2=PRODUCT_CONTEXT(' ',#1,'mechanical') ;
#1=APPLICATION_CONTEXT('automotive design') ;
#18=PRODUCT_DEFINITION('ResultFile',' ',#17,#3) ;
#3=PRODUCT_DEFINITION_CONTEXT('part definition',#1,' ') ;
#19=PRODUCT_DEFINITION_SHAPE(' ',' ',#18) ;
#310=SHAPE_ASPECT('','',#19,.F.) ;
#603=SHAPE_ASPECT('','',#19,.F.) ;
#609=SHAPE_ASPECT('','',#19,.F.) ;
#616=SHAPE_ASPECT('','',#19,.F.) ;
#620=SHAPE_ASPECT('','',#19,.F.) ;
#1304=MECHANICAL_DESIGN_GEOMETRIC_PRESENTATION_REPRESENTATION(' ',(#30,#313),#12) ;
#1305=MECHANICAL_DESIGN_GEOMETRIC_PRESENTATION_REPRESENTATION(' ',(#309,#602,#671,#703,#716,#754,#786,#799,#840,#872,#971,#996,#1128,#1141,#1173,#1186,#1218,#1231,#1254,#1262,#1285,#1293,#1303,#619),#12) ;
#1306=MECHANICAL_DESIGN_GEOMETRIC_PRESENTATION_REPRESENTATION(' ',(#608,#615),#12) ;
#13=SHAPE_REPRESENTATION(' ',(#15,#22,#312,#610,#617),#12) ;
#15=AXIS2_PLACEMENT_3D('',#14,$,$) ;
#35=AXIS2_PLACEMENT_3D('Plane Axis2P3D',#32,#33,#34) ;
#317=AXIS2_PLACEMENT_3D('Plane Axis2P3D',#314,#315,#316) ;
#625=AXIS2_PLACEMENT_3D('Plane Axis2P3D',#622,#623,#624) ;
#629=AXIS2_PLACEMENT_3D('Circle Axis2P3D',#627,#628,$) ;
#638=AXIS2_PLACEMENT_3D('Circle Axis2P3D',#636,#637,$) ;
#647=AXIS2_PLACEMENT_3D('Circle Axis2P3D',#645,#646,$) ;
#656=AXIS2_PLACEMENT_3D('Circle Axis2P3D',#654,#655,$) ;
#675=AXIS2_PLACEMENT_3D('Cylinder Axis2P3D',#672,#673,#674) ;
#679=AXIS2_PLACEMENT_3D('Circle Axis2P3D',#677,#678,$) ;
#706=AXIS2_PLACEMENT_3D('Circle Axis2P3D',#704,#705,$) ;
#719=AXIS2_PLACEMENT_3D('Circle Axis2P3D',#717,#718,$) ;
#728=AXIS2_PLACEMENT_3D('Circle Axis2P3D',#726,#727,$) ;
#737=AXIS2_PLACEMENT_3D('Circle Axis2P3D',#735,#736,$) ;
#746=AXIS2_PLACEMENT_3D('Circle Axis2P3D',#744,#745,$) ;
#758=AXIS2_PLACEMENT_3D('Cylinder Axis2P3D',#755,#756,#757) ;
#762=AXIS2_PLACEMENT_3D('Circle Axis2P3D',#760,#761,$) ;
#789=AXIS2_PLACEMENT_3D('Circle Axis2P3D',#787,#788,$) ;
#803=AXIS2_PLACEMENT_3D('Cylinder Axis2P3D',#800,#801,#802) ;
#807=AXIS2_PLACEMENT_3D('Circle Axis2P3D',#805,#806,$) ;
#823=AXIS2_PLACEMENT_3D('Circle Axis2P3D',#821,#822,$) ;
#844=AXIS2_PLACEMENT_3D('Plane Axis2P3D',#841,#842,#843) ;
#876=AXIS2_PLACEMENT_3D('Plane Axis2P3D',#873,#874,#875) ;
#975=AXIS2_PLACEMENT_3D('Plane Axis2P3D',#972,#973,#974) ;
#1000=AXIS2_PLACEMENT_3D('Plane Axis2P3D',#997,#998,#999) ;
#1132=AXIS2_PLACEMENT_3D('Cylinder Axis2P3D',#1129,#1130,#1131) ;
#1145=AXIS2_PLACEMENT_3D('Cylinder Axis2P3D',#1142,#1143,#1144) ;
#1156=AXIS2_PLACEMENT_3D('Circle Axis2P3D',#1154,#1155,$) ;
#1176=AXIS2_PLACEMENT_3D('Circle Axis2P3D',#1174,#1175,$) ;
#1190=AXIS2_PLACEMENT_3D('Cylinder Axis2P3D',#1187,#1188,#1189) ;
#1194=AXIS2_PLACEMENT_3D('Circle Axis2P3D',#1192,#1193,$) ;
#1221=AXIS2_PLACEMENT_3D('Circle Axis2P3D',#1219,#1220,$) ;
#1235=AXIS2_PLACEMENT_3D('Cylinder Axis2P3D',#1232,#1233,#1234) ;
#1266=AXIS2_PLACEMENT_3D('Cylinder Axis2P3D',#1263,#1264,#1265) ;
#14=CARTESIAN_POINT('',(0.,0.,0.)) ;
#32=CARTESIAN_POINT('Axis2P3D Location',(-2.93126634077E-12,13.23975,-5.50670620214E-14)) ;
#38=CARTESIAN_POINT('Control Point',(8.0645,13.23975,25.4)) ;
#39=CARTESIAN_POINT('Control Point',(16.817797758,13.23975,8.94785888192)) ;
#40=CARTESIAN_POINT('Vertex',(8.0645,13.23975,25.4)) ;
#42=CARTESIAN_POINT('Vertex',(16.817797758,13.23975,8.94785888192)) ;
#46=CARTESIAN_POINT('Control Point',(16.817797758,13.23975,8.94785888192)) ;
#47=CARTESIAN_POINT('Control Point',(18.6608344671,13.23975,5.48381021483)) ;
#48=CARTESIAN_POINT('Control Point',(19.6119861817,13.23975,1.54523681008)) ;
#49=CARTESIAN_POINT('Control Point',(19.5052498597,13.23975,-2.56183268336)) ;
#50=CARTESIAN_POINT('Control Point',(17.1963611783,13.23975,-10.3295371868)) ;
#51=CARTESIAN_POINT('Control Point',(11.4233389585,13.23975,-16.0164005265)) ;
#52=CARTESIAN_POINT('Control Point',(7.84765378413,13.23975,-18.0397363859)) ;
#53=CARTESIAN_POINT('Control Point',(9.75282305544E-12,13.23975,-20.0602636141)) ;
#54=CARTESIAN_POINT('Control Point',(-7.84765378411,13.23975,-18.0397363859)) ;
#55=CARTESIAN_POINT('Control Point',(-11.4233389585,13.23975,-16.0164005265)) ;
#56=CARTESIAN_POINT('Control Point',(-17.1963611783,13.23975,-10.3295371868)) ;
#57=CARTESIAN_POINT('Control Point',(-19.5052498597,13.23975,-2.56183268336)) ;
#58=CARTESIAN_POINT('Control Point',(-19.6119861816,13.23975,1.54523681007)) ;
#59=CARTESIAN_POINT('Control Point',(-18.660834467,13.23975,5.48381021483)) ;
#60=CARTESIAN_POINT('Control Point',(-16.817797758,13.23975,8.94785888192)) ;
#61=CARTESIAN_POINT('Vertex',(-16.817797758,13.23975,8.94785888192)) ;
#65=CARTESIAN_POINT('Control Point',(-8.0645,13.23975,25.4)) ;
#66=CARTESIAN_POINT('Control Point',(-16.817797758,13.23975,8.94785888192)) ;
#67=CARTESIAN_POINT('Vertex',(-8.0645,13.23975,25.4)) ;
#70=CARTESIAN_POINT('Line Origine',(-8.0645,13.23975,7.14375)) ;
#74=CARTESIAN_POINT('Vertex',(-8.0645,13.23975,30.1625)) ;
#78=CARTESIAN_POINT('Control Point',(-8.0645,13.23975,30.1625)) ;
#79=CARTESIAN_POINT('Control Point',(-8.0645,13.23975,31.1599556675)) ;
#80=CARTESIAN_POINT('Control Point',(-7.67392736216,13.23975,32.1583419677)) ;
#81=CARTESIAN_POINT('Control Point',(-6.88534196768,13.23975,32.9469273622)) ;
#82=CARTESIAN_POINT('Control Point',(-5.88695566752,13.23975,33.3375)) ;
#83=CARTESIAN_POINT('Control Point',(-4.8895,13.23975,33.3375)) ;
#84=CARTESIAN_POINT('Vertex',(-4.8895,13.23975,33.3375)) ;
#87=CARTESIAN_POINT('Line Origine',(-4.8895,13.23975,7.14375)) ;
#91=CARTESIAN_POINT('Vertex',(-4.8895,13.23975,30.1624999998)) ;
#94=CARTESIAN_POINT('Line Origine',(5.54223333893E-12,13.23975,30.1625)) ;
#98=CARTESIAN_POINT('Vertex',(4.8895,13.23975,30.1625)) ;
#101=CARTESIAN_POINT('Line Origine',(4.8895,13.23975,7.14375)) ;
#105=CARTESIAN_POINT('Vertex',(4.8895,13.23975,33.3375)) ;
#109=CARTESIAN_POINT('Control Point',(4.8895,13.23975,33.3375)) ;
#110=CARTESIAN_POINT('Control Point',(5.88695566751,13.23975,33.3375)) ;
#111=CARTESIAN_POINT('Control Point',(6.88534196767,13.23975,32.9469273622)) ;
#112=CARTESIAN_POINT('Control Point',(7.67392736215,13.23975,32.1583419677)) ;
#113=CARTESIAN_POINT('Control Point',(8.0645,13.23975,31.1599556675)) ;
#114=CARTESIAN_POINT('Control Point',(8.0645,13.23975,30.1625)) ;
#115=CARTESIAN_POINT('Vertex',(8.0645,13.23975,30.1625)) ;
#118=CARTESIAN_POINT('Line Origine',(8.0645,13.23975,7.14375)) ;
#136=CARTESIAN_POINT('Control Point',(-8.06449999999,13.23975,2.22044604925E-15)) ;
#137=CARTESIAN_POINT('Control Point',(-8.06449999999,13.23975,1.26676869774)) ;
#138=CARTESIAN_POINT('Control Point',(-7.81577054783,13.23975,2.53353739549)) ;
#139=CARTESIAN_POINT('Control Point',(-7.31806582731,13.23975,3.73510288183)) ;
#140=CARTESIAN_POINT('Control Point',(-5.87834091918,13.23975,5.87834091919)) ;
#141=CARTESIAN_POINT('Control Point',(-3.73510288183,13.23975,7.31806582731)) ;
#142=CARTESIAN_POINT('Control Point',(-2.53353739548,13.23975,7.81577054784)) ;
#143=CARTESIAN_POINT('Control Point',(5.5395082409E-12,13.23975,8.31322945216)) ;
#144=CARTESIAN_POINT('Control Point',(2.53353739549,13.23975,7.81577054784)) ;
#145=CARTESIAN_POINT('Control Point',(3.73510288184,13.23975,7.31806582731)) ;
#146=CARTESIAN_POINT('Control Point',(5.87834091919,13.23975,5.87834091919)) ;
#147=CARTESIAN_POINT('Control Point',(7.31806582732,13.23975,3.73510288183)) ;
#148=CARTESIAN_POINT('Control Point',(7.81577054784,13.23975,2.53353739549)) ;
#149=CARTESIAN_POINT('Control Point',(8.06450000001,13.23975,1.26676869774)) ;
#150=CARTESIAN_POINT('Control Point',(8.06450000001,13.23975,2.22044604925E-15)) ;
#151=CARTESIAN_POINT('Vertex',(-8.06449999999,13.23975,2.30796458334E-15)) ;
#153=CARTESIAN_POINT('Vertex',(8.06450000001,13.23975,2.23236550664E-15)) ;
#157=CARTESIAN_POINT('Control Point',(8.06450000001,13.23975,2.6645352591E-15)) ;
#158=CARTESIAN_POINT('Control Point',(8.06450000001,13.23975,-1.26676869774)) ;
#159=CARTESIAN_POINT('Control Point',(7.81577054784,13.23975,-2.53353739549)) ;
#160=CARTESIAN_POINT('Control Point',(7.31806582732,13.23975,-3.73510288183)) ;
#161=CARTESIAN_POINT('Control Point',(5.87834091919,13.23975,-5.87834091919)) ;
#162=CARTESIAN_POINT('Control Point',(3.73510288184,13.23975,-7.31806582731)) ;
#163=CARTESIAN_POINT('Control Point',(2.53353739549,13.23975,-7.81577054784)) ;
#164=CARTESIAN_POINT('Control Point',(5.54602864466E-12,13.23975,-8.31322945216)) ;
#165=CARTESIAN_POINT('Control Point',(-2.53353739548,13.23975,-7.81577054784)) ;
#166=CARTESIAN_POINT('Control Point',(-3.73510288183,13.23975,-7.31806582731)) ;
#167=CARTESIAN_POINT('Control Point',(-5.87834091918,13.23975,-5.87834091919)) ;
#168=CARTESIAN_POINT('Control Point',(-7.31806582731,13.23975,-3.73510288183)) ;
#169=CARTESIAN_POINT('Control Point',(-7.81577054783,13.23975,-2.53353739549)) ;
#170=CARTESIAN_POINT('Control Point',(-8.06449999999,13.23975,-1.26676869774)) ;
#171=CARTESIAN_POINT('Control Point',(-8.06449999999,13.23975,4.4408920985E-16)) ;
#177=CARTESIAN_POINT('Line Origine',(5.53868062525E-12,13.23975,20.8915)) ;
#181=CARTESIAN_POINT('Vertex',(4.8895,13.23975,20.8915)) ;
#183=CARTESIAN_POINT('Vertex',(-4.8895,13.23975,20.8915)) ;
#186=CARTESIAN_POINT('Line Origine',(-4.8895,13.23975,7.14375)) ;
#190=CARTESIAN_POINT('Vertex',(-4.8895,13.23975,14.2875)) ;
#193=CARTESIAN_POINT('Line Origine',(5.53868062525E-12,13.23975,14.2875)) ;
#197=CARTESIAN_POINT('Vertex',(4.8895,13.23975,14.2875)) ;
#200=CARTESIAN_POINT('Line Origine',(4.8895,13.23975,7.14375)) ;
#212=CARTESIAN_POINT('Control Point',(-14.367115796,13.23975,7.239)) ;
#213=CARTESIAN_POINT('Control Point',(-14.367115796,13.23975,7.81353446448)) ;
#214=CARTESIAN_POINT('Control Point',(-14.1414966394,13.23975,8.38806892897)) ;
#215=CARTESIAN_POINT('Control Point',(-13.687384725,13.23975,8.84218084339)) ;
#216=CARTESIAN_POINT('Control Point',(-12.538315796,13.23975,9.29341915661)) ;
#217=CARTESIAN_POINT('Control Point',(-11.389246867,13.23975,8.84218084339)) ;
#218=CARTESIAN_POINT('Control Point',(-10.9351349526,13.23975,8.38806892897)) ;
#219=CARTESIAN_POINT('Control Point',(-10.709515796,13.23975,7.81353446448)) ;
#220=CARTESIAN_POINT('Control Point',(-10.709515796,13.23975,7.239)) ;
#221=CARTESIAN_POINT('Vertex',(-14.367115796,13.23975,7.239)) ;
#223=CARTESIAN_POINT('Vertex',(-10.709515796,13.23975,7.239)) ;
#227=CARTESIAN_POINT('Control Point',(-10.709515796,13.23975,7.239)) ;
#228=CARTESIAN_POINT('Control Point',(-10.709515796,13.23975,6.66446553551)) ;
#229=CARTESIAN_POINT('Control Point',(-10.9351349526,13.23975,6.08993107102)) ;
#230=CARTESIAN_POINT('Control Point',(-11.389246867,13.23975,5.63581915661)) ;
#231=CARTESIAN_POINT('Control Point',(-12.538315796,13.23975,5.18458084339)) ;
#232=CARTESIAN_POINT('Control Point',(-13.687384725,13.23975,5.63581915661)) ;
#233=CARTESIAN_POINT('Control Point',(-14.1414966394,13.23975,6.08993107102)) ;
#234=CARTESIAN_POINT('Control Point',(-14.367115796,13.23975,6.66446553551)) ;
#235=CARTESIAN_POINT('Control Point',(-14.367115796,13.23975,7.239)) ;
#242=CARTESIAN_POINT('Control Point',(-1.8288,13.23975,-14.478)) ;
#243=CARTESIAN_POINT('Control Point',(-1.8288,13.23975,-13.9034655355)) ;
#244=CARTESIAN_POINT('Control Point',(-1.60318084339,13.23975,-13.328931071)) ;
#245=CARTESIAN_POINT('Control Point',(-1.14906892898,13.23975,-12.8748191566)) ;
#246=CARTESIAN_POINT('Control Point',(-2.91257481836E-12,13.23975,-12.4235808434)) ;
#247=CARTESIAN_POINT('Control Point',(1.14906892897,13.23975,-12.8748191566)) ;
#248=CARTESIAN_POINT('Control Point',(1.60318084339,13.23975,-13.328931071)) ;
#249=CARTESIAN_POINT('Control Point',(1.8288,13.23975,-13.9034655355)) ;
#250=CARTESIAN_POINT('Control Point',(1.8288,13.23975,-14.478)) ;
#251=CARTESIAN_POINT('Vertex',(-1.8288,13.23975,-14.478)) ;
#253=CARTESIAN_POINT('Vertex',(1.8288,13.23975,-14.478)) ;
#257=CARTESIAN_POINT('Control Point',(1.8288,13.23975,-14.478)) ;
#258=CARTESIAN_POINT('Control Point',(1.8288,13.23975,-15.0525344645)) ;
#259=CARTESIAN_POINT('Control Point',(1.60318084339,13.23975,-15.627068929)) ;
#260=CARTESIAN_POINT('Control Point',(1.14906892897,13.23975,-16.0811808434)) ;
#261=CARTESIAN_POINT('Control Point',(-2.91140727822E-12,13.23975,-16.5324191566)) ;
#262=CARTESIAN_POINT('Control Point',(-1.14906892898,13.23975,-16.0811808434)) ;
#263=CARTESIAN_POINT('Control Point',(-1.60318084339,13.23975,-15.627068929)) ;
#264=CARTESIAN_POINT('Control Point',(-1.8288,13.23975,-15.0525344645)) ;
#265=CARTESIAN_POINT('Control Point',(-1.8288,13.23975,-14.478)) ;
#272=CARTESIAN_POINT('Control Point',(10.709515796,13.23975,7.239)) ;
#273=CARTESIAN_POINT('Control Point',(10.709515796,13.23975,7.81353446449)) ;
#274=CARTESIAN_POINT('Control Point',(10.9351349526,13.23975,8.38806892898)) ;
#275=CARTESIAN_POINT('Control Point',(11.389246867,13.23975,8.84218084339)) ;
#276=CARTESIAN_POINT('Control Point',(12.538315796,13.23975,9.29341915661)) ;
#277=CARTESIAN_POINT('Control Point',(13.687384725,13.23975,8.84218084339)) ;
#278=CARTESIAN_POINT('Control Point',(14.1414966394,13.23975,8.38806892898)) ;
#279=CARTESIAN_POINT('Control Point',(14.367115796,13.23975,7.81353446449)) ;
#280=CARTESIAN_POINT('Control Point',(14.367115796,13.23975,7.239)) ;
#281=CARTESIAN_POINT('Vertex',(10.709515796,13.23975,7.239)) ;
#283=CARTESIAN_POINT('Vertex',(14.367115796,13.23975,7.239)) ;
#287=CARTESIAN_POINT('Control Point',(14.367115796,13.23975,7.239)) ;
#288=CARTESIAN_POINT('Control Point',(14.367115796,13.23975,6.66446553552)) ;
#289=CARTESIAN_POINT('Control Point',(14.1414966394,13.23975,6.08993107103)) ;
#290=CARTESIAN_POINT('Control Point',(13.687384725,13.23975,5.63581915661)) ;
#291=CARTESIAN_POINT('Control Point',(12.538315796,13.23975,5.18458084339)) ;
#292=CARTESIAN_POINT('Control Point',(11.389246867,13.23975,5.63581915661)) ;
#293=CARTESIAN_POINT('Control Point',(10.9351349526,13.23975,6.08993107103)) ;
#294=CARTESIAN_POINT('Control Point',(10.709515796,13.23975,6.66446553552)) ;
#295=CARTESIAN_POINT('Control Point',(10.709515796,13.23975,7.239)) ;
#314=CARTESIAN_POINT('Axis2P3D Location',(-2.93126634077E-12,-13.23975,-5.68434188608E-14)) ;
#320=CARTESIAN_POINT('Control Point',(-16.817797758,-13.23975,8.94785888192)) ;
#321=CARTESIAN_POINT('Control Point',(-8.43653267522,-13.23975,24.7007510721)) ;
#322=CARTESIAN_POINT('Vertex',(-16.817797758,-13.23975,8.94785888192)) ;
#324=CARTESIAN_POINT('Vertex',(-8.43653267522,-13.23975,24.7007510721)) ;
#328=CARTESIAN_POINT('Control Point',(16.817797758,-13.23975,8.94785888192)) ;
#329=CARTESIAN_POINT('Control Point',(18.6608344671,-13.23975,5.48381021483)) ;
#330=CARTESIAN_POINT('Control Point',(19.6119861817,-13.23975,1.54523681008)) ;
#331=CARTESIAN_POINT('Control Point',(19.5052498597,-13.23975,-2.56183268336)) ;
#332=CARTESIAN_POINT('Control Point',(17.1963611783,-13.23975,-10.3295371868)) ;
#333=CARTESIAN_POINT('Control Point',(11.4233389585,-13.23975,-16.0164005265)) ;
#334=CARTESIAN_POINT('Control Point',(7.84765378413,-13.23975,-18.0397363859)) ;
#335=CARTESIAN_POINT('Control Point',(9.75282305544E-12,-13.23975,-20.0602636141)) ;
#336=CARTESIAN_POINT('Control Point',(-7.84765378411,-13.23975,-18.0397363859)) ;
#337=CARTESIAN_POINT('Control Point',(-11.4233389585,-13.23975,-16.0164005265)) ;
#338=CARTESIAN_POINT('Control Point',(-17.1963611783,-13.23975,-10.3295371868)) ;
#339=CARTESIAN_POINT('Control Point',(-19.5052498597,-13.23975,-2.56183268336)) ;
#340=CARTESIAN_POINT('Control Point',(-19.6119861816,-13.23975,1.54523681007)) ;
#341=CARTESIAN_POINT('Control Point',(-18.660834467,-13.23975,5.48381021483)) ;
#342=CARTESIAN_POINT('Control Point',(-16.817797758,-13.23975,8.94785888192)) ;
#343=CARTESIAN_POINT('Vertex',(16.817797758,-13.23975,8.94785888192)) ;
#347=CARTESIAN_POINT('Control Point',(8.43653267521,-13.23975,24.7007510721)) ;
#348=CARTESIAN_POINT('Control Point',(16.817797758,-13.23975,8.94785888192)) ;
#349=CARTESIAN_POINT('Vertex',(8.43653267521,-13.23975,24.7007510721)) ;
#353=CARTESIAN_POINT('Control Point',(8.43653267521,-13.23975,24.7007510721)) ;
#354=CARTESIAN_POINT('Control Point',(8.19347204488,-13.23975,25.1575923565)) ;
#355=CARTESIAN_POINT('Control Point',(8.0645,-13.23975,25.6745819623)) ;
#356=CARTESIAN_POINT('Control Point',(8.0645,-13.23975,26.1920589464)) ;
#357=CARTESIAN_POINT('Vertex',(8.0645,-13.23975,26.1920589464)) ;
#360=CARTESIAN_POINT('Line Origine',(8.0645,-13.23975,7.14375)) ;
#364=CARTESIAN_POINT('Vertex',(8.0645,-13.23975,30.1625)) ;
#368=CARTESIAN_POINT('Control Point',(4.8895,-13.23975,33.3375)) ;
#369=CARTESIAN_POINT('Control Point',(5.88695566751,-13.23975,33.3375)) ;
#370=CARTESIAN_POINT('Control Point',(6.88534196767,-13.23975,32.9469273622)) ;
#371=CARTESIAN_POINT('Control Point',(7.67392736215,-13.23975,32.1583419677)) ;
#372=CARTESIAN_POINT('Control Point',(8.0645,-13.23975,31.1599556675)) ;
#373=CARTESIAN_POINT('Control Point',(8.0645,-13.23975,30.1625)) ;
#374=CARTESIAN_POINT('Vertex',(4.8895,-13.23975,33.3375)) ;
#377=CARTESIAN_POINT('Line Origine',(4.8895,-13.23975,7.14375)) ;
#381=CARTESIAN_POINT('Vertex',(4.8895,-13.23975,30.1625)) ;
#384=CARTESIAN_POINT('Line Origine',(5.54223333893E-12,-13.23975,30.1625)) ;
#388=CARTESIAN_POINT('Vertex',(-4.8895,-13.23975,30.1624999998)) ;
#391=CARTESIAN_POINT('Line Origine',(-4.8895,-13.23975,7.14375)) ;
#395=CARTESIAN_POINT('Vertex',(-4.8895,-13.23975,33.3375)) ;
#399=CARTESIAN_POINT('Control Point',(-8.0645,-13.23975,30.1625)) ;
#400=CARTESIAN_POINT('Control Point',(-8.0645,-13.23975,31.1599556675)) ;
#401=CARTESIAN_POINT('Control Point',(-7.67392736216,-13.23975,32.1583419677)) ;
#402=CARTESIAN_POINT('Control Point',(-6.88534196768,-13.23975,32.9469273622)) ;
#403=CARTESIAN_POINT('Control Point',(-5.88695566752,-13.23975,33.3375)) ;
#404=CARTESIAN_POINT('Control Point',(-4.8895,-13.23975,33.3375)) ;
#405=CARTESIAN_POINT('Vertex',(-8.0645,-13.23975,30.1625)) ;
#408=CARTESIAN_POINT('Line Origine',(-8.0645,-13.23975,7.14375)) ;
#412=CARTESIAN_POINT('Vertex',(-8.0645,-13.23975,26.1920589464)) ;
#416=CARTESIAN_POINT('Control Point',(-8.0645,-13.23975,26.1920589464)) ;
#417=CARTESIAN_POINT('Control Point',(-8.0645,-13.23975,25.6745819623)) ;
#418=CARTESIAN_POINT('Control Point',(-8.19347204488,-13.23975,25.1575923565)) ;
#419=CARTESIAN_POINT('Control Point',(-8.43653267522,-13.23975,24.7007510721)) ;
#436=CARTESIAN_POINT('Control Point',(14.367115796,-13.23975,7.239)) ;
#437=CARTESIAN_POINT('Control Point',(14.367115796,-13.23975,6.66446553552)) ;
#438=CARTESIAN_POINT('Control Point',(14.1414966394,-13.23975,6.08993107103)) ;
#439=CARTESIAN_POINT('Control Point',(13.687384725,-13.23975,5.63581915661)) ;
#440=CARTESIAN_POINT('Control Point',(12.538315796,-13.23975,5.18458084339)) ;
#441=CARTESIAN_POINT('Control Point',(11.389246867,-13.23975,5.63581915661)) ;
#442=CARTESIAN_POINT('Control Point',(10.9351349526,-13.23975,6.08993107103)) ;
#443=CARTESIAN_POINT('Control Point',(10.709515796,-13.23975,6.66446553552)) ;
#444=CARTESIAN_POINT('Control Point',(10.709515796,-13.23975,7.239)) ;
#445=CARTESIAN_POINT('Vertex',(14.367115796,-13.23975,7.239)) ;
#447=CARTESIAN_POINT('Vertex',(10.709515796,-13.23975,7.239)) ;
#451=CARTESIAN_POINT('Control Point',(10.709515796,-13.23975,7.239)) ;
#452=CARTESIAN_POINT('Control Point',(10.709515796,-13.23975,7.81353446449)) ;
#453=CARTESIAN_POINT('Control Point',(10.9351349526,-13.23975,8.38806892898)) ;
#454=CARTESIAN_POINT('Control Point',(11.389246867,-13.23975,8.84218084339)) ;
#455=CARTESIAN_POINT('Control Point',(12.538315796,-13.23975,9.29341915661)) ;
#456=CARTESIAN_POINT('Control Point',(13.687384725,-13.23975,8.84218084339)) ;
#457=CARTESIAN_POINT('Control Point',(14.1414966394,-13.23975,8.38806892898)) ;
#458=CARTESIAN_POINT('Control Point',(14.367115796,-13.23975,7.81353446449)) ;
#459=CARTESIAN_POINT('Control Point',(14.367115796,-13.23975,7.239)) ;
#466=CARTESIAN_POINT('Control Point',(-1.8288,-13.23975,-14.478)) ;
#467=CARTESIAN_POINT('Control Point',(-1.8288,-13.23975,-13.9034655355)) ;
#468=CARTESIAN_POINT('Control Point',(-1.60318084339,-13.23975,-13.328931071)) ;
#469=CARTESIAN_POINT('Control Point',(-1.14906892898,-13.23975,-12.8748191566)) ;
#470=CARTESIAN_POINT('Control Point',(-2.91257481836E-12,-13.23975,-12.4235808434)) ;
#471=CARTESIAN_POINT('Control Point',(1.14906892897,-13.23975,-12.8748191566)) ;
#472=CARTESIAN_POINT('Control Point',(1.60318084339,-13.23975,-13.328931071)) ;
#473=CARTESIAN_POINT('Control Point',(1.8288,-13.23975,-13.9034655355)) ;
#474=CARTESIAN_POINT('Control Point',(1.8288,-13.23975,-14.478)) ;
#475=CARTESIAN_POINT('Vertex',(-1.8288,-13.23975,-14.478)) ;
#477=CARTESIAN_POINT('Vertex',(1.8288,-13.23975,-14.478)) ;
#481=CARTESIAN_POINT('Control Point',(1.8288,-13.23975,-14.478)) ;
#482=CARTESIAN_POINT('Control Point',(1.8288,-13.23975,-15.0525344645)) ;
#483=CARTESIAN_POINT('Control Point',(1.60318084339,-13.23975,-15.627068929)) ;
#484=CARTESIAN_POINT('Control Point',(1.14906892897,-13.23975,-16.0811808434)) ;
#485=CARTESIAN_POINT('Control Point',(-2.91140727822E-12,-13.23975,-16.5324191566)) ;
#486=CARTESIAN_POINT('Control Point',(-1.14906892898,-13.23975,-16.0811808434)) ;
#487=CARTESIAN_POINT('Control Point',(-1.60318084339,-13.23975,-15.627068929)) ;
#488=CARTESIAN_POINT('Control Point',(-1.8288,-13.23975,-15.0525344645)) ;
#489=CARTESIAN_POINT('Control Point',(-1.8288,-13.23975,-14.478)) ;
#496=CARTESIAN_POINT('Control Point',(-10.709515796,-13.23975,7.239)) ;
#497=CARTESIAN_POINT('Control Point',(-10.709515796,-13.23975,6.66446553551)) ;
#498=CARTESIAN_POINT('Control Point',(-10.9351349526,-13.23975,6.08993107102)) ;
#499=CARTESIAN_POINT('Control Point',(-11.389246867,-13.23975,5.63581915661)) ;
#500=CARTESIAN_POINT('Control Point',(-12.538315796,-13.23975,5.18458084339)) ;
#501=CARTESIAN_POINT('Control Point',(-13.687384725,-13.23975,5.63581915661)) ;
#502=CARTESIAN_POINT('Control Point',(-14.1414966394,-13.23975,6.08993107102)) ;
#503=CARTESIAN_POINT('Control Point',(-14.367115796,-13.23975,6.66446553551)) ;
#504=CARTESIAN_POINT('Control Point',(-14.367115796,-13.23975,7.239)) ;
#505=CARTESIAN_POINT('Vertex',(-10.709515796,-13.23975,7.239)) ;
#507=CARTESIAN_POINT('Vertex',(-14.367115796,-13.23975,7.239)) ;
#511=CARTESIAN_POINT('Control Point',(-14.367115796,-13.23975,7.239)) ;
#512=CARTESIAN_POINT('Control Point',(-14.367115796,-13.23975,7.81353446448)) ;
#513=CARTESIAN_POINT('Control Point',(-14.1414966394,-13.23975,8.38806892897)) ;
#514=CARTESIAN_POINT('Control Point',(-13.687384725,-13.23975,8.84218084339)) ;
#515=CARTESIAN_POINT('Control Point',(-12.538315796,-13.23975,9.29341915661)) ;
#516=CARTESIAN_POINT('Control Point',(-11.389246867,-13.23975,8.84218084339)) ;
#517=CARTESIAN_POINT('Control Point',(-10.9351349526,-13.23975,8.38806892897)) ;
#518=CARTESIAN_POINT('Control Point',(-10.709515796,-13.23975,7.81353446448)) ;
#519=CARTESIAN_POINT('Control Point',(-10.709515796,-13.23975,7.239)) ;
#525=CARTESIAN_POINT('Line Origine',(-4.8895,-13.23975,7.14375)) ;
#529=CARTESIAN_POINT('Vertex',(-4.8895,-13.23975,20.8915)) ;
#531=CARTESIAN_POINT('Vertex',(-4.8895,-13.23975,14.2875)) ;
#534=CARTESIAN_POINT('Line Origine',(5.53868062525E-12,-13.23975,20.8915)) ;
#538=CARTESIAN_POINT('Vertex',(4.8895,-13.23975,20.8915)) ;
#541=CARTESIAN_POINT('Line Origine',(4.8895,-13.23975,7.14375)) ;
#545=CARTESIAN_POINT('Vertex',(4.8895,-13.23975,14.2875)) ;
#548=CARTESIAN_POINT('Line Origine',(5.53868062525E-12,-13.23975,14.2875)) ;
#560=CARTESIAN_POINT('Control Point',(-8.06449999999,-13.23975,4.4408920985E-16)) ;
#561=CARTESIAN_POINT('Control Point',(-8.06449999999,-13.23975,1.26676869774)) ;
#562=CARTESIAN_POINT('Control Point',(-7.81577054783,-13.23975,2.53353739549)) ;
#563=CARTESIAN_POINT('Control Point',(-7.31806582731,-13.23975,3.73510288183)) ;
#564=CARTESIAN_POINT('Control Point',(-5.87834091918,-13.23975,5.87834091919)) ;
#565=CARTESIAN_POINT('Control Point',(-3.73510288183,-13.23975,7.31806582731)) ;
#566=CARTESIAN_POINT('Control Point',(-2.53353739548,-13.23975,7.81577054784)) ;
#567=CARTESIAN_POINT('Control Point',(5.5395082409E-12,-13.23975,8.31322945216)) ;
#568=CARTESIAN_POINT('Control Point',(2.53353739549,-13.23975,7.81577054784)) ;
#569=CARTESIAN_POINT('Control Point',(3.73510288184,-13.23975,7.31806582731)) ;
#570=CARTESIAN_POINT('Control Point',(5.87834091919,-13.23975,5.87834091919)) ;
#571=CARTESIAN_POINT('Control Point',(7.31806582732,-13.23975,3.73510288183)) ;
#572=CARTESIAN_POINT('Control Point',(7.81577054784,-13.23975,2.53353739549)) ;
#573=CARTESIAN_POINT('Control Point',(8.06450000001,-13.23975,1.26676869774)) ;
#574=CARTESIAN_POINT('Control Point',(8.06450000001,-13.23975,4.4408920985E-16)) ;
#575=CARTESIAN_POINT('Vertex',(-8.06449999999,-13.23975,5.31607743936E-16)) ;
#577=CARTESIAN_POINT('Vertex',(8.06450000001,-13.23975,4.56008667235E-16)) ;
#581=CARTESIAN_POINT('Control Point',(8.06450000001,-13.23975,8.881784197E-16)) ;
#582=CARTESIAN_POINT('Control Point',(8.06450000001,-13.23975,-1.26676869774)) ;
#583=CARTESIAN_POINT('Control Point',(7.81577054784,-13.23975,-2.53353739549)) ;
#584=CARTESIAN_POINT('Control Point',(7.31806582732,-13.23975,-3.73510288183)) ;
#585=CARTESIAN_POINT('Control Point',(5.87834091919,-13.23975,-5.87834091919)) ;
#586=CARTESIAN_POINT('Control Point',(3.73510288184,-13.23975,-7.31806582731)) ;
#587=CARTESIAN_POINT('Control Point',(2.53353739549,-13.23975,-7.81577054784)) ;
#588=CARTESIAN_POINT('Control Point',(5.54602864466E-12,-13.23975,-8.31322945216)) ;
#589=CARTESIAN_POINT('Control Point',(-2.53353739548,-13.23975,-7.81577054784)) ;
#590=CARTESIAN_POINT('Control Point',(-3.73510288183,-13.23975,-7.31806582731)) ;
#591=CARTESIAN_POINT('Control Point',(-5.87834091918,-13.23975,-5.87834091919)) ;
#592=CARTESIAN_POINT('Control Point',(-7.31806582731,-13.23975,-3.73510288183)) ;
#593=CARTESIAN_POINT('Control Point',(-7.81577054783,-13.23975,-2.53353739549)) ;
#594=CARTESIAN_POINT('Control Point',(-8.06449999999,-13.23975,-1.26676869774)) ;
#595=CARTESIAN_POINT('Control Point',(-8.06449999999,-13.23975,-1.33226762955E-15)) ;
#604=CARTESIAN_POINT('',(0.,13.11275,0.)) ;
#611=CARTESIAN_POINT('',(-12.538315796,13.11275,7.239)) ;
#622=CARTESIAN_POINT('Axis2P3D Location',(-9.23631579599,-12.54125,7.239)) ;
#627=CARTESIAN_POINT('Axis2P3D Location',(12.538315796,-12.54125,7.239)) ;
#631=CARTESIAN_POINT('Vertex',(10.887315796,-12.54125,4.3793841167)) ;
#633=CARTESIAN_POINT('Vertex',(14.189315796,-12.54125,10.0986158833)) ;
#636=CARTESIAN_POINT('Axis2P3D Location',(12.538315796,-12.54125,7.239)) ;
#645=CARTESIAN_POINT('Axis2P3D Location',(12.538315796,-12.54125,7.239)) ;
#649=CARTESIAN_POINT('Vertex',(13.452715796,-12.54125,8.82278725844)) ;
#651=CARTESIAN_POINT('Vertex',(11.623915796,-12.54125,5.65521274156)) ;
#654=CARTESIAN_POINT('Axis2P3D Location',(12.538315796,-12.54125,7.239)) ;
#672=CARTESIAN_POINT('Axis2P3D Location',(12.538315796,13.11275,7.239)) ;
#677=CARTESIAN_POINT('Axis2P3D Location',(12.538315796,13.11275,7.239)) ;
#681=CARTESIAN_POINT('Vertex',(10.887315796,13.11275,4.3793841167)) ;
#683=CARTESIAN_POINT('Vertex',(14.189315796,13.11275,10.0986158833)) ;
#686=CARTESIAN_POINT('Line Origine',(14.189315796,0.28575,10.0986158833)) ;
#691=CARTESIAN_POINT('Line Origine',(10.887315796,0.28575,4.3793841167)) ;
#704=CARTESIAN_POINT('Axis2P3D Location',(12.538315796,13.11275,7.239)) ;
#717=CARTESIAN_POINT('Axis2P3D Location',(2.30926389122E-14,-12.54125,-14.478)) ;
#721=CARTESIAN_POINT('Vertex',(-1.651,-12.54125,-11.6183841167)) ;
#723=CARTESIAN_POINT('Vertex',(1.651,-12.54125,-17.3376158833)) ;
#726=CARTESIAN_POINT('Axis2P3D Location',(2.30926389122E-14,-12.54125,-14.478)) ;
#735=CARTESIAN_POINT('Axis2P3D Location',(2.30926389122E-14,-12.54125,-14.478)) ;
#739=CARTESIAN_POINT('Vertex',(0.9144,-12.54125,-16.0617872584)) ;
#741=CARTESIAN_POINT('Vertex',(-0.9144,-12.54125,-12.8942127416)) ;
#744=CARTESIAN_POINT('Axis2P3D Location',(2.30926389122E-14,-12.54125,-14.478)) ;
#755=CARTESIAN_POINT('Axis2P3D Location',(2.22044604925E-14,13.11275,-14.478)) ;
#760=CARTESIAN_POINT('Axis2P3D Location',(2.22044604925E-14,13.11275,-14.478)) ;
#764=CARTESIAN_POINT('Vertex',(1.651,13.11275,-17.3376158833)) ;
#766=CARTESIAN_POINT('Vertex',(-1.651,13.11275,-11.6183841167)) ;
#769=CARTESIAN_POINT('Line Origine',(-1.651,0.28575,-11.6183841167)) ;
#774=CARTESIAN_POINT('Line Origine',(1.651,0.28575,-17.3376158833)) ;
#787=CARTESIAN_POINT('Axis2P3D Location',(2.22044604925E-14,13.11275,-14.478)) ;
#800=CARTESIAN_POINT('Axis2P3D Location',(0.,7.27987500008,0.)) ;
#805=CARTESIAN_POINT('Axis2P3D Location',(0.,-13.11275,0.)) ;
#809=CARTESIAN_POINT('Vertex',(4.8895,-13.11275,7.23377607564)) ;
#811=CARTESIAN_POINT('Vertex',(-4.8895,-13.11275,7.23377607564)) ;
#814=CARTESIAN_POINT('Line Origine',(4.8895,7.27987500008,7.23377607564)) ;
#818=CARTESIAN_POINT('Vertex',(4.8895,13.11275,7.23377607564)) ;
#821=CARTESIAN_POINT('Axis2P3D Location',(0.,13.11275,0.)) ;
#825=CARTESIAN_POINT('Vertex',(-4.8895,13.11275,7.23377607564)) ;
#828=CARTESIAN_POINT('Line Origine',(-4.8895,7.27987500008,7.23377607564)) ;
#841=CARTESIAN_POINT('Axis2P3D Location',(-4.8895,0.,18.4118247262)) ;
#846=CARTESIAN_POINT('Line Origine',(-4.8895,-1.7763568394E-15,18.4118247262)) ;
#850=CARTESIAN_POINT('Vertex',(-4.8895,-13.11275,18.4118247262)) ;
#852=CARTESIAN_POINT('Vertex',(-4.8895,13.11275,18.4118247262)) ;
#855=CARTESIAN_POINT('Line Origine',(-4.8895,-13.11275,12.8228004009)) ;
#860=CARTESIAN_POINT('Line Origine',(-4.8895,13.11275,12.8228004009)) ;
#873=CARTESIAN_POINT('Axis2P3D Location',(-2.93126634077E-12,13.11275,-5.50670620214E-14)) ;
#879=CARTESIAN_POINT('Control Point',(4.8895,13.11275,18.4118247262)) ;
#880=CARTESIAN_POINT('Control Point',(7.54266319162,13.11275,17.7072426645)) ;
#881=CARTESIAN_POINT('Control Point',(10.0689126186,13.11275,16.5247561158)) ;
#882=CARTESIAN_POINT('Control Point',(12.3532730806,13.11275,14.8945362534)) ;
#883=CARTESIAN_POINT('Control Point',(16.2324682115,13.11275,10.8854606045)) ;
#884=CARTESIAN_POINT('Control Point',(18.4689570216,13.11275,5.77478939374)) ;
#885=CARTESIAN_POINT('Control Point',(19.1100300126,13.11275,3.04258425131)) ;
#886=CARTESIAN_POINT('Control Point',(19.3800929804,13.11275,-2.52948075328)) ;
#887=CARTESIAN_POINT('Control Point',(17.6889137747,13.11275,-7.84556533839)) ;
#888=CARTESIAN_POINT('Control Point',(16.3680507516,13.11275,-10.3216995016)) ;
#889=CARTESIAN_POINT('Control Point',(12.8947454047,13.11275,-14.6871310254)) ;
#890=CARTESIAN_POINT('Control Point',(8.11650728321,13.11275,-17.5662424989)) ;
#891=CARTESIAN_POINT('Control Point',(5.4902498315,13.11275,-18.5555307872)) ;
#892=CARTESIAN_POINT('Control Point',(1.36051700382E-14,13.11275,-19.5444692128)) ;
#893=CARTESIAN_POINT('Control Point',(-5.4902498315,13.11275,-18.5555307872)) ;
#894=CARTESIAN_POINT('Control Point',(-8.11650728321,13.11275,-17.5662424989)) ;
#895=CARTESIAN_POINT('Control Point',(-12.8947454047,13.11275,-14.6871310254)) ;
#896=CARTESIAN_POINT('Control Point',(-16.3680507516,13.11275,-10.3216995016)) ;
#897=CARTESIAN_POINT('Control Point',(-17.6889137747,13.11275,-7.84556533839)) ;
#898=CARTESIAN_POINT('Control Point',(-19.3800929804,13.11275,-2.52948075328)) ;
#899=CARTESIAN_POINT('Control Point',(-19.1100300126,13.11275,3.04258425131)) ;
#900=CARTESIAN_POINT('Control Point',(-18.4689570216,13.11275,5.77478939374)) ;
#901=CARTESIAN_POINT('Control Point',(-16.2324682115,13.11275,10.8854606045)) ;
#902=CARTESIAN_POINT('Control Point',(-12.3532730806,13.11275,14.8945362534)) ;
#903=CARTESIAN_POINT('Control Point',(-10.0689126186,13.11275,16.5247561158)) ;
#904=CARTESIAN_POINT('Control Point',(-7.54266319162,13.11275,17.7072426645)) ;
#905=CARTESIAN_POINT('Control Point',(-4.8895,13.11275,18.4118247262)) ;
#906=CARTESIAN_POINT('Vertex',(4.8895,13.11275,18.4118247262)) ;
#909=CARTESIAN_POINT('Line Origine',(4.8895,13.11275,-0.319087636877)) ;
#921=CARTESIAN_POINT('Control Point',(-15.840315796,13.11275,7.239)) ;
#922=CARTESIAN_POINT('Control Point',(-15.840315796,13.11275,7.75767694711)) ;
#923=CARTESIAN_POINT('Control Point',(-15.7384738156,13.11275,8.27635389422)) ;
#924=CARTESIAN_POINT('Control Point',(-15.5346892056,13.11275,8.76833346343)) ;
#925=CARTESIAN_POINT('Control Point',(-14.9451955424,13.11275,9.64587974644)) ;
#926=CARTESIAN_POINT('Control Point',(-14.0676492594,13.11275,10.2353734096)) ;
#927=CARTESIAN_POINT('Control Point',(-13.5756696902,13.11275,10.4391580196)) ;
#928=CARTESIAN_POINT('Control Point',(-12.538315796,13.11275,10.6428419804)) ;
#929=CARTESIAN_POINT('Control Point',(-11.5009619018,13.11275,10.4391580196)) ;
#930=CARTESIAN_POINT('Control Point',(-11.0089823326,13.11275,10.2353734096)) ;
#931=CARTESIAN_POINT('Control Point',(-10.1314360496,13.11275,9.64587974644)) ;
#932=CARTESIAN_POINT('Control Point',(-9.54194238638,13.11275,8.76833346343)) ;
#933=CARTESIAN_POINT('Control Point',(-9.3381577764,13.11275,8.27635389422)) ;
#934=CARTESIAN_POINT('Control Point',(-9.23631579599,13.11275,7.75767694711)) ;
#935=CARTESIAN_POINT('Control Point',(-9.23631579599,13.11275,7.239)) ;
#936=CARTESIAN_POINT('Vertex',(-9.23631579599,13.11275,7.239)) ;
#938=CARTESIAN_POINT('Vertex',(-15.840315796,13.11275,7.239)) ;
#942=CARTESIAN_POINT('Control Point',(-9.23631579599,13.11275,7.239)) ;
#943=CARTESIAN_POINT('Control Point',(-9.23631579599,13.11275,6.72032305289)) ;
#944=CARTESIAN_POINT('Control Point',(-9.3381577764,13.11275,6.20164610578)) ;
#945=CARTESIAN_POINT('Control Point',(-9.54194238638,13.11275,5.70966653657)) ;
#946=CARTESIAN_POINT('Control Point',(-10.1314360496,13.11275,4.83212025356)) ;
#947=CARTESIAN_POINT('Control Point',(-11.0089823326,13.11275,4.24262659039)) ;
#948=CARTESIAN_POINT('Control Point',(-11.5009619018,13.11275,4.03884198041)) ;
#949=CARTESIAN_POINT('Control Point',(-12.538315796,13.11275,3.83515801959)) ;
#950=CARTESIAN_POINT('Control Point',(-13.5756696902,13.11275,4.03884198041)) ;
#951=CARTESIAN_POINT('Control Point',(-14.0676492594,13.11275,4.24262659039)) ;
#952=CARTESIAN_POINT('Control Point',(-14.9451955424,13.11275,4.83212025356)) ;
#953=CARTESIAN_POINT('Control Point',(-15.5346892056,13.11275,5.70966653657)) ;
#954=CARTESIAN_POINT('Control Point',(-15.7384738156,13.11275,6.20164610578)) ;
#955=CARTESIAN_POINT('Control Point',(-15.840315796,13.11275,6.72032305289)) ;
#956=CARTESIAN_POINT('Control Point',(-15.840315796,13.11275,7.239)) ;
#972=CARTESIAN_POINT('Axis2P3D Location',(4.8895,0.,18.4118247262)) ;
#977=CARTESIAN_POINT('Line Origine',(4.8895,-13.11275,12.8228004009)) ;
#981=CARTESIAN_POINT('Vertex',(4.8895,-13.11275,18.4118247262)) ;
#984=CARTESIAN_POINT('Line Origine',(4.8895,-1.7763568394E-15,18.4118247262)) ;
#997=CARTESIAN_POINT('Axis2P3D Location',(-2.93126634077E-12,-13.11275,-5.68434188608E-14)) ;
#1003=CARTESIAN_POINT('Control Point',(4.8895,-13.11275,18.4118247262)) ;
#1004=CARTESIAN_POINT('Control Point',(7.54266319162,-13.11275,17.7072426645)) ;
#1005=CARTESIAN_POINT('Control Point',(10.0689126186,-13.11275,16.5247561158)) ;
#1006=CARTESIAN_POINT('Control Point',(12.3532730806,-13.11275,14.8945362534)) ;
#1007=CARTESIAN_POINT('Control Point',(16.2324682115,-13.11275,10.8854606045)) ;
#1008=CARTESIAN_POINT('Control Point',(18.4689570216,-13.11275,5.77478939374)) ;
#1009=CARTESIAN_POINT('Control Point',(19.1100300126,-13.11275,3.04258425131)) ;
#1010=CARTESIAN_POINT('Control Point',(19.3800929804,-13.11275,-2.52948075328)) ;
#1011=CARTESIAN_POINT('Control Point',(17.6889137747,-13.11275,-7.84556533839)) ;
#1012=CARTESIAN_POINT('Control Point',(16.3680507516,-13.11275,-10.3216995016)) ;
#1013=CARTESIAN_POINT('Control Point',(12.8947454047,-13.11275,-14.6871310254)) ;
#1014=CARTESIAN_POINT('Control Point',(8.11650728321,-13.11275,-17.5662424989)) ;
#1015=CARTESIAN_POINT('Control Point',(5.4902498315,-13.11275,-18.5555307872)) ;
#1016=CARTESIAN_POINT('Control Point',(2.09746371423E-14,-13.11275,-19.5444692128)) ;
#1017=CARTESIAN_POINT('Control Point',(-5.4902498315,-13.11275,-18.5555307872)) ;
#1018=CARTESIAN_POINT('Control Point',(-8.11650728321,-13.11275,-17.5662424989)) ;
#1019=CARTESIAN_POINT('Control Point',(-12.8947454047,-13.11275,-14.6871310254)) ;
#1020=CARTESIAN_POINT('Control Point',(-16.3680507516,-13.11275,-10.3216995016)) ;
#1021=CARTESIAN_POINT('Control Point',(-17.6889137747,-13.11275,-7.84556533839)) ;
#1022=CARTESIAN_POINT('Control Point',(-19.3800929804,-13.11275,-2.52948075328)) ;
#1023=CARTESIAN_POINT('Control Point',(-19.1100300126,-13.11275,3.04258425131)) ;
#1024=CARTESIAN_POINT('Control Point',(-18.4689570216,-13.11275,5.77478939374)) ;
#1025=CARTESIAN_POINT('Control Point',(-16.2324682115,-13.11275,10.8854606045)) ;
#1026=CARTESIAN_POINT('Control Point',(-12.3532730806,-13.11275,14.8945362534)) ;
#1027=CARTESIAN_POINT('Control Point',(-10.0689126186,-13.11275,16.5247561158)) ;
#1028=CARTESIAN_POINT('Control Point',(-7.54266319162,-13.11275,17.7072426645)) ;
#1029=CARTESIAN_POINT('Control Point',(-4.8895,-13.11275,18.4118247262)) ;
#1038=CARTESIAN_POINT('Control Point',(-14.367115796,-13.11275,7.239)) ;
#1039=CARTESIAN_POINT('Control Point',(-14.367115796,-13.11275,7.81353446449)) ;
#1040=CARTESIAN_POINT('Control Point',(-14.1414966394,-13.11275,8.38806892898)) ;
#1041=CARTESIAN_POINT('Control Point',(-13.687384725,-13.11275,8.84218084339)) ;
#1042=CARTESIAN_POINT('Control Point',(-12.538315796,-13.11275,9.29341915661)) ;
#1043=CARTESIAN_POINT('Control Point',(-11.389246867,-13.11275,8.84218084339)) ;
#1044=CARTESIAN_POINT('Control Point',(-10.9351349526,-13.11275,8.38806892898)) ;
#1045=CARTESIAN_POINT('Control Point',(-10.709515796,-13.11275,7.81353446449)) ;
#1046=CARTESIAN_POINT('Control Point',(-10.709515796,-13.11275,7.239)) ;
#1047=CARTESIAN_POINT('Vertex',(-10.709515796,-13.11275,7.239)) ;
#1049=CARTESIAN_POINT('Vertex',(-14.367115796,-13.11275,7.239)) ;
#1053=CARTESIAN_POINT('Control Point',(-10.709515796,-13.11275,7.239)) ;
#1054=CARTESIAN_POINT('Control Point',(-10.709515796,-13.11275,6.66446553551)) ;
#1055=CARTESIAN_POINT('Control Point',(-10.9351349526,-13.11275,6.08993107102)) ;
#1056=CARTESIAN_POINT('Control Point',(-11.389246867,-13.11275,5.63581915661)) ;
#1057=CARTESIAN_POINT('Control Point',(-12.538315796,-13.11275,5.18458084339)) ;
#1058=CARTESIAN_POINT('Control Point',(-13.687384725,-13.11275,5.63581915661)) ;
#1059=CARTESIAN_POINT('Control Point',(-14.1414966394,-13.11275,6.08993107102)) ;
#1060=CARTESIAN_POINT('Control Point',(-14.367115796,-13.11275,6.66446553551)) ;
#1061=CARTESIAN_POINT('Control Point',(-14.367115796,-13.11275,7.239)) ;
#1068=CARTESIAN_POINT('Control Point',(13.452715796,-13.11275,8.82278725844)) ;
#1069=CARTESIAN_POINT('Control Point',(13.9502772376,-13.11275,8.5355200262)) ;
#1070=CARTESIAN_POINT('Control Point',(14.3350291009,-13.11275,8.05286087275)) ;
#1071=CARTESIAN_POINT('Control Point',(14.5012455977,-13.11275,7.4325324615)) ;
#1072=CARTESIAN_POINT('Control Point',(14.3174949756,-13.11275,6.2117904217)) ;
#1073=CARTESIAN_POINT('Control Point',(13.3521766687,-13.11275,5.44228669511)) ;
#1074=CARTESIAN_POINT('Control Point',(12.7318482575,-13.11275,5.27607019827)) ;
#1075=CARTESIAN_POINT('Control Point',(12.1214772376,-13.11275,5.36794550931)) ;
#1076=CARTESIAN_POINT('Control Point',(11.623915796,-13.11275,5.65521274156)) ;
#1077=CARTESIAN_POINT('Vertex',(11.623915796,-13.11275,5.65521274156)) ;
#1079=CARTESIAN_POINT('Vertex',(13.452715796,-13.11275,8.82278725844)) ;
#1083=CARTESIAN_POINT('Control Point',(11.623915796,-13.11275,5.65521274156)) ;
#1084=CARTESIAN_POINT('Control Point',(11.1263543544,-13.11275,5.9424799738)) ;
#1085=CARTESIAN_POINT('Control Point',(10.7416024911,-13.11275,6.42513912725)) ;
#1086=CARTESIAN_POINT('Control Point',(10.5753859943,-13.11275,7.0454675385)) ;
#1087=CARTESIAN_POINT('Control Point',(10.7591366163,-13.11275,8.2662095783)) ;
#1088=CARTESIAN_POINT('Control Point',(11.7244549232,-13.11275,9.03571330489)) ;
#1089=CARTESIAN_POINT('Control Point',(12.3447833345,-13.11275,9.20192980173)) ;
#1090=CARTESIAN_POINT('Control Point',(12.9551543544,-13.11275,9.11005449069)) ;
#1091=CARTESIAN_POINT('Control Point',(13.452715796,-13.11275,8.82278725844)) ;
#1098=CARTESIAN_POINT('Control Point',(0.9144,-13.11275,-16.0617872584)) ;
#1099=CARTESIAN_POINT('Control Point',(0.416838558403,-13.11275,-16.3490544907)) ;
#1100=CARTESIAN_POINT('Control Point',(-0.193532461498,-13.11275,-16.4409298017)) ;
#1101=CARTESIAN_POINT('Control Point',(-0.813860872749,-13.11275,-16.2747133049)) ;
#1102=CARTESIAN_POINT('Control Point',(-1.77917917964,-13.11275,-15.5052095783)) ;
#1103=CARTESIAN_POINT('Control Point',(-1.96292980173,-13.11275,-14.2844675385)) ;
#1104=CARTESIAN_POINT('Control Point',(-1.79671330489,-13.11275,-13.6641391273)) ;
#1105=CARTESIAN_POINT('Control Point',(-1.4119614416,-13.11275,-13.1814799738)) ;
#1106=CARTESIAN_POINT('Control Point',(-0.9144,-13.11275,-12.8942127416)) ;
#1107=CARTESIAN_POINT('Vertex',(-0.9144,-13.11275,-12.8942127416)) ;
#1109=CARTESIAN_POINT('Vertex',(0.9144,-13.11275,-16.0617872584)) ;
#1113=CARTESIAN_POINT('Control Point',(-0.9144,-13.11275,-12.8942127416)) ;
#1114=CARTESIAN_POINT('Control Point',(-0.416838558403,-13.11275,-12.6069455093)) ;
#1115=CARTESIAN_POINT('Control Point',(0.193532461498,-13.11275,-12.5150701983)) ;
#1116=CARTESIAN_POINT('Control Point',(0.813860872749,-13.11275,-12.6812866951)) ;
#1117=CARTESIAN_POINT('Control Point',(1.77917917964,-13.11275,-13.4507904217)) ;
#1118=CARTESIAN_POINT('Control Point',(1.96292980173,-13.11275,-14.6715324615)) ;
#1119=CARTESIAN_POINT('Control Point',(1.79671330489,-13.11275,-15.2918608727)) ;
#1120=CARTESIAN_POINT('Control Point',(1.4119614416,-13.11275,-15.7745200262)) ;
#1121=CARTESIAN_POINT('Control Point',(0.9144,-13.11275,-16.0617872584)) ;
#1129=CARTESIAN_POINT('Axis2P3D Location',(0.,7.27987500008,0.)) ;
#1142=CARTESIAN_POINT('Axis2P3D Location',(-12.538315796,13.11275,7.239)) ;
#1147=CARTESIAN_POINT('Line Origine',(-9.23631579599,0.28575,7.239)) ;
#1151=CARTESIAN_POINT('Vertex',(-9.23631579599,-12.54125,7.239)) ;
#1154=CARTESIAN_POINT('Axis2P3D Location',(-12.538315796,-12.54125,7.239)) ;
#1158=CARTESIAN_POINT('Vertex',(-15.840315796,-12.54125,7.239)) ;
#1161=CARTESIAN_POINT('Line Origine',(-15.840315796,0.28575,7.239)) ;
#1174=CARTESIAN_POINT('Axis2P3D Location',(-12.538315796,-12.54125,7.239)) ;
#1187=CARTESIAN_POINT('Axis2P3D Location',(-12.538315796,13.11275,7.239)) ;
#1192=CARTESIAN_POINT('Axis2P3D Location',(-12.538315796,-12.54125,7.239)) ;
#1196=CARTESIAN_POINT('Vertex',(-14.367115796,-12.54125,7.239)) ;
#1198=CARTESIAN_POINT('Vertex',(-10.709515796,-12.54125,7.239)) ;
#1201=CARTESIAN_POINT('Line Origine',(-14.367115796,0.,7.239)) ;
#1206=CARTESIAN_POINT('Line Origine',(-10.709515796,0.,7.239)) ;
#1219=CARTESIAN_POINT('Axis2P3D Location',(-12.538315796,-12.54125,7.239)) ;
#1232=CARTESIAN_POINT('Axis2P3D Location',(12.538315796,13.11275,7.239)) ;
#1237=CARTESIAN_POINT('Line Origine',(13.452715796,-5.3290705182E-15,8.82278725844)) ;
#1242=CARTESIAN_POINT('Line Origine',(11.623915796,-5.3290705182E-15,5.65521274156)) ;
#1263=CARTESIAN_POINT('Axis2P3D Location',(2.22044604925E-14,13.11275,-14.478)) ;
#1268=CARTESIAN_POINT('Line Origine',(0.9144,0.,-16.0617872584)) ;
#1273=CARTESIAN_POINT('Line Origine',(-0.9144,0.,-12.8942127416)) ;
#33=DIRECTION('Axis2P3D Direction',(0.,1.,-0.)) ;
#34=DIRECTION('Axis2P3D XDirection',(-1.,0.,6.59194920871E-17)) ;
#71=DIRECTION('Vector Direction',(6.78160568609E-17,0.,1.)) ;
#88=DIRECTION('Vector Direction',(5.08620426457E-17,0.,1.)) ;
#95=DIRECTION('Vector Direction',(-1.,0.,9.32470781837E-17)) ;
#102=DIRECTION('Vector Direction',(5.08620426457E-17,0.,1.)) ;
#119=DIRECTION('Vector Direction',(6.78160568609E-17,0.,1.)) ;
#178=DIRECTION('Vector Direction',(-1.,0.,9.32470781837E-17)) ;
#187=DIRECTION('Vector Direction',(5.08620426457E-17,0.,1.)) ;
#194=DIRECTION('Vector Direction',(-1.,0.,9.32470781837E-17)) ;
#201=DIRECTION('Vector Direction',(5.08620426457E-17,0.,1.)) ;
#315=DIRECTION('Axis2P3D Direction',(0.,1.,-0.)) ;
#316=DIRECTION('Axis2P3D XDirection',(-1.,0.,6.59194920871E-17)) ;
#361=DIRECTION('Vector Direction',(6.78160568609E-17,0.,1.)) ;
#378=DIRECTION('Vector Direction',(5.08620426457E-17,0.,1.)) ;
#385=DIRECTION('Vector Direction',(-1.,0.,0.)) ;
#392=DIRECTION('Vector Direction',(5.08620426457E-17,0.,1.)) ;
#409=DIRECTION('Vector Direction',(6.78160568609E-17,0.,1.)) ;
#526=DIRECTION('Vector Direction',(5.08620426457E-17,0.,1.)) ;
#535=DIRECTION('Vector Direction',(-1.,0.,0.)) ;
#542=DIRECTION('Vector Direction',(5.08620426457E-17,0.,1.)) ;
#549=DIRECTION('Vector Direction',(-1.,0.,9.32470781837E-17)) ;
#623=DIRECTION('Axis2P3D Direction',(0.,-1.,0.)) ;
#624=DIRECTION('Axis2P3D XDirection',(1.,0.,0.)) ;
#628=DIRECTION('Axis2P3D Direction',(0.,-1.,0.)) ;
#637=DIRECTION('Axis2P3D Direction',(0.,-1.,0.)) ;
#646=DIRECTION('Axis2P3D Direction',(0.,-1.,0.)) ;
#655=DIRECTION('Axis2P3D Direction',(0.,-1.,0.)) ;
#673=DIRECTION('Axis2P3D Direction',(0.,-1.,-0.)) ;
#674=DIRECTION('Axis2P3D XDirection',(-0.5,0.,-0.866025403784)) ;
#678=DIRECTION('Axis2P3D Direction',(0.,-1.,-0.)) ;
#687=DIRECTION('Vector Direction',(0.,-1.,0.)) ;
#692=DIRECTION('Vector Direction',(0.,-1.,0.)) ;
#705=DIRECTION('Axis2P3D Direction',(0.,-1.,-0.)) ;
#718=DIRECTION('Axis2P3D Direction',(0.,-1.,0.)) ;
#727=DIRECTION('Axis2P3D Direction',(0.,-1.,0.)) ;
#736=DIRECTION('Axis2P3D Direction',(0.,-1.,0.)) ;
#745=DIRECTION('Axis2P3D Direction',(0.,-1.,0.)) ;
#756=DIRECTION('Axis2P3D Direction',(-0.,-1.,0.)) ;
#757=DIRECTION('Axis2P3D XDirection',(-0.5,0.,0.866025403784)) ;
#761=DIRECTION('Axis2P3D Direction',(-0.,-1.,0.)) ;
#770=DIRECTION('Vector Direction',(0.,-1.,0.)) ;
#775=DIRECTION('Vector Direction',(0.,-1.,0.)) ;
#788=DIRECTION('Axis2P3D Direction',(-0.,-1.,0.)) ;
#801=DIRECTION('Axis2P3D Direction',(0.,1.,-0.)) ;
#802=DIRECTION('Axis2P3D XDirection',(0.56,0.,0.828492607088)) ;
#806=DIRECTION('Axis2P3D Direction',(0.,1.,-0.)) ;
#815=DIRECTION('Vector Direction',(0.,1.,0.)) ;
#822=DIRECTION('Axis2P3D Direction',(0.,1.,-0.)) ;
#829=DIRECTION('Vector Direction',(0.,1.,0.)) ;
#842=DIRECTION('Axis2P3D Direction',(1.,-0.,0.)) ;
#843=DIRECTION('Axis2P3D XDirection',(0.,0.,-1.)) ;
#847=DIRECTION('Vector Direction',(0.,1.,0.)) ;
#856=DIRECTION('Vector Direction',(0.,0.,-1.)) ;
#861=DIRECTION('Vector Direction',(0.,0.,-1.)) ;
#874=DIRECTION('Axis2P3D Direction',(0.,1.,-0.)) ;
#875=DIRECTION('Axis2P3D XDirection',(-1.,0.,6.59194920871E-17)) ;
#910=DIRECTION('Vector Direction',(4.7417787371E-17,0.,1.)) ;
#973=DIRECTION('Axis2P3D Direction',(1.,0.,-7.94573764583E-17)) ;
#974=DIRECTION('Axis2P3D XDirection',(-7.94573764583E-17,0.,-1.)) ;
#978=DIRECTION('Vector Direction',(-7.94573764583E-17,0.,-1.)) ;
#985=DIRECTION('Vector Direction',(0.,1.,0.)) ;
#998=DIRECTION('Axis2P3D Direction',(0.,1.,-0.)) ;
#999=DIRECTION('Axis2P3D XDirection',(-1.,0.,6.59194920871E-17)) ;
#1130=DIRECTION('Axis2P3D Direction',(0.,1.,-0.)) ;
#1131=DIRECTION('Axis2P3D XDirection',(0.256666666667,0.,0.96649998563)) ;
#1143=DIRECTION('Axis2P3D Direction',(0.,-1.,0.)) ;
#1144=DIRECTION('Axis2P3D XDirection',(1.,0.,5.37963912599E-16)) ;
#1148=DIRECTION('Vector Direction',(0.,-1.,0.)) ;
#1155=DIRECTION('Axis2P3D Direction',(0.,-1.,0.)) ;
#1162=DIRECTION('Vector Direction',(0.,-1.,0.)) ;
#1175=DIRECTION('Axis2P3D Direction',(0.,-1.,0.)) ;
#1188=DIRECTION('Axis2P3D Direction',(0.,-1.,0.)) ;
#1189=DIRECTION('Axis2P3D XDirection',(1.,0.,9.71323731081E-16)) ;
#1193=DIRECTION('Axis2P3D Direction',(0.,-1.,0.)) ;
#1202=DIRECTION('Vector Direction',(0.,-1.,0.)) ;
#1207=DIRECTION('Vector Direction',(0.,-1.,0.)) ;
#1220=DIRECTION('Axis2P3D Direction',(0.,-1.,0.)) ;
#1233=DIRECTION('Axis2P3D Direction',(0.,-1.,-0.)) ;
#1234=DIRECTION('Axis2P3D XDirection',(-0.5,0.,-0.866025403784)) ;
#1238=DIRECTION('Vector Direction',(0.,-1.,0.)) ;
#1243=DIRECTION('Vector Direction',(0.,-1.,0.)) ;
#1264=DIRECTION('Axis2P3D Direction',(-0.,-1.,0.)) ;
#1265=DIRECTION('Axis2P3D XDirection',(-0.5,0.,0.866025403784)) ;
#1269=DIRECTION('Vector Direction',(0.,-1.,0.)) ;
#1274=DIRECTION('Vector Direction',(0.,-1.,0.)) ;
#6=PRODUCT_RELATED_PRODUCT_CATEGORY('part',$,(#16)) ;
#5=PRODUCT_CATEGORY('part','specification') ;
#30=STYLED_ITEM(' ',(#29),#22) ;
#313=STYLED_ITEM(' ',(#29),#312) ;
#608=STYLED_ITEM(' ',(#607),#604) ;
#615=STYLED_ITEM(' ',(#614),#611) ;
#619=STYLED_ITEM(' ',(#618),#617) ;
#29=PRESENTATION_STYLE_ASSIGNMENT((#28)) ;
#308=PRESENTATION_STYLE_ASSIGNMENT((#307)) ;
#607=PRESENTATION_STYLE_ASSIGNMENT((#606)) ;
#614=PRESENTATION_STYLE_ASSIGNMENT((#613)) ;
#618=PRESENTATION_STYLE_ASSIGNMENT(()) ;
#670=PRESENTATION_STYLE_ASSIGNMENT((#669)) ;
#606=POINT_STYLE(' ',#605,POSITIVE_LENGTH_MEASURE(1.),#23) ;
#613=POINT_STYLE(' ',#612,POSITIVE_LENGTH_MEASURE(1.),#23) ;
#605=PRE_DEFINED_MARKER('X') ;
#612=PRE_DEFINED_MARKER('X') ;
#28=SURFACE_STYLE_USAGE(.BOTH.,#27) ;
#307=SURFACE_STYLE_USAGE(.BOTH.,#306) ;
#669=SURFACE_STYLE_USAGE(.BOTH.,#668) ;
#27=SURFACE_SIDE_STYLE(' ',(#26)) ;
#306=SURFACE_SIDE_STYLE(' ',(#305)) ;
#668=SURFACE_SIDE_STYLE(' ',(#667)) ;
#26=SURFACE_STYLE_FILL_AREA(#25) ;
#305=SURFACE_STYLE_FILL_AREA(#304) ;
#667=SURFACE_STYLE_FILL_AREA(#666) ;
#25=FILL_AREA_STYLE(' ',(#24)) ;
#304=FILL_AREA_STYLE(' ',(#303)) ;
#666=FILL_AREA_STYLE(' ',(#665)) ;
#24=FILL_AREA_STYLE_COLOUR(' ',#23) ;
#303=FILL_AREA_STYLE_COLOUR(' ',#302) ;
#665=FILL_AREA_STYLE_COLOUR(' ',#664) ;
#72=VECTOR('Line Direction',#71,1.) ;
#89=VECTOR('Line Direction',#88,1.) ;
#96=VECTOR('Line Direction',#95,1.) ;
#103=VECTOR('Line Direction',#102,1.) ;
#120=VECTOR('Line Direction',#119,1.) ;
#179=VECTOR('Line Direction',#178,1.) ;
#188=VECTOR('Line Direction',#187,1.) ;
#195=VECTOR('Line Direction',#194,1.) ;
#202=VECTOR('Line Direction',#201,1.) ;
#362=VECTOR('Line Direction',#361,1.) ;
#379=VECTOR('Line Direction',#378,1.) ;
#386=VECTOR('Line Direction',#385,1.) ;
#393=VECTOR('Line Direction',#392,1.) ;
#410=VECTOR('Line Direction',#409,1.) ;
#527=VECTOR('Line Direction',#526,1.) ;
#536=VECTOR('Line Direction',#535,1.) ;
#543=VECTOR('Line Direction',#542,1.) ;
#550=VECTOR('Line Direction',#549,1.) ;
#688=VECTOR('Line Direction',#687,1.) ;
#693=VECTOR('Line Direction',#692,1.) ;
#771=VECTOR('Line Direction',#770,1.) ;
#776=VECTOR('Line Direction',#775,1.) ;
#816=VECTOR('Line Direction',#815,1.) ;
#830=VECTOR('Line Direction',#829,1.) ;
#848=VECTOR('Line Direction',#847,1.) ;
#857=VECTOR('Line Direction',#856,1.) ;
#862=VECTOR('Line Direction',#861,1.) ;
#911=VECTOR('Line Direction',#910,1.) ;
#979=VECTOR('Line Direction',#978,1.) ;
#986=VECTOR('Line Direction',#985,1.) ;
#1149=VECTOR('Line Direction',#1148,1.) ;
#1163=VECTOR('Line Direction',#1162,1.) ;
#1203=VECTOR('Line Direction',#1202,1.) ;
#1208=VECTOR('Line Direction',#1207,1.) ;
#1239=VECTOR('Line Direction',#1238,1.) ;
#1244=VECTOR('Line Direction',#1243,1.) ;
#1270=VECTOR('Line Direction',#1269,1.) ;
#1275=VECTOR('Line Direction',#1274,1.) ;
#11=UNCERTAINTY_MEASURE_WITH_UNIT(LENGTH_MEASURE(0.005),#8,'distance_accuracy_value','CONFUSED CURVE UNCERTAINTY') ;
#124=ORIENTED_EDGE('',*,*,#44,.T.) ;
#125=ORIENTED_EDGE('',*,*,#63,.T.) ;
#126=ORIENTED_EDGE('',*,*,#69,.F.) ;
#127=ORIENTED_EDGE('',*,*,#76,.T.) ;
#128=ORIENTED_EDGE('',*,*,#86,.T.) ;
#129=ORIENTED_EDGE('',*,*,#93,.T.) ;
#130=ORIENTED_EDGE('',*,*,#100,.T.) ;
#131=ORIENTED_EDGE('',*,*,#107,.T.) ;
#132=ORIENTED_EDGE('',*,*,#117,.T.) ;
#133=ORIENTED_EDGE('',*,*,#122,.T.) ;
#174=ORIENTED_EDGE('',*,*,#155,.F.) ;
#175=ORIENTED_EDGE('',*,*,#172,.F.) ;
#206=ORIENTED_EDGE('',*,*,#185,.T.) ;
#207=ORIENTED_EDGE('',*,*,#192,.T.) ;
#208=ORIENTED_EDGE('',*,*,#199,.T.) ;
#209=ORIENTED_EDGE('',*,*,#204,.F.) ;
#238=ORIENTED_EDGE('',*,*,#225,.F.) ;
#239=ORIENTED_EDGE('',*,*,#236,.F.) ;
#268=ORIENTED_EDGE('',*,*,#255,.F.) ;
#269=ORIENTED_EDGE('',*,*,#266,.F.) ;
#298=ORIENTED_EDGE('',*,*,#285,.F.) ;
#299=ORIENTED_EDGE('',*,*,#296,.F.) ;
#422=ORIENTED_EDGE('',*,*,#326,.F.) ;
#423=ORIENTED_EDGE('',*,*,#345,.F.) ;
#424=ORIENTED_EDGE('',*,*,#351,.F.) ;
#425=ORIENTED_EDGE('',*,*,#359,.T.) ;
#426=ORIENTED_EDGE('',*,*,#366,.F.) ;
#427=ORIENTED_EDGE('',*,*,#376,.F.) ;
#428=ORIENTED_EDGE('',*,*,#383,.F.) ;
#429=ORIENTED_EDGE('',*,*,#390,.F.) ;
#430=ORIENTED_EDGE('',*,*,#397,.F.) ;
#431=ORIENTED_EDGE('',*,*,#407,.F.) ;
#432=ORIENTED_EDGE('',*,*,#414,.F.) ;
#433=ORIENTED_EDGE('',*,*,#420,.T.) ;
#462=ORIENTED_EDGE('',*,*,#449,.T.) ;
#463=ORIENTED_EDGE('',*,*,#460,.T.) ;
#492=ORIENTED_EDGE('',*,*,#479,.T.) ;
#493=ORIENTED_EDGE('',*,*,#490,.T.) ;
#522=ORIENTED_EDGE('',*,*,#509,.T.) ;
#523=ORIENTED_EDGE('',*,*,#520,.T.) ;
#554=ORIENTED_EDGE('',*,*,#533,.F.) ;
#555=ORIENTED_EDGE('',*,*,#540,.F.) ;
#556=ORIENTED_EDGE('',*,*,#547,.T.) ;
#557=ORIENTED_EDGE('',*,*,#552,.F.) ;
#598=ORIENTED_EDGE('',*,*,#579,.T.) ;
#599=ORIENTED_EDGE('',*,*,#596,.T.) ;
#642=ORIENTED_EDGE('',*,*,#635,.F.) ;
#643=ORIENTED_EDGE('',*,*,#640,.F.) ;
#660=ORIENTED_EDGE('',*,*,#653,.T.) ;
#661=ORIENTED_EDGE('',*,*,#658,.T.) ;
#697=ORIENTED_EDGE('',*,*,#685,.T.) ;
#698=ORIENTED_EDGE('',*,*,#690,.T.) ;
#699=ORIENTED_EDGE('',*,*,#640,.T.) ;
#700=ORIENTED_EDGE('',*,*,#695,.F.) ;
#710=ORIENTED_EDGE('',*,*,#708,.T.) ;
#711=ORIENTED_EDGE('',*,*,#695,.T.) ;
#712=ORIENTED_EDGE('',*,*,#635,.T.) ;
#713=ORIENTED_EDGE('',*,*,#690,.F.) ;
#732=ORIENTED_EDGE('',*,*,#725,.F.) ;
#733=ORIENTED_EDGE('',*,*,#730,.F.) ;
#750=ORIENTED_EDGE('',*,*,#743,.T.) ;
#751=ORIENTED_EDGE('',*,*,#748,.T.) ;
#780=ORIENTED_EDGE('',*,*,#768,.T.) ;
#781=ORIENTED_EDGE('',*,*,#773,.T.) ;
#782=ORIENTED_EDGE('',*,*,#725,.T.) ;
#783=ORIENTED_EDGE('',*,*,#778,.F.) ;
#793=ORIENTED_EDGE('',*,*,#791,.T.) ;
#794=ORIENTED_EDGE('',*,*,#778,.T.) ;
#795=ORIENTED_EDGE('',*,*,#730,.T.) ;
#796=ORIENTED_EDGE('',*,*,#773,.F.) ;
#834=ORIENTED_EDGE('',*,*,#813,.F.) ;
#835=ORIENTED_EDGE('',*,*,#820,.T.) ;
#836=ORIENTED_EDGE('',*,*,#827,.T.) ;
#837=ORIENTED_EDGE('',*,*,#832,.F.) ;
#866=ORIENTED_EDGE('',*,*,#854,.F.) ;
#867=ORIENTED_EDGE('',*,*,#859,.T.) ;
#868=ORIENTED_EDGE('',*,*,#832,.T.) ;
#869=ORIENTED_EDGE('',*,*,#864,.F.) ;
#915=ORIENTED_EDGE('',*,*,#908,.T.) ;
#916=ORIENTED_EDGE('',*,*,#864,.T.) ;
#917=ORIENTED_EDGE('',*,*,#827,.F.) ;
#918=ORIENTED_EDGE('',*,*,#913,.F.) ;
#959=ORIENTED_EDGE('',*,*,#940,.T.) ;
#960=ORIENTED_EDGE('',*,*,#957,.T.) ;
#963=ORIENTED_EDGE('',*,*,#685,.F.) ;
#964=ORIENTED_EDGE('',*,*,#708,.F.) ;
#967=ORIENTED_EDGE('',*,*,#791,.F.) ;
#968=ORIENTED_EDGE('',*,*,#768,.F.) ;
#990=ORIENTED_EDGE('',*,*,#913,.T.) ;
#991=ORIENTED_EDGE('',*,*,#820,.F.) ;
#992=ORIENTED_EDGE('',*,*,#983,.F.) ;
#993=ORIENTED_EDGE('',*,*,#988,.T.) ;
#1032=ORIENTED_EDGE('',*,*,#813,.T.) ;
#1033=ORIENTED_EDGE('',*,*,#859,.F.) ;
#1034=ORIENTED_EDGE('',*,*,#1030,.F.) ;
#1035=ORIENTED_EDGE('',*,*,#983,.T.) ;
#1064=ORIENTED_EDGE('',*,*,#1051,.F.) ;
#1065=ORIENTED_EDGE('',*,*,#1062,.F.) ;
#1094=ORIENTED_EDGE('',*,*,#1081,.F.) ;
#1095=ORIENTED_EDGE('',*,*,#1092,.F.) ;
#1124=ORIENTED_EDGE('',*,*,#1111,.F.) ;
#1125=ORIENTED_EDGE('',*,*,#1122,.F.) ;
#1135=ORIENTED_EDGE('',*,*,#854,.T.) ;
#1136=ORIENTED_EDGE('',*,*,#908,.F.) ;
#1137=ORIENTED_EDGE('',*,*,#988,.F.) ;
#1138=ORIENTED_EDGE('',*,*,#1030,.T.) ;
#1167=ORIENTED_EDGE('',*,*,#940,.F.) ;
#1168=ORIENTED_EDGE('',*,*,#1153,.T.) ;
#1169=ORIENTED_EDGE('',*,*,#1160,.T.) ;
#1170=ORIENTED_EDGE('',*,*,#1165,.F.) ;
#1180=ORIENTED_EDGE('',*,*,#957,.F.) ;
#1181=ORIENTED_EDGE('',*,*,#1165,.T.) ;
#1182=ORIENTED_EDGE('',*,*,#1178,.T.) ;
#1183=ORIENTED_EDGE('',*,*,#1153,.F.) ;
#1212=ORIENTED_EDGE('',*,*,#1200,.F.) ;
#1213=ORIENTED_EDGE('',*,*,#1205,.T.) ;
#1214=ORIENTED_EDGE('',*,*,#1062,.T.) ;
#1215=ORIENTED_EDGE('',*,*,#1210,.F.) ;
#1225=ORIENTED_EDGE('',*,*,#1223,.F.) ;
#1226=ORIENTED_EDGE('',*,*,#1210,.T.) ;
#1227=ORIENTED_EDGE('',*,*,#1051,.T.) ;
#1228=ORIENTED_EDGE('',*,*,#1205,.F.) ;
#1248=ORIENTED_EDGE('',*,*,#653,.F.) ;
#1249=ORIENTED_EDGE('',*,*,#1241,.T.) ;
#1250=ORIENTED_EDGE('',*,*,#1092,.T.) ;
#1251=ORIENTED_EDGE('',*,*,#1246,.F.) ;
#1256=ORIENTED_EDGE('',*,*,#658,.F.) ;
#1257=ORIENTED_EDGE('',*,*,#1246,.T.) ;
#1258=ORIENTED_EDGE('',*,*,#1081,.T.) ;
#1259=ORIENTED_EDGE('',*,*,#1241,.F.) ;
#1279=ORIENTED_EDGE('',*,*,#743,.F.) ;
#1280=ORIENTED_EDGE('',*,*,#1272,.T.) ;
#1281=ORIENTED_EDGE('',*,*,#1122,.T.) ;
#1282=ORIENTED_EDGE('',*,*,#1277,.F.) ;
#1287=ORIENTED_EDGE('',*,*,#748,.F.) ;
#1288=ORIENTED_EDGE('',*,*,#1277,.T.) ;
#1289=ORIENTED_EDGE('',*,*,#1111,.T.) ;
#1290=ORIENTED_EDGE('',*,*,#1272,.F.) ;
#1295=ORIENTED_EDGE('',*,*,#1160,.F.) ;
#1296=ORIENTED_EDGE('',*,*,#1178,.F.) ;
#1299=ORIENTED_EDGE('',*,*,#1200,.T.) ;
#1300=ORIENTED_EDGE('',*,*,#1223,.T.) ;
#176=FACE_BOUND('',#173,.T.) ;
#210=FACE_BOUND('',#205,.T.) ;
#240=FACE_BOUND('',#237,.T.) ;
#270=FACE_BOUND('',#267,.T.) ;
#300=FACE_BOUND('',#297,.T.) ;
#464=FACE_BOUND('',#461,.T.) ;
#494=FACE_BOUND('',#491,.T.) ;
#524=FACE_BOUND('',#521,.T.) ;
#558=FACE_BOUND('',#553,.T.) ;
#600=FACE_BOUND('',#597,.T.) ;
#662=FACE_BOUND('',#659,.T.) ;
#752=FACE_BOUND('',#749,.T.) ;
#961=FACE_BOUND('',#958,.T.) ;
#965=FACE_BOUND('',#962,.T.) ;
#969=FACE_BOUND('',#966,.T.) ;
#1066=FACE_BOUND('',#1063,.T.) ;
#1096=FACE_BOUND('',#1093,.T.) ;
#1126=FACE_BOUND('',#1123,.T.) ;
#1301=FACE_BOUND('',#1298,.T.) ;
#621=CLOSED_SHELL('Closed Shell',(#663,#702,#715,#753,#785,#798,#839,#871,#970,#995,#1127,#1140,#1172,#1185,#1217,#1230,#1253,#1261,#1284,#1292,#1302)) ;
#21=OPEN_SHELL('',(#301)) ;
#311=OPEN_SHELL('',(#601)) ;
#22=SHELL_BASED_SURFACE_MODEL('NONE',(#21)) ;
#312=SHELL_BASED_SURFACE_MODEL('NONE',(#311)) ;
#301=ADVANCED_FACE('',(#134,#176,#210,#240,#270,#300),#36,.T.) ;
#601=ADVANCED_FACE('',(#434,#464,#494,#524,#558,#600),#318,.F.) ;
#663=ADVANCED_FACE('',(#644,#662),#626,.F.) ;
#702=ADVANCED_FACE('',(#701),#676,.F.) ;
#715=ADVANCED_FACE('',(#714),#676,.F.) ;
#753=ADVANCED_FACE('',(#734,#752),#626,.F.) ;
#785=ADVANCED_FACE('',(#784),#759,.F.) ;
#798=ADVANCED_FACE('',(#797),#759,.F.) ;
#839=ADVANCED_FACE('',(#838),#804,.F.) ;
#871=ADVANCED_FACE('',(#870),#845,.T.) ;
#970=ADVANCED_FACE('',(#919,#961,#965,#969),#877,.T.) ;
#995=ADVANCED_FACE('',(#994),#976,.F.) ;
#1127=ADVANCED_FACE('',(#1036,#1066,#1096,#1126),#1001,.F.) ;
#1140=ADVANCED_FACE('',(#1139),#1133,.T.) ;
#1172=ADVANCED_FACE('',(#1171),#1146,.F.) ;
#1185=ADVANCED_FACE('',(#1184),#1146,.F.) ;
#1217=ADVANCED_FACE('',(#1216),#1191,.F.) ;
#1230=ADVANCED_FACE('',(#1229),#1191,.F.) ;
#1253=ADVANCED_FACE('',(#1252),#1236,.F.) ;
#1261=ADVANCED_FACE('',(#1260),#1236,.F.) ;
#1284=ADVANCED_FACE('',(#1283),#1267,.F.) ;
#1292=ADVANCED_FACE('',(#1291),#1267,.F.) ;
#1302=ADVANCED_FACE('',(#1297,#1301),#626,.F.) ;
#4=APPLICATION_PROTOCOL_DEFINITION('international standard','automotive_design',2001,#1) ;
#37=B_SPLINE_CURVE_WITH_KNOTS('',1,(#38,#39),.UNSPECIFIED.,.F.,.U.,(2,2),(-9.31790170867,9.31790170867),.UNSPECIFIED.) ;
#45=B_SPLINE_CURVE_WITH_KNOTS('',5,(#46,#47,#48,#49,#50,#51,#52,#53,#54,#55,#56,#57,#58,#59,#60),.UNSPECIFIED.,.F.,.U.,(6,3,3,3,6),(50.5327411557,70.151875616,89.7710100763,109.390144537,129.009278997),.UNSPECIFIED.) ;
#64=B_SPLINE_CURVE_WITH_KNOTS('',1,(#65,#66),.UNSPECIFIED.,.F.,.U.,(2,2),(-9.31790170867,9.31790170867),.UNSPECIFIED.) ;
#77=B_SPLINE_CURVE_WITH_KNOTS('',5,(#78,#79,#80,#81,#82,#83),.UNSPECIFIED.,.F.,.U.,(6,6),(0.,4.98727833757),.UNSPECIFIED.) ;
#108=B_SPLINE_CURVE_WITH_KNOTS('',5,(#109,#110,#111,#112,#113,#114),.UNSPECIFIED.,.F.,.U.,(6,6),(4.98727833757,9.97455667515),.UNSPECIFIED.) ;
#135=B_SPLINE_CURVE_WITH_KNOTS('',5,(#136,#137,#138,#139,#140,#141,#142,#143,#144,#145,#146,#147,#148,#149,#150),.UNSPECIFIED.,.F.,.U.,(6,3,3,3,6),(0.,6.33384348872,12.6676869774,19.0015304662,25.3353739549),.UNSPECIFIED.) ;
#156=B_SPLINE_CURVE_WITH_KNOTS('',5,(#157,#158,#159,#160,#161,#162,#163,#164,#165,#166,#167,#168,#169,#170,#171),.UNSPECIFIED.,.F.,.U.,(6,3,3,3,6),(25.3353739549,31.6692174436,38.0030609323,44.336904421,50.6707479097),.UNSPECIFIED.) ;
#211=B_SPLINE_CURVE_WITH_KNOTS('',5,(#212,#213,#214,#215,#216,#217,#218,#219,#220),.UNSPECIFIED.,.F.,.U.,(6,3,6),(11.4906892898,14.3633616122,17.2360339347),.UNSPECIFIED.) ;
#226=B_SPLINE_CURVE_WITH_KNOTS('',5,(#227,#228,#229,#230,#231,#232,#233,#234,#235),.UNSPECIFIED.,.F.,.U.,(6,3,6),(5.74534464489,8.61801696733,11.4906892898),.UNSPECIFIED.) ;
#241=B_SPLINE_CURVE_WITH_KNOTS('',5,(#242,#243,#244,#245,#246,#247,#248,#249,#250),.UNSPECIFIED.,.F.,.U.,(6,3,6),(11.4906892898,14.3633616122,17.2360339347),.UNSPECIFIED.) ;
#256=B_SPLINE_CURVE_WITH_KNOTS('',5,(#257,#258,#259,#260,#261,#262,#263,#264,#265),.UNSPECIFIED.,.F.,.U.,(6,3,6),(5.74534464489,8.61801696733,11.4906892898),.UNSPECIFIED.) ;
#271=B_SPLINE_CURVE_WITH_KNOTS('',5,(#272,#273,#274,#275,#276,#277,#278,#279,#280),.UNSPECIFIED.,.F.,.U.,(6,3,6),(11.4906892898,14.3633616122,17.2360339347),.UNSPECIFIED.) ;
#286=B_SPLINE_CURVE_WITH_KNOTS('',5,(#287,#288,#289,#290,#291,#292,#293,#294,#295),.UNSPECIFIED.,.F.,.U.,(6,3,6),(5.74534464489,8.61801696733,11.4906892898),.UNSPECIFIED.) ;
#319=B_SPLINE_CURVE_WITH_KNOTS('',1,(#320,#321),.UNSPECIFIED.,.F.,.U.,(2,2),(-9.31790170851,8.52584276238),.UNSPECIFIED.) ;
#327=B_SPLINE_CURVE_WITH_KNOTS('',5,(#328,#329,#330,#331,#332,#333,#334,#335,#336,#337,#338,#339,#340,#341,#342),.UNSPECIFIED.,.F.,.U.,(6,3,3,3,6),(50.5327411557,70.151875616,89.7710100763,109.390144537,129.009278997),.UNSPECIFIED.) ;
#346=B_SPLINE_CURVE_WITH_KNOTS('',1,(#347,#348),.UNSPECIFIED.,.F.,.U.,(2,2),(-8.52584276218,9.31790170871),.UNSPECIFIED.) ;
#352=B_SPLINE_CURVE_WITH_KNOTS('',3,(#353,#354,#355,#356),.UNSPECIFIED.,.F.,.U.,(4,4),(18.3966823978,19.9491133503),.UNSPECIFIED.) ;
#367=B_SPLINE_CURVE_WITH_KNOTS('',5,(#368,#369,#370,#371,#372,#373),.UNSPECIFIED.,.F.,.U.,(6,6),(4.98727833757,9.97455667515),.UNSPECIFIED.) ;
#398=B_SPLINE_CURVE_WITH_KNOTS('',5,(#399,#400,#401,#402,#403,#404),.UNSPECIFIED.,.F.,.U.,(6,6),(0.,4.98727833757),.UNSPECIFIED.) ;
#415=B_SPLINE_CURVE_WITH_KNOTS('',3,(#416,#417,#418,#419),.UNSPECIFIED.,.F.,.U.,(4,4),(9.97455667515,11.5269876277),.UNSPECIFIED.) ;
#435=B_SPLINE_CURVE_WITH_KNOTS('',5,(#436,#437,#438,#439,#440,#441,#442,#443,#444),.UNSPECIFIED.,.F.,.U.,(6,3,6),(5.74534464489,8.61801696733,11.4906892898),.UNSPECIFIED.) ;
#450=B_SPLINE_CURVE_WITH_KNOTS('',5,(#451,#452,#453,#454,#455,#456,#457,#458,#459),.UNSPECIFIED.,.F.,.U.,(6,3,6),(11.4906892898,14.3633616122,17.2360339347),.UNSPECIFIED.) ;
#465=B_SPLINE_CURVE_WITH_KNOTS('',5,(#466,#467,#468,#469,#470,#471,#472,#473,#474),.UNSPECIFIED.,.F.,.U.,(6,3,6),(11.4906892898,14.3633616122,17.2360339347),.UNSPECIFIED.) ;
#480=B_SPLINE_CURVE_WITH_KNOTS('',5,(#481,#482,#483,#484,#485,#486,#487,#488,#489),.UNSPECIFIED.,.F.,.U.,(6,3,6),(5.74534464489,8.61801696733,11.4906892898),.UNSPECIFIED.) ;
#495=B_SPLINE_CURVE_WITH_KNOTS('',5,(#496,#497,#498,#499,#500,#501,#502,#503,#504),.UNSPECIFIED.,.F.,.U.,(6,3,6),(5.74534464489,8.61801696733,11.4906892898),.UNSPECIFIED.) ;
#510=B_SPLINE_CURVE_WITH_KNOTS('',5,(#511,#512,#513,#514,#515,#516,#517,#518,#519),.UNSPECIFIED.,.F.,.U.,(6,3,6),(11.4906892898,14.3633616122,17.2360339347),.UNSPECIFIED.) ;
#559=B_SPLINE_CURVE_WITH_KNOTS('',5,(#560,#561,#562,#563,#564,#565,#566,#567,#568,#569,#570,#571,#572,#573,#574),.UNSPECIFIED.,.F.,.U.,(6,3,3,3,6),(0.,6.33384348872,12.6676869774,19.0015304662,25.3353739549),.UNSPECIFIED.) ;
#580=B_SPLINE_CURVE_WITH_KNOTS('',5,(#581,#582,#583,#584,#585,#586,#587,#588,#589,#590,#591,#592,#593,#594,#595),.UNSPECIFIED.,.F.,.U.,(6,3,3,3,6),(25.3353739549,31.6692174436,38.0030609323,44.336904421,50.6707479097),.UNSPECIFIED.) ;
#878=B_SPLINE_CURVE_WITH_KNOTS('',5,(#879,#880,#881,#882,#883,#884,#885,#886,#887,#888,#889,#890,#891,#892,#893,#894,#895,#896,#897,#898,#899,#900,#901,#902,#903,#904,#905),.UNSPECIFIED.,.F.,.U.,(6,3,3,3,3,3,3,3,6),(34.8685117613,48.5941363401,62.3197609188,76.0453854976,89.7710100763,103.496634655,117.222259234,130.947883813,144.673508391),.UNSPECIFIED.) ;
#920=B_SPLINE_CURVE_WITH_KNOTS('',5,(#921,#922,#923,#924,#925,#926,#927,#928,#929,#930,#931,#932,#933,#934,#935),.UNSPECIFIED.,.F.,.U.,(6,3,3,3,6),(20.7470778843,23.3404626198,25.9338473554,28.5272320909,31.1206168265),.UNSPECIFIED.) ;
#941=B_SPLINE_CURVE_WITH_KNOTS('',5,(#942,#943,#944,#945,#946,#947,#948,#949,#950,#951,#952,#953,#954,#955,#956),.UNSPECIFIED.,.F.,.U.,(6,3,3,3,6),(10.3735389422,12.9669236777,15.5603084132,18.1536931488,20.7470778843),.UNSPECIFIED.) ;
#1002=B_SPLINE_CURVE_WITH_KNOTS('',5,(#1003,#1004,#1005,#1006,#1007,#1008,#1009,#1010,#1011,#1012,#1013,#1014,#1015,#1016,#1017,#1018,#1019,#1020,#1021,#1022,#1023,#1024,#1025,#1026,#1027,#1028,#1029),.UNSPECIFIED.,.F.,.U.,(6,3,3,3,3,3,3,3,6),(34.8685117613,48.5941363401,62.3197609188,76.0453854976,89.7710100763,103.496634655,117.222259234,130.947883813,144.673508391),.UNSPECIFIED.) ;
#1037=B_SPLINE_CURVE_WITH_KNOTS('',5,(#1038,#1039,#1040,#1041,#1042,#1043,#1044,#1045,#1046),.UNSPECIFIED.,.F.,.U.,(6,3,6),(11.4906892898,14.3633616122,17.2360339347),.UNSPECIFIED.) ;
#1052=B_SPLINE_CURVE_WITH_KNOTS('',5,(#1053,#1054,#1055,#1056,#1057,#1058,#1059,#1060,#1061),.UNSPECIFIED.,.F.,.U.,(6,3,6),(5.74534464489,8.61801696733,11.4906892898),.UNSPECIFIED.) ;
#1067=B_SPLINE_CURVE_WITH_KNOTS('',5,(#1068,#1069,#1070,#1071,#1072,#1073,#1074,#1075,#1076),.UNSPECIFIED.,.F.,.U.,(6,3,6),(15.320919053,18.1935913755,21.0662636979),.UNSPECIFIED.) ;
#1082=B_SPLINE_CURVE_WITH_KNOTS('',5,(#1083,#1084,#1085,#1086,#1087,#1088,#1089,#1090,#1091),.UNSPECIFIED.,.F.,.U.,(6,3,6),(9.57557440814,12.4482467306,15.320919053),.UNSPECIFIED.) ;
#1097=B_SPLINE_CURVE_WITH_KNOTS('',5,(#1098,#1099,#1100,#1101,#1102,#1103,#1104,#1105,#1106),.UNSPECIFIED.,.F.,.U.,(6,3,6),(7.66045952651,10.533131849,13.4058041714),.UNSPECIFIED.) ;
#1112=B_SPLINE_CURVE_WITH_KNOTS('',5,(#1113,#1114,#1115,#1116,#1117,#1118,#1119,#1120,#1121),.UNSPECIFIED.,.F.,.U.,(6,3,6),(1.91511488163,4.78778720407,7.66045952651),.UNSPECIFIED.) ;
#617=MANIFOLD_SOLID_BREP('',#621) ;
#630=CIRCLE('generated circle',#629,3.302) ;
#639=CIRCLE('generated circle',#638,3.302) ;
#648=CIRCLE('generated circle',#647,1.8288) ;
#657=CIRCLE('generated circle',#656,1.8288) ;
#680=CIRCLE('generated circle',#679,3.302) ;
#707=CIRCLE('generated circle',#706,3.302) ;
#720=CIRCLE('generated circle',#719,3.302) ;
#729=CIRCLE('generated circle',#728,3.302) ;
#738=CIRCLE('generated circle',#737,1.8288) ;
#747=CIRCLE('generated circle',#746,1.8288) ;
#763=CIRCLE('generated circle',#762,3.302) ;
#790=CIRCLE('generated circle',#789,3.302) ;
#808=CIRCLE('generated circle',#807,8.73125) ;
#824=CIRCLE('generated circle',#823,8.73125) ;
#1157=CIRCLE('generated circle',#1156,3.302) ;
#1177=CIRCLE('generated circle',#1176,3.302) ;
#1195=CIRCLE('generated circle',#1194,1.8288) ;
#1222=CIRCLE('generated circle',#1221,1.8288) ;
#23=COLOUR_RGB('Colour',1.17647058824,1.17647058824,1.17647058824) ;
#302=COLOUR_RGB('Colour',0.882352941176,0.882352941176,0.882352941176) ;
#664=COLOUR_RGB('Colour',0.572549019608,0.823529411765,0.411764705882) ;
#31=INVISIBILITY((#30,#313,#608,#615)) ;
#309=OVER_RIDING_STYLED_ITEM(' ',(#308),#301,#30) ;
#602=OVER_RIDING_STYLED_ITEM(' ',(#308),#601,#313) ;
#671=OVER_RIDING_STYLED_ITEM(' ',(#670),#663,#619) ;
#703=OVER_RIDING_STYLED_ITEM(' ',(#670),#702,#619) ;
#716=OVER_RIDING_STYLED_ITEM(' ',(#670),#715,#619) ;
#754=OVER_RIDING_STYLED_ITEM(' ',(#670),#753,#619) ;
#786=OVER_RIDING_STYLED_ITEM(' ',(#670),#785,#619) ;
#799=OVER_RIDING_STYLED_ITEM(' ',(#670),#798,#619) ;
#840=OVER_RIDING_STYLED_ITEM(' ',(#670),#839,#619) ;
#872=OVER_RIDING_STYLED_ITEM(' ',(#670),#871,#619) ;
#971=OVER_RIDING_STYLED_ITEM(' ',(#670),#970,#619) ;
#996=OVER_RIDING_STYLED_ITEM(' ',(#670),#995,#619) ;
#1128=OVER_RIDING_STYLED_ITEM(' ',(#670),#1127,#619) ;
#1141=OVER_RIDING_STYLED_ITEM(' ',(#670),#1140,#619) ;
#1173=OVER_RIDING_STYLED_ITEM(' ',(#670),#1172,#619) ;
#1186=OVER_RIDING_STYLED_ITEM(' ',(#670),#1185,#619) ;
#1218=OVER_RIDING_STYLED_ITEM(' ',(#670),#1217,#619) ;
#1231=OVER_RIDING_STYLED_ITEM(' ',(#670),#1230,#619) ;
#1254=OVER_RIDING_STYLED_ITEM(' ',(#670),#1253,#619) ;
#1262=OVER_RIDING_STYLED_ITEM(' ',(#670),#1261,#619) ;
#1285=OVER_RIDING_STYLED_ITEM(' ',(#670),#1284,#619) ;
#1293=OVER_RIDING_STYLED_ITEM(' ',(#670),#1292,#619) ;
#1303=OVER_RIDING_STYLED_ITEM(' ',(#670),#1302,#619) ;
#676=CYLINDRICAL_SURFACE('generated cylinder',#675,3.302) ;
#759=CYLINDRICAL_SURFACE('generated cylinder',#758,3.302) ;
#804=CYLINDRICAL_SURFACE('generated cylinder',#803,8.73125) ;
#1133=CYLINDRICAL_SURFACE('generated cylinder',#1132,19.05) ;
#1146=CYLINDRICAL_SURFACE('generated cylinder',#1145,3.302) ;
#1191=CYLINDRICAL_SURFACE('generated cylinder',#1190,1.8288) ;
#1236=CYLINDRICAL_SURFACE('generated cylinder',#1235,1.8288) ;
#1267=CYLINDRICAL_SURFACE('generated cylinder',#1266,1.8288) ;
#44=EDGE_CURVE('',#41,#43,#37,.T.) ;
#63=EDGE_CURVE('',#43,#62,#45,.T.) ;
#69=EDGE_CURVE('',#68,#62,#64,.T.) ;
#76=EDGE_CURVE('',#68,#75,#73,.T.) ;
#86=EDGE_CURVE('',#75,#85,#77,.T.) ;
#93=EDGE_CURVE('',#85,#92,#90,.F.) ;
#100=EDGE_CURVE('',#92,#99,#97,.F.) ;
#107=EDGE_CURVE('',#99,#106,#104,.T.) ;
#117=EDGE_CURVE('',#106,#116,#108,.T.) ;
#122=EDGE_CURVE('',#116,#41,#121,.F.) ;
#155=EDGE_CURVE('',#152,#154,#135,.T.) ;
#172=EDGE_CURVE('',#154,#152,#156,.T.) ;
#185=EDGE_CURVE('',#182,#184,#180,.T.) ;
#192=EDGE_CURVE('',#184,#191,#189,.F.) ;
#199=EDGE_CURVE('',#191,#198,#196,.F.) ;
#204=EDGE_CURVE('',#182,#198,#203,.F.) ;
#225=EDGE_CURVE('',#222,#224,#211,.T.) ;
#236=EDGE_CURVE('',#224,#222,#226,.T.) ;
#255=EDGE_CURVE('',#252,#254,#241,.T.) ;
#266=EDGE_CURVE('',#254,#252,#256,.T.) ;
#285=EDGE_CURVE('',#282,#284,#271,.T.) ;
#296=EDGE_CURVE('',#284,#282,#286,.T.) ;
#326=EDGE_CURVE('',#323,#325,#319,.T.) ;
#345=EDGE_CURVE('',#344,#323,#327,.T.) ;
#351=EDGE_CURVE('',#350,#344,#346,.T.) ;
#359=EDGE_CURVE('',#350,#358,#352,.T.) ;
#366=EDGE_CURVE('',#365,#358,#363,.F.) ;
#376=EDGE_CURVE('',#375,#365,#367,.T.) ;
#383=EDGE_CURVE('',#382,#375,#380,.T.) ;
#390=EDGE_CURVE('',#389,#382,#387,.F.) ;
#397=EDGE_CURVE('',#396,#389,#394,.F.) ;
#407=EDGE_CURVE('',#406,#396,#398,.T.) ;
#414=EDGE_CURVE('',#413,#406,#411,.T.) ;
#420=EDGE_CURVE('',#413,#325,#415,.T.) ;
#449=EDGE_CURVE('',#446,#448,#435,.T.) ;
#460=EDGE_CURVE('',#448,#446,#450,.T.) ;
#479=EDGE_CURVE('',#476,#478,#465,.T.) ;
#490=EDGE_CURVE('',#478,#476,#480,.T.) ;
#509=EDGE_CURVE('',#506,#508,#495,.T.) ;
#520=EDGE_CURVE('',#508,#506,#510,.T.) ;
#533=EDGE_CURVE('',#530,#532,#528,.F.) ;
#540=EDGE_CURVE('',#539,#530,#537,.T.) ;
#547=EDGE_CURVE('',#539,#546,#544,.F.) ;
#552=EDGE_CURVE('',#532,#546,#551,.F.) ;
#579=EDGE_CURVE('',#576,#578,#559,.T.) ;
#596=EDGE_CURVE('',#578,#576,#580,.T.) ;
#635=EDGE_CURVE('',#632,#634,#630,.T.) ;
#640=EDGE_CURVE('',#634,#632,#639,.T.) ;
#653=EDGE_CURVE('',#650,#652,#648,.T.) ;
#658=EDGE_CURVE('',#652,#650,#657,.T.) ;
#685=EDGE_CURVE('',#682,#684,#680,.F.) ;
#690=EDGE_CURVE('',#684,#634,#689,.T.) ;
#695=EDGE_CURVE('',#682,#632,#694,.T.) ;
#708=EDGE_CURVE('',#684,#682,#707,.F.) ;
#725=EDGE_CURVE('',#722,#724,#720,.T.) ;
#730=EDGE_CURVE('',#724,#722,#729,.T.) ;
#743=EDGE_CURVE('',#740,#742,#738,.T.) ;
#748=EDGE_CURVE('',#742,#740,#747,.T.) ;
#768=EDGE_CURVE('',#765,#767,#763,.F.) ;
#773=EDGE_CURVE('',#767,#722,#772,.T.) ;
#778=EDGE_CURVE('',#765,#724,#777,.T.) ;
#791=EDGE_CURVE('',#767,#765,#790,.F.) ;
#813=EDGE_CURVE('',#810,#812,#808,.T.) ;
#820=EDGE_CURVE('',#810,#819,#817,.T.) ;
#827=EDGE_CURVE('',#819,#826,#824,.T.) ;
#832=EDGE_CURVE('',#812,#826,#831,.T.) ;
#854=EDGE_CURVE('',#851,#853,#849,.T.) ;
#859=EDGE_CURVE('',#851,#812,#858,.T.) ;
#864=EDGE_CURVE('',#853,#826,#863,.T.) ;
#908=EDGE_CURVE('',#907,#853,#878,.T.) ;
#913=EDGE_CURVE('',#907,#819,#912,.F.) ;
#940=EDGE_CURVE('',#937,#939,#920,.F.) ;
#957=EDGE_CURVE('',#939,#937,#941,.F.) ;
#983=EDGE_CURVE('',#982,#810,#980,.T.) ;
#988=EDGE_CURVE('',#982,#907,#987,.T.) ;
#1030=EDGE_CURVE('',#982,#851,#1002,.T.) ;
#1051=EDGE_CURVE('',#1048,#1050,#1037,.F.) ;
#1062=EDGE_CURVE('',#1050,#1048,#1052,.F.) ;
#1081=EDGE_CURVE('',#1078,#1080,#1067,.F.) ;
#1092=EDGE_CURVE('',#1080,#1078,#1082,.F.) ;
#1111=EDGE_CURVE('',#1108,#1110,#1097,.F.) ;
#1122=EDGE_CURVE('',#1110,#1108,#1112,.F.) ;
#1153=EDGE_CURVE('',#937,#1152,#1150,.T.) ;
#1160=EDGE_CURVE('',#1152,#1159,#1157,.T.) ;
#1165=EDGE_CURVE('',#939,#1159,#1164,.T.) ;
#1178=EDGE_CURVE('',#1159,#1152,#1177,.T.) ;
#1200=EDGE_CURVE('',#1197,#1199,#1195,.T.) ;
#1205=EDGE_CURVE('',#1197,#1050,#1204,.T.) ;
#1210=EDGE_CURVE('',#1199,#1048,#1209,.T.) ;
#1223=EDGE_CURVE('',#1199,#1197,#1222,.T.) ;
#1241=EDGE_CURVE('',#650,#1080,#1240,.T.) ;
#1246=EDGE_CURVE('',#652,#1078,#1245,.T.) ;
#1272=EDGE_CURVE('',#740,#1110,#1271,.T.) ;
#1277=EDGE_CURVE('',#742,#1108,#1276,.T.) ;
#123=EDGE_LOOP('',(#124,#125,#126,#127,#128,#129,#130,#131,#132,#133)) ;
#173=EDGE_LOOP('',(#174,#175)) ;
#205=EDGE_LOOP('',(#206,#207,#208,#209)) ;
#237=EDGE_LOOP('',(#238,#239)) ;
#267=EDGE_LOOP('',(#268,#269)) ;
#297=EDGE_LOOP('',(#298,#299)) ;
#421=EDGE_LOOP('',(#422,#423,#424,#425,#426,#427,#428,#429,#430,#431,#432,#433)) ;
#461=EDGE_LOOP('',(#462,#463)) ;
#491=EDGE_LOOP('',(#492,#493)) ;
#521=EDGE_LOOP('',(#522,#523)) ;
#553=EDGE_LOOP('',(#554,#555,#556,#557)) ;
#597=EDGE_LOOP('',(#598,#599)) ;
#641=EDGE_LOOP('',(#642,#643)) ;
#659=EDGE_LOOP('',(#660,#661)) ;
#696=EDGE_LOOP('',(#697,#698,#699,#700)) ;
#709=EDGE_LOOP('',(#710,#711,#712,#713)) ;
#731=EDGE_LOOP('',(#732,#733)) ;
#749=EDGE_LOOP('',(#750,#751)) ;
#779=EDGE_LOOP('',(#780,#781,#782,#783)) ;
#792=EDGE_LOOP('',(#793,#794,#795,#796)) ;
#833=EDGE_LOOP('',(#834,#835,#836,#837)) ;
#865=EDGE_LOOP('',(#866,#867,#868,#869)) ;
#914=EDGE_LOOP('',(#915,#916,#917,#918)) ;
#958=EDGE_LOOP('',(#959,#960)) ;
#962=EDGE_LOOP('',(#963,#964)) ;
#966=EDGE_LOOP('',(#967,#968)) ;
#989=EDGE_LOOP('',(#990,#991,#992,#993)) ;
#1031=EDGE_LOOP('',(#1032,#1033,#1034,#1035)) ;
#1063=EDGE_LOOP('',(#1064,#1065)) ;
#1093=EDGE_LOOP('',(#1094,#1095)) ;
#1123=EDGE_LOOP('',(#1124,#1125)) ;
#1134=EDGE_LOOP('',(#1135,#1136,#1137,#1138)) ;
#1166=EDGE_LOOP('',(#1167,#1168,#1169,#1170)) ;
#1179=EDGE_LOOP('',(#1180,#1181,#1182,#1183)) ;
#1211=EDGE_LOOP('',(#1212,#1213,#1214,#1215)) ;
#1224=EDGE_LOOP('',(#1225,#1226,#1227,#1228)) ;
#1247=EDGE_LOOP('',(#1248,#1249,#1250,#1251)) ;
#1255=EDGE_LOOP('',(#1256,#1257,#1258,#1259)) ;
#1278=EDGE_LOOP('',(#1279,#1280,#1281,#1282)) ;
#1286=EDGE_LOOP('',(#1287,#1288,#1289,#1290)) ;
#1294=EDGE_LOOP('',(#1295,#1296)) ;
#1298=EDGE_LOOP('',(#1299,#1300)) ;
#134=FACE_OUTER_BOUND('',#123,.T.) ;
#434=FACE_OUTER_BOUND('',#421,.T.) ;
#644=FACE_OUTER_BOUND('',#641,.T.) ;
#701=FACE_OUTER_BOUND('',#696,.T.) ;
#714=FACE_OUTER_BOUND('',#709,.T.) ;
#734=FACE_OUTER_BOUND('',#731,.T.) ;
#784=FACE_OUTER_BOUND('',#779,.T.) ;
#797=FACE_OUTER_BOUND('',#792,.T.) ;
#838=FACE_OUTER_BOUND('',#833,.T.) ;
#870=FACE_OUTER_BOUND('',#865,.T.) ;
#919=FACE_OUTER_BOUND('',#914,.T.) ;
#994=FACE_OUTER_BOUND('',#989,.T.) ;
#1036=FACE_OUTER_BOUND('',#1031,.T.) ;
#1139=FACE_OUTER_BOUND('',#1134,.T.) ;
#1171=FACE_OUTER_BOUND('',#1166,.T.) ;
#1184=FACE_OUTER_BOUND('',#1179,.T.) ;
#1216=FACE_OUTER_BOUND('',#1211,.T.) ;
#1229=FACE_OUTER_BOUND('',#1224,.T.) ;
#1252=FACE_OUTER_BOUND('',#1247,.T.) ;
#1260=FACE_OUTER_BOUND('',#1255,.T.) ;
#1283=FACE_OUTER_BOUND('',#1278,.T.) ;
#1291=FACE_OUTER_BOUND('',#1286,.T.) ;
#1297=FACE_OUTER_BOUND('',#1294,.T.) ;
#610=GEOMETRIC_SET('NONE',(#604,#611)) ;
#73=LINE('Line',#70,#72) ;
#90=LINE('Line',#87,#89) ;
#97=LINE('Line',#94,#96) ;
#104=LINE('Line',#101,#103) ;
#121=LINE('Line',#118,#120) ;
#180=LINE('Line',#177,#179) ;
#189=LINE('Line',#186,#188) ;
#196=LINE('Line',#193,#195) ;
#203=LINE('Line',#200,#202) ;
#363=LINE('Line',#360,#362) ;
#380=LINE('Line',#377,#379) ;
#387=LINE('Line',#384,#386) ;
#394=LINE('Line',#391,#393) ;
#411=LINE('Line',#408,#410) ;
#528=LINE('Line',#525,#527) ;
#537=LINE('Line',#534,#536) ;
#544=LINE('Line',#541,#543) ;
#551=LINE('Line',#548,#550) ;
#689=LINE('Line',#686,#688) ;
#694=LINE('Line',#691,#693) ;
#772=LINE('Line',#769,#771) ;
#777=LINE('Line',#774,#776) ;
#817=LINE('Line',#814,#816) ;
#831=LINE('Line',#828,#830) ;
#849=LINE('Line',#846,#848) ;
#858=LINE('Line',#855,#857) ;
#863=LINE('Line',#860,#862) ;
#912=LINE('Line',#909,#911) ;
#980=LINE('Line',#977,#979) ;
#987=LINE('Line',#984,#986) ;
#1150=LINE('Line',#1147,#1149) ;
#1164=LINE('Line',#1161,#1163) ;
#1204=LINE('Line',#1201,#1203) ;
#1209=LINE('Line',#1206,#1208) ;
#1240=LINE('Line',#1237,#1239) ;
#1245=LINE('Line',#1242,#1244) ;
#1271=LINE('Line',#1268,#1270) ;
#1276=LINE('Line',#1273,#1275) ;
#36=PLANE('',#35) ;
#318=PLANE('',#317) ;
#626=PLANE('',#625) ;
#845=PLANE('',#844) ;
#877=PLANE('',#876) ;
#976=PLANE('',#975) ;
#1001=PLANE('',#1000) ;
#7=PRODUCT_CATEGORY_RELATIONSHIP(' ',' ',#5,#6) ;
#17=PRODUCT_DEFINITION_FORMATION_WITH_SPECIFIED_SOURCE('',' ',#16,.NOT_KNOWN.) ;
#20=SHAPE_DEFINITION_REPRESENTATION(#19,#13) ;
#41=VERTEX_POINT('',#40) ;
#43=VERTEX_POINT('',#42) ;
#62=VERTEX_POINT('',#61) ;
#68=VERTEX_POINT('',#67) ;
#75=VERTEX_POINT('',#74) ;
#85=VERTEX_POINT('',#84) ;
#92=VERTEX_POINT('',#91) ;
#99=VERTEX_POINT('',#98) ;
#106=VERTEX_POINT('',#105) ;
#116=VERTEX_POINT('',#115) ;
#152=VERTEX_POINT('',#151) ;
#154=VERTEX_POINT('',#153) ;
#182=VERTEX_POINT('',#181) ;
#184=VERTEX_POINT('',#183) ;
#191=VERTEX_POINT('',#190) ;
#198=VERTEX_POINT('',#197) ;
#222=VERTEX_POINT('',#221) ;
#224=VERTEX_POINT('',#223) ;
#252=VERTEX_POINT('',#251) ;
#254=VERTEX_POINT('',#253) ;
#282=VERTEX_POINT('',#281) ;
#284=VERTEX_POINT('',#283) ;
#323=VERTEX_POINT('',#322) ;
#325=VERTEX_POINT('',#324) ;
#344=VERTEX_POINT('',#343) ;
#350=VERTEX_POINT('',#349) ;
#358=VERTEX_POINT('',#357) ;
#365=VERTEX_POINT('',#364) ;
#375=VERTEX_POINT('',#374) ;
#382=VERTEX_POINT('',#381) ;
#389=VERTEX_POINT('',#388) ;
#396=VERTEX_POINT('',#395) ;
#406=VERTEX_POINT('',#405) ;
#413=VERTEX_POINT('',#412) ;
#446=VERTEX_POINT('',#445) ;
#448=VERTEX_POINT('',#447) ;
#476=VERTEX_POINT('',#475) ;
#478=VERTEX_POINT('',#477) ;
#506=VERTEX_POINT('',#505) ;
#508=VERTEX_POINT('',#507) ;
#530=VERTEX_POINT('',#529) ;
#532=VERTEX_POINT('',#531) ;
#539=VERTEX_POINT('',#538) ;
#546=VERTEX_POINT('',#545) ;
#576=VERTEX_POINT('',#575) ;
#578=VERTEX_POINT('',#577) ;
#632=VERTEX_POINT('',#631) ;
#634=VERTEX_POINT('',#633) ;
#650=VERTEX_POINT('',#649) ;
#652=VERTEX_POINT('',#651) ;
#682=VERTEX_POINT('',#681) ;
#684=VERTEX_POINT('',#683) ;
#722=VERTEX_POINT('',#721) ;
#724=VERTEX_POINT('',#723) ;
#740=VERTEX_POINT('',#739) ;
#742=VERTEX_POINT('',#741) ;
#765=VERTEX_POINT('',#764) ;
#767=VERTEX_POINT('',#766) ;
#810=VERTEX_POINT('',#809) ;
#812=VERTEX_POINT('',#811) ;
#819=VERTEX_POINT('',#818) ;
#826=VERTEX_POINT('',#825) ;
#851=VERTEX_POINT('',#850) ;
#853=VERTEX_POINT('',#852) ;
#907=VERTEX_POINT('',#906) ;
#937=VERTEX_POINT('',#936) ;
#939=VERTEX_POINT('',#938) ;
#982=VERTEX_POINT('',#981) ;
#1048=VERTEX_POINT('',#1047) ;
#1050=VERTEX_POINT('',#1049) ;
#1078=VERTEX_POINT('',#1077) ;
#1080=VERTEX_POINT('',#1079) ;
#1108=VERTEX_POINT('',#1107) ;
#1110=VERTEX_POINT('',#1109) ;
#1152=VERTEX_POINT('',#1151) ;
#1159=VERTEX_POINT('',#1158) ;
#1197=VERTEX_POINT('',#1196) ;
#1199=VERTEX_POINT('',#1198) ;
#8=(LENGTH_UNIT()NAMED_UNIT(*)SI_UNIT(.MILLI.,.METRE.)) ;
#9=(NAMED_UNIT(*)PLANE_ANGLE_UNIT()SI_UNIT($,.RADIAN.)) ;
#10=(NAMED_UNIT(*)SI_UNIT($,.STERADIAN.)SOLID_ANGLE_UNIT()) ;
#12=(GEOMETRIC_REPRESENTATION_CONTEXT(3)GLOBAL_UNCERTAINTY_ASSIGNED_CONTEXT((#11))GLOBAL_UNIT_ASSIGNED_CONTEXT((#8,#9,#10))REPRESENTATION_CONTEXT(' ',' ')) ;
ENDSEC;
END-ISO-10303-21;
