ISO-10303-21;
HEADER;
FILE_DESCRIPTION(('3DEXPERIENCE STEP','CAx-IF Rec.Pracs.--- Model Styling and Organization---1.5--- 2016-08-15','CAx-IF Rec.Pracs.---Supplemental Geometry---1.0---2011-11-01','CAx-IF Rec.Pracs.---User Defined Attributes---1.5---2016-08-15','CAx-IF Rec.Pracs.--- Composite Materials ---1.1---2010-07-15'),'2;1');

FILE_NAME('/SPA_UserData/ContentOptimizer/2998854_2026-04-23-03h20m43-455006384/CATTemp/CO_SPACOConvertCgm0002-PID2998896/ResultFile.step','2026-04-23T03:20:48+00:00',('none'),('none'),'3DEXPERIENCE Platform3D Asset Translator 6.1.3','3DEXPERIENCE Platform STEP AP214 v3','none');

FILE_SCHEMA(('AUTOMOTIVE_DESIGN { 1 0 10303 214 1 1 1 1 }'));

ENDSEC;
DATA;
#16=PRODUCT('ResultFile','ResultFile','',(#2)) ;
#2=PRODUCT_CONTEXT(' ',#1,'mechanical') ;
#1=APPLICATION_CONTEXT('automotive design') ;
#18=PRODUCT_DEFINITION('ResultFile',' ',#17,#3) ;
#3=PRODUCT_DEFINITION_CONTEXT('part definition',#1,' ') ;
#19=PRODUCT_DEFINITION_SHAPE(' ',' ',#18) ;
#24=SHAPE_ASPECT('','',#19,.F.) ;
#1040=SHAPE_ASPECT('','',#19,.F.) ;
#1047=SHAPE_ASPECT('','',#19,.F.) ;
#1053=SHAPE_ASPECT('','',#19,.F.) ;
#1059=SHAPE_ASPECT('','',#19,.F.) ;
#1060=MECHANICAL_DESIGN_GEOMETRIC_PRESENTATION_REPRESENTATION(' ',(#73,#105,#294,#319,#337,#369,#394,#419,#451,#481,#494,#526,#551,#576,#601,#626,#651,#683,#708,#733,#765,#790,#815,#840,#865,#883,#901,#926,#944,#969,#1019,#1032,#23),#12) ;
#1061=MECHANICAL_DESIGN_GEOMETRIC_PRESENTATION_REPRESENTATION(' ',(#1038,#1046,#1052,#1058),#12) ;
#13=SHAPE_REPRESENTATION(' ',(#15,#21,#1041),#12) ;
#15=AXIS2_PLACEMENT_3D('',#14,$,$) ;
#29=AXIS2_PLACEMENT_3D('Cone Axis2P3D',#26,#27,#28) ;
#42=AXIS2_PLACEMENT_3D('Circle Axis2P3D',#40,#41,$) ;
#56=AXIS2_PLACEMENT_3D('Circle Axis2P3D',#54,#55,$) ;
#77=AXIS2_PLACEMENT_3D('Plane Axis2P3D',#74,#75,#76) ;
#109=AXIS2_PLACEMENT_3D('Plane Axis2P3D',#106,#107,#108) ;
#298=AXIS2_PLACEMENT_3D('Plane Axis2P3D',#295,#296,#297) ;
#323=AXIS2_PLACEMENT_3D('Cone Axis2P3D',#320,#321,#322) ;
#327=AXIS2_PLACEMENT_3D('Circle Axis2P3D',#325,#326,$) ;
#341=AXIS2_PLACEMENT_3D('Cylinder Axis2P3D',#338,#339,#340) ;
#352=AXIS2_PLACEMENT_3D('Circle Axis2P3D',#350,#351,$) ;
#373=AXIS2_PLACEMENT_3D('Plane Axis2P3D',#370,#371,#372) ;
#398=AXIS2_PLACEMENT_3D('Cylinder Axis2P3D',#395,#396,#397) ;
#409=AXIS2_PLACEMENT_3D('Circle Axis2P3D',#407,#408,$) ;
#423=AXIS2_PLACEMENT_3D('Cone Axis2P3D',#420,#421,#422) ;
#441=AXIS2_PLACEMENT_3D('Circle Axis2P3D',#439,#440,$) ;
#455=AXIS2_PLACEMENT_3D('Plane Axis2P3D',#452,#453,#454) ;
#485=AXIS2_PLACEMENT_3D('Plane Axis2P3D',#482,#483,#484) ;
#498=AXIS2_PLACEMENT_3D('Plane Axis2P3D',#495,#496,#497) ;
#530=AXIS2_PLACEMENT_3D('Plane Axis2P3D',#527,#528,#529) ;
#555=AXIS2_PLACEMENT_3D('Plane Axis2P3D',#552,#553,#554) ;
#580=AXIS2_PLACEMENT_3D('Plane Axis2P3D',#577,#578,#579) ;
#605=AXIS2_PLACEMENT_3D('Plane Axis2P3D',#602,#603,#604) ;
#630=AXIS2_PLACEMENT_3D('Plane Axis2P3D',#627,#628,#629) ;
#655=AXIS2_PLACEMENT_3D('Cylinder Axis2P3D',#652,#653,#654) ;
#659=AXIS2_PLACEMENT_3D('Circle Axis2P3D',#657,#658,$) ;
#687=AXIS2_PLACEMENT_3D('Plane Axis2P3D',#684,#685,#686) ;
#712=AXIS2_PLACEMENT_3D('Cylinder Axis2P3D',#709,#710,#711) ;
#716=AXIS2_PLACEMENT_3D('Circle Axis2P3D',#714,#715,$) ;
#737=AXIS2_PLACEMENT_3D('Plane Axis2P3D',#734,#735,#736) ;
#769=AXIS2_PLACEMENT_3D('Plane Axis2P3D',#766,#767,#768) ;
#794=AXIS2_PLACEMENT_3D('Plane Axis2P3D',#791,#792,#793) ;
#819=AXIS2_PLACEMENT_3D('Plane Axis2P3D',#816,#817,#818) ;
#844=AXIS2_PLACEMENT_3D('Plane Axis2P3D',#841,#842,#843) ;
#869=AXIS2_PLACEMENT_3D('Cylinder Axis2P3D',#866,#867,#868) ;
#873=AXIS2_PLACEMENT_3D('Circle Axis2P3D',#871,#872,$) ;
#887=AXIS2_PLACEMENT_3D('Cylinder Axis2P3D',#884,#885,#886) ;
#891=AXIS2_PLACEMENT_3D('Circle Axis2P3D',#889,#890,$) ;
#905=AXIS2_PLACEMENT_3D('Plane Axis2P3D',#902,#903,#904) ;
#930=AXIS2_PLACEMENT_3D('Plane Axis2P3D',#927,#928,#929) ;
#948=AXIS2_PLACEMENT_3D('Plane Axis2P3D',#945,#946,#947) ;
#973=AXIS2_PLACEMENT_3D('Plane Axis2P3D',#970,#971,#972) ;
#1023=AXIS2_PLACEMENT_3D('Cone Axis2P3D',#1020,#1021,#1022) ;
#14=CARTESIAN_POINT('',(0.,0.,0.)) ;
#26=CARTESIAN_POINT('Axis2P3D Location',(-4.7625,2.6645352591E-15,14.2875)) ;
#31=CARTESIAN_POINT('Line Origine',(3.96875,-8.73125,14.2875)) ;
#35=CARTESIAN_POINT('Vertex',(3.175,-7.9375,14.2875)) ;
#37=CARTESIAN_POINT('Vertex',(4.7625,-9.525,14.2875)) ;
#40=CARTESIAN_POINT('Axis2P3D Location',(4.7625,-2.76101316827E-30,14.2875)) ;
#44=CARTESIAN_POINT('Vertex',(4.7625,9.525,14.2875)) ;
#47=CARTESIAN_POINT('Line Origine',(3.96875,8.73125,14.2875)) ;
#51=CARTESIAN_POINT('Vertex',(3.175,7.9375,14.2875)) ;
#54=CARTESIAN_POINT('Axis2P3D Location',(3.175,4.4408920985E-16,14.2875)) ;
#74=CARTESIAN_POINT('Axis2P3D Location',(4.7625,9.525,16.66875)) ;
#79=CARTESIAN_POINT('Line Origine',(4.7625,9.525,16.66875)) ;
#83=CARTESIAN_POINT('Vertex',(4.7625,9.525,19.05)) ;
#86=CARTESIAN_POINT('Line Origine',(3.96875,8.73125,19.05)) ;
#90=CARTESIAN_POINT('Vertex',(3.175,7.9375,19.05)) ;
#93=CARTESIAN_POINT('Line Origine',(3.175,7.9375,16.66875)) ;
#106=CARTESIAN_POINT('Axis2P3D Location',(4.7625,0.,0.)) ;
#111=CARTESIAN_POINT('Line Origine',(4.7625,5.00932628711E-13,6.35)) ;
#115=CARTESIAN_POINT('Vertex',(4.7625,-13.23975,6.35)) ;
#117=CARTESIAN_POINT('Vertex',(4.7625,-19.58975,6.35)) ;
#120=CARTESIAN_POINT('Line Origine',(4.7625,-19.58975,16.66875)) ;
#124=CARTESIAN_POINT('Vertex',(4.7625,-19.58975,3.5527136788E-15)) ;
#127=CARTESIAN_POINT('Line Origine',(4.7625,5.00932628711E-13,3.5527136788E-15)) ;
#131=CARTESIAN_POINT('Vertex',(4.7625,19.58975,4.4408920985E-16)) ;
#134=CARTESIAN_POINT('Line Origine',(4.7625,19.58975,16.66875)) ;
#138=CARTESIAN_POINT('Vertex',(4.7625,19.58975,6.35)) ;
#141=CARTESIAN_POINT('Line Origine',(4.7625,5.00932628711E-13,6.35)) ;
#145=CARTESIAN_POINT('Vertex',(4.7625,13.23975,6.35)) ;
#148=CARTESIAN_POINT('Line Origine',(4.7625,13.23975,16.66875)) ;
#152=CARTESIAN_POINT('Vertex',(4.7625,13.23975,15.875)) ;
#155=CARTESIAN_POINT('Line Origine',(4.7625,5.00932628711E-13,15.875)) ;
#159=CARTESIAN_POINT('Vertex',(4.7625,19.58975,15.875)) ;
#162=CARTESIAN_POINT('Line Origine',(4.7625,19.58975,16.66875)) ;
#166=CARTESIAN_POINT('Vertex',(4.7625,19.58975,19.4016494145)) ;
#170=CARTESIAN_POINT('Control Point',(4.7625,19.58975,19.4016494145)) ;
#171=CARTESIAN_POINT('Control Point',(4.7625,19.58975,19.9909293433)) ;
#172=CARTESIAN_POINT('Control Point',(4.7625,19.4437701434,20.580678176)) ;
#173=CARTESIAN_POINT('Control Point',(4.7625,19.1526305886,21.1139244266)) ;
#174=CARTESIAN_POINT('Control Point',(4.7625,18.7542430451,21.5481342833)) ;
#175=CARTESIAN_POINT('Vertex',(4.7625,18.7542430451,21.5481342833)) ;
#179=CARTESIAN_POINT('Control Point',(4.7625,18.7542430451,21.5481342833)) ;
#180=CARTESIAN_POINT('Control Point',(4.7625,9.82482526568,31.2804697377)) ;
#181=CARTESIAN_POINT('Vertex',(4.7625,9.82482526568,31.2804697377)) ;
#185=CARTESIAN_POINT('Control Point',(4.7625,9.82482526568,31.2804697377)) ;
#186=CARTESIAN_POINT('Control Point',(4.7625,8.93575507895,32.2494835652)) ;
#187=CARTESIAN_POINT('Control Point',(4.7625,7.77759645629,32.9737783424)) ;
#188=CARTESIAN_POINT('Control Point',(4.7625,6.4609184868,33.3375)) ;
#189=CARTESIAN_POINT('Control Point',(4.7625,5.14583917558,33.3375)) ;
#190=CARTESIAN_POINT('Vertex',(4.7625,5.14583917558,33.3375)) ;
#193=CARTESIAN_POINT('Line Origine',(4.7625,5.00932628711E-13,33.3375)) ;
#197=CARTESIAN_POINT('Vertex',(4.7625,-5.14583917558,33.3375)) ;
#201=CARTESIAN_POINT('Control Point',(4.7625,-5.14583917558,33.3375)) ;
#202=CARTESIAN_POINT('Control Point',(4.7625,-6.4609184868,33.3375)) ;
#203=CARTESIAN_POINT('Control Point',(4.7625,-7.77759645629,32.9737783424)) ;
#204=CARTESIAN_POINT('Control Point',(4.7625,-8.93575507895,32.2494835652)) ;
#205=CARTESIAN_POINT('Control Point',(4.7625,-9.82482526568,31.2804697377)) ;
#206=CARTESIAN_POINT('Vertex',(4.7625,-9.82482526568,31.2804697377)) ;
#210=CARTESIAN_POINT('Control Point',(4.7625,-9.82482526568,31.2804697377)) ;
#211=CARTESIAN_POINT('Control Point',(4.7625,-18.7542430451,21.5481342833)) ;
#212=CARTESIAN_POINT('Vertex',(4.7625,-18.7542430451,21.5481342833)) ;
#216=CARTESIAN_POINT('Control Point',(4.7625,-18.7542430451,21.5481342833)) ;
#217=CARTESIAN_POINT('Control Point',(4.7625,-19.1526305886,21.1139244266)) ;
#218=CARTESIAN_POINT('Control Point',(4.7625,-19.4437701434,20.580678176)) ;
#219=CARTESIAN_POINT('Control Point',(4.7625,-19.58975,19.9909293433)) ;
#220=CARTESIAN_POINT('Control Point',(4.7625,-19.58975,19.4016494145)) ;
#221=CARTESIAN_POINT('Vertex',(4.7625,-19.58975,19.4016494145)) ;
#224=CARTESIAN_POINT('Line Origine',(4.7625,-19.58975,16.66875)) ;
#228=CARTESIAN_POINT('Vertex',(4.7625,-19.58975,15.8750000007)) ;
#231=CARTESIAN_POINT('Line Origine',(4.7625,5.00932628711E-13,15.875)) ;
#235=CARTESIAN_POINT('Vertex',(4.7625,-13.23975,15.875)) ;
#238=CARTESIAN_POINT('Line Origine',(4.7625,-13.23975,16.66875)) ;
#264=CARTESIAN_POINT('Control Point',(4.7625,9.525,19.05)) ;
#265=CARTESIAN_POINT('Control Point',(4.7625,9.525,20.5461835013)) ;
#266=CARTESIAN_POINT('Control Point',(4.7625,9.2312250565,22.0423670025)) ;
#267=CARTESIAN_POINT('Control Point',(4.7625,8.64338483541,23.4615388368)) ;
#268=CARTESIAN_POINT('Control Point',(4.7625,6.94292234549,25.9929223455)) ;
#269=CARTESIAN_POINT('Control Point',(4.7625,4.41153883681,27.6933848354)) ;
#270=CARTESIAN_POINT('Control Point',(4.7625,2.99236700254,28.2812250565)) ;
#271=CARTESIAN_POINT('Control Point',(4.7625,3.4019497897E-15,28.8687749435)) ;
#272=CARTESIAN_POINT('Control Point',(4.7625,-2.99236700254,28.2812250565)) ;
#273=CARTESIAN_POINT('Control Point',(4.7625,-4.41153883681,27.6933848354)) ;
#274=CARTESIAN_POINT('Control Point',(4.7625,-6.94292234549,25.9929223455)) ;
#275=CARTESIAN_POINT('Control Point',(4.7625,-8.64338483541,23.4615388368)) ;
#276=CARTESIAN_POINT('Control Point',(4.7625,-9.2312250565,22.0423670025)) ;
#277=CARTESIAN_POINT('Control Point',(4.7625,-9.525,20.5461835013)) ;
#278=CARTESIAN_POINT('Control Point',(4.7625,-9.525,19.05)) ;
#279=CARTESIAN_POINT('Vertex',(4.7625,-9.525,19.05)) ;
#282=CARTESIAN_POINT('Line Origine',(4.7625,-9.525,16.66875)) ;
#295=CARTESIAN_POINT('Axis2P3D Location',(4.7625,-9.525,16.66875)) ;
#300=CARTESIAN_POINT('Line Origine',(3.96875,-8.73125,19.05)) ;
#304=CARTESIAN_POINT('Vertex',(3.175,-7.9375,19.05)) ;
#307=CARTESIAN_POINT('Line Origine',(3.175,-7.9375,16.66875)) ;
#320=CARTESIAN_POINT('Axis2P3D Location',(-4.7625,-1.15463194561E-14,19.05)) ;
#325=CARTESIAN_POINT('Axis2P3D Location',(3.175,-4.4408920985E-16,19.05)) ;
#338=CARTESIAN_POINT('Axis2P3D Location',(-4.7625,0.,19.05)) ;
#343=CARTESIAN_POINT('Line Origine',(0.,-7.9375,19.05)) ;
#347=CARTESIAN_POINT('Vertex',(-3.175,-7.9375,19.05)) ;
#350=CARTESIAN_POINT('Axis2P3D Location',(-3.175,0.,19.05)) ;
#354=CARTESIAN_POINT('Vertex',(-3.175,7.9375,19.05)) ;
#357=CARTESIAN_POINT('Line Origine',(0.,7.9375,19.05)) ;
#370=CARTESIAN_POINT('Axis2P3D Location',(-4.7625,-7.9375,14.2875)) ;
#375=CARTESIAN_POINT('Line Origine',(0.,-7.9375,14.2875)) ;
#379=CARTESIAN_POINT('Vertex',(-3.175,-7.9375,14.2875)) ;
#382=CARTESIAN_POINT('Line Origine',(-3.175,-7.9375,16.66875)) ;
#395=CARTESIAN_POINT('Axis2P3D Location',(-4.7625,0.,14.2875)) ;
#400=CARTESIAN_POINT('Line Origine',(0.,7.9375,14.2875)) ;
#404=CARTESIAN_POINT('Vertex',(-3.175,7.9375,14.2875)) ;
#407=CARTESIAN_POINT('Axis2P3D Location',(-3.175,0.,14.2875)) ;
#420=CARTESIAN_POINT('Axis2P3D Location',(4.7625,2.6645352591E-15,14.2875)) ;
#425=CARTESIAN_POINT('Line Origine',(-3.96875,-8.73125,14.2875)) ;
#429=CARTESIAN_POINT('Vertex',(-4.7625,-9.525,14.2875)) ;
#432=CARTESIAN_POINT('Line Origine',(-3.96875,8.73125,14.2875)) ;
#436=CARTESIAN_POINT('Vertex',(-4.7625,9.525,14.2875)) ;
#439=CARTESIAN_POINT('Axis2P3D Location',(-4.7625,-2.76101316827E-30,14.2875)) ;
#452=CARTESIAN_POINT('Axis2P3D Location',(-4.7625,9.525,16.66875)) ;
#457=CARTESIAN_POINT('Line Origine',(-3.175,7.9375,16.66875)) ;
#462=CARTESIAN_POINT('Line Origine',(-3.96875,8.73125,19.05)) ;
#466=CARTESIAN_POINT('Vertex',(-4.7625,9.525,19.05)) ;
#469=CARTESIAN_POINT('Line Origine',(-4.7625,9.525,16.66875)) ;
#482=CARTESIAN_POINT('Axis2P3D Location',(-4.7625,7.9375,19.05)) ;
#495=CARTESIAN_POINT('Axis2P3D Location',(-4.7625,-19.58975,6.35)) ;
#500=CARTESIAN_POINT('Line Origine',(-4.7625,-19.58975,3.175)) ;
#504=CARTESIAN_POINT('Vertex',(-4.7625,-19.58975,6.35)) ;
#506=CARTESIAN_POINT('Vertex',(-4.7625,-19.58975,3.5527136788E-15)) ;
#509=CARTESIAN_POINT('Line Origine',(0.,-19.58975,3.72528674575E-10)) ;
#514=CARTESIAN_POINT('Line Origine',(0.,-19.58975,6.35)) ;
#527=CARTESIAN_POINT('Axis2P3D Location',(-4.7625,-19.58975,3.5527136788E-15)) ;
#532=CARTESIAN_POINT('Line Origine',(-4.7625,0.,3.5527136788E-15)) ;
#536=CARTESIAN_POINT('Vertex',(-4.7625,19.58975,4.4408920985E-16)) ;
#539=CARTESIAN_POINT('Line Origine',(0.,19.58975,3.5527136788E-15)) ;
#552=CARTESIAN_POINT('Axis2P3D Location',(-4.7625,19.58975,4.4408920985E-16)) ;
#557=CARTESIAN_POINT('Line Origine',(-4.7625,19.58975,3.175)) ;
#561=CARTESIAN_POINT('Vertex',(-4.7625,19.58975,6.35)) ;
#564=CARTESIAN_POINT('Line Origine',(0.,19.58975,6.34999999963)) ;
#577=CARTESIAN_POINT('Axis2P3D Location',(-4.7625,19.58975,6.35)) ;
#582=CARTESIAN_POINT('Line Origine',(-4.7625,16.41475,6.35)) ;
#586=CARTESIAN_POINT('Vertex',(-4.7625,13.23975,6.35)) ;
#589=CARTESIAN_POINT('Line Origine',(0.,13.2397500004,6.35)) ;
#602=CARTESIAN_POINT('Axis2P3D Location',(-4.7625,13.23975,6.35)) ;
#607=CARTESIAN_POINT('Line Origine',(-4.7625,13.23975,11.1125)) ;
#611=CARTESIAN_POINT('Vertex',(-4.7625,13.23975,15.875)) ;
#614=CARTESIAN_POINT('Line Origine',(0.,13.23975,15.8750000004)) ;
#627=CARTESIAN_POINT('Axis2P3D Location',(-4.7625,13.23975,15.875)) ;
#632=CARTESIAN_POINT('Line Origine',(-4.7625,16.41475,15.875)) ;
#636=CARTESIAN_POINT('Vertex',(-4.7625,19.58975,15.875)) ;
#639=CARTESIAN_POINT('Line Origine',(0.,19.5897499996,15.875)) ;
#652=CARTESIAN_POINT('Axis2P3D Location',(-4.7625,5.14583917558,26.9875)) ;
#657=CARTESIAN_POINT('Axis2P3D Location',(-4.7625,5.14583917558,26.9875)) ;
#661=CARTESIAN_POINT('Vertex',(-4.7625,9.82482526568,31.2804697377)) ;
#663=CARTESIAN_POINT('Vertex',(-4.7625,5.14583917558,33.3375)) ;
#666=CARTESIAN_POINT('Line Origine',(0.,5.14583917558,33.3375)) ;
#671=CARTESIAN_POINT('Line Origine',(0.,9.82482526568,31.2804697377)) ;
#684=CARTESIAN_POINT('Axis2P3D Location',(-4.7625,7.9375,33.3375)) ;
#689=CARTESIAN_POINT('Line Origine',(-4.7625,0.,33.3375)) ;
#693=CARTESIAN_POINT('Vertex',(-4.7625,-5.14583917558,33.3375)) ;
#696=CARTESIAN_POINT('Line Origine',(0.,-5.14583917558,33.3375)) ;
#709=CARTESIAN_POINT('Axis2P3D Location',(-4.7625,-5.14583917558,26.9875)) ;
#714=CARTESIAN_POINT('Axis2P3D Location',(-4.7625,-5.14583917558,26.9875)) ;
#718=CARTESIAN_POINT('Vertex',(-4.7625,-9.82482526568,31.2804697377)) ;
#721=CARTESIAN_POINT('Line Origine',(0.,-9.82482526568,31.2804697377)) ;
#734=CARTESIAN_POINT('Axis2P3D Location',(-4.7625,-19.58975,15.875)) ;
#739=CARTESIAN_POINT('Line Origine',(-4.7625,-16.41475,15.875)) ;
#743=CARTESIAN_POINT('Vertex',(-4.7625,-19.58975,15.8750000007)) ;
#745=CARTESIAN_POINT('Vertex',(-4.7625,-13.23975,15.875)) ;
#748=CARTESIAN_POINT('Line Origine',(0.,-13.2397500004,15.875)) ;
#753=CARTESIAN_POINT('Line Origine',(-8.881784197E-16,-19.58975,15.875)) ;
#766=CARTESIAN_POINT('Axis2P3D Location',(-4.7625,-19.58975,20.6375)) ;
#771=CARTESIAN_POINT('Line Origine',(0.,-19.58975,19.4016494145)) ;
#775=CARTESIAN_POINT('Vertex',(-4.7625,-19.58975,19.4016494145)) ;
#778=CARTESIAN_POINT('Line Origine',(-4.7625,-19.58975,17.6383247073)) ;
#791=CARTESIAN_POINT('Axis2P3D Location',(-4.7625,-7.9375,33.3375)) ;
#796=CARTESIAN_POINT('Line Origine',(-4.7625,-14.2895341554,26.4143020105)) ;
#800=CARTESIAN_POINT('Vertex',(-4.7625,-18.7542430451,21.5481342833)) ;
#803=CARTESIAN_POINT('Line Origine',(0.,-18.7542430451,21.5481342833)) ;
#816=CARTESIAN_POINT('Axis2P3D Location',(-4.7625,19.58975,20.6375)) ;
#821=CARTESIAN_POINT('Line Origine',(0.,18.7542430451,21.5481342833)) ;
#825=CARTESIAN_POINT('Vertex',(-4.7625,18.7542430451,21.5481342833)) ;
#828=CARTESIAN_POINT('Line Origine',(-4.7625,14.2895341554,26.4143020105)) ;
#841=CARTESIAN_POINT('Axis2P3D Location',(-4.7625,19.58975,15.875)) ;
#846=CARTESIAN_POINT('Line Origine',(-4.7625,19.58975,17.6383247072)) ;
#850=CARTESIAN_POINT('Vertex',(-4.7625,19.58975,19.4016494145)) ;
#853=CARTESIAN_POINT('Line Origine',(0.,19.58975,19.4016494145)) ;
#866=CARTESIAN_POINT('Axis2P3D Location',(-4.7625,-16.41475,19.4016494145)) ;
#871=CARTESIAN_POINT('Axis2P3D Location',(-4.7625,-16.41475,19.4016494145)) ;
#884=CARTESIAN_POINT('Axis2P3D Location',(-4.7625,16.41475,19.4016494145)) ;
#889=CARTESIAN_POINT('Axis2P3D Location',(-4.7625,16.41475,19.4016494145)) ;
#902=CARTESIAN_POINT('Axis2P3D Location',(-4.7625,-13.23975,15.875)) ;
#907=CARTESIAN_POINT('Line Origine',(-4.7625,-13.23975,11.1125)) ;
#911=CARTESIAN_POINT('Vertex',(-4.7625,-13.23975,6.35)) ;
#914=CARTESIAN_POINT('Line Origine',(0.,-13.23975,6.34999999963)) ;
#927=CARTESIAN_POINT('Axis2P3D Location',(-4.7625,-13.23975,6.35)) ;
#932=CARTESIAN_POINT('Line Origine',(-4.7625,-16.41475,6.35)) ;
#945=CARTESIAN_POINT('Axis2P3D Location',(-4.7625,-9.525,16.66875)) ;
#950=CARTESIAN_POINT('Line Origine',(-3.96875,-8.73125,19.05)) ;
#954=CARTESIAN_POINT('Vertex',(-4.7625,-9.525,19.05)) ;
#957=CARTESIAN_POINT('Line Origine',(-4.7625,-9.525,16.66875)) ;
#970=CARTESIAN_POINT('Axis2P3D Location',(-4.7625,0.,0.)) ;
#996=CARTESIAN_POINT('Control Point',(-4.7625,9.525,19.05)) ;
#997=CARTESIAN_POINT('Control Point',(-4.7625,9.525,20.5461835013)) ;
#998=CARTESIAN_POINT('Control Point',(-4.7625,9.2312250565,22.0423670025)) ;
#999=CARTESIAN_POINT('Control Point',(-4.7625,8.64338483541,23.4615388368)) ;
#1000=CARTESIAN_POINT('Control Point',(-4.7625,6.94292234549,25.9929223455)) ;
#1001=CARTESIAN_POINT('Control Point',(-4.7625,4.41153883681,27.6933848354)) ;
#1002=CARTESIAN_POINT('Control Point',(-4.7625,2.99236700254,28.2812250565)) ;
#1003=CARTESIAN_POINT('Control Point',(-4.7625,3.4019497897E-15,28.8687749435)) ;
#1004=CARTESIAN_POINT('Control Point',(-4.7625,-2.99236700254,28.2812250565)) ;
#1005=CARTESIAN_POINT('Control Point',(-4.7625,-4.41153883681,27.6933848354)) ;
#1006=CARTESIAN_POINT('Control Point',(-4.7625,-6.94292234549,25.9929223455)) ;
#1007=CARTESIAN_POINT('Control Point',(-4.7625,-8.64338483541,23.4615388368)) ;
#1008=CARTESIAN_POINT('Control Point',(-4.7625,-9.2312250565,22.0423670025)) ;
#1009=CARTESIAN_POINT('Control Point',(-4.7625,-9.525,20.5461835013)) ;
#1010=CARTESIAN_POINT('Control Point',(-4.7625,-9.525,19.05)) ;
#1020=CARTESIAN_POINT('Axis2P3D Location',(4.7625,-1.15463194561E-14,19.05)) ;
#1033=CARTESIAN_POINT('',(0.,0.,14.2875)) ;
#1042=CARTESIAN_POINT('',(0.,0.,19.05)) ;
#1048=CARTESIAN_POINT('',(0.,0.,3.5527136788E-15)) ;
#1054=CARTESIAN_POINT('',(0.,0.,33.3375)) ;
#27=DIRECTION('Axis2P3D Direction',(1.,-2.79741234551E-16,1.1189649382E-15)) ;
#28=DIRECTION('Axis2P3D XDirection',(-1.05367121277E-15,5.05321549807E-16,1.)) ;
#32=DIRECTION('Vector Direction',(0.707106781187,-0.707106781187,1.58245539143E-15)) ;
#41=DIRECTION('Axis2P3D Direction',(1.,-2.79741234551E-16,1.41359274188E-31)) ;
#48=DIRECTION('Vector Direction',(0.707106781187,0.707106781187,2.37368308714E-15)) ;
#55=DIRECTION('Axis2P3D Direction',(1.,-2.79741234551E-16,1.41359274188E-31)) ;
#75=DIRECTION('Axis2P3D Direction',(0.707106781187,-0.707106781187,0.)) ;
#76=DIRECTION('Axis2P3D XDirection',(0.,0.,1.)) ;
#80=DIRECTION('Vector Direction',(0.,0.,1.)) ;
#87=DIRECTION('Vector Direction',(-0.707106781187,-0.707106781187,0.)) ;
#94=DIRECTION('Vector Direction',(0.,0.,1.)) ;
#107=DIRECTION('Axis2P3D Direction',(1.,0.,0.)) ;
#108=DIRECTION('Axis2P3D XDirection',(0.,1.,0.)) ;
#112=DIRECTION('Vector Direction',(0.,1.,0.)) ;
#121=DIRECTION('Vector Direction',(0.,0.,1.)) ;
#128=DIRECTION('Vector Direction',(0.,1.,0.)) ;
#135=DIRECTION('Vector Direction',(0.,0.,1.)) ;
#142=DIRECTION('Vector Direction',(0.,1.,0.)) ;
#149=DIRECTION('Vector Direction',(0.,0.,1.)) ;
#156=DIRECTION('Vector Direction',(0.,1.,0.)) ;
#163=DIRECTION('Vector Direction',(0.,0.,1.)) ;
#194=DIRECTION('Vector Direction',(0.,1.,0.)) ;
#225=DIRECTION('Vector Direction',(0.,0.,1.)) ;
#232=DIRECTION('Vector Direction',(0.,1.,0.)) ;
#239=DIRECTION('Vector Direction',(0.,0.,1.)) ;
#283=DIRECTION('Vector Direction',(0.,0.,1.)) ;
#296=DIRECTION('Axis2P3D Direction',(-0.707106781187,-0.707106781187,0.)) ;
#297=DIRECTION('Axis2P3D XDirection',(0.,0.,1.)) ;
#301=DIRECTION('Vector Direction',(-0.707106781187,0.707106781187,0.)) ;
#308=DIRECTION('Vector Direction',(0.,0.,1.)) ;
#321=DIRECTION('Axis2P3D Direction',(1.,1.39870617276E-15,-0.)) ;
#322=DIRECTION('Axis2P3D XDirection',(0.,-1.2526181641E-16,-1.)) ;
#326=DIRECTION('Axis2P3D Direction',(1.,1.39870617276E-15,-1.75204475823E-31)) ;
#339=DIRECTION('Axis2P3D Direction',(1.,0.,0.)) ;
#340=DIRECTION('Axis2P3D XDirection',(0.,1.,0.)) ;
#344=DIRECTION('Vector Direction',(1.,0.,0.)) ;
#351=DIRECTION('Axis2P3D Direction',(1.,0.,0.)) ;
#358=DIRECTION('Vector Direction',(1.,0.,0.)) ;
#371=DIRECTION('Axis2P3D Direction',(0.,1.,0.)) ;
#372=DIRECTION('Axis2P3D XDirection',(0.,0.,1.)) ;
#376=DIRECTION('Vector Direction',(-1.,0.,0.)) ;
#383=DIRECTION('Vector Direction',(0.,0.,1.)) ;
#396=DIRECTION('Axis2P3D Direction',(1.,0.,0.)) ;
#397=DIRECTION('Axis2P3D XDirection',(0.,-1.,1.22464679915E-16)) ;
#401=DIRECTION('Vector Direction',(1.,0.,0.)) ;
#408=DIRECTION('Axis2P3D Direction',(1.,0.,0.)) ;
#421=DIRECTION('Axis2P3D Direction',(-1.,-2.79741234551E-16,1.1189649382E-15)) ;
#422=DIRECTION('Axis2P3D XDirection',(1.05367121277E-15,5.05321549807E-16,1.)) ;
#426=DIRECTION('Vector Direction',(-0.707106781187,-0.707106781187,2.37368308714E-15)) ;
#433=DIRECTION('Vector Direction',(-0.707106781187,0.707106781187,1.58245539143E-15)) ;
#440=DIRECTION('Axis2P3D Direction',(1.,2.79741234551E-16,-1.41359274188E-31)) ;
#453=DIRECTION('Axis2P3D Direction',(0.707106781187,0.707106781187,-0.)) ;
#454=DIRECTION('Axis2P3D XDirection',(0.,0.,1.)) ;
#458=DIRECTION('Vector Direction',(0.,0.,1.)) ;
#463=DIRECTION('Vector Direction',(0.707106781187,-0.707106781187,0.)) ;
#470=DIRECTION('Vector Direction',(0.,0.,1.)) ;
#483=DIRECTION('Axis2P3D Direction',(0.,-1.,0.)) ;
#484=DIRECTION('Axis2P3D XDirection',(0.,0.,-1.)) ;
#496=DIRECTION('Axis2P3D Direction',(0.,-1.,0.)) ;
#497=DIRECTION('Axis2P3D XDirection',(0.,0.,-1.)) ;
#501=DIRECTION('Vector Direction',(0.,0.,-1.)) ;
#510=DIRECTION('Vector Direction',(-1.,0.,0.)) ;
#515=DIRECTION('Vector Direction',(-1.,0.,0.)) ;
#528=DIRECTION('Axis2P3D Direction',(0.,0.,-1.)) ;
#529=DIRECTION('Axis2P3D XDirection',(0.,1.,0.)) ;
#533=DIRECTION('Vector Direction',(0.,-1.,0.)) ;
#540=DIRECTION('Vector Direction',(-1.,0.,0.)) ;
#553=DIRECTION('Axis2P3D Direction',(0.,1.,0.)) ;
#554=DIRECTION('Axis2P3D XDirection',(0.,0.,1.)) ;
#558=DIRECTION('Vector Direction',(0.,0.,-1.)) ;
#565=DIRECTION('Vector Direction',(-1.,0.,0.)) ;
#578=DIRECTION('Axis2P3D Direction',(-0.,0.,1.)) ;
#579=DIRECTION('Axis2P3D XDirection',(0.,-1.,0.)) ;
#583=DIRECTION('Vector Direction',(0.,1.,0.)) ;
#590=DIRECTION('Vector Direction',(-1.,0.,0.)) ;
#603=DIRECTION('Axis2P3D Direction',(0.,1.,0.)) ;
#604=DIRECTION('Axis2P3D XDirection',(0.,0.,1.)) ;
#608=DIRECTION('Vector Direction',(0.,0.,-1.)) ;
#615=DIRECTION('Vector Direction',(-1.,0.,0.)) ;
#628=DIRECTION('Axis2P3D Direction',(0.,1.1189649382E-15,-1.)) ;
#629=DIRECTION('Axis2P3D XDirection',(0.,1.,1.1189649382E-15)) ;
#633=DIRECTION('Vector Direction',(0.,-1.,-1.1189649382E-15)) ;
#640=DIRECTION('Vector Direction',(-1.,0.,0.)) ;
#653=DIRECTION('Axis2P3D Direction',(1.,0.,0.)) ;
#654=DIRECTION('Axis2P3D XDirection',(-0.,-0.402456068158,-0.915439300665)) ;
#658=DIRECTION('Axis2P3D Direction',(1.,0.,0.)) ;
#667=DIRECTION('Vector Direction',(1.,0.,0.)) ;
#672=DIRECTION('Vector Direction',(1.,0.,0.)) ;
#685=DIRECTION('Axis2P3D Direction',(-0.,0.,1.)) ;
#686=DIRECTION('Axis2P3D XDirection',(0.,-1.,0.)) ;
#690=DIRECTION('Vector Direction',(0.,-1.,0.)) ;
#697=DIRECTION('Vector Direction',(1.,0.,0.)) ;
#710=DIRECTION('Axis2P3D Direction',(1.,0.,0.)) ;
#711=DIRECTION('Axis2P3D XDirection',(0.,0.402456068158,-0.915439300665)) ;
#715=DIRECTION('Axis2P3D Direction',(1.,0.,0.)) ;
#722=DIRECTION('Vector Direction',(1.,0.,0.)) ;
#735=DIRECTION('Axis2P3D Direction',(0.,0.,-1.)) ;
#736=DIRECTION('Axis2P3D XDirection',(0.,1.,0.)) ;
#740=DIRECTION('Vector Direction',(0.,1.,0.)) ;
#749=DIRECTION('Vector Direction',(-1.,0.,0.)) ;
#754=DIRECTION('Vector Direction',(-1.,0.,0.)) ;
#767=DIRECTION('Axis2P3D Direction',(0.,-1.,0.)) ;
#768=DIRECTION('Axis2P3D XDirection',(0.,0.,-1.)) ;
#772=DIRECTION('Vector Direction',(1.,0.,0.)) ;
#779=DIRECTION('Vector Direction',(0.,0.,-1.)) ;
#792=DIRECTION('Axis2P3D Direction',(0.,-0.736848203167,0.676058226405)) ;
#793=DIRECTION('Axis2P3D XDirection',(0.,-0.676058226405,-0.736848203167)) ;
#797=DIRECTION('Vector Direction',(0.,-0.676058226405,-0.736848203167)) ;
#804=DIRECTION('Vector Direction',(1.,0.,0.)) ;
#817=DIRECTION('Axis2P3D Direction',(-0.,0.736848203167,0.676058226405)) ;
#818=DIRECTION('Axis2P3D XDirection',(0.,-0.676058226405,0.736848203167)) ;
#822=DIRECTION('Vector Direction',(1.,0.,0.)) ;
#829=DIRECTION('Vector Direction',(0.,-0.676058226405,0.736848203167)) ;
#842=DIRECTION('Axis2P3D Direction',(0.,1.,0.)) ;
#843=DIRECTION('Axis2P3D XDirection',(0.,0.,1.)) ;
#847=DIRECTION('Vector Direction',(0.,0.,1.)) ;
#854=DIRECTION('Vector Direction',(1.,0.,0.)) ;
#867=DIRECTION('Axis2P3D Direction',(1.,0.,0.)) ;
#868=DIRECTION('Axis2P3D XDirection',(0.,0.931892752189,-0.362733922341)) ;
#872=DIRECTION('Axis2P3D Direction',(1.,0.,0.)) ;
#885=DIRECTION('Axis2P3D Direction',(1.,0.,0.)) ;
#886=DIRECTION('Axis2P3D XDirection',(-0.,-0.931892752189,-0.362733922341)) ;
#890=DIRECTION('Axis2P3D Direction',(1.,0.,0.)) ;
#903=DIRECTION('Axis2P3D Direction',(0.,-1.,0.)) ;
#904=DIRECTION('Axis2P3D XDirection',(0.,0.,-1.)) ;
#908=DIRECTION('Vector Direction',(0.,0.,-1.)) ;
#915=DIRECTION('Vector Direction',(-1.,0.,0.)) ;
#928=DIRECTION('Axis2P3D Direction',(-0.,0.,1.)) ;
#929=DIRECTION('Axis2P3D XDirection',(0.,-1.,0.)) ;
#933=DIRECTION('Vector Direction',(0.,-1.,0.)) ;
#946=DIRECTION('Axis2P3D Direction',(-0.707106781187,0.707106781187,0.)) ;
#947=DIRECTION('Axis2P3D XDirection',(0.,0.,1.)) ;
#951=DIRECTION('Vector Direction',(0.707106781187,0.707106781187,0.)) ;
#958=DIRECTION('Vector Direction',(0.,0.,1.)) ;
#971=DIRECTION('Axis2P3D Direction',(1.,0.,0.)) ;
#972=DIRECTION('Axis2P3D XDirection',(0.,1.,0.)) ;
#1021=DIRECTION('Axis2P3D Direction',(-1.,1.39870617276E-15,-0.)) ;
#1022=DIRECTION('Axis2P3D XDirection',(0.,-1.2526181641E-16,-1.)) ;
#6=PRODUCT_RELATED_PRODUCT_CATEGORY('part',$,(#16)) ;
#5=PRODUCT_CATEGORY('part','specification') ;
#23=STYLED_ITEM(' ',(#22),#21) ;
#1038=STYLED_ITEM(' ',(#1037),#1033) ;
#1046=STYLED_ITEM(' ',(#1045),#1042) ;
#1052=STYLED_ITEM(' ',(#1051),#1048) ;
#1058=STYLED_ITEM(' ',(#1057),#1054) ;
#22=PRESENTATION_STYLE_ASSIGNMENT(()) ;
#72=PRESENTATION_STYLE_ASSIGNMENT((#71)) ;
#1037=PRESENTATION_STYLE_ASSIGNMENT((#1036)) ;
#1045=PRESENTATION_STYLE_ASSIGNMENT((#1044)) ;
#1051=PRESENTATION_STYLE_ASSIGNMENT((#1050)) ;
#1057=PRESENTATION_STYLE_ASSIGNMENT((#1056)) ;
#1036=POINT_STYLE(' ',#1034,POSITIVE_LENGTH_MEASURE(1.),#1035) ;
#1044=POINT_STYLE(' ',#1043,POSITIVE_LENGTH_MEASURE(1.),#1035) ;
#1050=POINT_STYLE(' ',#1049,POSITIVE_LENGTH_MEASURE(1.),#1035) ;
#1056=POINT_STYLE(' ',#1055,POSITIVE_LENGTH_MEASURE(1.),#1035) ;
#1034=PRE_DEFINED_MARKER('X') ;
#1043=PRE_DEFINED_MARKER('X') ;
#1049=PRE_DEFINED_MARKER('X') ;
#1055=PRE_DEFINED_MARKER('X') ;
#71=SURFACE_STYLE_USAGE(.BOTH.,#70) ;
#70=SURFACE_SIDE_STYLE(' ',(#69)) ;
#69=SURFACE_STYLE_FILL_AREA(#68) ;
#68=FILL_AREA_STYLE(' ',(#67)) ;
#67=FILL_AREA_STYLE_COLOUR(' ',#66) ;
#33=VECTOR('Line Direction',#32,1.) ;
#49=VECTOR('Line Direction',#48,1.) ;
#81=VECTOR('Line Direction',#80,1.) ;
#88=VECTOR('Line Direction',#87,1.) ;
#95=VECTOR('Line Direction',#94,1.) ;
#113=VECTOR('Line Direction',#112,1.) ;
#122=VECTOR('Line Direction',#121,1.) ;
#129=VECTOR('Line Direction',#128,1.) ;
#136=VECTOR('Line Direction',#135,1.) ;
#143=VECTOR('Line Direction',#142,1.) ;
#150=VECTOR('Line Direction',#149,1.) ;
#157=VECTOR('Line Direction',#156,1.) ;
#164=VECTOR('Line Direction',#163,1.) ;
#195=VECTOR('Line Direction',#194,1.) ;
#226=VECTOR('Line Direction',#225,1.) ;
#233=VECTOR('Line Direction',#232,1.) ;
#240=VECTOR('Line Direction',#239,1.) ;
#284=VECTOR('Line Direction',#283,1.) ;
#302=VECTOR('Line Direction',#301,1.) ;
#309=VECTOR('Line Direction',#308,1.) ;
#345=VECTOR('Line Direction',#344,1.) ;
#359=VECTOR('Line Direction',#358,1.) ;
#377=VECTOR('Line Direction',#376,1.) ;
#384=VECTOR('Line Direction',#383,1.) ;
#402=VECTOR('Line Direction',#401,1.) ;
#427=VECTOR('Line Direction',#426,1.) ;
#434=VECTOR('Line Direction',#433,1.) ;
#459=VECTOR('Line Direction',#458,1.) ;
#464=VECTOR('Line Direction',#463,1.) ;
#471=VECTOR('Line Direction',#470,1.) ;
#502=VECTOR('Line Direction',#501,1.) ;
#511=VECTOR('Line Direction',#510,1.) ;
#516=VECTOR('Line Direction',#515,1.) ;
#534=VECTOR('Line Direction',#533,1.) ;
#541=VECTOR('Line Direction',#540,1.) ;
#559=VECTOR('Line Direction',#558,1.) ;
#566=VECTOR('Line Direction',#565,1.) ;
#584=VECTOR('Line Direction',#583,1.) ;
#591=VECTOR('Line Direction',#590,1.) ;
#609=VECTOR('Line Direction',#608,1.) ;
#616=VECTOR('Line Direction',#615,1.) ;
#634=VECTOR('Line Direction',#633,1.) ;
#641=VECTOR('Line Direction',#640,1.) ;
#668=VECTOR('Line Direction',#667,1.) ;
#673=VECTOR('Line Direction',#672,1.) ;
#691=VECTOR('Line Direction',#690,1.) ;
#698=VECTOR('Line Direction',#697,1.) ;
#723=VECTOR('Line Direction',#722,1.) ;
#741=VECTOR('Line Direction',#740,1.) ;
#750=VECTOR('Line Direction',#749,1.) ;
#755=VECTOR('Line Direction',#754,1.) ;
#773=VECTOR('Line Direction',#772,1.) ;
#780=VECTOR('Line Direction',#779,1.) ;
#798=VECTOR('Line Direction',#797,1.) ;
#805=VECTOR('Line Direction',#804,1.) ;
#823=VECTOR('Line Direction',#822,1.) ;
#830=VECTOR('Line Direction',#829,1.) ;
#848=VECTOR('Line Direction',#847,1.) ;
#855=VECTOR('Line Direction',#854,1.) ;
#909=VECTOR('Line Direction',#908,1.) ;
#916=VECTOR('Line Direction',#915,1.) ;
#934=VECTOR('Line Direction',#933,1.) ;
#952=VECTOR('Line Direction',#951,1.) ;
#959=VECTOR('Line Direction',#958,1.) ;
#11=UNCERTAINTY_MEASURE_WITH_UNIT(LENGTH_MEASURE(0.005),#8,'distance_accuracy_value','CONFUSED CURVE UNCERTAINTY') ;
#60=ORIENTED_EDGE('',*,*,#39,.T.) ;
#61=ORIENTED_EDGE('',*,*,#46,.T.) ;
#62=ORIENTED_EDGE('',*,*,#53,.F.) ;
#63=ORIENTED_EDGE('',*,*,#58,.F.) ;
#99=ORIENTED_EDGE('',*,*,#53,.T.) ;
#100=ORIENTED_EDGE('',*,*,#85,.T.) ;
#101=ORIENTED_EDGE('',*,*,#92,.F.) ;
#102=ORIENTED_EDGE('',*,*,#97,.F.) ;
#244=ORIENTED_EDGE('',*,*,#119,.T.) ;
#245=ORIENTED_EDGE('',*,*,#126,.T.) ;
#246=ORIENTED_EDGE('',*,*,#133,.F.) ;
#247=ORIENTED_EDGE('',*,*,#140,.F.) ;
#248=ORIENTED_EDGE('',*,*,#147,.F.) ;
#249=ORIENTED_EDGE('',*,*,#154,.F.) ;
#250=ORIENTED_EDGE('',*,*,#161,.F.) ;
#251=ORIENTED_EDGE('',*,*,#168,.T.) ;
#252=ORIENTED_EDGE('',*,*,#177,.T.) ;
#253=ORIENTED_EDGE('',*,*,#183,.T.) ;
#254=ORIENTED_EDGE('',*,*,#192,.T.) ;
#255=ORIENTED_EDGE('',*,*,#199,.T.) ;
#256=ORIENTED_EDGE('',*,*,#208,.T.) ;
#257=ORIENTED_EDGE('',*,*,#214,.T.) ;
#258=ORIENTED_EDGE('',*,*,#223,.T.) ;
#259=ORIENTED_EDGE('',*,*,#230,.T.) ;
#260=ORIENTED_EDGE('',*,*,#237,.T.) ;
#261=ORIENTED_EDGE('',*,*,#242,.T.) ;
#288=ORIENTED_EDGE('',*,*,#281,.F.) ;
#289=ORIENTED_EDGE('',*,*,#85,.F.) ;
#290=ORIENTED_EDGE('',*,*,#46,.F.) ;
#291=ORIENTED_EDGE('',*,*,#286,.T.) ;
#313=ORIENTED_EDGE('',*,*,#306,.T.) ;
#314=ORIENTED_EDGE('',*,*,#286,.F.) ;
#315=ORIENTED_EDGE('',*,*,#39,.F.) ;
#316=ORIENTED_EDGE('',*,*,#311,.F.) ;
#331=ORIENTED_EDGE('',*,*,#92,.T.) ;
#332=ORIENTED_EDGE('',*,*,#281,.T.) ;
#333=ORIENTED_EDGE('',*,*,#306,.F.) ;
#334=ORIENTED_EDGE('',*,*,#329,.F.) ;
#363=ORIENTED_EDGE('',*,*,#349,.F.) ;
#364=ORIENTED_EDGE('',*,*,#356,.F.) ;
#365=ORIENTED_EDGE('',*,*,#361,.F.) ;
#366=ORIENTED_EDGE('',*,*,#329,.T.) ;
#388=ORIENTED_EDGE('',*,*,#311,.T.) ;
#389=ORIENTED_EDGE('',*,*,#381,.F.) ;
#390=ORIENTED_EDGE('',*,*,#386,.F.) ;
#391=ORIENTED_EDGE('',*,*,#349,.T.) ;
#413=ORIENTED_EDGE('',*,*,#406,.F.) ;
#414=ORIENTED_EDGE('',*,*,#411,.F.) ;
#415=ORIENTED_EDGE('',*,*,#381,.T.) ;
#416=ORIENTED_EDGE('',*,*,#58,.T.) ;
#445=ORIENTED_EDGE('',*,*,#431,.T.) ;
#446=ORIENTED_EDGE('',*,*,#411,.T.) ;
#447=ORIENTED_EDGE('',*,*,#438,.F.) ;
#448=ORIENTED_EDGE('',*,*,#443,.F.) ;
#475=ORIENTED_EDGE('',*,*,#438,.T.) ;
#476=ORIENTED_EDGE('',*,*,#461,.T.) ;
#477=ORIENTED_EDGE('',*,*,#468,.F.) ;
#478=ORIENTED_EDGE('',*,*,#473,.F.) ;
#488=ORIENTED_EDGE('',*,*,#97,.T.) ;
#489=ORIENTED_EDGE('',*,*,#361,.T.) ;
#490=ORIENTED_EDGE('',*,*,#461,.F.) ;
#491=ORIENTED_EDGE('',*,*,#406,.T.) ;
#520=ORIENTED_EDGE('',*,*,#508,.T.) ;
#521=ORIENTED_EDGE('',*,*,#513,.T.) ;
#522=ORIENTED_EDGE('',*,*,#126,.F.) ;
#523=ORIENTED_EDGE('',*,*,#518,.F.) ;
#545=ORIENTED_EDGE('',*,*,#538,.F.) ;
#546=ORIENTED_EDGE('',*,*,#543,.F.) ;
#547=ORIENTED_EDGE('',*,*,#133,.T.) ;
#548=ORIENTED_EDGE('',*,*,#513,.F.) ;
#570=ORIENTED_EDGE('',*,*,#563,.F.) ;
#571=ORIENTED_EDGE('',*,*,#568,.T.) ;
#572=ORIENTED_EDGE('',*,*,#140,.T.) ;
#573=ORIENTED_EDGE('',*,*,#543,.T.) ;
#595=ORIENTED_EDGE('',*,*,#588,.F.) ;
#596=ORIENTED_EDGE('',*,*,#593,.T.) ;
#597=ORIENTED_EDGE('',*,*,#147,.T.) ;
#598=ORIENTED_EDGE('',*,*,#568,.F.) ;
#620=ORIENTED_EDGE('',*,*,#613,.F.) ;
#621=ORIENTED_EDGE('',*,*,#618,.T.) ;
#622=ORIENTED_EDGE('',*,*,#154,.T.) ;
#623=ORIENTED_EDGE('',*,*,#593,.F.) ;
#645=ORIENTED_EDGE('',*,*,#638,.F.) ;
#646=ORIENTED_EDGE('',*,*,#643,.T.) ;
#647=ORIENTED_EDGE('',*,*,#161,.T.) ;
#648=ORIENTED_EDGE('',*,*,#618,.F.) ;
#677=ORIENTED_EDGE('',*,*,#665,.T.) ;
#678=ORIENTED_EDGE('',*,*,#670,.T.) ;
#679=ORIENTED_EDGE('',*,*,#192,.F.) ;
#680=ORIENTED_EDGE('',*,*,#675,.F.) ;
#702=ORIENTED_EDGE('',*,*,#695,.T.) ;
#703=ORIENTED_EDGE('',*,*,#700,.T.) ;
#704=ORIENTED_EDGE('',*,*,#199,.F.) ;
#705=ORIENTED_EDGE('',*,*,#670,.F.) ;
#727=ORIENTED_EDGE('',*,*,#720,.T.) ;
#728=ORIENTED_EDGE('',*,*,#725,.T.) ;
#729=ORIENTED_EDGE('',*,*,#208,.F.) ;
#730=ORIENTED_EDGE('',*,*,#700,.F.) ;
#759=ORIENTED_EDGE('',*,*,#747,.T.) ;
#760=ORIENTED_EDGE('',*,*,#752,.T.) ;
#761=ORIENTED_EDGE('',*,*,#237,.F.) ;
#762=ORIENTED_EDGE('',*,*,#757,.F.) ;
#784=ORIENTED_EDGE('',*,*,#757,.T.) ;
#785=ORIENTED_EDGE('',*,*,#230,.F.) ;
#786=ORIENTED_EDGE('',*,*,#777,.F.) ;
#787=ORIENTED_EDGE('',*,*,#782,.T.) ;
#809=ORIENTED_EDGE('',*,*,#802,.T.) ;
#810=ORIENTED_EDGE('',*,*,#807,.T.) ;
#811=ORIENTED_EDGE('',*,*,#214,.F.) ;
#812=ORIENTED_EDGE('',*,*,#725,.F.) ;
#834=ORIENTED_EDGE('',*,*,#675,.T.) ;
#835=ORIENTED_EDGE('',*,*,#183,.F.) ;
#836=ORIENTED_EDGE('',*,*,#827,.F.) ;
#837=ORIENTED_EDGE('',*,*,#832,.T.) ;
#859=ORIENTED_EDGE('',*,*,#852,.T.) ;
#860=ORIENTED_EDGE('',*,*,#857,.T.) ;
#861=ORIENTED_EDGE('',*,*,#168,.F.) ;
#862=ORIENTED_EDGE('',*,*,#643,.F.) ;
#877=ORIENTED_EDGE('',*,*,#875,.T.) ;
#878=ORIENTED_EDGE('',*,*,#777,.T.) ;
#879=ORIENTED_EDGE('',*,*,#223,.F.) ;
#880=ORIENTED_EDGE('',*,*,#807,.F.) ;
#895=ORIENTED_EDGE('',*,*,#893,.T.) ;
#896=ORIENTED_EDGE('',*,*,#827,.T.) ;
#897=ORIENTED_EDGE('',*,*,#177,.F.) ;
#898=ORIENTED_EDGE('',*,*,#857,.F.) ;
#920=ORIENTED_EDGE('',*,*,#913,.T.) ;
#921=ORIENTED_EDGE('',*,*,#918,.T.) ;
#922=ORIENTED_EDGE('',*,*,#242,.F.) ;
#923=ORIENTED_EDGE('',*,*,#752,.F.) ;
#938=ORIENTED_EDGE('',*,*,#936,.T.) ;
#939=ORIENTED_EDGE('',*,*,#518,.T.) ;
#940=ORIENTED_EDGE('',*,*,#119,.F.) ;
#941=ORIENTED_EDGE('',*,*,#918,.F.) ;
#963=ORIENTED_EDGE('',*,*,#956,.T.) ;
#964=ORIENTED_EDGE('',*,*,#386,.T.) ;
#965=ORIENTED_EDGE('',*,*,#431,.F.) ;
#966=ORIENTED_EDGE('',*,*,#961,.F.) ;
#976=ORIENTED_EDGE('',*,*,#913,.F.) ;
#977=ORIENTED_EDGE('',*,*,#747,.F.) ;
#978=ORIENTED_EDGE('',*,*,#782,.F.) ;
#979=ORIENTED_EDGE('',*,*,#875,.F.) ;
#980=ORIENTED_EDGE('',*,*,#802,.F.) ;
#981=ORIENTED_EDGE('',*,*,#720,.F.) ;
#982=ORIENTED_EDGE('',*,*,#695,.F.) ;
#983=ORIENTED_EDGE('',*,*,#665,.F.) ;
#984=ORIENTED_EDGE('',*,*,#832,.F.) ;
#985=ORIENTED_EDGE('',*,*,#893,.F.) ;
#986=ORIENTED_EDGE('',*,*,#852,.F.) ;
#987=ORIENTED_EDGE('',*,*,#638,.T.) ;
#988=ORIENTED_EDGE('',*,*,#613,.T.) ;
#989=ORIENTED_EDGE('',*,*,#588,.T.) ;
#990=ORIENTED_EDGE('',*,*,#563,.T.) ;
#991=ORIENTED_EDGE('',*,*,#538,.T.) ;
#992=ORIENTED_EDGE('',*,*,#508,.F.) ;
#993=ORIENTED_EDGE('',*,*,#936,.F.) ;
#1013=ORIENTED_EDGE('',*,*,#961,.T.) ;
#1014=ORIENTED_EDGE('',*,*,#443,.T.) ;
#1015=ORIENTED_EDGE('',*,*,#473,.T.) ;
#1016=ORIENTED_EDGE('',*,*,#1011,.T.) ;
#1026=ORIENTED_EDGE('',*,*,#468,.T.) ;
#1027=ORIENTED_EDGE('',*,*,#356,.T.) ;
#1028=ORIENTED_EDGE('',*,*,#956,.F.) ;
#1029=ORIENTED_EDGE('',*,*,#1011,.F.) ;
#292=FACE_BOUND('',#287,.T.) ;
#1017=FACE_BOUND('',#1012,.T.) ;
#25=CLOSED_SHELL('Closed Shell',(#65,#104,#293,#318,#336,#368,#393,#418,#450,#480,#493,#525,#550,#575,#600,#625,#650,#682,#707,#732,#764,#789,#814,#839,#864,#882,#900,#925,#943,#968,#1018,#1031)) ;
#65=ADVANCED_FACE('',(#64),#30,.F.) ;
#104=ADVANCED_FACE('',(#103),#78,.T.) ;
#293=ADVANCED_FACE('',(#262,#292),#110,.T.) ;
#318=ADVANCED_FACE('',(#317),#299,.F.) ;
#336=ADVANCED_FACE('',(#335),#324,.F.) ;
#368=ADVANCED_FACE('',(#367),#342,.F.) ;
#393=ADVANCED_FACE('',(#392),#374,.T.) ;
#418=ADVANCED_FACE('',(#417),#399,.F.) ;
#450=ADVANCED_FACE('',(#449),#424,.F.) ;
#480=ADVANCED_FACE('',(#479),#456,.F.) ;
#493=ADVANCED_FACE('',(#492),#486,.T.) ;
#525=ADVANCED_FACE('',(#524),#499,.T.) ;
#550=ADVANCED_FACE('',(#549),#531,.T.) ;
#575=ADVANCED_FACE('',(#574),#556,.T.) ;
#600=ADVANCED_FACE('',(#599),#581,.T.) ;
#625=ADVANCED_FACE('',(#624),#606,.T.) ;
#650=ADVANCED_FACE('',(#649),#631,.T.) ;
#682=ADVANCED_FACE('',(#681),#656,.T.) ;
#707=ADVANCED_FACE('',(#706),#688,.T.) ;
#732=ADVANCED_FACE('',(#731),#713,.T.) ;
#764=ADVANCED_FACE('',(#763),#738,.T.) ;
#789=ADVANCED_FACE('',(#788),#770,.T.) ;
#814=ADVANCED_FACE('',(#813),#795,.T.) ;
#839=ADVANCED_FACE('',(#838),#820,.T.) ;
#864=ADVANCED_FACE('',(#863),#845,.T.) ;
#882=ADVANCED_FACE('',(#881),#870,.T.) ;
#900=ADVANCED_FACE('',(#899),#888,.T.) ;
#925=ADVANCED_FACE('',(#924),#906,.T.) ;
#943=ADVANCED_FACE('',(#942),#931,.T.) ;
#968=ADVANCED_FACE('',(#967),#949,.T.) ;
#1018=ADVANCED_FACE('',(#994,#1017),#974,.F.) ;
#1031=ADVANCED_FACE('',(#1030),#1024,.F.) ;
#4=APPLICATION_PROTOCOL_DEFINITION('international standard','automotive_design',2001,#1) ;
#169=B_SPLINE_CURVE_WITH_KNOTS('',4,(#170,#171,#172,#173,#174),.UNSPECIFIED.,.F.,.U.,(5,5),(0.,2.35711971512),.UNSPECIFIED.) ;
#178=B_SPLINE_CURVE_WITH_KNOTS('',1,(#179,#180),.UNSPECIFIED.,.F.,.U.,(2,2),(-5.98610482659,7.22195541231),.UNSPECIFIED.) ;
#184=B_SPLINE_CURVE_WITH_KNOTS('',4,(#185,#186,#187,#188,#189),.UNSPECIFIED.,.F.,.U.,(5,5),(4.71423943024,9.97455667515),.UNSPECIFIED.) ;
#200=B_SPLINE_CURVE_WITH_KNOTS('',4,(#201,#202,#203,#204,#205),.UNSPECIFIED.,.F.,.U.,(5,5),(9.97455667515,15.2348739201),.UNSPECIFIED.) ;
#209=B_SPLINE_CURVE_WITH_KNOTS('',1,(#210,#211),.UNSPECIFIED.,.F.,.U.,(2,2),(-7.2219554124,5.98610482651),.UNSPECIFIED.) ;
#215=B_SPLINE_CURVE_WITH_KNOTS('',4,(#216,#217,#218,#219,#220),.UNSPECIFIED.,.F.,.U.,(5,5),(7.61743696003,9.97455667515),.UNSPECIFIED.) ;
#263=B_SPLINE_CURVE_WITH_KNOTS('',5,(#264,#265,#266,#267,#268,#269,#270,#271,#272,#273,#274,#275,#276,#277,#278),.UNSPECIFIED.,.F.,.U.,(6,3,3,3,6),(-6.13745165801E-15,7.48091750636,14.9618350127,22.4427525191,29.9236700254),.UNSPECIFIED.) ;
#995=B_SPLINE_CURVE_WITH_KNOTS('',5,(#996,#997,#998,#999,#1000,#1001,#1002,#1003,#1004,#1005,#1006,#1007,#1008,#1009,#1010),.UNSPECIFIED.,.F.,.U.,(6,3,3,3,6),(-6.13745165801E-15,7.48091750636,14.9618350127,22.4427525191,29.9236700254),.UNSPECIFIED.) ;
#21=MANIFOLD_SOLID_BREP('',#25) ;
#43=CIRCLE('generated circle',#42,9.525) ;
#57=CIRCLE('generated circle',#56,7.9375) ;
#328=CIRCLE('generated circle',#327,7.9375) ;
#353=CIRCLE('generated circle',#352,7.9375) ;
#410=CIRCLE('generated circle',#409,7.9375) ;
#442=CIRCLE('generated circle',#441,9.525) ;
#660=CIRCLE('generated circle',#659,6.35) ;
#717=CIRCLE('generated circle',#716,6.35) ;
#874=CIRCLE('generated circle',#873,3.175) ;
#892=CIRCLE('generated circle',#891,3.175) ;
#66=COLOUR_RGB('Colour',0.560784313725,0.866666666667,0.905882352941) ;
#1035=COLOUR_RGB('Colour',1.17647058824,1.17647058824,1.17647058824) ;
#30=CONICAL_SURFACE('Cone',#29,0.,0.785398163397) ;
#324=CONICAL_SURFACE('Cone',#323,0.,0.785398163397) ;
#424=CONICAL_SURFACE('Cone',#423,0.,0.785398163397) ;
#1024=CONICAL_SURFACE('Cone',#1023,0.,0.785398163397) ;
#1039=INVISIBILITY((#1038,#1046,#1052,#1058)) ;
#73=OVER_RIDING_STYLED_ITEM(' ',(#72),#65,#23) ;
#105=OVER_RIDING_STYLED_ITEM(' ',(#72),#104,#23) ;
#294=OVER_RIDING_STYLED_ITEM(' ',(#72),#293,#23) ;
#319=OVER_RIDING_STYLED_ITEM(' ',(#72),#318,#23) ;
#337=OVER_RIDING_STYLED_ITEM(' ',(#72),#336,#23) ;
#369=OVER_RIDING_STYLED_ITEM(' ',(#72),#368,#23) ;
#394=OVER_RIDING_STYLED_ITEM(' ',(#72),#393,#23) ;
#419=OVER_RIDING_STYLED_ITEM(' ',(#72),#418,#23) ;
#451=OVER_RIDING_STYLED_ITEM(' ',(#72),#450,#23) ;
#481=OVER_RIDING_STYLED_ITEM(' ',(#72),#480,#23) ;
#494=OVER_RIDING_STYLED_ITEM(' ',(#72),#493,#23) ;
#526=OVER_RIDING_STYLED_ITEM(' ',(#72),#525,#23) ;
#551=OVER_RIDING_STYLED_ITEM(' ',(#72),#550,#23) ;
#576=OVER_RIDING_STYLED_ITEM(' ',(#72),#575,#23) ;
#601=OVER_RIDING_STYLED_ITEM(' ',(#72),#600,#23) ;
#626=OVER_RIDING_STYLED_ITEM(' ',(#72),#625,#23) ;
#651=OVER_RIDING_STYLED_ITEM(' ',(#72),#650,#23) ;
#683=OVER_RIDING_STYLED_ITEM(' ',(#72),#682,#23) ;
#708=OVER_RIDING_STYLED_ITEM(' ',(#72),#707,#23) ;
#733=OVER_RIDING_STYLED_ITEM(' ',(#72),#732,#23) ;
#765=OVER_RIDING_STYLED_ITEM(' ',(#72),#764,#23) ;
#790=OVER_RIDING_STYLED_ITEM(' ',(#72),#789,#23) ;
#815=OVER_RIDING_STYLED_ITEM(' ',(#72),#814,#23) ;
#840=OVER_RIDING_STYLED_ITEM(' ',(#72),#839,#23) ;
#865=OVER_RIDING_STYLED_ITEM(' ',(#72),#864,#23) ;
#883=OVER_RIDING_STYLED_ITEM(' ',(#72),#882,#23) ;
#901=OVER_RIDING_STYLED_ITEM(' ',(#72),#900,#23) ;
#926=OVER_RIDING_STYLED_ITEM(' ',(#72),#925,#23) ;
#944=OVER_RIDING_STYLED_ITEM(' ',(#72),#943,#23) ;
#969=OVER_RIDING_STYLED_ITEM(' ',(#72),#968,#23) ;
#1019=OVER_RIDING_STYLED_ITEM(' ',(#72),#1018,#23) ;
#1032=OVER_RIDING_STYLED_ITEM(' ',(#72),#1031,#23) ;
#342=CYLINDRICAL_SURFACE('generated cylinder',#341,7.9375) ;
#399=CYLINDRICAL_SURFACE('generated cylinder',#398,7.9375) ;
#656=CYLINDRICAL_SURFACE('generated cylinder',#655,6.35) ;
#713=CYLINDRICAL_SURFACE('generated cylinder',#712,6.35) ;
#870=CYLINDRICAL_SURFACE('generated cylinder',#869,3.175) ;
#888=CYLINDRICAL_SURFACE('generated cylinder',#887,3.175) ;
#39=EDGE_CURVE('',#36,#38,#34,.T.) ;
#46=EDGE_CURVE('',#38,#45,#43,.T.) ;
#53=EDGE_CURVE('',#52,#45,#50,.T.) ;
#58=EDGE_CURVE('',#36,#52,#57,.T.) ;
#85=EDGE_CURVE('',#45,#84,#82,.T.) ;
#92=EDGE_CURVE('',#91,#84,#89,.F.) ;
#97=EDGE_CURVE('',#52,#91,#96,.T.) ;
#119=EDGE_CURVE('',#116,#118,#114,.F.) ;
#126=EDGE_CURVE('',#118,#125,#123,.F.) ;
#133=EDGE_CURVE('',#132,#125,#130,.F.) ;
#140=EDGE_CURVE('',#139,#132,#137,.F.) ;
#147=EDGE_CURVE('',#146,#139,#144,.T.) ;
#154=EDGE_CURVE('',#153,#146,#151,.F.) ;
#161=EDGE_CURVE('',#160,#153,#158,.F.) ;
#168=EDGE_CURVE('',#160,#167,#165,.T.) ;
#177=EDGE_CURVE('',#167,#176,#169,.T.) ;
#183=EDGE_CURVE('',#176,#182,#178,.T.) ;
#192=EDGE_CURVE('',#182,#191,#184,.T.) ;
#199=EDGE_CURVE('',#191,#198,#196,.F.) ;
#208=EDGE_CURVE('',#198,#207,#200,.T.) ;
#214=EDGE_CURVE('',#207,#213,#209,.T.) ;
#223=EDGE_CURVE('',#213,#222,#215,.T.) ;
#230=EDGE_CURVE('',#222,#229,#227,.F.) ;
#237=EDGE_CURVE('',#229,#236,#234,.T.) ;
#242=EDGE_CURVE('',#236,#116,#241,.F.) ;
#281=EDGE_CURVE('',#84,#280,#263,.T.) ;
#286=EDGE_CURVE('',#38,#280,#285,.T.) ;
#306=EDGE_CURVE('',#305,#280,#303,.F.) ;
#311=EDGE_CURVE('',#305,#36,#310,.F.) ;
#329=EDGE_CURVE('',#91,#305,#328,.T.) ;
#349=EDGE_CURVE('',#348,#305,#346,.T.) ;
#356=EDGE_CURVE('',#355,#348,#353,.T.) ;
#361=EDGE_CURVE('',#91,#355,#360,.F.) ;
#381=EDGE_CURVE('',#380,#36,#378,.F.) ;
#386=EDGE_CURVE('',#348,#380,#385,.F.) ;
#406=EDGE_CURVE('',#405,#52,#403,.T.) ;
#411=EDGE_CURVE('',#380,#405,#410,.T.) ;
#431=EDGE_CURVE('',#430,#380,#428,.F.) ;
#438=EDGE_CURVE('',#437,#405,#435,.F.) ;
#443=EDGE_CURVE('',#430,#437,#442,.T.) ;
#461=EDGE_CURVE('',#405,#355,#460,.T.) ;
#468=EDGE_CURVE('',#467,#355,#465,.T.) ;
#473=EDGE_CURVE('',#437,#467,#472,.T.) ;
#508=EDGE_CURVE('',#505,#507,#503,.T.) ;
#513=EDGE_CURVE('',#507,#125,#512,.F.) ;
#518=EDGE_CURVE('',#505,#118,#517,.F.) ;
#538=EDGE_CURVE('',#537,#507,#535,.T.) ;
#543=EDGE_CURVE('',#132,#537,#542,.T.) ;
#563=EDGE_CURVE('',#562,#537,#560,.T.) ;
#568=EDGE_CURVE('',#562,#139,#567,.F.) ;
#588=EDGE_CURVE('',#587,#562,#585,.T.) ;
#593=EDGE_CURVE('',#587,#146,#592,.F.) ;
#613=EDGE_CURVE('',#612,#587,#610,.T.) ;
#618=EDGE_CURVE('',#612,#153,#617,.F.) ;
#638=EDGE_CURVE('',#637,#612,#635,.T.) ;
#643=EDGE_CURVE('',#637,#160,#642,.F.) ;
#665=EDGE_CURVE('',#662,#664,#660,.T.) ;
#670=EDGE_CURVE('',#664,#191,#669,.T.) ;
#675=EDGE_CURVE('',#662,#182,#674,.T.) ;
#695=EDGE_CURVE('',#664,#694,#692,.T.) ;
#700=EDGE_CURVE('',#694,#198,#699,.T.) ;
#720=EDGE_CURVE('',#694,#719,#717,.T.) ;
#725=EDGE_CURVE('',#719,#207,#724,.T.) ;
#747=EDGE_CURVE('',#744,#746,#742,.T.) ;
#752=EDGE_CURVE('',#746,#236,#751,.F.) ;
#757=EDGE_CURVE('',#744,#229,#756,.F.) ;
#777=EDGE_CURVE('',#776,#222,#774,.T.) ;
#782=EDGE_CURVE('',#776,#744,#781,.T.) ;
#802=EDGE_CURVE('',#719,#801,#799,.T.) ;
#807=EDGE_CURVE('',#801,#213,#806,.T.) ;
#827=EDGE_CURVE('',#826,#176,#824,.T.) ;
#832=EDGE_CURVE('',#826,#662,#831,.T.) ;
#852=EDGE_CURVE('',#637,#851,#849,.T.) ;
#857=EDGE_CURVE('',#851,#167,#856,.T.) ;
#875=EDGE_CURVE('',#801,#776,#874,.T.) ;
#893=EDGE_CURVE('',#851,#826,#892,.T.) ;
#913=EDGE_CURVE('',#746,#912,#910,.T.) ;
#918=EDGE_CURVE('',#912,#116,#917,.F.) ;
#936=EDGE_CURVE('',#912,#505,#935,.T.) ;
#956=EDGE_CURVE('',#955,#348,#953,.T.) ;
#961=EDGE_CURVE('',#955,#430,#960,.F.) ;
#1011=EDGE_CURVE('',#467,#955,#995,.T.) ;
#59=EDGE_LOOP('',(#60,#61,#62,#63)) ;
#98=EDGE_LOOP('',(#99,#100,#101,#102)) ;
#243=EDGE_LOOP('',(#244,#245,#246,#247,#248,#249,#250,#251,#252,#253,#254,#255,#256,#257,#258,#259,#260,#261)) ;
#287=EDGE_LOOP('',(#288,#289,#290,#291)) ;
#312=EDGE_LOOP('',(#313,#314,#315,#316)) ;
#330=EDGE_LOOP('',(#331,#332,#333,#334)) ;
#362=EDGE_LOOP('',(#363,#364,#365,#366)) ;
#387=EDGE_LOOP('',(#388,#389,#390,#391)) ;
#412=EDGE_LOOP('',(#413,#414,#415,#416)) ;
#444=EDGE_LOOP('',(#445,#446,#447,#448)) ;
#474=EDGE_LOOP('',(#475,#476,#477,#478)) ;
#487=EDGE_LOOP('',(#488,#489,#490,#491)) ;
#519=EDGE_LOOP('',(#520,#521,#522,#523)) ;
#544=EDGE_LOOP('',(#545,#546,#547,#548)) ;
#569=EDGE_LOOP('',(#570,#571,#572,#573)) ;
#594=EDGE_LOOP('',(#595,#596,#597,#598)) ;
#619=EDGE_LOOP('',(#620,#621,#622,#623)) ;
#644=EDGE_LOOP('',(#645,#646,#647,#648)) ;
#676=EDGE_LOOP('',(#677,#678,#679,#680)) ;
#701=EDGE_LOOP('',(#702,#703,#704,#705)) ;
#726=EDGE_LOOP('',(#727,#728,#729,#730)) ;
#758=EDGE_LOOP('',(#759,#760,#761,#762)) ;
#783=EDGE_LOOP('',(#784,#785,#786,#787)) ;
#808=EDGE_LOOP('',(#809,#810,#811,#812)) ;
#833=EDGE_LOOP('',(#834,#835,#836,#837)) ;
#858=EDGE_LOOP('',(#859,#860,#861,#862)) ;
#876=EDGE_LOOP('',(#877,#878,#879,#880)) ;
#894=EDGE_LOOP('',(#895,#896,#897,#898)) ;
#919=EDGE_LOOP('',(#920,#921,#922,#923)) ;
#937=EDGE_LOOP('',(#938,#939,#940,#941)) ;
#962=EDGE_LOOP('',(#963,#964,#965,#966)) ;
#975=EDGE_LOOP('',(#976,#977,#978,#979,#980,#981,#982,#983,#984,#985,#986,#987,#988,#989,#990,#991,#992,#993)) ;
#1012=EDGE_LOOP('',(#1013,#1014,#1015,#1016)) ;
#1025=EDGE_LOOP('',(#1026,#1027,#1028,#1029)) ;
#64=FACE_OUTER_BOUND('',#59,.T.) ;
#103=FACE_OUTER_BOUND('',#98,.T.) ;
#262=FACE_OUTER_BOUND('',#243,.T.) ;
#317=FACE_OUTER_BOUND('',#312,.T.) ;
#335=FACE_OUTER_BOUND('',#330,.T.) ;
#367=FACE_OUTER_BOUND('',#362,.T.) ;
#392=FACE_OUTER_BOUND('',#387,.T.) ;
#417=FACE_OUTER_BOUND('',#412,.T.) ;
#449=FACE_OUTER_BOUND('',#444,.T.) ;
#479=FACE_OUTER_BOUND('',#474,.T.) ;
#492=FACE_OUTER_BOUND('',#487,.T.) ;
#524=FACE_OUTER_BOUND('',#519,.T.) ;
#549=FACE_OUTER_BOUND('',#544,.T.) ;
#574=FACE_OUTER_BOUND('',#569,.T.) ;
#599=FACE_OUTER_BOUND('',#594,.T.) ;
#624=FACE_OUTER_BOUND('',#619,.T.) ;
#649=FACE_OUTER_BOUND('',#644,.T.) ;
#681=FACE_OUTER_BOUND('',#676,.T.) ;
#706=FACE_OUTER_BOUND('',#701,.T.) ;
#731=FACE_OUTER_BOUND('',#726,.T.) ;
#763=FACE_OUTER_BOUND('',#758,.T.) ;
#788=FACE_OUTER_BOUND('',#783,.T.) ;
#813=FACE_OUTER_BOUND('',#808,.T.) ;
#838=FACE_OUTER_BOUND('',#833,.T.) ;
#863=FACE_OUTER_BOUND('',#858,.T.) ;
#881=FACE_OUTER_BOUND('',#876,.T.) ;
#899=FACE_OUTER_BOUND('',#894,.T.) ;
#924=FACE_OUTER_BOUND('',#919,.T.) ;
#942=FACE_OUTER_BOUND('',#937,.T.) ;
#967=FACE_OUTER_BOUND('',#962,.T.) ;
#994=FACE_OUTER_BOUND('',#975,.T.) ;
#1030=FACE_OUTER_BOUND('',#1025,.T.) ;
#1041=GEOMETRIC_SET('NONE',(#1033,#1042,#1048,#1054)) ;
#34=LINE('Line',#31,#33) ;
#50=LINE('Line',#47,#49) ;
#82=LINE('Line',#79,#81) ;
#89=LINE('Line',#86,#88) ;
#96=LINE('Line',#93,#95) ;
#114=LINE('Line',#111,#113) ;
#123=LINE('Line',#120,#122) ;
#130=LINE('Line',#127,#129) ;
#137=LINE('Line',#134,#136) ;
#144=LINE('Line',#141,#143) ;
#151=LINE('Line',#148,#150) ;
#158=LINE('Line',#155,#157) ;
#165=LINE('Line',#162,#164) ;
#196=LINE('Line',#193,#195) ;
#227=LINE('Line',#224,#226) ;
#234=LINE('Line',#231,#233) ;
#241=LINE('Line',#238,#240) ;
#285=LINE('Line',#282,#284) ;
#303=LINE('Line',#300,#302) ;
#310=LINE('Line',#307,#309) ;
#346=LINE('Line',#343,#345) ;
#360=LINE('Line',#357,#359) ;
#378=LINE('Line',#375,#377) ;
#385=LINE('Line',#382,#384) ;
#403=LINE('Line',#400,#402) ;
#428=LINE('Line',#425,#427) ;
#435=LINE('Line',#432,#434) ;
#460=LINE('Line',#457,#459) ;
#465=LINE('Line',#462,#464) ;
#472=LINE('Line',#469,#471) ;
#503=LINE('Line',#500,#502) ;
#512=LINE('Line',#509,#511) ;
#517=LINE('Line',#514,#516) ;
#535=LINE('Line',#532,#534) ;
#542=LINE('Line',#539,#541) ;
#560=LINE('Line',#557,#559) ;
#567=LINE('Line',#564,#566) ;
#585=LINE('Line',#582,#584) ;
#592=LINE('Line',#589,#591) ;
#610=LINE('Line',#607,#609) ;
#617=LINE('Line',#614,#616) ;
#635=LINE('Line',#632,#634) ;
#642=LINE('Line',#639,#641) ;
#669=LINE('Line',#666,#668) ;
#674=LINE('Line',#671,#673) ;
#692=LINE('Line',#689,#691) ;
#699=LINE('Line',#696,#698) ;
#724=LINE('Line',#721,#723) ;
#742=LINE('Line',#739,#741) ;
#751=LINE('Line',#748,#750) ;
#756=LINE('Line',#753,#755) ;
#774=LINE('Line',#771,#773) ;
#781=LINE('Line',#778,#780) ;
#799=LINE('Line',#796,#798) ;
#806=LINE('Line',#803,#805) ;
#824=LINE('Line',#821,#823) ;
#831=LINE('Line',#828,#830) ;
#849=LINE('Line',#846,#848) ;
#856=LINE('Line',#853,#855) ;
#910=LINE('Line',#907,#909) ;
#917=LINE('Line',#914,#916) ;
#935=LINE('Line',#932,#934) ;
#953=LINE('Line',#950,#952) ;
#960=LINE('Line',#957,#959) ;
#78=PLANE('',#77) ;
#110=PLANE('',#109) ;
#299=PLANE('',#298) ;
#374=PLANE('',#373) ;
#456=PLANE('',#455) ;
#486=PLANE('',#485) ;
#499=PLANE('',#498) ;
#531=PLANE('',#530) ;
#556=PLANE('',#555) ;
#581=PLANE('',#580) ;
#606=PLANE('',#605) ;
#631=PLANE('',#630) ;
#688=PLANE('',#687) ;
#738=PLANE('',#737) ;
#770=PLANE('',#769) ;
#795=PLANE('',#794) ;
#820=PLANE('',#819) ;
#845=PLANE('',#844) ;
#906=PLANE('',#905) ;
#931=PLANE('',#930) ;
#949=PLANE('',#948) ;
#974=PLANE('',#973) ;
#7=PRODUCT_CATEGORY_RELATIONSHIP(' ',' ',#5,#6) ;
#17=PRODUCT_DEFINITION_FORMATION_WITH_SPECIFIED_SOURCE('',' ',#16,.NOT_KNOWN.) ;
#20=SHAPE_DEFINITION_REPRESENTATION(#19,#13) ;
#36=VERTEX_POINT('',#35) ;
#38=VERTEX_POINT('',#37) ;
#45=VERTEX_POINT('',#44) ;
#52=VERTEX_POINT('',#51) ;
#84=VERTEX_POINT('',#83) ;
#91=VERTEX_POINT('',#90) ;
#116=VERTEX_POINT('',#115) ;
#118=VERTEX_POINT('',#117) ;
#125=VERTEX_POINT('',#124) ;
#132=VERTEX_POINT('',#131) ;
#139=VERTEX_POINT('',#138) ;
#146=VERTEX_POINT('',#145) ;
#153=VERTEX_POINT('',#152) ;
#160=VERTEX_POINT('',#159) ;
#167=VERTEX_POINT('',#166) ;
#176=VERTEX_POINT('',#175) ;
#182=VERTEX_POINT('',#181) ;
#191=VERTEX_POINT('',#190) ;
#198=VERTEX_POINT('',#197) ;
#207=VERTEX_POINT('',#206) ;
#213=VERTEX_POINT('',#212) ;
#222=VERTEX_POINT('',#221) ;
#229=VERTEX_POINT('',#228) ;
#236=VERTEX_POINT('',#235) ;
#280=VERTEX_POINT('',#279) ;
#305=VERTEX_POINT('',#304) ;
#348=VERTEX_POINT('',#347) ;
#355=VERTEX_POINT('',#354) ;
#380=VERTEX_POINT('',#379) ;
#405=VERTEX_POINT('',#404) ;
#430=VERTEX_POINT('',#429) ;
#437=VERTEX_POINT('',#436) ;
#467=VERTEX_POINT('',#466) ;
#505=VERTEX_POINT('',#504) ;
#507=VERTEX_POINT('',#506) ;
#537=VERTEX_POINT('',#536) ;
#562=VERTEX_POINT('',#561) ;
#587=VERTEX_POINT('',#586) ;
#612=VERTEX_POINT('',#611) ;
#637=VERTEX_POINT('',#636) ;
#662=VERTEX_POINT('',#661) ;
#664=VERTEX_POINT('',#663) ;
#694=VERTEX_POINT('',#693) ;
#719=VERTEX_POINT('',#718) ;
#744=VERTEX_POINT('',#743) ;
#746=VERTEX_POINT('',#745) ;
#776=VERTEX_POINT('',#775) ;
#801=VERTEX_POINT('',#800) ;
#826=VERTEX_POINT('',#825) ;
#851=VERTEX_POINT('',#850) ;
#912=VERTEX_POINT('',#911) ;
#955=VERTEX_POINT('',#954) ;
#8=(LENGTH_UNIT()NAMED_UNIT(*)SI_UNIT(.MILLI.,.METRE.)) ;
#9=(NAMED_UNIT(*)PLANE_ANGLE_UNIT()SI_UNIT($,.RADIAN.)) ;
#10=(NAMED_UNIT(*)SI_UNIT($,.STERADIAN.)SOLID_ANGLE_UNIT()) ;
#12=(GEOMETRIC_REPRESENTATION_CONTEXT(3)GLOBAL_UNCERTAINTY_ASSIGNED_CONTEXT((#11))GLOBAL_UNIT_ASSIGNED_CONTEXT((#8,#9,#10))REPRESENTATION_CONTEXT(' ',' ')) ;
ENDSEC;
END-ISO-10303-21;
