ISO-10303-21;
HEADER;
FILE_DESCRIPTION(('3DEXPERIENCE STEP','CAx-IF Rec.Pracs.--- Model Styling and Organization---1.5--- 2016-08-15','CAx-IF Rec.Pracs.---Supplemental Geometry---1.0---2011-11-01','CAx-IF Rec.Pracs.---User Defined Attributes---1.5---2016-08-15','CAx-IF Rec.Pracs.--- Composite Materials ---1.1---2010-07-15'),'2;1');

FILE_NAME('/SPA_UserData/ContentOptimizer/2998854_2026-04-23-03h20m43-455006384/CATTemp/CO_SPACOConvertCgm0004-PID2998896/ResultFile.step','2026-04-23T03:21:01+00:00',('none'),('none'),'3DEXPERIENCE Platform3D Asset Translator 6.1.3','3DEXPERIENCE Platform STEP AP214 v3','none');

FILE_SCHEMA(('AUTOMOTIVE_DESIGN { 1 0 10303 214 1 1 1 1 }'));

ENDSEC;
DATA;
#16=PRODUCT('ResultFile','ResultFile','',(#2)) ;
#2=PRODUCT_CONTEXT(' ',#1,'mechanical') ;
#1=APPLICATION_CONTEXT('automotive design') ;
#18=PRODUCT_DEFINITION('ResultFile',' ',#17,#3) ;
#3=PRODUCT_DEFINITION_CONTEXT('part definition',#1,' ') ;
#19=PRODUCT_DEFINITION_SHAPE(' ',' ',#18) ;
#24=SHAPE_ASPECT('','',#19,.F.) ;
#1026=SHAPE_ASPECT('','',#19,.F.) ;
#1033=SHAPE_ASPECT('','',#19,.F.) ;
#1039=SHAPE_ASPECT('','',#19,.F.) ;
#1045=SHAPE_ASPECT('','',#19,.F.) ;
#1051=SHAPE_ASPECT('','',#19,.F.) ;
#1057=SHAPE_ASPECT('','',#19,.F.) ;
#1063=SHAPE_ASPECT('','',#19,.F.) ;
#1069=SHAPE_ASPECT('','',#19,.F.) ;
#1075=SHAPE_ASPECT('','',#19,.F.) ;
#1081=SHAPE_ASPECT('','',#19,.F.) ;
#1087=SHAPE_ASPECT('','',#19,.F.) ;
#1093=SHAPE_ASPECT('','',#19,.F.) ;
#1099=SHAPE_ASPECT('','',#19,.F.) ;
#1105=SHAPE_ASPECT('','',#19,.F.) ;
#1111=SHAPE_ASPECT('','',#19,.F.) ;
#1117=SHAPE_ASPECT('','',#19,.F.) ;
#1118=MECHANICAL_DESIGN_GEOMETRIC_PRESENTATION_REPRESENTATION(' ',(#73,#352,#384,#409,#434,#459,#484,#509,#534,#552,#768,#791,#809,#827,#840,#863,#886,#894,#917,#940,#953,#966,#974,#987,#1010,#1018,#23),#12) ;
#1119=MECHANICAL_DESIGN_GEOMETRIC_PRESENTATION_REPRESENTATION(' ',(#1024,#1032,#1038,#1044,#1050,#1056,#1062,#1068,#1074,#1080,#1086,#1092,#1098,#1104,#1110,#1116),#12) ;
#13=SHAPE_REPRESENTATION(' ',(#15,#21,#1027),#12) ;
#15=AXIS2_PLACEMENT_3D('',#14,$,$) ;
#29=AXIS2_PLACEMENT_3D('Cylinder Axis2P3D',#26,#27,#28) ;
#42=AXIS2_PLACEMENT_3D('Circle Axis2P3D',#40,#41,$) ;
#56=AXIS2_PLACEMENT_3D('Circle Axis2P3D',#54,#55,$) ;
#77=AXIS2_PLACEMENT_3D('Plane Axis2P3D',#74,#75,#76) ;
#356=AXIS2_PLACEMENT_3D('Cylinder Axis2P3D',#353,#354,#355) ;
#374=AXIS2_PLACEMENT_3D('Circle Axis2P3D',#372,#373,$) ;
#388=AXIS2_PLACEMENT_3D('Plane Axis2P3D',#385,#386,#387) ;
#413=AXIS2_PLACEMENT_3D('Cylinder Axis2P3D',#410,#411,#412) ;
#417=AXIS2_PLACEMENT_3D('Circle Axis2P3D',#415,#416,$) ;
#438=AXIS2_PLACEMENT_3D('Plane Axis2P3D',#435,#436,#437) ;
#463=AXIS2_PLACEMENT_3D('Plane Axis2P3D',#460,#461,#462) ;
#488=AXIS2_PLACEMENT_3D('Plane Axis2P3D',#485,#486,#487) ;
#513=AXIS2_PLACEMENT_3D('Cylinder Axis2P3D',#510,#511,#512) ;
#517=AXIS2_PLACEMENT_3D('Circle Axis2P3D',#515,#516,$) ;
#538=AXIS2_PLACEMENT_3D('Plane Axis2P3D',#535,#536,#537) ;
#556=AXIS2_PLACEMENT_3D('Plane Axis2P3D',#553,#554,#555) ;
#772=AXIS2_PLACEMENT_3D('Plane Axis2P3D',#769,#770,#771) ;
#795=AXIS2_PLACEMENT_3D('Plane Axis2P3D',#792,#793,#794) ;
#813=AXIS2_PLACEMENT_3D('Plane Axis2P3D',#810,#811,#812) ;
#831=AXIS2_PLACEMENT_3D('Plane Axis2P3D',#828,#829,#830) ;
#844=AXIS2_PLACEMENT_3D('Cylinder Axis2P3D',#841,#842,#843) ;
#867=AXIS2_PLACEMENT_3D('Cylinder Axis2P3D',#864,#865,#866) ;
#898=AXIS2_PLACEMENT_3D('Cylinder Axis2P3D',#895,#896,#897) ;
#921=AXIS2_PLACEMENT_3D('Cylinder Axis2P3D',#918,#919,#920) ;
#944=AXIS2_PLACEMENT_3D('Plane Axis2P3D',#941,#942,#943) ;
#957=AXIS2_PLACEMENT_3D('Plane Axis2P3D',#954,#955,#956) ;
#978=AXIS2_PLACEMENT_3D('Cylinder Axis2P3D',#975,#976,#977) ;
#991=AXIS2_PLACEMENT_3D('Cylinder Axis2P3D',#988,#989,#990) ;
#14=CARTESIAN_POINT('',(0.,0.,0.)) ;
#26=CARTESIAN_POINT('Axis2P3D Location',(-11.2395,-3.175,26.1920589464)) ;
#31=CARTESIAN_POINT('Line Origine',(-8.0645,0.,26.1920589464)) ;
#35=CARTESIAN_POINT('Vertex',(-8.0645,-3.175,26.1920589464)) ;
#37=CARTESIAN_POINT('Vertex',(-8.0645,3.175,26.1920589464)) ;
#40=CARTESIAN_POINT('Axis2P3D Location',(-11.2395,3.175,26.1920589464)) ;
#44=CARTESIAN_POINT('Vertex',(-8.43653267522,3.175,24.7007510721)) ;
#47=CARTESIAN_POINT('Line Origine',(-8.43653267522,0.,24.7007510721)) ;
#51=CARTESIAN_POINT('Vertex',(-8.43653267522,-3.175,24.7007510721)) ;
#54=CARTESIAN_POINT('Axis2P3D Location',(-11.2395,-3.175,26.1920589464)) ;
#74=CARTESIAN_POINT('Axis2P3D Location',(0.,3.175,0.)) ;
#80=CARTESIAN_POINT('Control Point',(-8.0645,3.175,30.1625)) ;
#81=CARTESIAN_POINT('Control Point',(-8.0645,3.175,31.1599556675)) ;
#82=CARTESIAN_POINT('Control Point',(-7.67392736215,3.175,32.1583419677)) ;
#83=CARTESIAN_POINT('Control Point',(-6.88534196768,3.175,32.9469273622)) ;
#84=CARTESIAN_POINT('Control Point',(-5.88695566751,3.175,33.3375)) ;
#85=CARTESIAN_POINT('Control Point',(-4.8895,3.175,33.3375)) ;
#86=CARTESIAN_POINT('Vertex',(-8.0645,3.175,30.1625)) ;
#88=CARTESIAN_POINT('Vertex',(-4.8895,3.175,33.3375)) ;
#91=CARTESIAN_POINT('Line Origine',(-4.8895,3.175,7.14375)) ;
#95=CARTESIAN_POINT('Vertex',(-4.8895,3.175,30.1624999993)) ;
#98=CARTESIAN_POINT('Line Origine',(8.46966941026E-12,3.175,30.1625)) ;
#102=CARTESIAN_POINT('Vertex',(4.8895,3.175,30.1625)) ;
#105=CARTESIAN_POINT('Line Origine',(4.8895,3.175,7.14375)) ;
#109=CARTESIAN_POINT('Vertex',(4.8895,3.175,33.3375)) ;
#113=CARTESIAN_POINT('Control Point',(4.8895,3.175,33.3375)) ;
#114=CARTESIAN_POINT('Control Point',(5.88695566751,3.175,33.3375)) ;
#115=CARTESIAN_POINT('Control Point',(6.88534196768,3.175,32.9469273622)) ;
#116=CARTESIAN_POINT('Control Point',(7.67392736215,3.175,32.1583419677)) ;
#117=CARTESIAN_POINT('Control Point',(8.0645,3.175,31.1599556675)) ;
#118=CARTESIAN_POINT('Control Point',(8.0645,3.175,30.1625)) ;
#119=CARTESIAN_POINT('Vertex',(8.0645,3.175,30.1625)) ;
#122=CARTESIAN_POINT('Line Origine',(8.0645,3.175,7.14375)) ;
#126=CARTESIAN_POINT('Vertex',(8.0645,3.175,26.1920589464)) ;
#130=CARTESIAN_POINT('Control Point',(8.43653267522,3.175,24.7007510721)) ;
#131=CARTESIAN_POINT('Control Point',(8.19347204488,3.175,25.1575923565)) ;
#132=CARTESIAN_POINT('Control Point',(8.0645,3.175,25.6745819623)) ;
#133=CARTESIAN_POINT('Control Point',(8.0645,3.175,26.1920589464)) ;
#134=CARTESIAN_POINT('Vertex',(8.43653267522,3.175,24.7007510721)) ;
#138=CARTESIAN_POINT('Control Point',(8.43653267522,3.175,24.7007510721)) ;
#139=CARTESIAN_POINT('Control Point',(16.817797758,3.175,8.94785888192)) ;
#140=CARTESIAN_POINT('Vertex',(16.817797758,3.175,8.94785888192)) ;
#144=CARTESIAN_POINT('Control Point',(16.817797758,3.175,8.94785888192)) ;
#145=CARTESIAN_POINT('Control Point',(18.6608344671,3.175,5.48381021483)) ;
#146=CARTESIAN_POINT('Control Point',(19.6119861817,3.175,1.54523681008)) ;
#147=CARTESIAN_POINT('Control Point',(19.5052498597,3.175,-2.56183268336)) ;
#148=CARTESIAN_POINT('Control Point',(17.1963611783,3.175,-10.3295371868)) ;
#149=CARTESIAN_POINT('Control Point',(11.4233389585,3.175,-16.0164005265)) ;
#150=CARTESIAN_POINT('Control Point',(7.84765378413,3.175,-18.0397363859)) ;
#151=CARTESIAN_POINT('Control Point',(1.26847367825E-11,3.175,-20.0602636141)) ;
#152=CARTESIAN_POINT('Control Point',(-7.84765378411,3.175,-18.0397363859)) ;
#153=CARTESIAN_POINT('Control Point',(-11.4233389585,3.175,-16.0164005265)) ;
#154=CARTESIAN_POINT('Control Point',(-17.1963611783,3.175,-10.3295371868)) ;
#155=CARTESIAN_POINT('Control Point',(-19.5052498597,3.175,-2.56183268336)) ;
#156=CARTESIAN_POINT('Control Point',(-19.6119861816,3.175,1.54523681007)) ;
#157=CARTESIAN_POINT('Control Point',(-18.660834467,3.175,5.48381021483)) ;
#158=CARTESIAN_POINT('Control Point',(-16.817797758,3.175,8.94785888192)) ;
#159=CARTESIAN_POINT('Vertex',(-16.817797758,3.175,8.94785888192)) ;
#163=CARTESIAN_POINT('Control Point',(-16.817797758,3.175,8.94785888192)) ;
#164=CARTESIAN_POINT('Control Point',(-8.43653267522,3.175,24.7007510721)) ;
#166=CARTESIAN_POINT('Line Origine',(-8.0645,3.175,7.14375)) ;
#186=CARTESIAN_POINT('Control Point',(10.709515796,3.175,7.239)) ;
#187=CARTESIAN_POINT('Control Point',(10.709515796,3.175,7.81353446449)) ;
#188=CARTESIAN_POINT('Control Point',(10.9351349526,3.175,8.38806892898)) ;
#189=CARTESIAN_POINT('Control Point',(11.389246867,3.175,8.84218084339)) ;
#190=CARTESIAN_POINT('Control Point',(12.538315796,3.175,9.29341915661)) ;
#191=CARTESIAN_POINT('Control Point',(13.687384725,3.175,8.84218084339)) ;
#192=CARTESIAN_POINT('Control Point',(14.1414966394,3.175,8.38806892898)) ;
#193=CARTESIAN_POINT('Control Point',(14.367115796,3.175,7.81353446449)) ;
#194=CARTESIAN_POINT('Control Point',(14.367115796,3.175,7.239)) ;
#195=CARTESIAN_POINT('Vertex',(10.709515796,3.175,7.239)) ;
#197=CARTESIAN_POINT('Vertex',(14.367115796,3.175,7.239)) ;
#201=CARTESIAN_POINT('Control Point',(14.367115796,3.175,7.239)) ;
#202=CARTESIAN_POINT('Control Point',(14.367115796,3.175,6.66446553552)) ;
#203=CARTESIAN_POINT('Control Point',(14.1414966394,3.175,6.08993107103)) ;
#204=CARTESIAN_POINT('Control Point',(13.687384725,3.175,5.63581915661)) ;
#205=CARTESIAN_POINT('Control Point',(12.538315796,3.175,5.18458084339)) ;
#206=CARTESIAN_POINT('Control Point',(11.389246867,3.175,5.63581915661)) ;
#207=CARTESIAN_POINT('Control Point',(10.9351349526,3.175,6.08993107103)) ;
#208=CARTESIAN_POINT('Control Point',(10.709515796,3.175,6.66446553552)) ;
#209=CARTESIAN_POINT('Control Point',(10.709515796,3.175,7.239)) ;
#216=CARTESIAN_POINT('Control Point',(1.8288,3.175,-14.478)) ;
#217=CARTESIAN_POINT('Control Point',(1.8288,3.175,-15.0525344645)) ;
#218=CARTESIAN_POINT('Control Point',(1.60318084339,3.175,-15.627068929)) ;
#219=CARTESIAN_POINT('Control Point',(1.14906892898,3.175,-16.0811808434)) ;
#220=CARTESIAN_POINT('Control Point',(2.07238374609E-14,3.175,-16.5324191566)) ;
#221=CARTESIAN_POINT('Control Point',(-1.14906892898,3.175,-16.0811808434)) ;
#222=CARTESIAN_POINT('Control Point',(-1.60318084339,3.175,-15.627068929)) ;
#223=CARTESIAN_POINT('Control Point',(-1.8288,3.175,-15.0525344645)) ;
#224=CARTESIAN_POINT('Control Point',(-1.8288,3.175,-14.478)) ;
#225=CARTESIAN_POINT('Vertex',(1.8288,3.175,-14.478)) ;
#227=CARTESIAN_POINT('Vertex',(-1.8288,3.175,-14.478)) ;
#231=CARTESIAN_POINT('Control Point',(-1.8288,3.175,-14.478)) ;
#232=CARTESIAN_POINT('Control Point',(-1.8288,3.175,-13.9034655355)) ;
#233=CARTESIAN_POINT('Control Point',(-1.60318084339,3.175,-13.328931071)) ;
#234=CARTESIAN_POINT('Control Point',(-1.14906892898,3.175,-12.8748191566)) ;
#235=CARTESIAN_POINT('Control Point',(2.17454350822E-14,3.175,-12.4235808434)) ;
#236=CARTESIAN_POINT('Control Point',(1.14906892898,3.175,-12.8748191566)) ;
#237=CARTESIAN_POINT('Control Point',(1.60318084339,3.175,-13.328931071)) ;
#238=CARTESIAN_POINT('Control Point',(1.8288,3.175,-13.9034655355)) ;
#239=CARTESIAN_POINT('Control Point',(1.8288,3.175,-14.478)) ;
#246=CARTESIAN_POINT('Control Point',(-14.367115796,3.175,7.239)) ;
#247=CARTESIAN_POINT('Control Point',(-14.367115796,3.175,7.81353446448)) ;
#248=CARTESIAN_POINT('Control Point',(-14.1414966394,3.175,8.38806892897)) ;
#249=CARTESIAN_POINT('Control Point',(-13.687384725,3.175,8.84218084339)) ;
#250=CARTESIAN_POINT('Control Point',(-12.538315796,3.175,9.29341915661)) ;
#251=CARTESIAN_POINT('Control Point',(-11.389246867,3.175,8.84218084339)) ;
#252=CARTESIAN_POINT('Control Point',(-10.9351349526,3.175,8.38806892897)) ;
#253=CARTESIAN_POINT('Control Point',(-10.709515796,3.175,7.81353446448)) ;
#254=CARTESIAN_POINT('Control Point',(-10.709515796,3.175,7.239)) ;
#255=CARTESIAN_POINT('Vertex',(-14.367115796,3.175,7.239)) ;
#257=CARTESIAN_POINT('Vertex',(-10.709515796,3.175,7.239)) ;
#261=CARTESIAN_POINT('Control Point',(-10.709515796,3.175,7.239)) ;
#262=CARTESIAN_POINT('Control Point',(-10.709515796,3.175,6.66446553551)) ;
#263=CARTESIAN_POINT('Control Point',(-10.9351349526,3.175,6.08993107102)) ;
#264=CARTESIAN_POINT('Control Point',(-11.389246867,3.175,5.63581915661)) ;
#265=CARTESIAN_POINT('Control Point',(-12.538315796,3.175,5.18458084339)) ;
#266=CARTESIAN_POINT('Control Point',(-13.687384725,3.175,5.63581915661)) ;
#267=CARTESIAN_POINT('Control Point',(-14.1414966394,3.175,6.08993107102)) ;
#268=CARTESIAN_POINT('Control Point',(-14.367115796,3.175,6.66446553551)) ;
#269=CARTESIAN_POINT('Control Point',(-14.367115796,3.175,7.239)) ;
#275=CARTESIAN_POINT('Line Origine',(8.46966941026E-12,3.175,14.2875)) ;
#279=CARTESIAN_POINT('Vertex',(-4.8895,3.175,14.2875)) ;
#281=CARTESIAN_POINT('Vertex',(4.8895,3.175,14.2875)) ;
#284=CARTESIAN_POINT('Line Origine',(4.8895,3.175,7.14375)) ;
#288=CARTESIAN_POINT('Vertex',(4.8895,3.175,20.8915)) ;
#291=CARTESIAN_POINT('Line Origine',(8.46966941026E-12,3.175,20.8915)) ;
#295=CARTESIAN_POINT('Vertex',(-4.8895,3.175,20.8915)) ;
#298=CARTESIAN_POINT('Line Origine',(-4.8895,3.175,7.14375)) ;
#310=CARTESIAN_POINT('Control Point',(8.06450000001,3.175,5.77315972805E-14)) ;
#311=CARTESIAN_POINT('Control Point',(8.06450000001,3.175,-1.26676869774)) ;
#312=CARTESIAN_POINT('Control Point',(7.81577054784,3.175,-2.53353739549)) ;
#313=CARTESIAN_POINT('Control Point',(7.31806582732,3.175,-3.73510288183)) ;
#314=CARTESIAN_POINT('Control Point',(5.87834091919,3.175,-5.87834091919)) ;
#315=CARTESIAN_POINT('Control Point',(3.73510288184,3.175,-7.31806582731)) ;
#316=CARTESIAN_POINT('Control Point',(2.5335373955,3.175,-7.81577054784)) ;
#317=CARTESIAN_POINT('Control Point',(8.47737538012E-12,3.175,-8.31322945216)) ;
#318=CARTESIAN_POINT('Control Point',(-2.53353739548,3.175,-7.81577054784)) ;
#319=CARTESIAN_POINT('Control Point',(-3.73510288183,3.175,-7.31806582731)) ;
#320=CARTESIAN_POINT('Control Point',(-5.87834091918,3.175,-5.87834091919)) ;
#321=CARTESIAN_POINT('Control Point',(-7.3180658273,3.175,-3.73510288183)) ;
#322=CARTESIAN_POINT('Control Point',(-7.81577054783,3.175,-2.53353739549)) ;
#323=CARTESIAN_POINT('Control Point',(-8.06449999999,3.175,-1.26676869774)) ;
#324=CARTESIAN_POINT('Control Point',(-8.06449999999,3.175,5.50670620214E-14)) ;
#325=CARTESIAN_POINT('Vertex',(8.06450000001,3.175,5.7831035272E-14)) ;
#327=CARTESIAN_POINT('Vertex',(-8.06449999999,3.175,5.68434188608E-14)) ;
#331=CARTESIAN_POINT('Control Point',(-8.06449999999,3.175,5.6399329651E-14)) ;
#332=CARTESIAN_POINT('Control Point',(-8.06449999999,3.175,1.26676869774)) ;
#333=CARTESIAN_POINT('Control Point',(-7.81577054783,3.175,2.53353739549)) ;
#334=CARTESIAN_POINT('Control Point',(-7.3180658273,3.175,3.73510288183)) ;
#335=CARTESIAN_POINT('Control Point',(-5.87834091918,3.175,5.87834091919)) ;
#336=CARTESIAN_POINT('Control Point',(-3.73510288183,3.175,7.31806582731)) ;
#337=CARTESIAN_POINT('Control Point',(-2.53353739548,3.175,7.81577054784)) ;
#338=CARTESIAN_POINT('Control Point',(8.47198895962E-12,3.175,8.31322945216)) ;
#339=CARTESIAN_POINT('Control Point',(2.5335373955,3.175,7.81577054784)) ;
#340=CARTESIAN_POINT('Control Point',(3.73510288184,3.175,7.31806582731)) ;
#341=CARTESIAN_POINT('Control Point',(5.87834091919,3.175,5.87834091919)) ;
#342=CARTESIAN_POINT('Control Point',(7.31806582732,3.175,3.73510288183)) ;
#343=CARTESIAN_POINT('Control Point',(7.81577054784,3.175,2.53353739549)) ;
#344=CARTESIAN_POINT('Control Point',(8.06450000001,3.175,1.26676869774)) ;
#345=CARTESIAN_POINT('Control Point',(8.06450000001,3.175,5.77315972805E-14)) ;
#353=CARTESIAN_POINT('Axis2P3D Location',(11.2395,-3.175,26.1920589464)) ;
#358=CARTESIAN_POINT('Line Origine',(8.43653267522,0.,24.7007510721)) ;
#362=CARTESIAN_POINT('Vertex',(8.43653267522,-3.175,24.7007510721)) ;
#365=CARTESIAN_POINT('Line Origine',(8.0645,0.,26.1920589464)) ;
#369=CARTESIAN_POINT('Vertex',(8.0645,-3.175,26.1920589464)) ;
#372=CARTESIAN_POINT('Axis2P3D Location',(11.2395,-3.175,26.1920589464)) ;
#385=CARTESIAN_POINT('Axis2P3D Location',(8.0645,-3.175,33.3375)) ;
#390=CARTESIAN_POINT('Line Origine',(8.0645,-3.175,28.1772794732)) ;
#394=CARTESIAN_POINT('Vertex',(8.0645,-3.175,30.1625)) ;
#397=CARTESIAN_POINT('Line Origine',(8.0645,-1.33226762955E-15,30.1625)) ;
#410=CARTESIAN_POINT('Axis2P3D Location',(4.8895,-3.175,30.1625)) ;
#415=CARTESIAN_POINT('Axis2P3D Location',(4.8895,-3.175,30.1625)) ;
#419=CARTESIAN_POINT('Vertex',(4.8895,-3.175,33.3375)) ;
#422=CARTESIAN_POINT('Line Origine',(4.8895,0.,33.3375)) ;
#435=CARTESIAN_POINT('Axis2P3D Location',(4.8895,-3.175,30.1625)) ;
#440=CARTESIAN_POINT('Line Origine',(4.8895,-2.6645352591E-15,30.1625)) ;
#444=CARTESIAN_POINT('Vertex',(4.8895,-3.175,30.1625)) ;
#447=CARTESIAN_POINT('Line Origine',(4.8895,-3.175,31.75)) ;
#460=CARTESIAN_POINT('Axis2P3D Location',(-4.8895,-3.175,30.1625)) ;
#465=CARTESIAN_POINT('Line Origine',(0.,-3.175,30.1625)) ;
#469=CARTESIAN_POINT('Vertex',(-4.8895,-3.175,30.1624999993)) ;
#472=CARTESIAN_POINT('Line Origine',(-4.8895,-2.6645352591E-15,30.1625)) ;
#485=CARTESIAN_POINT('Axis2P3D Location',(-4.8895,-3.175,33.3375)) ;
#490=CARTESIAN_POINT('Line Origine',(-4.8895,-8.881784197E-16,33.3375)) ;
#494=CARTESIAN_POINT('Vertex',(-4.8895,-3.175,33.3375)) ;
#497=CARTESIAN_POINT('Line Origine',(-4.8895,-3.175,31.7499999999)) ;
#510=CARTESIAN_POINT('Axis2P3D Location',(-4.8895,-3.175,30.1625)) ;
#515=CARTESIAN_POINT('Axis2P3D Location',(-4.8895,-3.175,30.1625)) ;
#519=CARTESIAN_POINT('Vertex',(-8.0645,-3.175,30.1625)) ;
#522=CARTESIAN_POINT('Line Origine',(-8.0645,0.,30.1625)) ;
#535=CARTESIAN_POINT('Axis2P3D Location',(-8.0645,-3.175,25.4)) ;
#540=CARTESIAN_POINT('Line Origine',(-8.0645,-3.175,28.1772794732)) ;
#553=CARTESIAN_POINT('Axis2P3D Location',(0.,-3.175,0.)) ;
#559=CARTESIAN_POINT('Control Point',(-16.817797758,-3.175,8.94785888192)) ;
#560=CARTESIAN_POINT('Control Point',(-8.43653267522,-3.175,24.7007510721)) ;
#561=CARTESIAN_POINT('Vertex',(-16.817797758,-3.175,8.94785888192)) ;
#565=CARTESIAN_POINT('Control Point',(16.817797758,-3.175,8.94785888192)) ;
#566=CARTESIAN_POINT('Control Point',(18.6608344671,-3.175,5.48381021483)) ;
#567=CARTESIAN_POINT('Control Point',(19.6119861817,-3.175,1.54523681008)) ;
#568=CARTESIAN_POINT('Control Point',(19.5052498597,-3.175,-2.56183268336)) ;
#569=CARTESIAN_POINT('Control Point',(17.1963611783,-3.175,-10.3295371868)) ;
#570=CARTESIAN_POINT('Control Point',(11.4233389585,-3.175,-16.0164005265)) ;
#571=CARTESIAN_POINT('Control Point',(7.84765378413,-3.175,-18.0397363859)) ;
#572=CARTESIAN_POINT('Control Point',(1.26847367825E-11,-3.175,-20.0602636141)) ;
#573=CARTESIAN_POINT('Control Point',(-7.84765378411,-3.175,-18.0397363859)) ;
#574=CARTESIAN_POINT('Control Point',(-11.4233389585,-3.175,-16.0164005265)) ;
#575=CARTESIAN_POINT('Control Point',(-17.1963611783,-3.175,-10.3295371868)) ;
#576=CARTESIAN_POINT('Control Point',(-19.5052498597,-3.175,-2.56183268336)) ;
#577=CARTESIAN_POINT('Control Point',(-19.6119861816,-3.175,1.54523681007)) ;
#578=CARTESIAN_POINT('Control Point',(-18.660834467,-3.175,5.48381021483)) ;
#579=CARTESIAN_POINT('Control Point',(-16.817797758,-3.175,8.94785888192)) ;
#580=CARTESIAN_POINT('Vertex',(16.817797758,-3.175,8.94785888192)) ;
#584=CARTESIAN_POINT('Control Point',(8.43653267522,-3.175,24.7007510721)) ;
#585=CARTESIAN_POINT('Control Point',(16.817797758,-3.175,8.94785888192)) ;
#602=CARTESIAN_POINT('Control Point',(14.367115796,-3.175,7.239)) ;
#603=CARTESIAN_POINT('Control Point',(14.367115796,-3.175,6.66446553552)) ;
#604=CARTESIAN_POINT('Control Point',(14.1414966394,-3.175,6.08993107103)) ;
#605=CARTESIAN_POINT('Control Point',(13.687384725,-3.175,5.63581915661)) ;
#606=CARTESIAN_POINT('Control Point',(12.538315796,-3.175,5.18458084339)) ;
#607=CARTESIAN_POINT('Control Point',(11.389246867,-3.175,5.63581915661)) ;
#608=CARTESIAN_POINT('Control Point',(10.9351349526,-3.175,6.08993107103)) ;
#609=CARTESIAN_POINT('Control Point',(10.709515796,-3.175,6.66446553552)) ;
#610=CARTESIAN_POINT('Control Point',(10.709515796,-3.175,7.239)) ;
#611=CARTESIAN_POINT('Vertex',(14.367115796,-3.175,7.239)) ;
#613=CARTESIAN_POINT('Vertex',(10.709515796,-3.175,7.239)) ;
#617=CARTESIAN_POINT('Control Point',(10.709515796,-3.175,7.239)) ;
#618=CARTESIAN_POINT('Control Point',(10.709515796,-3.175,7.81353446449)) ;
#619=CARTESIAN_POINT('Control Point',(10.9351349526,-3.175,8.38806892898)) ;
#620=CARTESIAN_POINT('Control Point',(11.389246867,-3.175,8.84218084339)) ;
#621=CARTESIAN_POINT('Control Point',(12.538315796,-3.175,9.29341915661)) ;
#622=CARTESIAN_POINT('Control Point',(13.687384725,-3.175,8.84218084339)) ;
#623=CARTESIAN_POINT('Control Point',(14.1414966394,-3.175,8.38806892898)) ;
#624=CARTESIAN_POINT('Control Point',(14.367115796,-3.175,7.81353446449)) ;
#625=CARTESIAN_POINT('Control Point',(14.367115796,-3.175,7.239)) ;
#632=CARTESIAN_POINT('Control Point',(-1.8288,-3.175,-14.478)) ;
#633=CARTESIAN_POINT('Control Point',(-1.8288,-3.175,-13.9034655355)) ;
#634=CARTESIAN_POINT('Control Point',(-1.60318084339,-3.175,-13.328931071)) ;
#635=CARTESIAN_POINT('Control Point',(-1.14906892898,-3.175,-12.8748191566)) ;
#636=CARTESIAN_POINT('Control Point',(2.17454350822E-14,-3.175,-12.4235808434)) ;
#637=CARTESIAN_POINT('Control Point',(1.14906892898,-3.175,-12.8748191566)) ;
#638=CARTESIAN_POINT('Control Point',(1.60318084339,-3.175,-13.328931071)) ;
#639=CARTESIAN_POINT('Control Point',(1.8288,-3.175,-13.9034655355)) ;
#640=CARTESIAN_POINT('Control Point',(1.8288,-3.175,-14.478)) ;
#641=CARTESIAN_POINT('Vertex',(-1.8288,-3.175,-14.478)) ;
#643=CARTESIAN_POINT('Vertex',(1.8288,-3.175,-14.478)) ;
#647=CARTESIAN_POINT('Control Point',(1.8288,-3.175,-14.478)) ;
#648=CARTESIAN_POINT('Control Point',(1.8288,-3.175,-15.0525344645)) ;
#649=CARTESIAN_POINT('Control Point',(1.60318084339,-3.175,-15.627068929)) ;
#650=CARTESIAN_POINT('Control Point',(1.14906892898,-3.175,-16.0811808434)) ;
#651=CARTESIAN_POINT('Control Point',(2.07238374609E-14,-3.175,-16.5324191566)) ;
#652=CARTESIAN_POINT('Control Point',(-1.14906892898,-3.175,-16.0811808434)) ;
#653=CARTESIAN_POINT('Control Point',(-1.60318084339,-3.175,-15.627068929)) ;
#654=CARTESIAN_POINT('Control Point',(-1.8288,-3.175,-15.0525344645)) ;
#655=CARTESIAN_POINT('Control Point',(-1.8288,-3.175,-14.478)) ;
#662=CARTESIAN_POINT('Control Point',(-10.709515796,-3.175,7.239)) ;
#663=CARTESIAN_POINT('Control Point',(-10.709515796,-3.175,6.66446553551)) ;
#664=CARTESIAN_POINT('Control Point',(-10.9351349526,-3.175,6.08993107102)) ;
#665=CARTESIAN_POINT('Control Point',(-11.389246867,-3.175,5.63581915661)) ;
#666=CARTESIAN_POINT('Control Point',(-12.538315796,-3.175,5.18458084339)) ;
#667=CARTESIAN_POINT('Control Point',(-13.687384725,-3.175,5.63581915661)) ;
#668=CARTESIAN_POINT('Control Point',(-14.1414966394,-3.175,6.08993107102)) ;
#669=CARTESIAN_POINT('Control Point',(-14.367115796,-3.175,6.66446553551)) ;
#670=CARTESIAN_POINT('Control Point',(-14.367115796,-3.175,7.239)) ;
#671=CARTESIAN_POINT('Vertex',(-10.709515796,-3.175,7.239)) ;
#673=CARTESIAN_POINT('Vertex',(-14.367115796,-3.175,7.239)) ;
#677=CARTESIAN_POINT('Control Point',(-14.367115796,-3.175,7.239)) ;
#678=CARTESIAN_POINT('Control Point',(-14.367115796,-3.175,7.81353446448)) ;
#679=CARTESIAN_POINT('Control Point',(-14.1414966394,-3.175,8.38806892897)) ;
#680=CARTESIAN_POINT('Control Point',(-13.687384725,-3.175,8.84218084339)) ;
#681=CARTESIAN_POINT('Control Point',(-12.538315796,-3.175,9.29341915661)) ;
#682=CARTESIAN_POINT('Control Point',(-11.389246867,-3.175,8.84218084339)) ;
#683=CARTESIAN_POINT('Control Point',(-10.9351349526,-3.175,8.38806892897)) ;
#684=CARTESIAN_POINT('Control Point',(-10.709515796,-3.175,7.81353446448)) ;
#685=CARTESIAN_POINT('Control Point',(-10.709515796,-3.175,7.239)) ;
#691=CARTESIAN_POINT('Line Origine',(-4.8895,-3.175,7.14375)) ;
#695=CARTESIAN_POINT('Vertex',(-4.8895,-3.175,20.8915)) ;
#697=CARTESIAN_POINT('Vertex',(-4.8895,-3.175,14.2875)) ;
#700=CARTESIAN_POINT('Line Origine',(8.46966941026E-12,-3.175,20.8915)) ;
#704=CARTESIAN_POINT('Vertex',(4.8895,-3.175,20.8915)) ;
#707=CARTESIAN_POINT('Line Origine',(4.8895,-3.175,7.14375)) ;
#711=CARTESIAN_POINT('Vertex',(4.8895,-3.175,14.2875)) ;
#714=CARTESIAN_POINT('Line Origine',(8.46966941026E-12,-3.175,14.2875)) ;
#726=CARTESIAN_POINT('Control Point',(-8.06449999999,-3.175,5.6399329651E-14)) ;
#727=CARTESIAN_POINT('Control Point',(-8.06449999999,-3.175,1.26676869774)) ;
#728=CARTESIAN_POINT('Control Point',(-7.81577054783,-3.175,2.53353739549)) ;
#729=CARTESIAN_POINT('Control Point',(-7.3180658273,-3.175,3.73510288183)) ;
#730=CARTESIAN_POINT('Control Point',(-5.87834091918,-3.175,5.87834091919)) ;
#731=CARTESIAN_POINT('Control Point',(-3.73510288183,-3.175,7.31806582731)) ;
#732=CARTESIAN_POINT('Control Point',(-2.53353739548,-3.175,7.81577054784)) ;
#733=CARTESIAN_POINT('Control Point',(8.47198895962E-12,-3.175,8.31322945216)) ;
#734=CARTESIAN_POINT('Control Point',(2.5335373955,-3.175,7.81577054784)) ;
#735=CARTESIAN_POINT('Control Point',(3.73510288184,-3.175,7.31806582731)) ;
#736=CARTESIAN_POINT('Control Point',(5.87834091919,-3.175,5.87834091919)) ;
#737=CARTESIAN_POINT('Control Point',(7.31806582732,-3.175,3.73510288183)) ;
#738=CARTESIAN_POINT('Control Point',(7.81577054784,-3.175,2.53353739549)) ;
#739=CARTESIAN_POINT('Control Point',(8.06450000001,-3.175,1.26676869774)) ;
#740=CARTESIAN_POINT('Control Point',(8.06450000001,-3.175,5.77315972805E-14)) ;
#741=CARTESIAN_POINT('Vertex',(-8.06449999999,-3.175,5.68434188608E-14)) ;
#743=CARTESIAN_POINT('Vertex',(8.06450000001,-3.175,5.7831035272E-14)) ;
#747=CARTESIAN_POINT('Control Point',(8.06450000001,-3.175,5.77315972805E-14)) ;
#748=CARTESIAN_POINT('Control Point',(8.06450000001,-3.175,-1.26676869774)) ;
#749=CARTESIAN_POINT('Control Point',(7.81577054784,-3.175,-2.53353739549)) ;
#750=CARTESIAN_POINT('Control Point',(7.31806582732,-3.175,-3.73510288183)) ;
#751=CARTESIAN_POINT('Control Point',(5.87834091919,-3.175,-5.87834091919)) ;
#752=CARTESIAN_POINT('Control Point',(3.73510288184,-3.175,-7.31806582731)) ;
#753=CARTESIAN_POINT('Control Point',(2.5335373955,-3.175,-7.81577054784)) ;
#754=CARTESIAN_POINT('Control Point',(8.47737538012E-12,-3.175,-8.31322945216)) ;
#755=CARTESIAN_POINT('Control Point',(-2.53353739548,-3.175,-7.81577054784)) ;
#756=CARTESIAN_POINT('Control Point',(-3.73510288183,-3.175,-7.31806582731)) ;
#757=CARTESIAN_POINT('Control Point',(-5.87834091918,-3.175,-5.87834091919)) ;
#758=CARTESIAN_POINT('Control Point',(-7.3180658273,-3.175,-3.73510288183)) ;
#759=CARTESIAN_POINT('Control Point',(-7.81577054783,-3.175,-2.53353739549)) ;
#760=CARTESIAN_POINT('Control Point',(-8.06449999999,-3.175,-1.26676869774)) ;
#761=CARTESIAN_POINT('Control Point',(-8.06449999999,-3.175,5.50670620214E-14)) ;
#769=CARTESIAN_POINT('Axis2P3D Location',(4.8895,-3.175,20.8915)) ;
#774=CARTESIAN_POINT('Line Origine',(-4.8895,-2.6645352591E-15,20.8915)) ;
#779=CARTESIAN_POINT('Line Origine',(4.8895,-2.6645352591E-15,20.8915)) ;
#792=CARTESIAN_POINT('Axis2P3D Location',(4.8895,-3.175,14.2875)) ;
#797=CARTESIAN_POINT('Line Origine',(4.8895,-2.6645352591E-15,14.2875)) ;
#810=CARTESIAN_POINT('Axis2P3D Location',(-4.8895,-3.175,14.2875)) ;
#815=CARTESIAN_POINT('Line Origine',(-4.8895,-2.6645352591E-15,14.2875)) ;
#828=CARTESIAN_POINT('Axis2P3D Location',(-4.8895,-3.175,20.8915)) ;
#841=CARTESIAN_POINT('Axis2P3D Location',(8.46994696602E-12,-3.175,5.68434188608E-14)) ;
#846=CARTESIAN_POINT('Line Origine',(-16.817797758,0.,8.94785888192)) ;
#851=CARTESIAN_POINT('Line Origine',(16.817797758,0.,8.94785888192)) ;
#864=CARTESIAN_POINT('Axis2P3D Location',(-12.538315796,0.,7.239)) ;
#869=CARTESIAN_POINT('Line Origine',(-10.709515796,9.31319021902E-10,7.239)) ;
#874=CARTESIAN_POINT('Line Origine',(-14.367115796,9.31319021902E-10,7.239)) ;
#895=CARTESIAN_POINT('Axis2P3D Location',(12.538315796,0.,7.239)) ;
#900=CARTESIAN_POINT('Line Origine',(10.709515796,9.31319021902E-10,7.239)) ;
#905=CARTESIAN_POINT('Line Origine',(14.367115796,9.31319021902E-10,7.239)) ;
#918=CARTESIAN_POINT('Axis2P3D Location',(8.46994696602E-12,-3.175,5.68434188608E-14)) ;
#923=CARTESIAN_POINT('Line Origine',(-8.06449999999,0.,5.68434188608E-14)) ;
#928=CARTESIAN_POINT('Line Origine',(8.06450000001,0.,5.7831035272E-14)) ;
#941=CARTESIAN_POINT('Axis2P3D Location',(-16.817797758,-3.175,8.94785888192)) ;
#954=CARTESIAN_POINT('Axis2P3D Location',(8.0645,-3.175,25.4)) ;
#975=CARTESIAN_POINT('Axis2P3D Location',(8.46994696602E-12,-3.175,5.68434188608E-14)) ;
#988=CARTESIAN_POINT('Axis2P3D Location',(2.1883201532E-14,0.,-14.478)) ;
#993=CARTESIAN_POINT('Line Origine',(1.8288,9.31319021902E-10,-14.478)) ;
#998=CARTESIAN_POINT('Line Origine',(-1.8288,9.31319021902E-10,-14.478)) ;
#1019=CARTESIAN_POINT('',(-4.8895,0.,33.3375)) ;
#1028=CARTESIAN_POINT('',(-4.8895,0.,20.8915)) ;
#1034=CARTESIAN_POINT('',(-16.817797758,0.,8.94785888192)) ;
#1040=CARTESIAN_POINT('',(9.22782773713E-17,0.,14.2875)) ;
#1046=CARTESIAN_POINT('',(8.0645,0.,33.3375)) ;
#1052=CARTESIAN_POINT('',(16.817797758,0.,8.94785888192)) ;
#1058=CARTESIAN_POINT('',(16.817797758,0.,8.94785888192)) ;
#1064=CARTESIAN_POINT('',(8.0645,0.,33.3375)) ;
#1070=CARTESIAN_POINT('',(-4.7625,0.,33.3375)) ;
#1076=CARTESIAN_POINT('',(4.7625,0.,33.3375)) ;
#1082=CARTESIAN_POINT('',(1.53643404405E-12,0.,-250.015499864)) ;
#1088=CARTESIAN_POINT('',(1.54805965379E-12,0.,-252.015499864)) ;
#1094=CARTESIAN_POINT('',(2.66444987732E-15,3.175,8.52651282912E-14)) ;
#1100=CARTESIAN_POINT('',(-12.538315796,3.175,7.239)) ;
#1106=CARTESIAN_POINT('',(2.1883201532E-14,3.175,-14.478)) ;
#1112=CARTESIAN_POINT('',(12.538315796,3.175,7.239)) ;
#27=DIRECTION('Axis2P3D Direction',(0.,1.,-0.)) ;
#28=DIRECTION('Axis2P3D XDirection',(-0.970263972912,0.,0.242049215798)) ;
#32=DIRECTION('Vector Direction',(0.,1.,0.)) ;
#41=DIRECTION('Axis2P3D Direction',(0.,1.,-0.)) ;
#48=DIRECTION('Vector Direction',(0.,1.,0.)) ;
#55=DIRECTION('Axis2P3D Direction',(0.,1.,-0.)) ;
#75=DIRECTION('Axis2P3D Direction',(0.,1.,-0.)) ;
#76=DIRECTION('Axis2P3D XDirection',(-1.,0.,0.)) ;
#92=DIRECTION('Vector Direction',(0.,0.,1.)) ;
#99=DIRECTION('Vector Direction',(-1.,0.,0.)) ;
#106=DIRECTION('Vector Direction',(0.,0.,1.)) ;
#123=DIRECTION('Vector Direction',(0.,0.,1.)) ;
#167=DIRECTION('Vector Direction',(0.,0.,1.)) ;
#276=DIRECTION('Vector Direction',(-1.,0.,0.)) ;
#285=DIRECTION('Vector Direction',(0.,0.,1.)) ;
#292=DIRECTION('Vector Direction',(-1.,0.,0.)) ;
#299=DIRECTION('Vector Direction',(0.,0.,1.)) ;
#354=DIRECTION('Axis2P3D Direction',(0.,1.,-0.)) ;
#355=DIRECTION('Axis2P3D XDirection',(0.970263972912,0.,0.242049215798)) ;
#359=DIRECTION('Vector Direction',(0.,1.,0.)) ;
#366=DIRECTION('Vector Direction',(0.,1.,0.)) ;
#373=DIRECTION('Axis2P3D Direction',(0.,1.,-0.)) ;
#386=DIRECTION('Axis2P3D Direction',(1.,0.,-1.96937829124E-14)) ;
#387=DIRECTION('Axis2P3D XDirection',(-1.96937829124E-14,0.,-1.)) ;
#391=DIRECTION('Vector Direction',(-1.96853951184E-14,0.,-1.)) ;
#398=DIRECTION('Vector Direction',(0.,1.,0.)) ;
#411=DIRECTION('Axis2P3D Direction',(0.,1.,-0.)) ;
#412=DIRECTION('Axis2P3D XDirection',(-0.707106781187,0.,-0.707106781187)) ;
#416=DIRECTION('Axis2P3D Direction',(0.,1.,-0.)) ;
#423=DIRECTION('Vector Direction',(0.,1.,0.)) ;
#436=DIRECTION('Axis2P3D Direction',(-1.,0.,0.)) ;
#437=DIRECTION('Axis2P3D XDirection',(0.,0.,1.)) ;
#441=DIRECTION('Vector Direction',(0.,-1.,0.)) ;
#448=DIRECTION('Vector Direction',(0.,0.,1.)) ;
#461=DIRECTION('Axis2P3D Direction',(0.,0.,1.)) ;
#462=DIRECTION('Axis2P3D XDirection',(1.,0.,0.)) ;
#466=DIRECTION('Vector Direction',(1.,0.,0.)) ;
#473=DIRECTION('Vector Direction',(0.,-1.,0.)) ;
#486=DIRECTION('Axis2P3D Direction',(1.,-0.,0.)) ;
#487=DIRECTION('Axis2P3D XDirection',(0.,0.,-1.)) ;
#491=DIRECTION('Vector Direction',(0.,1.,0.)) ;
#498=DIRECTION('Vector Direction',(0.,0.,-1.)) ;
#511=DIRECTION('Axis2P3D Direction',(0.,1.,-0.)) ;
#512=DIRECTION('Axis2P3D XDirection',(0.707106781187,-0.,-0.707106781187)) ;
#516=DIRECTION('Axis2P3D Direction',(0.,1.,-0.)) ;
#523=DIRECTION('Vector Direction',(0.,1.,0.)) ;
#536=DIRECTION('Axis2P3D Direction',(-1.,0.,-1.79034390113E-15)) ;
#537=DIRECTION('Axis2P3D XDirection',(-1.79034390113E-15,0.,1.)) ;
#541=DIRECTION('Vector Direction',(-1.7895813744E-15,0.,1.)) ;
#554=DIRECTION('Axis2P3D Direction',(0.,1.,-0.)) ;
#555=DIRECTION('Axis2P3D XDirection',(-1.,0.,0.)) ;
#692=DIRECTION('Vector Direction',(0.,0.,1.)) ;
#701=DIRECTION('Vector Direction',(-1.,0.,0.)) ;
#708=DIRECTION('Vector Direction',(0.,0.,1.)) ;
#715=DIRECTION('Vector Direction',(-1.,0.,0.)) ;
#770=DIRECTION('Axis2P3D Direction',(0.,0.,-1.)) ;
#771=DIRECTION('Axis2P3D XDirection',(-1.,0.,0.)) ;
#775=DIRECTION('Vector Direction',(0.,-1.,0.)) ;
#780=DIRECTION('Vector Direction',(0.,-1.,0.)) ;
#793=DIRECTION('Axis2P3D Direction',(-1.,0.,0.)) ;
#794=DIRECTION('Axis2P3D XDirection',(0.,0.,1.)) ;
#798=DIRECTION('Vector Direction',(0.,-1.,0.)) ;
#811=DIRECTION('Axis2P3D Direction',(0.,0.,1.)) ;
#812=DIRECTION('Axis2P3D XDirection',(1.,0.,0.)) ;
#816=DIRECTION('Vector Direction',(0.,-1.,0.)) ;
#829=DIRECTION('Axis2P3D Direction',(1.,-0.,0.)) ;
#830=DIRECTION('Axis2P3D XDirection',(0.,0.,-1.)) ;
#842=DIRECTION('Axis2P3D Direction',(0.,1.,-0.)) ;
#843=DIRECTION('Axis2P3D XDirection',(0.882824029292,0.,0.469703878316)) ;
#847=DIRECTION('Vector Direction',(0.,1.,0.)) ;
#852=DIRECTION('Vector Direction',(0.,1.,0.)) ;
#865=DIRECTION('Axis2P3D Direction',(0.,-1.,0.)) ;
#866=DIRECTION('Axis2P3D XDirection',(1.,0.,0.)) ;
#870=DIRECTION('Vector Direction',(0.,-1.,0.)) ;
#875=DIRECTION('Vector Direction',(0.,-1.,0.)) ;
#896=DIRECTION('Axis2P3D Direction',(0.,-1.,0.)) ;
#897=DIRECTION('Axis2P3D XDirection',(1.,0.,0.)) ;
#901=DIRECTION('Vector Direction',(0.,-1.,0.)) ;
#906=DIRECTION('Vector Direction',(0.,-1.,0.)) ;
#919=DIRECTION('Axis2P3D Direction',(0.,1.,-0.)) ;
#920=DIRECTION('Axis2P3D XDirection',(-1.,0.,0.)) ;
#924=DIRECTION('Vector Direction',(0.,1.,0.)) ;
#929=DIRECTION('Vector Direction',(0.,1.,0.)) ;
#942=DIRECTION('Axis2P3D Direction',(-0.882824354263,0.,0.469703267522)) ;
#943=DIRECTION('Axis2P3D XDirection',(0.469703267522,0.,0.882824354263)) ;
#955=DIRECTION('Axis2P3D Direction',(0.882824354263,-0.,0.469703267522)) ;
#956=DIRECTION('Axis2P3D XDirection',(0.469703267522,0.,-0.882824354263)) ;
#976=DIRECTION('Axis2P3D Direction',(0.,1.,-0.)) ;
#977=DIRECTION('Axis2P3D XDirection',(-1.,0.,0.)) ;
#989=DIRECTION('Axis2P3D Direction',(0.,-1.,0.)) ;
#990=DIRECTION('Axis2P3D XDirection',(1.,0.,0.)) ;
#994=DIRECTION('Vector Direction',(0.,-1.,0.)) ;
#999=DIRECTION('Vector Direction',(0.,-1.,0.)) ;
#6=PRODUCT_RELATED_PRODUCT_CATEGORY('part',$,(#16)) ;
#5=PRODUCT_CATEGORY('part','specification') ;
#23=STYLED_ITEM(' ',(#22),#21) ;
#1024=STYLED_ITEM(' ',(#1023),#1019) ;
#1032=STYLED_ITEM(' ',(#1031),#1028) ;
#1038=STYLED_ITEM(' ',(#1037),#1034) ;
#1044=STYLED_ITEM(' ',(#1043),#1040) ;
#1050=STYLED_ITEM(' ',(#1049),#1046) ;
#1056=STYLED_ITEM(' ',(#1055),#1052) ;
#1062=STYLED_ITEM(' ',(#1061),#1058) ;
#1068=STYLED_ITEM(' ',(#1067),#1064) ;
#1074=STYLED_ITEM(' ',(#1073),#1070) ;
#1080=STYLED_ITEM(' ',(#1079),#1076) ;
#1086=STYLED_ITEM(' ',(#1085),#1082) ;
#1092=STYLED_ITEM(' ',(#1091),#1088) ;
#1098=STYLED_ITEM(' ',(#1097),#1094) ;
#1104=STYLED_ITEM(' ',(#1103),#1100) ;
#1110=STYLED_ITEM(' ',(#1109),#1106) ;
#1116=STYLED_ITEM(' ',(#1115),#1112) ;
#22=PRESENTATION_STYLE_ASSIGNMENT(()) ;
#72=PRESENTATION_STYLE_ASSIGNMENT((#71)) ;
#1023=PRESENTATION_STYLE_ASSIGNMENT((#1022)) ;
#1031=PRESENTATION_STYLE_ASSIGNMENT((#1030)) ;
#1037=PRESENTATION_STYLE_ASSIGNMENT((#1036)) ;
#1043=PRESENTATION_STYLE_ASSIGNMENT((#1042)) ;
#1049=PRESENTATION_STYLE_ASSIGNMENT((#1048)) ;
#1055=PRESENTATION_STYLE_ASSIGNMENT((#1054)) ;
#1061=PRESENTATION_STYLE_ASSIGNMENT((#1060)) ;
#1067=PRESENTATION_STYLE_ASSIGNMENT((#1066)) ;
#1073=PRESENTATION_STYLE_ASSIGNMENT((#1072)) ;
#1079=PRESENTATION_STYLE_ASSIGNMENT((#1078)) ;
#1085=PRESENTATION_STYLE_ASSIGNMENT((#1084)) ;
#1091=PRESENTATION_STYLE_ASSIGNMENT((#1090)) ;
#1097=PRESENTATION_STYLE_ASSIGNMENT((#1096)) ;
#1103=PRESENTATION_STYLE_ASSIGNMENT((#1102)) ;
#1109=PRESENTATION_STYLE_ASSIGNMENT((#1108)) ;
#1115=PRESENTATION_STYLE_ASSIGNMENT((#1114)) ;
#1022=POINT_STYLE(' ',#1020,POSITIVE_LENGTH_MEASURE(1.),#1021) ;
#1030=POINT_STYLE(' ',#1029,POSITIVE_LENGTH_MEASURE(1.),#1021) ;
#1036=POINT_STYLE(' ',#1035,POSITIVE_LENGTH_MEASURE(1.),#1021) ;
#1042=POINT_STYLE(' ',#1041,POSITIVE_LENGTH_MEASURE(1.),#1021) ;
#1048=POINT_STYLE(' ',#1047,POSITIVE_LENGTH_MEASURE(1.),#1021) ;
#1054=POINT_STYLE(' ',#1053,POSITIVE_LENGTH_MEASURE(1.),#1021) ;
#1060=POINT_STYLE(' ',#1059,POSITIVE_LENGTH_MEASURE(1.),#1021) ;
#1066=POINT_STYLE(' ',#1065,POSITIVE_LENGTH_MEASURE(1.),#1021) ;
#1072=POINT_STYLE(' ',#1071,POSITIVE_LENGTH_MEASURE(1.),#1021) ;
#1078=POINT_STYLE(' ',#1077,POSITIVE_LENGTH_MEASURE(1.),#1021) ;
#1084=POINT_STYLE(' ',#1083,POSITIVE_LENGTH_MEASURE(1.),#1021) ;
#1090=POINT_STYLE(' ',#1089,POSITIVE_LENGTH_MEASURE(1.),#1021) ;
#1096=POINT_STYLE(' ',#1095,POSITIVE_LENGTH_MEASURE(1.),#1021) ;
#1102=POINT_STYLE(' ',#1101,POSITIVE_LENGTH_MEASURE(1.),#1021) ;
#1108=POINT_STYLE(' ',#1107,POSITIVE_LENGTH_MEASURE(1.),#1021) ;
#1114=POINT_STYLE(' ',#1113,POSITIVE_LENGTH_MEASURE(1.),#1021) ;
#1020=PRE_DEFINED_MARKER('X') ;
#1029=PRE_DEFINED_MARKER('X') ;
#1035=PRE_DEFINED_MARKER('X') ;
#1041=PRE_DEFINED_MARKER('X') ;
#1047=PRE_DEFINED_MARKER('X') ;
#1053=PRE_DEFINED_MARKER('X') ;
#1059=PRE_DEFINED_MARKER('X') ;
#1065=PRE_DEFINED_MARKER('X') ;
#1071=PRE_DEFINED_MARKER('X') ;
#1077=PRE_DEFINED_MARKER('X') ;
#1083=PRE_DEFINED_MARKER('X') ;
#1089=PRE_DEFINED_MARKER('X') ;
#1095=PRE_DEFINED_MARKER('X') ;
#1101=PRE_DEFINED_MARKER('X') ;
#1107=PRE_DEFINED_MARKER('X') ;
#1113=PRE_DEFINED_MARKER('X') ;
#71=SURFACE_STYLE_USAGE(.BOTH.,#70) ;
#70=SURFACE_SIDE_STYLE(' ',(#69)) ;
#69=SURFACE_STYLE_FILL_AREA(#68) ;
#68=FILL_AREA_STYLE(' ',(#67)) ;
#67=FILL_AREA_STYLE_COLOUR(' ',#66) ;
#33=VECTOR('Line Direction',#32,1.) ;
#49=VECTOR('Line Direction',#48,1.) ;
#93=VECTOR('Line Direction',#92,1.) ;
#100=VECTOR('Line Direction',#99,1.) ;
#107=VECTOR('Line Direction',#106,1.) ;
#124=VECTOR('Line Direction',#123,1.) ;
#168=VECTOR('Line Direction',#167,1.) ;
#277=VECTOR('Line Direction',#276,1.) ;
#286=VECTOR('Line Direction',#285,1.) ;
#293=VECTOR('Line Direction',#292,1.) ;
#300=VECTOR('Line Direction',#299,1.) ;
#360=VECTOR('Line Direction',#359,1.) ;
#367=VECTOR('Line Direction',#366,1.) ;
#392=VECTOR('Line Direction',#391,1.) ;
#399=VECTOR('Line Direction',#398,1.) ;
#424=VECTOR('Line Direction',#423,1.) ;
#442=VECTOR('Line Direction',#441,1.) ;
#449=VECTOR('Line Direction',#448,1.) ;
#467=VECTOR('Line Direction',#466,1.) ;
#474=VECTOR('Line Direction',#473,1.) ;
#492=VECTOR('Line Direction',#491,1.) ;
#499=VECTOR('Line Direction',#498,1.) ;
#524=VECTOR('Line Direction',#523,1.) ;
#542=VECTOR('Line Direction',#541,1.) ;
#693=VECTOR('Line Direction',#692,1.) ;
#702=VECTOR('Line Direction',#701,1.) ;
#709=VECTOR('Line Direction',#708,1.) ;
#716=VECTOR('Line Direction',#715,1.) ;
#776=VECTOR('Line Direction',#775,1.) ;
#781=VECTOR('Line Direction',#780,1.) ;
#799=VECTOR('Line Direction',#798,1.) ;
#817=VECTOR('Line Direction',#816,1.) ;
#848=VECTOR('Line Direction',#847,1.) ;
#853=VECTOR('Line Direction',#852,1.) ;
#871=VECTOR('Line Direction',#870,1.) ;
#876=VECTOR('Line Direction',#875,1.) ;
#902=VECTOR('Line Direction',#901,1.) ;
#907=VECTOR('Line Direction',#906,1.) ;
#925=VECTOR('Line Direction',#924,1.) ;
#930=VECTOR('Line Direction',#929,1.) ;
#995=VECTOR('Line Direction',#994,1.) ;
#1000=VECTOR('Line Direction',#999,1.) ;
#11=UNCERTAINTY_MEASURE_WITH_UNIT(LENGTH_MEASURE(0.005),#8,'distance_accuracy_value','CONFUSED CURVE UNCERTAINTY') ;
#60=ORIENTED_EDGE('',*,*,#39,.T.) ;
#61=ORIENTED_EDGE('',*,*,#46,.T.) ;
#62=ORIENTED_EDGE('',*,*,#53,.F.) ;
#63=ORIENTED_EDGE('',*,*,#58,.F.) ;
#172=ORIENTED_EDGE('',*,*,#90,.T.) ;
#173=ORIENTED_EDGE('',*,*,#97,.T.) ;
#174=ORIENTED_EDGE('',*,*,#104,.T.) ;
#175=ORIENTED_EDGE('',*,*,#111,.T.) ;
#176=ORIENTED_EDGE('',*,*,#121,.T.) ;
#177=ORIENTED_EDGE('',*,*,#128,.T.) ;
#178=ORIENTED_EDGE('',*,*,#136,.F.) ;
#179=ORIENTED_EDGE('',*,*,#142,.T.) ;
#180=ORIENTED_EDGE('',*,*,#161,.T.) ;
#181=ORIENTED_EDGE('',*,*,#165,.T.) ;
#182=ORIENTED_EDGE('',*,*,#46,.F.) ;
#183=ORIENTED_EDGE('',*,*,#170,.T.) ;
#212=ORIENTED_EDGE('',*,*,#199,.F.) ;
#213=ORIENTED_EDGE('',*,*,#210,.F.) ;
#242=ORIENTED_EDGE('',*,*,#229,.F.) ;
#243=ORIENTED_EDGE('',*,*,#240,.F.) ;
#272=ORIENTED_EDGE('',*,*,#259,.F.) ;
#273=ORIENTED_EDGE('',*,*,#270,.F.) ;
#304=ORIENTED_EDGE('',*,*,#283,.T.) ;
#305=ORIENTED_EDGE('',*,*,#290,.F.) ;
#306=ORIENTED_EDGE('',*,*,#297,.T.) ;
#307=ORIENTED_EDGE('',*,*,#302,.T.) ;
#348=ORIENTED_EDGE('',*,*,#329,.F.) ;
#349=ORIENTED_EDGE('',*,*,#346,.F.) ;
#378=ORIENTED_EDGE('',*,*,#364,.T.) ;
#379=ORIENTED_EDGE('',*,*,#136,.T.) ;
#380=ORIENTED_EDGE('',*,*,#371,.F.) ;
#381=ORIENTED_EDGE('',*,*,#376,.F.) ;
#403=ORIENTED_EDGE('',*,*,#396,.T.) ;
#404=ORIENTED_EDGE('',*,*,#371,.T.) ;
#405=ORIENTED_EDGE('',*,*,#128,.F.) ;
#406=ORIENTED_EDGE('',*,*,#401,.F.) ;
#428=ORIENTED_EDGE('',*,*,#421,.T.) ;
#429=ORIENTED_EDGE('',*,*,#401,.T.) ;
#430=ORIENTED_EDGE('',*,*,#121,.F.) ;
#431=ORIENTED_EDGE('',*,*,#426,.F.) ;
#453=ORIENTED_EDGE('',*,*,#446,.F.) ;
#454=ORIENTED_EDGE('',*,*,#451,.T.) ;
#455=ORIENTED_EDGE('',*,*,#426,.T.) ;
#456=ORIENTED_EDGE('',*,*,#111,.F.) ;
#478=ORIENTED_EDGE('',*,*,#471,.T.) ;
#479=ORIENTED_EDGE('',*,*,#446,.T.) ;
#480=ORIENTED_EDGE('',*,*,#104,.F.) ;
#481=ORIENTED_EDGE('',*,*,#476,.F.) ;
#503=ORIENTED_EDGE('',*,*,#97,.F.) ;
#504=ORIENTED_EDGE('',*,*,#496,.F.) ;
#505=ORIENTED_EDGE('',*,*,#501,.T.) ;
#506=ORIENTED_EDGE('',*,*,#476,.T.) ;
#528=ORIENTED_EDGE('',*,*,#521,.T.) ;
#529=ORIENTED_EDGE('',*,*,#496,.T.) ;
#530=ORIENTED_EDGE('',*,*,#90,.F.) ;
#531=ORIENTED_EDGE('',*,*,#526,.F.) ;
#546=ORIENTED_EDGE('',*,*,#526,.T.) ;
#547=ORIENTED_EDGE('',*,*,#170,.F.) ;
#548=ORIENTED_EDGE('',*,*,#39,.F.) ;
#549=ORIENTED_EDGE('',*,*,#544,.T.) ;
#588=ORIENTED_EDGE('',*,*,#563,.F.) ;
#589=ORIENTED_EDGE('',*,*,#582,.F.) ;
#590=ORIENTED_EDGE('',*,*,#586,.F.) ;
#591=ORIENTED_EDGE('',*,*,#376,.T.) ;
#592=ORIENTED_EDGE('',*,*,#396,.F.) ;
#593=ORIENTED_EDGE('',*,*,#421,.F.) ;
#594=ORIENTED_EDGE('',*,*,#451,.F.) ;
#595=ORIENTED_EDGE('',*,*,#471,.F.) ;
#596=ORIENTED_EDGE('',*,*,#501,.F.) ;
#597=ORIENTED_EDGE('',*,*,#521,.F.) ;
#598=ORIENTED_EDGE('',*,*,#544,.F.) ;
#599=ORIENTED_EDGE('',*,*,#58,.T.) ;
#628=ORIENTED_EDGE('',*,*,#615,.T.) ;
#629=ORIENTED_EDGE('',*,*,#626,.T.) ;
#658=ORIENTED_EDGE('',*,*,#645,.T.) ;
#659=ORIENTED_EDGE('',*,*,#656,.T.) ;
#688=ORIENTED_EDGE('',*,*,#675,.T.) ;
#689=ORIENTED_EDGE('',*,*,#686,.T.) ;
#720=ORIENTED_EDGE('',*,*,#699,.F.) ;
#721=ORIENTED_EDGE('',*,*,#706,.F.) ;
#722=ORIENTED_EDGE('',*,*,#713,.T.) ;
#723=ORIENTED_EDGE('',*,*,#718,.F.) ;
#764=ORIENTED_EDGE('',*,*,#745,.T.) ;
#765=ORIENTED_EDGE('',*,*,#762,.T.) ;
#785=ORIENTED_EDGE('',*,*,#706,.T.) ;
#786=ORIENTED_EDGE('',*,*,#778,.F.) ;
#787=ORIENTED_EDGE('',*,*,#297,.F.) ;
#788=ORIENTED_EDGE('',*,*,#783,.F.) ;
#803=ORIENTED_EDGE('',*,*,#713,.F.) ;
#804=ORIENTED_EDGE('',*,*,#783,.T.) ;
#805=ORIENTED_EDGE('',*,*,#290,.T.) ;
#806=ORIENTED_EDGE('',*,*,#801,.F.) ;
#821=ORIENTED_EDGE('',*,*,#718,.T.) ;
#822=ORIENTED_EDGE('',*,*,#801,.T.) ;
#823=ORIENTED_EDGE('',*,*,#283,.F.) ;
#824=ORIENTED_EDGE('',*,*,#819,.F.) ;
#834=ORIENTED_EDGE('',*,*,#699,.T.) ;
#835=ORIENTED_EDGE('',*,*,#819,.T.) ;
#836=ORIENTED_EDGE('',*,*,#302,.F.) ;
#837=ORIENTED_EDGE('',*,*,#778,.T.) ;
#857=ORIENTED_EDGE('',*,*,#582,.T.) ;
#858=ORIENTED_EDGE('',*,*,#850,.T.) ;
#859=ORIENTED_EDGE('',*,*,#161,.F.) ;
#860=ORIENTED_EDGE('',*,*,#855,.F.) ;
#880=ORIENTED_EDGE('',*,*,#873,.F.) ;
#881=ORIENTED_EDGE('',*,*,#686,.F.) ;
#882=ORIENTED_EDGE('',*,*,#878,.T.) ;
#883=ORIENTED_EDGE('',*,*,#259,.T.) ;
#888=ORIENTED_EDGE('',*,*,#878,.F.) ;
#889=ORIENTED_EDGE('',*,*,#675,.F.) ;
#890=ORIENTED_EDGE('',*,*,#873,.T.) ;
#891=ORIENTED_EDGE('',*,*,#270,.T.) ;
#911=ORIENTED_EDGE('',*,*,#904,.F.) ;
#912=ORIENTED_EDGE('',*,*,#615,.F.) ;
#913=ORIENTED_EDGE('',*,*,#909,.T.) ;
#914=ORIENTED_EDGE('',*,*,#210,.T.) ;
#934=ORIENTED_EDGE('',*,*,#745,.F.) ;
#935=ORIENTED_EDGE('',*,*,#927,.T.) ;
#936=ORIENTED_EDGE('',*,*,#346,.T.) ;
#937=ORIENTED_EDGE('',*,*,#932,.T.) ;
#947=ORIENTED_EDGE('',*,*,#563,.T.) ;
#948=ORIENTED_EDGE('',*,*,#53,.T.) ;
#949=ORIENTED_EDGE('',*,*,#165,.F.) ;
#950=ORIENTED_EDGE('',*,*,#850,.F.) ;
#960=ORIENTED_EDGE('',*,*,#855,.T.) ;
#961=ORIENTED_EDGE('',*,*,#142,.F.) ;
#962=ORIENTED_EDGE('',*,*,#364,.F.) ;
#963=ORIENTED_EDGE('',*,*,#586,.T.) ;
#968=ORIENTED_EDGE('',*,*,#909,.F.) ;
#969=ORIENTED_EDGE('',*,*,#626,.F.) ;
#970=ORIENTED_EDGE('',*,*,#904,.T.) ;
#971=ORIENTED_EDGE('',*,*,#199,.T.) ;
#981=ORIENTED_EDGE('',*,*,#762,.F.) ;
#982=ORIENTED_EDGE('',*,*,#932,.F.) ;
#983=ORIENTED_EDGE('',*,*,#329,.T.) ;
#984=ORIENTED_EDGE('',*,*,#927,.F.) ;
#1004=ORIENTED_EDGE('',*,*,#997,.F.) ;
#1005=ORIENTED_EDGE('',*,*,#645,.F.) ;
#1006=ORIENTED_EDGE('',*,*,#1002,.T.) ;
#1007=ORIENTED_EDGE('',*,*,#240,.T.) ;
#1012=ORIENTED_EDGE('',*,*,#1002,.F.) ;
#1013=ORIENTED_EDGE('',*,*,#656,.F.) ;
#1014=ORIENTED_EDGE('',*,*,#997,.T.) ;
#1015=ORIENTED_EDGE('',*,*,#229,.T.) ;
#214=FACE_BOUND('',#211,.T.) ;
#244=FACE_BOUND('',#241,.T.) ;
#274=FACE_BOUND('',#271,.T.) ;
#308=FACE_BOUND('',#303,.T.) ;
#350=FACE_BOUND('',#347,.T.) ;
#630=FACE_BOUND('',#627,.T.) ;
#660=FACE_BOUND('',#657,.T.) ;
#690=FACE_BOUND('',#687,.T.) ;
#724=FACE_BOUND('',#719,.T.) ;
#766=FACE_BOUND('',#763,.T.) ;
#25=CLOSED_SHELL('Closed Shell',(#65,#351,#383,#408,#433,#458,#483,#508,#533,#551,#767,#790,#808,#826,#839,#862,#885,#893,#916,#939,#952,#965,#973,#986,#1009,#1017)) ;
#65=ADVANCED_FACE('',(#64),#30,.F.) ;
#351=ADVANCED_FACE('',(#184,#214,#244,#274,#308,#350),#78,.T.) ;
#383=ADVANCED_FACE('',(#382),#357,.F.) ;
#408=ADVANCED_FACE('',(#407),#389,.T.) ;
#433=ADVANCED_FACE('',(#432),#414,.T.) ;
#458=ADVANCED_FACE('',(#457),#439,.T.) ;
#483=ADVANCED_FACE('',(#482),#464,.T.) ;
#508=ADVANCED_FACE('',(#507),#489,.T.) ;
#533=ADVANCED_FACE('',(#532),#514,.T.) ;
#551=ADVANCED_FACE('',(#550),#539,.T.) ;
#767=ADVANCED_FACE('',(#600,#630,#660,#690,#724,#766),#557,.F.) ;
#790=ADVANCED_FACE('',(#789),#773,.T.) ;
#808=ADVANCED_FACE('',(#807),#796,.T.) ;
#826=ADVANCED_FACE('',(#825),#814,.T.) ;
#839=ADVANCED_FACE('',(#838),#832,.T.) ;
#862=ADVANCED_FACE('',(#861),#845,.T.) ;
#885=ADVANCED_FACE('',(#884),#868,.F.) ;
#893=ADVANCED_FACE('',(#892),#868,.F.) ;
#916=ADVANCED_FACE('',(#915),#899,.F.) ;
#939=ADVANCED_FACE('',(#938),#922,.F.) ;
#952=ADVANCED_FACE('',(#951),#945,.T.) ;
#965=ADVANCED_FACE('',(#964),#958,.T.) ;
#973=ADVANCED_FACE('',(#972),#899,.F.) ;
#986=ADVANCED_FACE('',(#985),#979,.F.) ;
#1009=ADVANCED_FACE('',(#1008),#992,.F.) ;
#1017=ADVANCED_FACE('',(#1016),#992,.F.) ;
#4=APPLICATION_PROTOCOL_DEFINITION('international standard','automotive_design',2001,#1) ;
#79=B_SPLINE_CURVE_WITH_KNOTS('',5,(#80,#81,#82,#83,#84,#85),.UNSPECIFIED.,.F.,.U.,(6,6),(0.,4.98727833757),.UNSPECIFIED.) ;
#112=B_SPLINE_CURVE_WITH_KNOTS('',5,(#113,#114,#115,#116,#117,#118),.UNSPECIFIED.,.F.,.U.,(6,6),(4.98727833757,9.97455667515),.UNSPECIFIED.) ;
#129=B_SPLINE_CURVE_WITH_KNOTS('',3,(#130,#131,#132,#133),.UNSPECIFIED.,.F.,.U.,(4,4),(18.3966823978,19.9491133503),.UNSPECIFIED.) ;
#137=B_SPLINE_CURVE_WITH_KNOTS('',1,(#138,#139),.UNSPECIFIED.,.F.,.U.,(2,2),(-8.52584276218,9.31790170871),.UNSPECIFIED.) ;
#143=B_SPLINE_CURVE_WITH_KNOTS('',5,(#144,#145,#146,#147,#148,#149,#150,#151,#152,#153,#154,#155,#156,#157,#158),.UNSPECIFIED.,.F.,.U.,(6,3,3,3,6),(50.5327411557,70.151875616,89.7710100763,109.390144537,129.009278997),.UNSPECIFIED.) ;
#162=B_SPLINE_CURVE_WITH_KNOTS('',1,(#163,#164),.UNSPECIFIED.,.F.,.U.,(2,2),(-9.31790170851,8.52584276238),.UNSPECIFIED.) ;
#185=B_SPLINE_CURVE_WITH_KNOTS('',5,(#186,#187,#188,#189,#190,#191,#192,#193,#194),.UNSPECIFIED.,.F.,.U.,(6,3,6),(11.4906892898,14.3633616122,17.2360339347),.UNSPECIFIED.) ;
#200=B_SPLINE_CURVE_WITH_KNOTS('',5,(#201,#202,#203,#204,#205,#206,#207,#208,#209),.UNSPECIFIED.,.F.,.U.,(6,3,6),(5.74534464489,8.61801696733,11.4906892898),.UNSPECIFIED.) ;
#215=B_SPLINE_CURVE_WITH_KNOTS('',5,(#216,#217,#218,#219,#220,#221,#222,#223,#224),.UNSPECIFIED.,.F.,.U.,(6,3,6),(5.74534464489,8.61801696733,11.4906892898),.UNSPECIFIED.) ;
#230=B_SPLINE_CURVE_WITH_KNOTS('',5,(#231,#232,#233,#234,#235,#236,#237,#238,#239),.UNSPECIFIED.,.F.,.U.,(6,3,6),(11.4906892898,14.3633616122,17.2360339347),.UNSPECIFIED.) ;
#245=B_SPLINE_CURVE_WITH_KNOTS('',5,(#246,#247,#248,#249,#250,#251,#252,#253,#254),.UNSPECIFIED.,.F.,.U.,(6,3,6),(11.4906892898,14.3633616122,17.2360339347),.UNSPECIFIED.) ;
#260=B_SPLINE_CURVE_WITH_KNOTS('',5,(#261,#262,#263,#264,#265,#266,#267,#268,#269),.UNSPECIFIED.,.F.,.U.,(6,3,6),(5.74534464489,8.61801696733,11.4906892898),.UNSPECIFIED.) ;
#309=B_SPLINE_CURVE_WITH_KNOTS('',5,(#310,#311,#312,#313,#314,#315,#316,#317,#318,#319,#320,#321,#322,#323,#324),.UNSPECIFIED.,.F.,.U.,(6,3,3,3,6),(25.3353739549,31.6692174436,38.0030609323,44.336904421,50.6707479097),.UNSPECIFIED.) ;
#330=B_SPLINE_CURVE_WITH_KNOTS('',5,(#331,#332,#333,#334,#335,#336,#337,#338,#339,#340,#341,#342,#343,#344,#345),.UNSPECIFIED.,.F.,.U.,(6,3,3,3,6),(0.,6.33384348872,12.6676869774,19.0015304662,25.3353739549),.UNSPECIFIED.) ;
#558=B_SPLINE_CURVE_WITH_KNOTS('',1,(#559,#560),.UNSPECIFIED.,.F.,.U.,(2,2),(-9.31790170851,8.52584276238),.UNSPECIFIED.) ;
#564=B_SPLINE_CURVE_WITH_KNOTS('',5,(#565,#566,#567,#568,#569,#570,#571,#572,#573,#574,#575,#576,#577,#578,#579),.UNSPECIFIED.,.F.,.U.,(6,3,3,3,6),(50.5327411557,70.151875616,89.7710100763,109.390144537,129.009278997),.UNSPECIFIED.) ;
#583=B_SPLINE_CURVE_WITH_KNOTS('',1,(#584,#585),.UNSPECIFIED.,.F.,.U.,(2,2),(-8.52584276218,9.31790170871),.UNSPECIFIED.) ;
#601=B_SPLINE_CURVE_WITH_KNOTS('',5,(#602,#603,#604,#605,#606,#607,#608,#609,#610),.UNSPECIFIED.,.F.,.U.,(6,3,6),(5.74534464489,8.61801696733,11.4906892898),.UNSPECIFIED.) ;
#616=B_SPLINE_CURVE_WITH_KNOTS('',5,(#617,#618,#619,#620,#621,#622,#623,#624,#625),.UNSPECIFIED.,.F.,.U.,(6,3,6),(11.4906892898,14.3633616122,17.2360339347),.UNSPECIFIED.) ;
#631=B_SPLINE_CURVE_WITH_KNOTS('',5,(#632,#633,#634,#635,#636,#637,#638,#639,#640),.UNSPECIFIED.,.F.,.U.,(6,3,6),(11.4906892898,14.3633616122,17.2360339347),.UNSPECIFIED.) ;
#646=B_SPLINE_CURVE_WITH_KNOTS('',5,(#647,#648,#649,#650,#651,#652,#653,#654,#655),.UNSPECIFIED.,.F.,.U.,(6,3,6),(5.74534464489,8.61801696733,11.4906892898),.UNSPECIFIED.) ;
#661=B_SPLINE_CURVE_WITH_KNOTS('',5,(#662,#663,#664,#665,#666,#667,#668,#669,#670),.UNSPECIFIED.,.F.,.U.,(6,3,6),(5.74534464489,8.61801696733,11.4906892898),.UNSPECIFIED.) ;
#676=B_SPLINE_CURVE_WITH_KNOTS('',5,(#677,#678,#679,#680,#681,#682,#683,#684,#685),.UNSPECIFIED.,.F.,.U.,(6,3,6),(11.4906892898,14.3633616122,17.2360339347),.UNSPECIFIED.) ;
#725=B_SPLINE_CURVE_WITH_KNOTS('',5,(#726,#727,#728,#729,#730,#731,#732,#733,#734,#735,#736,#737,#738,#739,#740),.UNSPECIFIED.,.F.,.U.,(6,3,3,3,6),(0.,6.33384348872,12.6676869774,19.0015304662,25.3353739549),.UNSPECIFIED.) ;
#746=B_SPLINE_CURVE_WITH_KNOTS('',5,(#747,#748,#749,#750,#751,#752,#753,#754,#755,#756,#757,#758,#759,#760,#761),.UNSPECIFIED.,.F.,.U.,(6,3,3,3,6),(25.3353739549,31.6692174436,38.0030609323,44.336904421,50.6707479097),.UNSPECIFIED.) ;
#21=MANIFOLD_SOLID_BREP('',#25) ;
#43=CIRCLE('generated circle',#42,3.175) ;
#57=CIRCLE('generated circle',#56,3.175) ;
#375=CIRCLE('generated circle',#374,3.175) ;
#418=CIRCLE('generated circle',#417,3.175) ;
#518=CIRCLE('generated circle',#517,3.175) ;
#66=COLOUR_RGB('Colour',0.827450980392,0.709803921569,0.898039215686) ;
#1021=COLOUR_RGB('Colour',1.17647058824,1.17647058824,1.17647058824) ;
#1025=INVISIBILITY((#1024,#1032,#1038,#1044,#1050,#1056,#1062,#1068,#1074,#1080,#1086,#1092,#1098,#1104,#1110,#1116)) ;
#73=OVER_RIDING_STYLED_ITEM(' ',(#72),#65,#23) ;
#352=OVER_RIDING_STYLED_ITEM(' ',(#72),#351,#23) ;
#384=OVER_RIDING_STYLED_ITEM(' ',(#72),#383,#23) ;
#409=OVER_RIDING_STYLED_ITEM(' ',(#72),#408,#23) ;
#434=OVER_RIDING_STYLED_ITEM(' ',(#72),#433,#23) ;
#459=OVER_RIDING_STYLED_ITEM(' ',(#72),#458,#23) ;
#484=OVER_RIDING_STYLED_ITEM(' ',(#72),#483,#23) ;
#509=OVER_RIDING_STYLED_ITEM(' ',(#72),#508,#23) ;
#534=OVER_RIDING_STYLED_ITEM(' ',(#72),#533,#23) ;
#552=OVER_RIDING_STYLED_ITEM(' ',(#72),#551,#23) ;
#768=OVER_RIDING_STYLED_ITEM(' ',(#72),#767,#23) ;
#791=OVER_RIDING_STYLED_ITEM(' ',(#72),#790,#23) ;
#809=OVER_RIDING_STYLED_ITEM(' ',(#72),#808,#23) ;
#827=OVER_RIDING_STYLED_ITEM(' ',(#72),#826,#23) ;
#840=OVER_RIDING_STYLED_ITEM(' ',(#72),#839,#23) ;
#863=OVER_RIDING_STYLED_ITEM(' ',(#72),#862,#23) ;
#886=OVER_RIDING_STYLED_ITEM(' ',(#72),#885,#23) ;
#894=OVER_RIDING_STYLED_ITEM(' ',(#72),#893,#23) ;
#917=OVER_RIDING_STYLED_ITEM(' ',(#72),#916,#23) ;
#940=OVER_RIDING_STYLED_ITEM(' ',(#72),#939,#23) ;
#953=OVER_RIDING_STYLED_ITEM(' ',(#72),#952,#23) ;
#966=OVER_RIDING_STYLED_ITEM(' ',(#72),#965,#23) ;
#974=OVER_RIDING_STYLED_ITEM(' ',(#72),#973,#23) ;
#987=OVER_RIDING_STYLED_ITEM(' ',(#72),#986,#23) ;
#1010=OVER_RIDING_STYLED_ITEM(' ',(#72),#1009,#23) ;
#1018=OVER_RIDING_STYLED_ITEM(' ',(#72),#1017,#23) ;
#30=CYLINDRICAL_SURFACE('generated cylinder',#29,3.175) ;
#357=CYLINDRICAL_SURFACE('generated cylinder',#356,3.175) ;
#414=CYLINDRICAL_SURFACE('generated cylinder',#413,3.175) ;
#514=CYLINDRICAL_SURFACE('generated cylinder',#513,3.175) ;
#845=CYLINDRICAL_SURFACE('generated cylinder',#844,19.05) ;
#868=CYLINDRICAL_SURFACE('generated cylinder',#867,1.8288) ;
#899=CYLINDRICAL_SURFACE('generated cylinder',#898,1.8288) ;
#922=CYLINDRICAL_SURFACE('generated cylinder',#921,8.0645) ;
#979=CYLINDRICAL_SURFACE('generated cylinder',#978,8.0645) ;
#992=CYLINDRICAL_SURFACE('generated cylinder',#991,1.8288) ;
#39=EDGE_CURVE('',#36,#38,#34,.T.) ;
#46=EDGE_CURVE('',#38,#45,#43,.T.) ;
#53=EDGE_CURVE('',#52,#45,#50,.T.) ;
#58=EDGE_CURVE('',#36,#52,#57,.T.) ;
#90=EDGE_CURVE('',#87,#89,#79,.T.) ;
#97=EDGE_CURVE('',#89,#96,#94,.F.) ;
#104=EDGE_CURVE('',#96,#103,#101,.F.) ;
#111=EDGE_CURVE('',#103,#110,#108,.T.) ;
#121=EDGE_CURVE('',#110,#120,#112,.T.) ;
#128=EDGE_CURVE('',#120,#127,#125,.F.) ;
#136=EDGE_CURVE('',#135,#127,#129,.T.) ;
#142=EDGE_CURVE('',#135,#141,#137,.T.) ;
#161=EDGE_CURVE('',#141,#160,#143,.T.) ;
#165=EDGE_CURVE('',#160,#45,#162,.T.) ;
#170=EDGE_CURVE('',#38,#87,#169,.T.) ;
#199=EDGE_CURVE('',#196,#198,#185,.T.) ;
#210=EDGE_CURVE('',#198,#196,#200,.T.) ;
#229=EDGE_CURVE('',#226,#228,#215,.T.) ;
#240=EDGE_CURVE('',#228,#226,#230,.T.) ;
#259=EDGE_CURVE('',#256,#258,#245,.T.) ;
#270=EDGE_CURVE('',#258,#256,#260,.T.) ;
#283=EDGE_CURVE('',#280,#282,#278,.F.) ;
#290=EDGE_CURVE('',#289,#282,#287,.F.) ;
#297=EDGE_CURVE('',#289,#296,#294,.T.) ;
#302=EDGE_CURVE('',#296,#280,#301,.F.) ;
#329=EDGE_CURVE('',#326,#328,#309,.T.) ;
#346=EDGE_CURVE('',#328,#326,#330,.T.) ;
#364=EDGE_CURVE('',#363,#135,#361,.T.) ;
#371=EDGE_CURVE('',#370,#127,#368,.T.) ;
#376=EDGE_CURVE('',#363,#370,#375,.T.) ;
#396=EDGE_CURVE('',#395,#370,#393,.T.) ;
#401=EDGE_CURVE('',#395,#120,#400,.T.) ;
#421=EDGE_CURVE('',#420,#395,#418,.T.) ;
#426=EDGE_CURVE('',#420,#110,#425,.T.) ;
#446=EDGE_CURVE('',#445,#103,#443,.F.) ;
#451=EDGE_CURVE('',#445,#420,#450,.T.) ;
#471=EDGE_CURVE('',#470,#445,#468,.T.) ;
#476=EDGE_CURVE('',#470,#96,#475,.F.) ;
#496=EDGE_CURVE('',#495,#89,#493,.T.) ;
#501=EDGE_CURVE('',#495,#470,#500,.T.) ;
#521=EDGE_CURVE('',#520,#495,#518,.T.) ;
#526=EDGE_CURVE('',#520,#87,#525,.T.) ;
#544=EDGE_CURVE('',#36,#520,#543,.T.) ;
#563=EDGE_CURVE('',#562,#52,#558,.T.) ;
#582=EDGE_CURVE('',#581,#562,#564,.T.) ;
#586=EDGE_CURVE('',#363,#581,#583,.T.) ;
#615=EDGE_CURVE('',#612,#614,#601,.T.) ;
#626=EDGE_CURVE('',#614,#612,#616,.T.) ;
#645=EDGE_CURVE('',#642,#644,#631,.T.) ;
#656=EDGE_CURVE('',#644,#642,#646,.T.) ;
#675=EDGE_CURVE('',#672,#674,#661,.T.) ;
#686=EDGE_CURVE('',#674,#672,#676,.T.) ;
#699=EDGE_CURVE('',#696,#698,#694,.F.) ;
#706=EDGE_CURVE('',#705,#696,#703,.T.) ;
#713=EDGE_CURVE('',#705,#712,#710,.F.) ;
#718=EDGE_CURVE('',#698,#712,#717,.F.) ;
#745=EDGE_CURVE('',#742,#744,#725,.T.) ;
#762=EDGE_CURVE('',#744,#742,#746,.T.) ;
#778=EDGE_CURVE('',#296,#696,#777,.T.) ;
#783=EDGE_CURVE('',#705,#289,#782,.F.) ;
#801=EDGE_CURVE('',#712,#282,#800,.F.) ;
#819=EDGE_CURVE('',#698,#280,#818,.F.) ;
#850=EDGE_CURVE('',#562,#160,#849,.T.) ;
#855=EDGE_CURVE('',#581,#141,#854,.T.) ;
#873=EDGE_CURVE('',#672,#258,#872,.F.) ;
#878=EDGE_CURVE('',#674,#256,#877,.F.) ;
#904=EDGE_CURVE('',#614,#196,#903,.F.) ;
#909=EDGE_CURVE('',#612,#198,#908,.F.) ;
#927=EDGE_CURVE('',#742,#328,#926,.T.) ;
#932=EDGE_CURVE('',#326,#744,#931,.F.) ;
#997=EDGE_CURVE('',#644,#226,#996,.F.) ;
#1002=EDGE_CURVE('',#642,#228,#1001,.F.) ;
#59=EDGE_LOOP('',(#60,#61,#62,#63)) ;
#171=EDGE_LOOP('',(#172,#173,#174,#175,#176,#177,#178,#179,#180,#181,#182,#183)) ;
#211=EDGE_LOOP('',(#212,#213)) ;
#241=EDGE_LOOP('',(#242,#243)) ;
#271=EDGE_LOOP('',(#272,#273)) ;
#303=EDGE_LOOP('',(#304,#305,#306,#307)) ;
#347=EDGE_LOOP('',(#348,#349)) ;
#377=EDGE_LOOP('',(#378,#379,#380,#381)) ;
#402=EDGE_LOOP('',(#403,#404,#405,#406)) ;
#427=EDGE_LOOP('',(#428,#429,#430,#431)) ;
#452=EDGE_LOOP('',(#453,#454,#455,#456)) ;
#477=EDGE_LOOP('',(#478,#479,#480,#481)) ;
#502=EDGE_LOOP('',(#503,#504,#505,#506)) ;
#527=EDGE_LOOP('',(#528,#529,#530,#531)) ;
#545=EDGE_LOOP('',(#546,#547,#548,#549)) ;
#587=EDGE_LOOP('',(#588,#589,#590,#591,#592,#593,#594,#595,#596,#597,#598,#599)) ;
#627=EDGE_LOOP('',(#628,#629)) ;
#657=EDGE_LOOP('',(#658,#659)) ;
#687=EDGE_LOOP('',(#688,#689)) ;
#719=EDGE_LOOP('',(#720,#721,#722,#723)) ;
#763=EDGE_LOOP('',(#764,#765)) ;
#784=EDGE_LOOP('',(#785,#786,#787,#788)) ;
#802=EDGE_LOOP('',(#803,#804,#805,#806)) ;
#820=EDGE_LOOP('',(#821,#822,#823,#824)) ;
#833=EDGE_LOOP('',(#834,#835,#836,#837)) ;
#856=EDGE_LOOP('',(#857,#858,#859,#860)) ;
#879=EDGE_LOOP('',(#880,#881,#882,#883)) ;
#887=EDGE_LOOP('',(#888,#889,#890,#891)) ;
#910=EDGE_LOOP('',(#911,#912,#913,#914)) ;
#933=EDGE_LOOP('',(#934,#935,#936,#937)) ;
#946=EDGE_LOOP('',(#947,#948,#949,#950)) ;
#959=EDGE_LOOP('',(#960,#961,#962,#963)) ;
#967=EDGE_LOOP('',(#968,#969,#970,#971)) ;
#980=EDGE_LOOP('',(#981,#982,#983,#984)) ;
#1003=EDGE_LOOP('',(#1004,#1005,#1006,#1007)) ;
#1011=EDGE_LOOP('',(#1012,#1013,#1014,#1015)) ;
#64=FACE_OUTER_BOUND('',#59,.T.) ;
#184=FACE_OUTER_BOUND('',#171,.T.) ;
#382=FACE_OUTER_BOUND('',#377,.T.) ;
#407=FACE_OUTER_BOUND('',#402,.T.) ;
#432=FACE_OUTER_BOUND('',#427,.T.) ;
#457=FACE_OUTER_BOUND('',#452,.T.) ;
#482=FACE_OUTER_BOUND('',#477,.T.) ;
#507=FACE_OUTER_BOUND('',#502,.T.) ;
#532=FACE_OUTER_BOUND('',#527,.T.) ;
#550=FACE_OUTER_BOUND('',#545,.T.) ;
#600=FACE_OUTER_BOUND('',#587,.T.) ;
#789=FACE_OUTER_BOUND('',#784,.T.) ;
#807=FACE_OUTER_BOUND('',#802,.T.) ;
#825=FACE_OUTER_BOUND('',#820,.T.) ;
#838=FACE_OUTER_BOUND('',#833,.T.) ;
#861=FACE_OUTER_BOUND('',#856,.T.) ;
#884=FACE_OUTER_BOUND('',#879,.T.) ;
#892=FACE_OUTER_BOUND('',#887,.T.) ;
#915=FACE_OUTER_BOUND('',#910,.T.) ;
#938=FACE_OUTER_BOUND('',#933,.T.) ;
#951=FACE_OUTER_BOUND('',#946,.T.) ;
#964=FACE_OUTER_BOUND('',#959,.T.) ;
#972=FACE_OUTER_BOUND('',#967,.T.) ;
#985=FACE_OUTER_BOUND('',#980,.T.) ;
#1008=FACE_OUTER_BOUND('',#1003,.T.) ;
#1016=FACE_OUTER_BOUND('',#1011,.T.) ;
#1027=GEOMETRIC_SET('NONE',(#1019,#1028,#1034,#1040,#1046,#1052,#1058,#1064,#1070,#1076,#1082,#1088,#1094,#1100,#1106,#1112)) ;
#34=LINE('Line',#31,#33) ;
#50=LINE('Line',#47,#49) ;
#94=LINE('Line',#91,#93) ;
#101=LINE('Line',#98,#100) ;
#108=LINE('Line',#105,#107) ;
#125=LINE('Line',#122,#124) ;
#169=LINE('Line',#166,#168) ;
#278=LINE('Line',#275,#277) ;
#287=LINE('Line',#284,#286) ;
#294=LINE('Line',#291,#293) ;
#301=LINE('Line',#298,#300) ;
#361=LINE('Line',#358,#360) ;
#368=LINE('Line',#365,#367) ;
#393=LINE('Line',#390,#392) ;
#400=LINE('Line',#397,#399) ;
#425=LINE('Line',#422,#424) ;
#443=LINE('Line',#440,#442) ;
#450=LINE('Line',#447,#449) ;
#468=LINE('Line',#465,#467) ;
#475=LINE('Line',#472,#474) ;
#493=LINE('Line',#490,#492) ;
#500=LINE('Line',#497,#499) ;
#525=LINE('Line',#522,#524) ;
#543=LINE('Line',#540,#542) ;
#694=LINE('Line',#691,#693) ;
#703=LINE('Line',#700,#702) ;
#710=LINE('Line',#707,#709) ;
#717=LINE('Line',#714,#716) ;
#777=LINE('Line',#774,#776) ;
#782=LINE('Line',#779,#781) ;
#800=LINE('Line',#797,#799) ;
#818=LINE('Line',#815,#817) ;
#849=LINE('Line',#846,#848) ;
#854=LINE('Line',#851,#853) ;
#872=LINE('Line',#869,#871) ;
#877=LINE('Line',#874,#876) ;
#903=LINE('Line',#900,#902) ;
#908=LINE('Line',#905,#907) ;
#926=LINE('Line',#923,#925) ;
#931=LINE('Line',#928,#930) ;
#996=LINE('Line',#993,#995) ;
#1001=LINE('Line',#998,#1000) ;
#78=PLANE('',#77) ;
#389=PLANE('',#388) ;
#439=PLANE('',#438) ;
#464=PLANE('',#463) ;
#489=PLANE('',#488) ;
#539=PLANE('',#538) ;
#557=PLANE('',#556) ;
#773=PLANE('',#772) ;
#796=PLANE('',#795) ;
#814=PLANE('',#813) ;
#832=PLANE('',#831) ;
#945=PLANE('',#944) ;
#958=PLANE('',#957) ;
#7=PRODUCT_CATEGORY_RELATIONSHIP(' ',' ',#5,#6) ;
#17=PRODUCT_DEFINITION_FORMATION_WITH_SPECIFIED_SOURCE('',' ',#16,.NOT_KNOWN.) ;
#20=SHAPE_DEFINITION_REPRESENTATION(#19,#13) ;
#36=VERTEX_POINT('',#35) ;
#38=VERTEX_POINT('',#37) ;
#45=VERTEX_POINT('',#44) ;
#52=VERTEX_POINT('',#51) ;
#87=VERTEX_POINT('',#86) ;
#89=VERTEX_POINT('',#88) ;
#96=VERTEX_POINT('',#95) ;
#103=VERTEX_POINT('',#102) ;
#110=VERTEX_POINT('',#109) ;
#120=VERTEX_POINT('',#119) ;
#127=VERTEX_POINT('',#126) ;
#135=VERTEX_POINT('',#134) ;
#141=VERTEX_POINT('',#140) ;
#160=VERTEX_POINT('',#159) ;
#196=VERTEX_POINT('',#195) ;
#198=VERTEX_POINT('',#197) ;
#226=VERTEX_POINT('',#225) ;
#228=VERTEX_POINT('',#227) ;
#256=VERTEX_POINT('',#255) ;
#258=VERTEX_POINT('',#257) ;
#280=VERTEX_POINT('',#279) ;
#282=VERTEX_POINT('',#281) ;
#289=VERTEX_POINT('',#288) ;
#296=VERTEX_POINT('',#295) ;
#326=VERTEX_POINT('',#325) ;
#328=VERTEX_POINT('',#327) ;
#363=VERTEX_POINT('',#362) ;
#370=VERTEX_POINT('',#369) ;
#395=VERTEX_POINT('',#394) ;
#420=VERTEX_POINT('',#419) ;
#445=VERTEX_POINT('',#444) ;
#470=VERTEX_POINT('',#469) ;
#495=VERTEX_POINT('',#494) ;
#520=VERTEX_POINT('',#519) ;
#562=VERTEX_POINT('',#561) ;
#581=VERTEX_POINT('',#580) ;
#612=VERTEX_POINT('',#611) ;
#614=VERTEX_POINT('',#613) ;
#642=VERTEX_POINT('',#641) ;
#644=VERTEX_POINT('',#643) ;
#672=VERTEX_POINT('',#671) ;
#674=VERTEX_POINT('',#673) ;
#696=VERTEX_POINT('',#695) ;
#698=VERTEX_POINT('',#697) ;
#705=VERTEX_POINT('',#704) ;
#712=VERTEX_POINT('',#711) ;
#742=VERTEX_POINT('',#741) ;
#744=VERTEX_POINT('',#743) ;
#8=(LENGTH_UNIT()NAMED_UNIT(*)SI_UNIT(.MILLI.,.METRE.)) ;
#9=(NAMED_UNIT(*)PLANE_ANGLE_UNIT()SI_UNIT($,.RADIAN.)) ;
#10=(NAMED_UNIT(*)SI_UNIT($,.STERADIAN.)SOLID_ANGLE_UNIT()) ;
#12=(GEOMETRIC_REPRESENTATION_CONTEXT(3)GLOBAL_UNCERTAINTY_ASSIGNED_CONTEXT((#11))GLOBAL_UNIT_ASSIGNED_CONTEXT((#8,#9,#10))REPRESENTATION_CONTEXT(' ',' ')) ;
ENDSEC;
END-ISO-10303-21;
