ISO-10303-21;
HEADER;
/* Generated by software containing ST-Developer
 * from STEP Tools, Inc. (www.steptools.com) 
 */

FILE_DESCRIPTION(
/* description */ (''),
/* implementation_level */ '2;1');

FILE_NAME(
/* name */ 'voltra strap mount metal v2.step',
/* time_stamp */ '2026-01-17T09:11:16-05:00',
/* author */ (''),
/* organization */ (''),
/* preprocessor_version */ 'ST-DEVELOPER v20.1',
/* originating_system */ 'Autodesk Translation Framework v14.21.0.0',
/* authorisation */ '');

FILE_SCHEMA (('AUTOMOTIVE_DESIGN { 1 0 10303 214 3 1 1 }'));
ENDSEC;

DATA;
#10=MECHANICAL_DESIGN_GEOMETRIC_PRESENTATION_REPRESENTATION('',(#17),#1462);
#11=ITEM_DEFINED_TRANSFORMATION($,$,#878,#966);
#12=(
REPRESENTATION_RELATIONSHIP($,$,#1473,#1472)
REPRESENTATION_RELATIONSHIP_WITH_TRANSFORMATION(#11)
SHAPE_REPRESENTATION_RELATIONSHIP()
);
#13=CONTEXT_DEPENDENT_SHAPE_REPRESENTATION(#12,#1471);
#14=NEXT_ASSEMBLY_USAGE_OCCURRENCE('Component1:1','Component1:1',
'Component1:1',#1475,#1476,'Component1:1');
#15=SHAPE_REPRESENTATION_RELATIONSHIP('SRR','None',#1473,#16);
#16=ADVANCED_BREP_SHAPE_REPRESENTATION('',(#18),#1461);
#17=STYLED_ITEM('',(#1487),#18);
#18=MANIFOLD_SOLID_BREP('full body metal',#864);
#19=FACE_BOUND('',#168,.T.);
#20=FACE_BOUND('',#169,.T.);
#21=FACE_BOUND('',#170,.T.);
#22=FACE_BOUND('',#171,.T.);
#23=FACE_BOUND('',#172,.T.);
#24=FACE_BOUND('',#173,.T.);
#25=FACE_BOUND('',#174,.T.);
#26=FACE_BOUND('',#175,.T.);
#27=FACE_BOUND('',#176,.T.);
#28=FACE_BOUND('',#177,.T.);
#29=FACE_BOUND('',#178,.T.);
#30=FACE_BOUND('',#179,.T.);
#31=FACE_BOUND('',#180,.T.);
#32=FACE_BOUND('',#181,.T.);
#33=FACE_BOUND('',#182,.T.);
#34=FACE_BOUND('',#183,.T.);
#35=FACE_BOUND('',#218,.T.);
#36=FACE_BOUND('',#219,.T.);
#37=FACE_BOUND('',#220,.T.);
#38=FACE_BOUND('',#221,.T.);
#39=FACE_BOUND('',#222,.T.);
#40=FACE_BOUND('',#223,.T.);
#41=FACE_BOUND('',#224,.T.);
#42=FACE_BOUND('',#225,.T.);
#43=FACE_BOUND('',#226,.T.);
#44=FACE_BOUND('',#227,.T.);
#45=FACE_BOUND('',#228,.T.);
#46=FACE_BOUND('',#229,.T.);
#47=FACE_BOUND('',#230,.T.);
#48=FACE_BOUND('',#231,.T.);
#49=FACE_BOUND('',#232,.T.);
#50=FACE_BOUND('',#233,.T.);
#51=CIRCLE('',#881,4.0331132774119);
#52=CIRCLE('',#882,4.0331132774119);
#53=CIRCLE('',#886,4.11363356753548);
#54=CIRCLE('',#887,4.11363356753548);
#55=CIRCLE('',#890,5.);
#56=CIRCLE('',#891,5.);
#57=CIRCLE('',#892,5.);
#58=CIRCLE('',#893,5.);
#59=CIRCLE('',#894,3.);
#60=CIRCLE('',#895,3.);
#61=CIRCLE('',#896,4.);
#62=CIRCLE('',#897,4.);
#63=CIRCLE('',#898,4.);
#64=CIRCLE('',#899,4.);
#65=CIRCLE('',#900,4.06940404642025);
#66=CIRCLE('',#901,2.1);
#67=CIRCLE('',#902,2.1);
#68=CIRCLE('',#903,2.1);
#69=CIRCLE('',#904,2.1);
#70=CIRCLE('',#905,2.1);
#71=CIRCLE('',#906,2.1);
#72=CIRCLE('',#907,2.1);
#73=CIRCLE('',#908,2.1);
#74=CIRCLE('',#909,4.02992063196706);
#75=CIRCLE('',#910,4.06940404642025);
#76=CIRCLE('',#912,3.);
#77=CIRCLE('',#914,3.);
#78=CIRCLE('',#916,5.);
#79=CIRCLE('',#919,5.);
#80=CIRCLE('',#922,5.);
#81=CIRCLE('',#925,5.);
#82=CIRCLE('',#928,4.);
#83=CIRCLE('',#930,4.);
#84=CIRCLE('',#932,4.);
#85=CIRCLE('',#934,4.);
#86=CIRCLE('',#936,4.06940404642025);
#87=CIRCLE('',#942,2.1);
#88=CIRCLE('',#944,2.1);
#89=CIRCLE('',#946,2.1);
#90=CIRCLE('',#948,2.1);
#91=CIRCLE('',#950,2.1);
#92=CIRCLE('',#952,2.1);
#93=CIRCLE('',#954,2.1);
#94=CIRCLE('',#956,2.1);
#95=CIRCLE('',#959,4.06940404642025);
#96=CIRCLE('',#963,4.02992063196706);
#97=CYLINDRICAL_SURFACE('',#880,4.0331132774119);
#98=CYLINDRICAL_SURFACE('',#885,4.11363356753548);
#99=CYLINDRICAL_SURFACE('',#911,3.);
#100=CYLINDRICAL_SURFACE('',#913,3.);
#101=CYLINDRICAL_SURFACE('',#915,5.);
#102=CYLINDRICAL_SURFACE('',#918,5.);
#103=CYLINDRICAL_SURFACE('',#921,5.);
#104=CYLINDRICAL_SURFACE('',#924,5.);
#105=CYLINDRICAL_SURFACE('',#927,4.);
#106=CYLINDRICAL_SURFACE('',#929,4.);
#107=CYLINDRICAL_SURFACE('',#931,4.);
#108=CYLINDRICAL_SURFACE('',#933,4.);
#109=CYLINDRICAL_SURFACE('',#935,4.06940404642025);
#110=CYLINDRICAL_SURFACE('',#941,2.1);
#111=CYLINDRICAL_SURFACE('',#943,2.1);
#112=CYLINDRICAL_SURFACE('',#945,2.1);
#113=CYLINDRICAL_SURFACE('',#947,2.1);
#114=CYLINDRICAL_SURFACE('',#949,2.1);
#115=CYLINDRICAL_SURFACE('',#951,2.1);
#116=CYLINDRICAL_SURFACE('',#953,2.1);
#117=CYLINDRICAL_SURFACE('',#955,2.1);
#118=CYLINDRICAL_SURFACE('',#958,4.06940404642025);
#119=CYLINDRICAL_SURFACE('',#962,4.02992063196706);
#120=FACE_OUTER_BOUND('',#161,.T.);
#121=FACE_OUTER_BOUND('',#162,.T.);
#122=FACE_OUTER_BOUND('',#163,.T.);
#123=FACE_OUTER_BOUND('',#164,.T.);
#124=FACE_OUTER_BOUND('',#165,.T.);
#125=FACE_OUTER_BOUND('',#166,.T.);
#126=FACE_OUTER_BOUND('',#167,.T.);
#127=FACE_OUTER_BOUND('',#184,.T.);
#128=FACE_OUTER_BOUND('',#185,.T.);
#129=FACE_OUTER_BOUND('',#186,.T.);
#130=FACE_OUTER_BOUND('',#187,.T.);
#131=FACE_OUTER_BOUND('',#188,.T.);
#132=FACE_OUTER_BOUND('',#189,.T.);
#133=FACE_OUTER_BOUND('',#190,.T.);
#134=FACE_OUTER_BOUND('',#191,.T.);
#135=FACE_OUTER_BOUND('',#192,.T.);
#136=FACE_OUTER_BOUND('',#193,.T.);
#137=FACE_OUTER_BOUND('',#194,.T.);
#138=FACE_OUTER_BOUND('',#195,.T.);
#139=FACE_OUTER_BOUND('',#196,.T.);
#140=FACE_OUTER_BOUND('',#197,.T.);
#141=FACE_OUTER_BOUND('',#198,.T.);
#142=FACE_OUTER_BOUND('',#199,.T.);
#143=FACE_OUTER_BOUND('',#200,.T.);
#144=FACE_OUTER_BOUND('',#201,.T.);
#145=FACE_OUTER_BOUND('',#202,.T.);
#146=FACE_OUTER_BOUND('',#203,.T.);
#147=FACE_OUTER_BOUND('',#204,.T.);
#148=FACE_OUTER_BOUND('',#205,.T.);
#149=FACE_OUTER_BOUND('',#206,.T.);
#150=FACE_OUTER_BOUND('',#207,.T.);
#151=FACE_OUTER_BOUND('',#208,.T.);
#152=FACE_OUTER_BOUND('',#209,.T.);
#153=FACE_OUTER_BOUND('',#210,.T.);
#154=FACE_OUTER_BOUND('',#211,.T.);
#155=FACE_OUTER_BOUND('',#212,.T.);
#156=FACE_OUTER_BOUND('',#213,.T.);
#157=FACE_OUTER_BOUND('',#214,.T.);
#158=FACE_OUTER_BOUND('',#215,.T.);
#159=FACE_OUTER_BOUND('',#216,.T.);
#160=FACE_OUTER_BOUND('',#217,.T.);
#161=EDGE_LOOP('',(#571,#572,#573,#574));
#162=EDGE_LOOP('',(#575,#576,#577,#578));
#163=EDGE_LOOP('',(#579,#580,#581,#582));
#164=EDGE_LOOP('',(#583,#584,#585,#586));
#165=EDGE_LOOP('',(#587,#588,#589,#590));
#166=EDGE_LOOP('',(#591,#592,#593,#594));
#167=EDGE_LOOP('',(#595,#596,#597,#598,#599,#600,#601,#602,#603,#604,#605,
#606,#607));
#168=EDGE_LOOP('',(#608));
#169=EDGE_LOOP('',(#609));
#170=EDGE_LOOP('',(#610));
#171=EDGE_LOOP('',(#611));
#172=EDGE_LOOP('',(#612));
#173=EDGE_LOOP('',(#613));
#174=EDGE_LOOP('',(#614,#615,#616,#617,#618));
#175=EDGE_LOOP('',(#619));
#176=EDGE_LOOP('',(#620));
#177=EDGE_LOOP('',(#621));
#178=EDGE_LOOP('',(#622));
#179=EDGE_LOOP('',(#623));
#180=EDGE_LOOP('',(#624));
#181=EDGE_LOOP('',(#625));
#182=EDGE_LOOP('',(#626));
#183=EDGE_LOOP('',(#627,#628,#629,#630,#631,#632,#633));
#184=EDGE_LOOP('',(#634,#635,#636,#637));
#185=EDGE_LOOP('',(#638,#639,#640,#641));
#186=EDGE_LOOP('',(#642,#643,#644,#645));
#187=EDGE_LOOP('',(#646,#647,#648,#649));
#188=EDGE_LOOP('',(#650,#651,#652,#653));
#189=EDGE_LOOP('',(#654,#655,#656,#657));
#190=EDGE_LOOP('',(#658,#659,#660,#661));
#191=EDGE_LOOP('',(#662,#663,#664,#665));
#192=EDGE_LOOP('',(#666,#667,#668,#669));
#193=EDGE_LOOP('',(#670,#671,#672,#673));
#194=EDGE_LOOP('',(#674,#675,#676,#677));
#195=EDGE_LOOP('',(#678,#679,#680,#681));
#196=EDGE_LOOP('',(#682,#683,#684,#685));
#197=EDGE_LOOP('',(#686,#687,#688,#689));
#198=EDGE_LOOP('',(#690,#691,#692,#693));
#199=EDGE_LOOP('',(#694,#695,#696,#697));
#200=EDGE_LOOP('',(#698,#699,#700,#701));
#201=EDGE_LOOP('',(#702,#703,#704,#705));
#202=EDGE_LOOP('',(#706,#707,#708,#709));
#203=EDGE_LOOP('',(#710,#711,#712,#713));
#204=EDGE_LOOP('',(#714,#715,#716,#717));
#205=EDGE_LOOP('',(#718,#719,#720,#721));
#206=EDGE_LOOP('',(#722,#723,#724,#725));
#207=EDGE_LOOP('',(#726,#727,#728,#729));
#208=EDGE_LOOP('',(#730,#731,#732,#733));
#209=EDGE_LOOP('',(#734,#735,#736,#737));
#210=EDGE_LOOP('',(#738,#739,#740,#741));
#211=EDGE_LOOP('',(#742,#743,#744,#745));
#212=EDGE_LOOP('',(#746,#747,#748,#749));
#213=EDGE_LOOP('',(#750,#751,#752,#753));
#214=EDGE_LOOP('',(#754,#755,#756,#757));
#215=EDGE_LOOP('',(#758,#759,#760,#761));
#216=EDGE_LOOP('',(#762,#763,#764,#765));
#217=EDGE_LOOP('',(#766,#767,#768,#769,#770,#771,#772,#773,#774,#775,#776,
#777,#778));
#218=EDGE_LOOP('',(#779,#780,#781,#782,#783,#784,#785));
#219=EDGE_LOOP('',(#786,#787,#788,#789,#790));
#220=EDGE_LOOP('',(#791));
#221=EDGE_LOOP('',(#792));
#222=EDGE_LOOP('',(#793));
#223=EDGE_LOOP('',(#794));
#224=EDGE_LOOP('',(#795));
#225=EDGE_LOOP('',(#796));
#226=EDGE_LOOP('',(#797));
#227=EDGE_LOOP('',(#798));
#228=EDGE_LOOP('',(#799));
#229=EDGE_LOOP('',(#800));
#230=EDGE_LOOP('',(#801));
#231=EDGE_LOOP('',(#802));
#232=EDGE_LOOP('',(#803));
#233=EDGE_LOOP('',(#804));
#234=LINE('',#1223,#305);
#235=LINE('',#1225,#306);
#236=LINE('',#1227,#307);
#237=LINE('',#1228,#308);
#238=LINE('',#1234,#309);
#239=LINE('',#1237,#310);
#240=LINE('',#1239,#311);
#241=LINE('',#1240,#312);
#242=LINE('',#1244,#313);
#243=LINE('',#1246,#314);
#244=LINE('',#1248,#315);
#245=LINE('',#1249,#316);
#246=LINE('',#1255,#317);
#247=LINE('',#1258,#318);
#248=LINE('',#1260,#319);
#249=LINE('',#1261,#320);
#250=LINE('',#1267,#321);
#251=LINE('',#1271,#322);
#252=LINE('',#1273,#323);
#253=LINE('',#1275,#324);
#254=LINE('',#1279,#325);
#255=LINE('',#1283,#326);
#256=LINE('',#1285,#327);
#257=LINE('',#1287,#328);
#258=LINE('',#1288,#329);
#259=LINE('',#1302,#330);
#260=LINE('',#1323,#331);
#261=LINE('',#1326,#332);
#262=LINE('',#1330,#333);
#263=LINE('',#1334,#334);
#264=LINE('',#1339,#335);
#265=LINE('',#1340,#336);
#266=LINE('',#1343,#337);
#267=LINE('',#1344,#338);
#268=LINE('',#1349,#339);
#269=LINE('',#1350,#340);
#270=LINE('',#1353,#341);
#271=LINE('',#1354,#342);
#272=LINE('',#1358,#343);
#273=LINE('',#1361,#344);
#274=LINE('',#1362,#345);
#275=LINE('',#1367,#346);
#276=LINE('',#1368,#347);
#277=LINE('',#1370,#348);
#278=LINE('',#1374,#349);
#279=LINE('',#1378,#350);
#280=LINE('',#1382,#351);
#281=LINE('',#1386,#352);
#282=LINE('',#1389,#353);
#283=LINE('',#1392,#354);
#284=LINE('',#1395,#355);
#285=LINE('',#1396,#356);
#286=LINE('',#1399,#357);
#287=LINE('',#1400,#358);
#288=LINE('',#1403,#359);
#289=LINE('',#1404,#360);
#290=LINE('',#1408,#361);
#291=LINE('',#1412,#362);
#292=LINE('',#1416,#363);
#293=LINE('',#1420,#364);
#294=LINE('',#1424,#365);
#295=LINE('',#1428,#366);
#296=LINE('',#1432,#367);
#297=LINE('',#1436,#368);
#298=LINE('',#1438,#369);
#299=LINE('',#1441,#370);
#300=LINE('',#1443,#371);
#301=LINE('',#1447,#372);
#302=LINE('',#1448,#373);
#303=LINE('',#1450,#374);
#304=LINE('',#1454,#375);
#305=VECTOR('',#973,10.);
#306=VECTOR('',#974,10.);
#307=VECTOR('',#975,10.);
#308=VECTOR('',#976,10.);
#309=VECTOR('',#983,10.);
#310=VECTOR('',#986,10.);
#311=VECTOR('',#987,10.);
#312=VECTOR('',#988,10.);
#313=VECTOR('',#991,10.);
#314=VECTOR('',#992,10.);
#315=VECTOR('',#993,10.);
#316=VECTOR('',#994,10.);
#317=VECTOR('',#1001,10.);
#318=VECTOR('',#1004,10.);
#319=VECTOR('',#1005,10.);
#320=VECTOR('',#1006,10.);
#321=VECTOR('',#1011,10.);
#322=VECTOR('',#1014,10.);
#323=VECTOR('',#1015,10.);
#324=VECTOR('',#1016,10.);
#325=VECTOR('',#1019,10.);
#326=VECTOR('',#1022,10.);
#327=VECTOR('',#1023,10.);
#328=VECTOR('',#1024,10.);
#329=VECTOR('',#1025,10.);
#330=VECTOR('',#1038,10.);
#331=VECTOR('',#1059,10.);
#332=VECTOR('',#1062,10.);
#333=VECTOR('',#1067,3.);
#334=VECTOR('',#1072,3.);
#335=VECTOR('',#1077,10.);
#336=VECTOR('',#1078,10.);
#337=VECTOR('',#1081,10.);
#338=VECTOR('',#1082,10.);
#339=VECTOR('',#1087,10.);
#340=VECTOR('',#1088,10.);
#341=VECTOR('',#1091,10.);
#342=VECTOR('',#1092,10.);
#343=VECTOR('',#1097,10.);
#344=VECTOR('',#1100,10.);
#345=VECTOR('',#1101,10.);
#346=VECTOR('',#1106,10.);
#347=VECTOR('',#1107,10.);
#348=VECTOR('',#1110,10.);
#349=VECTOR('',#1115,4.);
#350=VECTOR('',#1120,4.);
#351=VECTOR('',#1125,4.);
#352=VECTOR('',#1130,4.);
#353=VECTOR('',#1133,10.);
#354=VECTOR('',#1138,10.);
#355=VECTOR('',#1141,10.);
#356=VECTOR('',#1142,10.);
#357=VECTOR('',#1145,10.);
#358=VECTOR('',#1146,10.);
#359=VECTOR('',#1149,10.);
#360=VECTOR('',#1150,10.);
#361=VECTOR('',#1155,2.1);
#362=VECTOR('',#1160,2.1);
#363=VECTOR('',#1165,2.1);
#364=VECTOR('',#1170,2.1);
#365=VECTOR('',#1175,2.1);
#366=VECTOR('',#1180,2.1);
#367=VECTOR('',#1185,2.1);
#368=VECTOR('',#1190,2.1);
#369=VECTOR('',#1193,10.);
#370=VECTOR('',#1196,10.);
#371=VECTOR('',#1197,10.);
#372=VECTOR('',#1202,10.);
#373=VECTOR('',#1203,10.);
#374=VECTOR('',#1206,10.);
#375=VECTOR('',#1213,10.);
#376=VERTEX_POINT('',#1221);
#377=VERTEX_POINT('',#1222);
#378=VERTEX_POINT('',#1224);
#379=VERTEX_POINT('',#1226);
#380=VERTEX_POINT('',#1230);
#381=VERTEX_POINT('',#1232);
#382=VERTEX_POINT('',#1236);
#383=VERTEX_POINT('',#1238);
#384=VERTEX_POINT('',#1242);
#385=VERTEX_POINT('',#1243);
#386=VERTEX_POINT('',#1245);
#387=VERTEX_POINT('',#1247);
#388=VERTEX_POINT('',#1251);
#389=VERTEX_POINT('',#1253);
#390=VERTEX_POINT('',#1257);
#391=VERTEX_POINT('',#1259);
#392=VERTEX_POINT('',#1263);
#393=VERTEX_POINT('',#1264);
#394=VERTEX_POINT('',#1266);
#395=VERTEX_POINT('',#1268);
#396=VERTEX_POINT('',#1270);
#397=VERTEX_POINT('',#1272);
#398=VERTEX_POINT('',#1274);
#399=VERTEX_POINT('',#1276);
#400=VERTEX_POINT('',#1278);
#401=VERTEX_POINT('',#1280);
#402=VERTEX_POINT('',#1282);
#403=VERTEX_POINT('',#1284);
#404=VERTEX_POINT('',#1286);
#405=VERTEX_POINT('',#1289);
#406=VERTEX_POINT('',#1291);
#407=VERTEX_POINT('',#1293);
#408=VERTEX_POINT('',#1295);
#409=VERTEX_POINT('',#1297);
#410=VERTEX_POINT('',#1299);
#411=VERTEX_POINT('',#1301);
#412=VERTEX_POINT('',#1304);
#413=VERTEX_POINT('',#1306);
#414=VERTEX_POINT('',#1308);
#415=VERTEX_POINT('',#1310);
#416=VERTEX_POINT('',#1312);
#417=VERTEX_POINT('',#1314);
#418=VERTEX_POINT('',#1316);
#419=VERTEX_POINT('',#1318);
#420=VERTEX_POINT('',#1320);
#421=VERTEX_POINT('',#1322);
#422=VERTEX_POINT('',#1324);
#423=VERTEX_POINT('',#1328);
#424=VERTEX_POINT('',#1332);
#425=VERTEX_POINT('',#1336);
#426=VERTEX_POINT('',#1337);
#427=VERTEX_POINT('',#1342);
#428=VERTEX_POINT('',#1346);
#429=VERTEX_POINT('',#1347);
#430=VERTEX_POINT('',#1352);
#431=VERTEX_POINT('',#1356);
#432=VERTEX_POINT('',#1360);
#433=VERTEX_POINT('',#1364);
#434=VERTEX_POINT('',#1365);
#435=VERTEX_POINT('',#1372);
#436=VERTEX_POINT('',#1376);
#437=VERTEX_POINT('',#1380);
#438=VERTEX_POINT('',#1384);
#439=VERTEX_POINT('',#1388);
#440=VERTEX_POINT('',#1394);
#441=VERTEX_POINT('',#1398);
#442=VERTEX_POINT('',#1402);
#443=VERTEX_POINT('',#1406);
#444=VERTEX_POINT('',#1410);
#445=VERTEX_POINT('',#1414);
#446=VERTEX_POINT('',#1418);
#447=VERTEX_POINT('',#1422);
#448=VERTEX_POINT('',#1426);
#449=VERTEX_POINT('',#1430);
#450=VERTEX_POINT('',#1434);
#451=VERTEX_POINT('',#1440);
#452=VERTEX_POINT('',#1442);
#453=VERTEX_POINT('',#1446);
#454=EDGE_CURVE('',#376,#377,#234,.T.);
#455=EDGE_CURVE('',#376,#378,#235,.T.);
#456=EDGE_CURVE('',#379,#378,#236,.T.);
#457=EDGE_CURVE('',#379,#377,#237,.T.);
#458=EDGE_CURVE('',#377,#380,#51,.T.);
#459=EDGE_CURVE('',#381,#379,#52,.T.);
#460=EDGE_CURVE('',#381,#380,#238,.T.);
#461=EDGE_CURVE('',#380,#382,#239,.T.);
#462=EDGE_CURVE('',#383,#381,#240,.T.);
#463=EDGE_CURVE('',#382,#383,#241,.T.);
#464=EDGE_CURVE('',#384,#385,#242,.T.);
#465=EDGE_CURVE('',#386,#384,#243,.T.);
#466=EDGE_CURVE('',#387,#386,#244,.T.);
#467=EDGE_CURVE('',#387,#385,#245,.T.);
#468=EDGE_CURVE('',#385,#388,#53,.T.);
#469=EDGE_CURVE('',#389,#387,#54,.T.);
#470=EDGE_CURVE('',#389,#388,#246,.T.);
#471=EDGE_CURVE('',#390,#384,#247,.T.);
#472=EDGE_CURVE('',#390,#391,#248,.T.);
#473=EDGE_CURVE('',#386,#391,#249,.T.);
#474=EDGE_CURVE('',#392,#393,#55,.T.);
#475=EDGE_CURVE('',#392,#394,#250,.T.);
#476=EDGE_CURVE('',#395,#394,#56,.T.);
#477=EDGE_CURVE('',#395,#396,#251,.T.);
#478=EDGE_CURVE('',#397,#396,#252,.T.);
#479=EDGE_CURVE('',#397,#398,#253,.T.);
#480=EDGE_CURVE('',#399,#398,#57,.T.);
#481=EDGE_CURVE('',#399,#400,#254,.T.);
#482=EDGE_CURVE('',#401,#400,#58,.T.);
#483=EDGE_CURVE('',#401,#402,#255,.T.);
#484=EDGE_CURVE('',#403,#402,#256,.T.);
#485=EDGE_CURVE('',#403,#404,#257,.T.);
#486=EDGE_CURVE('',#404,#393,#258,.T.);
#487=EDGE_CURVE('',#405,#405,#59,.T.);
#488=EDGE_CURVE('',#406,#406,#60,.T.);
#489=EDGE_CURVE('',#407,#407,#61,.T.);
#490=EDGE_CURVE('',#408,#408,#62,.T.);
#491=EDGE_CURVE('',#409,#409,#63,.T.);
#492=EDGE_CURVE('',#410,#410,#64,.T.);
#493=EDGE_CURVE('',#388,#411,#259,.T.);
#494=EDGE_CURVE('',#411,#390,#65,.T.);
#495=EDGE_CURVE('',#412,#412,#66,.T.);
#496=EDGE_CURVE('',#413,#413,#67,.T.);
#497=EDGE_CURVE('',#414,#414,#68,.T.);
#498=EDGE_CURVE('',#415,#415,#69,.T.);
#499=EDGE_CURVE('',#416,#416,#70,.T.);
#500=EDGE_CURVE('',#417,#417,#71,.T.);
#501=EDGE_CURVE('',#418,#418,#72,.T.);
#502=EDGE_CURVE('',#419,#419,#73,.T.);
#503=EDGE_CURVE('',#382,#420,#74,.T.);
#504=EDGE_CURVE('',#420,#421,#260,.T.);
#505=EDGE_CURVE('',#421,#422,#75,.T.);
#506=EDGE_CURVE('',#422,#376,#261,.T.);
#507=EDGE_CURVE('',#423,#423,#76,.T.);
#508=EDGE_CURVE('',#423,#405,#262,.T.);
#509=EDGE_CURVE('',#424,#424,#77,.T.);
#510=EDGE_CURVE('',#424,#406,#263,.T.);
#511=EDGE_CURVE('',#425,#426,#78,.T.);
#512=EDGE_CURVE('',#426,#392,#264,.T.);
#513=EDGE_CURVE('',#393,#425,#265,.T.);
#514=EDGE_CURVE('',#404,#427,#266,.T.);
#515=EDGE_CURVE('',#425,#427,#267,.T.);
#516=EDGE_CURVE('',#428,#429,#79,.T.);
#517=EDGE_CURVE('',#429,#401,#268,.T.);
#518=EDGE_CURVE('',#400,#428,#269,.T.);
#519=EDGE_CURVE('',#430,#399,#270,.T.);
#520=EDGE_CURVE('',#428,#430,#271,.T.);
#521=EDGE_CURVE('',#431,#430,#80,.T.);
#522=EDGE_CURVE('',#398,#431,#272,.T.);
#523=EDGE_CURVE('',#432,#397,#273,.T.);
#524=EDGE_CURVE('',#431,#432,#274,.T.);
#525=EDGE_CURVE('',#433,#434,#81,.T.);
#526=EDGE_CURVE('',#434,#395,#275,.T.);
#527=EDGE_CURVE('',#394,#433,#276,.T.);
#528=EDGE_CURVE('',#433,#426,#277,.T.);
#529=EDGE_CURVE('',#435,#435,#82,.T.);
#530=EDGE_CURVE('',#435,#407,#278,.T.);
#531=EDGE_CURVE('',#436,#436,#83,.T.);
#532=EDGE_CURVE('',#436,#408,#279,.T.);
#533=EDGE_CURVE('',#437,#437,#84,.T.);
#534=EDGE_CURVE('',#437,#409,#280,.T.);
#535=EDGE_CURVE('',#438,#438,#85,.T.);
#536=EDGE_CURVE('',#438,#410,#281,.T.);
#537=EDGE_CURVE('',#411,#439,#282,.T.);
#538=EDGE_CURVE('',#391,#439,#86,.T.);
#539=EDGE_CURVE('',#439,#389,#283,.T.);
#540=EDGE_CURVE('',#440,#429,#284,.T.);
#541=EDGE_CURVE('',#402,#440,#285,.T.);
#542=EDGE_CURVE('',#396,#441,#286,.T.);
#543=EDGE_CURVE('',#441,#432,#287,.T.);
#544=EDGE_CURVE('',#442,#403,#288,.T.);
#545=EDGE_CURVE('',#442,#427,#289,.T.);
#546=EDGE_CURVE('',#443,#443,#87,.T.);
#547=EDGE_CURVE('',#443,#417,#290,.T.);
#548=EDGE_CURVE('',#444,#444,#88,.T.);
#549=EDGE_CURVE('',#444,#418,#291,.T.);
#550=EDGE_CURVE('',#445,#445,#89,.T.);
#551=EDGE_CURVE('',#445,#415,#292,.T.);
#552=EDGE_CURVE('',#446,#446,#90,.T.);
#553=EDGE_CURVE('',#446,#416,#293,.T.);
#554=EDGE_CURVE('',#447,#447,#91,.T.);
#555=EDGE_CURVE('',#447,#413,#294,.T.);
#556=EDGE_CURVE('',#448,#448,#92,.T.);
#557=EDGE_CURVE('',#448,#412,#295,.T.);
#558=EDGE_CURVE('',#449,#449,#93,.T.);
#559=EDGE_CURVE('',#449,#419,#296,.T.);
#560=EDGE_CURVE('',#450,#450,#94,.T.);
#561=EDGE_CURVE('',#450,#414,#297,.T.);
#562=EDGE_CURVE('',#440,#442,#298,.T.);
#563=EDGE_CURVE('',#422,#451,#299,.T.);
#564=EDGE_CURVE('',#421,#452,#300,.T.);
#565=EDGE_CURVE('',#451,#452,#95,.T.);
#566=EDGE_CURVE('',#452,#453,#301,.T.);
#567=EDGE_CURVE('',#420,#453,#302,.T.);
#568=EDGE_CURVE('',#378,#451,#303,.T.);
#569=EDGE_CURVE('',#383,#453,#96,.T.);
#570=EDGE_CURVE('',#441,#434,#304,.T.);
#571=ORIENTED_EDGE('',*,*,#454,.F.);
#572=ORIENTED_EDGE('',*,*,#455,.T.);
#573=ORIENTED_EDGE('',*,*,#456,.F.);
#574=ORIENTED_EDGE('',*,*,#457,.T.);
#575=ORIENTED_EDGE('',*,*,#458,.F.);
#576=ORIENTED_EDGE('',*,*,#457,.F.);
#577=ORIENTED_EDGE('',*,*,#459,.F.);
#578=ORIENTED_EDGE('',*,*,#460,.T.);
#579=ORIENTED_EDGE('',*,*,#461,.F.);
#580=ORIENTED_EDGE('',*,*,#460,.F.);
#581=ORIENTED_EDGE('',*,*,#462,.F.);
#582=ORIENTED_EDGE('',*,*,#463,.F.);
#583=ORIENTED_EDGE('',*,*,#464,.F.);
#584=ORIENTED_EDGE('',*,*,#465,.F.);
#585=ORIENTED_EDGE('',*,*,#466,.F.);
#586=ORIENTED_EDGE('',*,*,#467,.T.);
#587=ORIENTED_EDGE('',*,*,#468,.F.);
#588=ORIENTED_EDGE('',*,*,#467,.F.);
#589=ORIENTED_EDGE('',*,*,#469,.F.);
#590=ORIENTED_EDGE('',*,*,#470,.T.);
#591=ORIENTED_EDGE('',*,*,#465,.T.);
#592=ORIENTED_EDGE('',*,*,#471,.F.);
#593=ORIENTED_EDGE('',*,*,#472,.T.);
#594=ORIENTED_EDGE('',*,*,#473,.F.);
#595=ORIENTED_EDGE('',*,*,#474,.F.);
#596=ORIENTED_EDGE('',*,*,#475,.T.);
#597=ORIENTED_EDGE('',*,*,#476,.F.);
#598=ORIENTED_EDGE('',*,*,#477,.T.);
#599=ORIENTED_EDGE('',*,*,#478,.F.);
#600=ORIENTED_EDGE('',*,*,#479,.T.);
#601=ORIENTED_EDGE('',*,*,#480,.F.);
#602=ORIENTED_EDGE('',*,*,#481,.T.);
#603=ORIENTED_EDGE('',*,*,#482,.F.);
#604=ORIENTED_EDGE('',*,*,#483,.T.);
#605=ORIENTED_EDGE('',*,*,#484,.F.);
#606=ORIENTED_EDGE('',*,*,#485,.T.);
#607=ORIENTED_EDGE('',*,*,#486,.T.);
#608=ORIENTED_EDGE('',*,*,#487,.T.);
#609=ORIENTED_EDGE('',*,*,#488,.T.);
#610=ORIENTED_EDGE('',*,*,#489,.T.);
#611=ORIENTED_EDGE('',*,*,#490,.T.);
#612=ORIENTED_EDGE('',*,*,#491,.T.);
#613=ORIENTED_EDGE('',*,*,#492,.T.);
#614=ORIENTED_EDGE('',*,*,#464,.T.);
#615=ORIENTED_EDGE('',*,*,#468,.T.);
#616=ORIENTED_EDGE('',*,*,#493,.T.);
#617=ORIENTED_EDGE('',*,*,#494,.T.);
#618=ORIENTED_EDGE('',*,*,#471,.T.);
#619=ORIENTED_EDGE('',*,*,#495,.F.);
#620=ORIENTED_EDGE('',*,*,#496,.F.);
#621=ORIENTED_EDGE('',*,*,#497,.F.);
#622=ORIENTED_EDGE('',*,*,#498,.F.);
#623=ORIENTED_EDGE('',*,*,#499,.F.);
#624=ORIENTED_EDGE('',*,*,#500,.F.);
#625=ORIENTED_EDGE('',*,*,#501,.F.);
#626=ORIENTED_EDGE('',*,*,#502,.F.);
#627=ORIENTED_EDGE('',*,*,#454,.T.);
#628=ORIENTED_EDGE('',*,*,#458,.T.);
#629=ORIENTED_EDGE('',*,*,#461,.T.);
#630=ORIENTED_EDGE('',*,*,#503,.T.);
#631=ORIENTED_EDGE('',*,*,#504,.T.);
#632=ORIENTED_EDGE('',*,*,#505,.T.);
#633=ORIENTED_EDGE('',*,*,#506,.T.);
#634=ORIENTED_EDGE('',*,*,#507,.F.);
#635=ORIENTED_EDGE('',*,*,#508,.T.);
#636=ORIENTED_EDGE('',*,*,#487,.F.);
#637=ORIENTED_EDGE('',*,*,#508,.F.);
#638=ORIENTED_EDGE('',*,*,#509,.F.);
#639=ORIENTED_EDGE('',*,*,#510,.T.);
#640=ORIENTED_EDGE('',*,*,#488,.F.);
#641=ORIENTED_EDGE('',*,*,#510,.F.);
#642=ORIENTED_EDGE('',*,*,#511,.T.);
#643=ORIENTED_EDGE('',*,*,#512,.T.);
#644=ORIENTED_EDGE('',*,*,#474,.T.);
#645=ORIENTED_EDGE('',*,*,#513,.T.);
#646=ORIENTED_EDGE('',*,*,#513,.F.);
#647=ORIENTED_EDGE('',*,*,#486,.F.);
#648=ORIENTED_EDGE('',*,*,#514,.T.);
#649=ORIENTED_EDGE('',*,*,#515,.F.);
#650=ORIENTED_EDGE('',*,*,#516,.T.);
#651=ORIENTED_EDGE('',*,*,#517,.T.);
#652=ORIENTED_EDGE('',*,*,#482,.T.);
#653=ORIENTED_EDGE('',*,*,#518,.T.);
#654=ORIENTED_EDGE('',*,*,#518,.F.);
#655=ORIENTED_EDGE('',*,*,#481,.F.);
#656=ORIENTED_EDGE('',*,*,#519,.F.);
#657=ORIENTED_EDGE('',*,*,#520,.F.);
#658=ORIENTED_EDGE('',*,*,#521,.T.);
#659=ORIENTED_EDGE('',*,*,#519,.T.);
#660=ORIENTED_EDGE('',*,*,#480,.T.);
#661=ORIENTED_EDGE('',*,*,#522,.T.);
#662=ORIENTED_EDGE('',*,*,#522,.F.);
#663=ORIENTED_EDGE('',*,*,#479,.F.);
#664=ORIENTED_EDGE('',*,*,#523,.F.);
#665=ORIENTED_EDGE('',*,*,#524,.F.);
#666=ORIENTED_EDGE('',*,*,#525,.T.);
#667=ORIENTED_EDGE('',*,*,#526,.T.);
#668=ORIENTED_EDGE('',*,*,#476,.T.);
#669=ORIENTED_EDGE('',*,*,#527,.T.);
#670=ORIENTED_EDGE('',*,*,#512,.F.);
#671=ORIENTED_EDGE('',*,*,#528,.F.);
#672=ORIENTED_EDGE('',*,*,#527,.F.);
#673=ORIENTED_EDGE('',*,*,#475,.F.);
#674=ORIENTED_EDGE('',*,*,#529,.F.);
#675=ORIENTED_EDGE('',*,*,#530,.T.);
#676=ORIENTED_EDGE('',*,*,#489,.F.);
#677=ORIENTED_EDGE('',*,*,#530,.F.);
#678=ORIENTED_EDGE('',*,*,#531,.F.);
#679=ORIENTED_EDGE('',*,*,#532,.T.);
#680=ORIENTED_EDGE('',*,*,#490,.F.);
#681=ORIENTED_EDGE('',*,*,#532,.F.);
#682=ORIENTED_EDGE('',*,*,#533,.F.);
#683=ORIENTED_EDGE('',*,*,#534,.T.);
#684=ORIENTED_EDGE('',*,*,#491,.F.);
#685=ORIENTED_EDGE('',*,*,#534,.F.);
#686=ORIENTED_EDGE('',*,*,#535,.F.);
#687=ORIENTED_EDGE('',*,*,#536,.T.);
#688=ORIENTED_EDGE('',*,*,#492,.F.);
#689=ORIENTED_EDGE('',*,*,#536,.F.);
#690=ORIENTED_EDGE('',*,*,#472,.F.);
#691=ORIENTED_EDGE('',*,*,#494,.F.);
#692=ORIENTED_EDGE('',*,*,#537,.T.);
#693=ORIENTED_EDGE('',*,*,#538,.F.);
#694=ORIENTED_EDGE('',*,*,#539,.F.);
#695=ORIENTED_EDGE('',*,*,#537,.F.);
#696=ORIENTED_EDGE('',*,*,#493,.F.);
#697=ORIENTED_EDGE('',*,*,#470,.F.);
#698=ORIENTED_EDGE('',*,*,#517,.F.);
#699=ORIENTED_EDGE('',*,*,#540,.F.);
#700=ORIENTED_EDGE('',*,*,#541,.F.);
#701=ORIENTED_EDGE('',*,*,#483,.F.);
#702=ORIENTED_EDGE('',*,*,#542,.T.);
#703=ORIENTED_EDGE('',*,*,#543,.T.);
#704=ORIENTED_EDGE('',*,*,#523,.T.);
#705=ORIENTED_EDGE('',*,*,#478,.T.);
#706=ORIENTED_EDGE('',*,*,#544,.F.);
#707=ORIENTED_EDGE('',*,*,#545,.T.);
#708=ORIENTED_EDGE('',*,*,#514,.F.);
#709=ORIENTED_EDGE('',*,*,#485,.F.);
#710=ORIENTED_EDGE('',*,*,#546,.T.);
#711=ORIENTED_EDGE('',*,*,#547,.T.);
#712=ORIENTED_EDGE('',*,*,#500,.T.);
#713=ORIENTED_EDGE('',*,*,#547,.F.);
#714=ORIENTED_EDGE('',*,*,#548,.T.);
#715=ORIENTED_EDGE('',*,*,#549,.T.);
#716=ORIENTED_EDGE('',*,*,#501,.T.);
#717=ORIENTED_EDGE('',*,*,#549,.F.);
#718=ORIENTED_EDGE('',*,*,#550,.T.);
#719=ORIENTED_EDGE('',*,*,#551,.T.);
#720=ORIENTED_EDGE('',*,*,#498,.T.);
#721=ORIENTED_EDGE('',*,*,#551,.F.);
#722=ORIENTED_EDGE('',*,*,#552,.T.);
#723=ORIENTED_EDGE('',*,*,#553,.T.);
#724=ORIENTED_EDGE('',*,*,#499,.T.);
#725=ORIENTED_EDGE('',*,*,#553,.F.);
#726=ORIENTED_EDGE('',*,*,#554,.T.);
#727=ORIENTED_EDGE('',*,*,#555,.T.);
#728=ORIENTED_EDGE('',*,*,#496,.T.);
#729=ORIENTED_EDGE('',*,*,#555,.F.);
#730=ORIENTED_EDGE('',*,*,#556,.T.);
#731=ORIENTED_EDGE('',*,*,#557,.T.);
#732=ORIENTED_EDGE('',*,*,#495,.T.);
#733=ORIENTED_EDGE('',*,*,#557,.F.);
#734=ORIENTED_EDGE('',*,*,#558,.T.);
#735=ORIENTED_EDGE('',*,*,#559,.T.);
#736=ORIENTED_EDGE('',*,*,#502,.T.);
#737=ORIENTED_EDGE('',*,*,#559,.F.);
#738=ORIENTED_EDGE('',*,*,#560,.T.);
#739=ORIENTED_EDGE('',*,*,#561,.T.);
#740=ORIENTED_EDGE('',*,*,#497,.T.);
#741=ORIENTED_EDGE('',*,*,#561,.F.);
#742=ORIENTED_EDGE('',*,*,#541,.T.);
#743=ORIENTED_EDGE('',*,*,#562,.T.);
#744=ORIENTED_EDGE('',*,*,#544,.T.);
#745=ORIENTED_EDGE('',*,*,#484,.T.);
#746=ORIENTED_EDGE('',*,*,#563,.F.);
#747=ORIENTED_EDGE('',*,*,#505,.F.);
#748=ORIENTED_EDGE('',*,*,#564,.T.);
#749=ORIENTED_EDGE('',*,*,#565,.F.);
#750=ORIENTED_EDGE('',*,*,#566,.F.);
#751=ORIENTED_EDGE('',*,*,#564,.F.);
#752=ORIENTED_EDGE('',*,*,#504,.F.);
#753=ORIENTED_EDGE('',*,*,#567,.T.);
#754=ORIENTED_EDGE('',*,*,#506,.F.);
#755=ORIENTED_EDGE('',*,*,#563,.T.);
#756=ORIENTED_EDGE('',*,*,#568,.F.);
#757=ORIENTED_EDGE('',*,*,#455,.F.);
#758=ORIENTED_EDGE('',*,*,#463,.T.);
#759=ORIENTED_EDGE('',*,*,#569,.T.);
#760=ORIENTED_EDGE('',*,*,#567,.F.);
#761=ORIENTED_EDGE('',*,*,#503,.F.);
#762=ORIENTED_EDGE('',*,*,#526,.F.);
#763=ORIENTED_EDGE('',*,*,#570,.F.);
#764=ORIENTED_EDGE('',*,*,#542,.F.);
#765=ORIENTED_EDGE('',*,*,#477,.F.);
#766=ORIENTED_EDGE('',*,*,#511,.F.);
#767=ORIENTED_EDGE('',*,*,#515,.T.);
#768=ORIENTED_EDGE('',*,*,#545,.F.);
#769=ORIENTED_EDGE('',*,*,#562,.F.);
#770=ORIENTED_EDGE('',*,*,#540,.T.);
#771=ORIENTED_EDGE('',*,*,#516,.F.);
#772=ORIENTED_EDGE('',*,*,#520,.T.);
#773=ORIENTED_EDGE('',*,*,#521,.F.);
#774=ORIENTED_EDGE('',*,*,#524,.T.);
#775=ORIENTED_EDGE('',*,*,#543,.F.);
#776=ORIENTED_EDGE('',*,*,#570,.T.);
#777=ORIENTED_EDGE('',*,*,#525,.F.);
#778=ORIENTED_EDGE('',*,*,#528,.T.);
#779=ORIENTED_EDGE('',*,*,#456,.T.);
#780=ORIENTED_EDGE('',*,*,#568,.T.);
#781=ORIENTED_EDGE('',*,*,#565,.T.);
#782=ORIENTED_EDGE('',*,*,#566,.T.);
#783=ORIENTED_EDGE('',*,*,#569,.F.);
#784=ORIENTED_EDGE('',*,*,#462,.T.);
#785=ORIENTED_EDGE('',*,*,#459,.T.);
#786=ORIENTED_EDGE('',*,*,#466,.T.);
#787=ORIENTED_EDGE('',*,*,#473,.T.);
#788=ORIENTED_EDGE('',*,*,#538,.T.);
#789=ORIENTED_EDGE('',*,*,#539,.T.);
#790=ORIENTED_EDGE('',*,*,#469,.T.);
#791=ORIENTED_EDGE('',*,*,#507,.T.);
#792=ORIENTED_EDGE('',*,*,#509,.T.);
#793=ORIENTED_EDGE('',*,*,#529,.T.);
#794=ORIENTED_EDGE('',*,*,#531,.T.);
#795=ORIENTED_EDGE('',*,*,#533,.T.);
#796=ORIENTED_EDGE('',*,*,#535,.T.);
#797=ORIENTED_EDGE('',*,*,#548,.F.);
#798=ORIENTED_EDGE('',*,*,#558,.F.);
#799=ORIENTED_EDGE('',*,*,#554,.F.);
#800=ORIENTED_EDGE('',*,*,#556,.F.);
#801=ORIENTED_EDGE('',*,*,#560,.F.);
#802=ORIENTED_EDGE('',*,*,#550,.F.);
#803=ORIENTED_EDGE('',*,*,#546,.F.);
#804=ORIENTED_EDGE('',*,*,#552,.F.);
#805=PLANE('',#879);
#806=PLANE('',#883);
#807=PLANE('',#884);
#808=PLANE('',#888);
#809=PLANE('',#889);
#810=PLANE('',#917);
#811=PLANE('',#920);
#812=PLANE('',#923);
#813=PLANE('',#926);
#814=PLANE('',#937);
#815=PLANE('',#938);
#816=PLANE('',#939);
#817=PLANE('',#940);
#818=PLANE('',#957);
#819=PLANE('',#960);
#820=PLANE('',#961);
#821=PLANE('',#964);
#822=PLANE('',#965);
#823=ADVANCED_FACE('',(#120),#805,.F.);
#824=ADVANCED_FACE('',(#121),#97,.F.);
#825=ADVANCED_FACE('',(#122),#806,.F.);
#826=ADVANCED_FACE('',(#123),#807,.F.);
#827=ADVANCED_FACE('',(#124),#98,.F.);
#828=ADVANCED_FACE('',(#125),#808,.F.);
#829=ADVANCED_FACE('',(#126,#19,#20,#21,#22,#23,#24,#25,#26,#27,#28,#29,
#30,#31,#32,#33,#34),#809,.T.);
#830=ADVANCED_FACE('',(#127),#99,.F.);
#831=ADVANCED_FACE('',(#128),#100,.F.);
#832=ADVANCED_FACE('',(#129),#101,.T.);
#833=ADVANCED_FACE('',(#130),#810,.T.);
#834=ADVANCED_FACE('',(#131),#102,.T.);
#835=ADVANCED_FACE('',(#132),#811,.T.);
#836=ADVANCED_FACE('',(#133),#103,.T.);
#837=ADVANCED_FACE('',(#134),#812,.T.);
#838=ADVANCED_FACE('',(#135),#104,.T.);
#839=ADVANCED_FACE('',(#136),#813,.T.);
#840=ADVANCED_FACE('',(#137),#105,.F.);
#841=ADVANCED_FACE('',(#138),#106,.F.);
#842=ADVANCED_FACE('',(#139),#107,.F.);
#843=ADVANCED_FACE('',(#140),#108,.F.);
#844=ADVANCED_FACE('',(#141),#109,.F.);
#845=ADVANCED_FACE('',(#142),#814,.F.);
#846=ADVANCED_FACE('',(#143),#815,.T.);
#847=ADVANCED_FACE('',(#144),#816,.T.);
#848=ADVANCED_FACE('',(#145),#817,.T.);
#849=ADVANCED_FACE('',(#146),#110,.F.);
#850=ADVANCED_FACE('',(#147),#111,.F.);
#851=ADVANCED_FACE('',(#148),#112,.F.);
#852=ADVANCED_FACE('',(#149),#113,.F.);
#853=ADVANCED_FACE('',(#150),#114,.F.);
#854=ADVANCED_FACE('',(#151),#115,.F.);
#855=ADVANCED_FACE('',(#152),#116,.F.);
#856=ADVANCED_FACE('',(#153),#117,.F.);
#857=ADVANCED_FACE('',(#154),#818,.T.);
#858=ADVANCED_FACE('',(#155),#118,.F.);
#859=ADVANCED_FACE('',(#156),#819,.F.);
#860=ADVANCED_FACE('',(#157),#820,.F.);
#861=ADVANCED_FACE('',(#158),#119,.F.);
#862=ADVANCED_FACE('',(#159),#821,.T.);
#863=ADVANCED_FACE('',(#160,#35,#36,#37,#38,#39,#40,#41,#42,#43,#44,#45,
#46,#47,#48,#49,#50),#822,.F.);
#864=CLOSED_SHELL('',(#823,#824,#825,#826,#827,#828,#829,#830,#831,#832,
#833,#834,#835,#836,#837,#838,#839,#840,#841,#842,#843,#844,#845,#846,#847,
#848,#849,#850,#851,#852,#853,#854,#855,#856,#857,#858,#859,#860,#861,#862,
#863));
#865=DERIVED_UNIT_ELEMENT(#867,1.);
#866=DERIVED_UNIT_ELEMENT(#1464,-3.);
#867=(
MASS_UNIT()
NAMED_UNIT(*)
SI_UNIT(.KILO.,.GRAM.)
);
#868=DERIVED_UNIT((#865,#866));
#869=MEASURE_REPRESENTATION_ITEM('density measure',
POSITIVE_RATIO_MEASURE(7850.),#868);
#870=PROPERTY_DEFINITION_REPRESENTATION(#875,#872);
#871=PROPERTY_DEFINITION_REPRESENTATION(#876,#873);
#872=REPRESENTATION('material name',(#874),#1461);
#873=REPRESENTATION('density',(#869),#1461);
#874=DESCRIPTIVE_REPRESENTATION_ITEM('Steel','Steel');
#875=PROPERTY_DEFINITION('material property','material name',#1476);
#876=PROPERTY_DEFINITION('material property','density of part',#1476);
#877=AXIS2_PLACEMENT_3D('',#1218,#967,#968);
#878=AXIS2_PLACEMENT_3D('',#1219,#969,#970);
#879=AXIS2_PLACEMENT_3D('',#1220,#971,#972);
#880=AXIS2_PLACEMENT_3D('',#1229,#977,#978);
#881=AXIS2_PLACEMENT_3D('',#1231,#979,#980);
#882=AXIS2_PLACEMENT_3D('',#1233,#981,#982);
#883=AXIS2_PLACEMENT_3D('',#1235,#984,#985);
#884=AXIS2_PLACEMENT_3D('',#1241,#989,#990);
#885=AXIS2_PLACEMENT_3D('',#1250,#995,#996);
#886=AXIS2_PLACEMENT_3D('',#1252,#997,#998);
#887=AXIS2_PLACEMENT_3D('',#1254,#999,#1000);
#888=AXIS2_PLACEMENT_3D('',#1256,#1002,#1003);
#889=AXIS2_PLACEMENT_3D('',#1262,#1007,#1008);
#890=AXIS2_PLACEMENT_3D('',#1265,#1009,#1010);
#891=AXIS2_PLACEMENT_3D('',#1269,#1012,#1013);
#892=AXIS2_PLACEMENT_3D('',#1277,#1017,#1018);
#893=AXIS2_PLACEMENT_3D('',#1281,#1020,#1021);
#894=AXIS2_PLACEMENT_3D('',#1290,#1026,#1027);
#895=AXIS2_PLACEMENT_3D('',#1292,#1028,#1029);
#896=AXIS2_PLACEMENT_3D('',#1294,#1030,#1031);
#897=AXIS2_PLACEMENT_3D('',#1296,#1032,#1033);
#898=AXIS2_PLACEMENT_3D('',#1298,#1034,#1035);
#899=AXIS2_PLACEMENT_3D('',#1300,#1036,#1037);
#900=AXIS2_PLACEMENT_3D('',#1303,#1039,#1040);
#901=AXIS2_PLACEMENT_3D('',#1305,#1041,#1042);
#902=AXIS2_PLACEMENT_3D('',#1307,#1043,#1044);
#903=AXIS2_PLACEMENT_3D('',#1309,#1045,#1046);
#904=AXIS2_PLACEMENT_3D('',#1311,#1047,#1048);
#905=AXIS2_PLACEMENT_3D('',#1313,#1049,#1050);
#906=AXIS2_PLACEMENT_3D('',#1315,#1051,#1052);
#907=AXIS2_PLACEMENT_3D('',#1317,#1053,#1054);
#908=AXIS2_PLACEMENT_3D('',#1319,#1055,#1056);
#909=AXIS2_PLACEMENT_3D('',#1321,#1057,#1058);
#910=AXIS2_PLACEMENT_3D('',#1325,#1060,#1061);
#911=AXIS2_PLACEMENT_3D('',#1327,#1063,#1064);
#912=AXIS2_PLACEMENT_3D('',#1329,#1065,#1066);
#913=AXIS2_PLACEMENT_3D('',#1331,#1068,#1069);
#914=AXIS2_PLACEMENT_3D('',#1333,#1070,#1071);
#915=AXIS2_PLACEMENT_3D('',#1335,#1073,#1074);
#916=AXIS2_PLACEMENT_3D('',#1338,#1075,#1076);
#917=AXIS2_PLACEMENT_3D('',#1341,#1079,#1080);
#918=AXIS2_PLACEMENT_3D('',#1345,#1083,#1084);
#919=AXIS2_PLACEMENT_3D('',#1348,#1085,#1086);
#920=AXIS2_PLACEMENT_3D('',#1351,#1089,#1090);
#921=AXIS2_PLACEMENT_3D('',#1355,#1093,#1094);
#922=AXIS2_PLACEMENT_3D('',#1357,#1095,#1096);
#923=AXIS2_PLACEMENT_3D('',#1359,#1098,#1099);
#924=AXIS2_PLACEMENT_3D('',#1363,#1102,#1103);
#925=AXIS2_PLACEMENT_3D('',#1366,#1104,#1105);
#926=AXIS2_PLACEMENT_3D('',#1369,#1108,#1109);
#927=AXIS2_PLACEMENT_3D('',#1371,#1111,#1112);
#928=AXIS2_PLACEMENT_3D('',#1373,#1113,#1114);
#929=AXIS2_PLACEMENT_3D('',#1375,#1116,#1117);
#930=AXIS2_PLACEMENT_3D('',#1377,#1118,#1119);
#931=AXIS2_PLACEMENT_3D('',#1379,#1121,#1122);
#932=AXIS2_PLACEMENT_3D('',#1381,#1123,#1124);
#933=AXIS2_PLACEMENT_3D('',#1383,#1126,#1127);
#934=AXIS2_PLACEMENT_3D('',#1385,#1128,#1129);
#935=AXIS2_PLACEMENT_3D('',#1387,#1131,#1132);
#936=AXIS2_PLACEMENT_3D('',#1390,#1134,#1135);
#937=AXIS2_PLACEMENT_3D('',#1391,#1136,#1137);
#938=AXIS2_PLACEMENT_3D('',#1393,#1139,#1140);
#939=AXIS2_PLACEMENT_3D('',#1397,#1143,#1144);
#940=AXIS2_PLACEMENT_3D('',#1401,#1147,#1148);
#941=AXIS2_PLACEMENT_3D('',#1405,#1151,#1152);
#942=AXIS2_PLACEMENT_3D('',#1407,#1153,#1154);
#943=AXIS2_PLACEMENT_3D('',#1409,#1156,#1157);
#944=AXIS2_PLACEMENT_3D('',#1411,#1158,#1159);
#945=AXIS2_PLACEMENT_3D('',#1413,#1161,#1162);
#946=AXIS2_PLACEMENT_3D('',#1415,#1163,#1164);
#947=AXIS2_PLACEMENT_3D('',#1417,#1166,#1167);
#948=AXIS2_PLACEMENT_3D('',#1419,#1168,#1169);
#949=AXIS2_PLACEMENT_3D('',#1421,#1171,#1172);
#950=AXIS2_PLACEMENT_3D('',#1423,#1173,#1174);
#951=AXIS2_PLACEMENT_3D('',#1425,#1176,#1177);
#952=AXIS2_PLACEMENT_3D('',#1427,#1178,#1179);
#953=AXIS2_PLACEMENT_3D('',#1429,#1181,#1182);
#954=AXIS2_PLACEMENT_3D('',#1431,#1183,#1184);
#955=AXIS2_PLACEMENT_3D('',#1433,#1186,#1187);
#956=AXIS2_PLACEMENT_3D('',#1435,#1188,#1189);
#957=AXIS2_PLACEMENT_3D('',#1437,#1191,#1192);
#958=AXIS2_PLACEMENT_3D('',#1439,#1194,#1195);
#959=AXIS2_PLACEMENT_3D('',#1444,#1198,#1199);
#960=AXIS2_PLACEMENT_3D('',#1445,#1200,#1201);
#961=AXIS2_PLACEMENT_3D('',#1449,#1204,#1205);
#962=AXIS2_PLACEMENT_3D('',#1451,#1207,#1208);
#963=AXIS2_PLACEMENT_3D('',#1452,#1209,#1210);
#964=AXIS2_PLACEMENT_3D('',#1453,#1211,#1212);
#965=AXIS2_PLACEMENT_3D('',#1455,#1214,#1215);
#966=AXIS2_PLACEMENT_3D('',#1456,#1216,#1217);
#967=DIRECTION('axis',(0.,0.,1.));
#968=DIRECTION('refdir',(1.,0.,0.));
#969=DIRECTION('axis',(0.,0.,1.));
#970=DIRECTION('refdir',(1.,0.,0.));
#971=DIRECTION('center_axis',(-9.21301665873583E-8,0.999999999999996,0.));
#972=DIRECTION('ref_axis',(-0.999999999999996,-9.21301665873583E-8,0.));
#973=DIRECTION('',(0.999999999999996,9.21301665873583E-8,0.));
#974=DIRECTION('',(0.,0.,-1.));
#975=DIRECTION('',(-0.999999999999996,-9.21301665873583E-8,0.));
#976=DIRECTION('',(0.,0.,1.));
#977=DIRECTION('center_axis',(0.,0.,1.));
#978=DIRECTION('ref_axis',(0.100437129766464,0.994943406915325,0.));
#979=DIRECTION('center_axis',(0.,0.,-1.));
#980=DIRECTION('ref_axis',(0.100437129766464,0.994943406915325,0.));
#981=DIRECTION('center_axis',(0.,0.,1.));
#982=DIRECTION('ref_axis',(0.100437129766464,0.994943406915325,0.));
#983=DIRECTION('',(0.,0.,1.));
#984=DIRECTION('center_axis',(0.00182367118899744,-0.999998337110315,0.));
#985=DIRECTION('ref_axis',(0.999998337110315,0.00182367118899744,0.));
#986=DIRECTION('',(-0.999998337110315,-0.00182367118899744,0.));
#987=DIRECTION('',(0.999998337110315,0.00182367118899744,0.));
#988=DIRECTION('',(0.,0.,-1.));
#989=DIRECTION('center_axis',(0.0123291886444685,-0.999923992665127,0.));
#990=DIRECTION('ref_axis',(0.999923992665127,0.0123291886444685,0.));
#991=DIRECTION('',(-0.999923992665127,-0.0123291886444685,0.));
#992=DIRECTION('',(0.,0.,1.));
#993=DIRECTION('',(0.999923992665127,0.0123291886444685,0.));
#994=DIRECTION('',(0.,0.,1.));
#995=DIRECTION('center_axis',(0.,0.,1.));
#996=DIRECTION('ref_axis',(-0.174754143489609,-0.984612100947989,0.));
#997=DIRECTION('center_axis',(0.,0.,-1.));
#998=DIRECTION('ref_axis',(-0.174754143489609,-0.984612100947989,0.));
#999=DIRECTION('center_axis',(0.,0.,1.));
#1000=DIRECTION('ref_axis',(-0.174754143489609,-0.984612100947989,0.));
#1001=DIRECTION('',(0.,0.,1.));
#1002=DIRECTION('center_axis',(1.22464679914735E-16,-1.,0.));
#1003=DIRECTION('ref_axis',(-1.,-1.22464679914735E-16,0.));
#1004=DIRECTION('',(-1.,-1.22464679914735E-16,0.));
#1005=DIRECTION('',(0.,0.,-1.));
#1006=DIRECTION('',(1.,1.22464679914735E-16,0.));
#1007=DIRECTION('center_axis',(0.,0.,1.));
#1008=DIRECTION('ref_axis',(-1.,0.,0.));
#1009=DIRECTION('center_axis',(0.,0.,-1.));
#1010=DIRECTION('ref_axis',(0.697809321357949,0.716283568864984,0.));
#1011=DIRECTION('',(-1.,1.5918186381595E-15,0.));
#1012=DIRECTION('center_axis',(0.,0.,-1.));
#1013=DIRECTION('ref_axis',(-0.707106781186546,0.707106781186549,0.));
#1014=DIRECTION('',(0.,-1.,0.));
#1015=DIRECTION('',(1.,2.98334424010744E-16,0.));
#1016=DIRECTION('',(0.0261243020519202,-0.999658702179049,0.));
#1017=DIRECTION('center_axis',(0.,0.,-1.));
#1018=DIRECTION('ref_axis',(-0.697809321357948,-0.716283568864985,0.));
#1019=DIRECTION('',(1.,-1.46935395824477E-15,0.));
#1020=DIRECTION('center_axis',(0.,0.,-1.));
#1021=DIRECTION('ref_axis',(0.707106781186547,-0.707106781186547,0.));
#1022=DIRECTION('',(-1.22464679914735E-16,1.,0.));
#1023=DIRECTION('',(-1.,-8.79196355564676E-17,0.));
#1024=DIRECTION('',(0.,1.,0.));
#1025=DIRECTION('',(-0.0261243020519201,0.999658702179049,0.));
#1026=DIRECTION('center_axis',(0.,0.,-1.));
#1027=DIRECTION('ref_axis',(-1.,0.,0.));
#1028=DIRECTION('center_axis',(0.,0.,-1.));
#1029=DIRECTION('ref_axis',(-1.,0.,0.));
#1030=DIRECTION('center_axis',(0.,0.,-1.));
#1031=DIRECTION('ref_axis',(-1.,0.,0.));
#1032=DIRECTION('center_axis',(0.,0.,-1.));
#1033=DIRECTION('ref_axis',(-1.,0.,0.));
#1034=DIRECTION('center_axis',(0.,0.,-1.));
#1035=DIRECTION('ref_axis',(-1.,0.,0.));
#1036=DIRECTION('center_axis',(0.,0.,-1.));
#1037=DIRECTION('ref_axis',(-1.,0.,0.));
#1038=DIRECTION('',(1.,1.22464679914735E-16,0.));
#1039=DIRECTION('center_axis',(0.,0.,-1.));
#1040=DIRECTION('ref_axis',(0.233970959159551,-0.972243585872368,0.));
#1041=DIRECTION('center_axis',(0.,0.,1.));
#1042=DIRECTION('ref_axis',(1.,0.,0.));
#1043=DIRECTION('center_axis',(0.,0.,1.));
#1044=DIRECTION('ref_axis',(1.,0.,0.));
#1045=DIRECTION('center_axis',(0.,0.,1.));
#1046=DIRECTION('ref_axis',(1.,0.,0.));
#1047=DIRECTION('center_axis',(0.,0.,1.));
#1048=DIRECTION('ref_axis',(1.,0.,0.));
#1049=DIRECTION('center_axis',(0.,0.,1.));
#1050=DIRECTION('ref_axis',(1.,0.,0.));
#1051=DIRECTION('center_axis',(0.,0.,1.));
#1052=DIRECTION('ref_axis',(1.,0.,0.));
#1053=DIRECTION('center_axis',(0.,0.,1.));
#1054=DIRECTION('ref_axis',(1.,0.,0.));
#1055=DIRECTION('center_axis',(0.,0.,1.));
#1056=DIRECTION('ref_axis',(1.,0.,0.));
#1057=DIRECTION('center_axis',(0.,0.,-1.));
#1058=DIRECTION('ref_axis',(0.0601316409474602,-0.998190455653111,0.));
#1059=DIRECTION('',(-1.,0.,0.));
#1060=DIRECTION('center_axis',(0.,0.,-1.));
#1061=DIRECTION('ref_axis',(-0.233970959159551,0.972243585872368,0.));
#1062=DIRECTION('',(1.,0.,0.));
#1063=DIRECTION('center_axis',(0.,0.,1.));
#1064=DIRECTION('ref_axis',(-1.,0.,0.));
#1065=DIRECTION('center_axis',(0.,0.,1.));
#1066=DIRECTION('ref_axis',(-1.,0.,0.));
#1067=DIRECTION('',(0.,0.,1.));
#1068=DIRECTION('center_axis',(0.,0.,1.));
#1069=DIRECTION('ref_axis',(-1.,0.,0.));
#1070=DIRECTION('center_axis',(0.,0.,1.));
#1071=DIRECTION('ref_axis',(-1.,0.,0.));
#1072=DIRECTION('',(0.,0.,1.));
#1073=DIRECTION('center_axis',(0.,0.,-1.));
#1074=DIRECTION('ref_axis',(0.697809321357949,0.716283568864984,0.));
#1075=DIRECTION('center_axis',(0.,0.,1.));
#1076=DIRECTION('ref_axis',(0.697809321357949,0.716283568864984,0.));
#1077=DIRECTION('',(0.,0.,1.));
#1078=DIRECTION('',(0.,0.,-1.));
#1079=DIRECTION('center_axis',(0.999658702179049,0.0261243020519201,0.));
#1080=DIRECTION('ref_axis',(0.0261243020519201,-0.999658702179049,0.));
#1081=DIRECTION('',(0.,0.,-1.));
#1082=DIRECTION('',(0.0261243020519201,-0.999658702179049,0.));
#1083=DIRECTION('center_axis',(0.,0.,-1.));
#1084=DIRECTION('ref_axis',(0.707106781186547,-0.707106781186547,0.));
#1085=DIRECTION('center_axis',(0.,0.,1.));
#1086=DIRECTION('ref_axis',(0.707106781186547,-0.707106781186547,0.));
#1087=DIRECTION('',(0.,0.,1.));
#1088=DIRECTION('',(0.,0.,-1.));
#1089=DIRECTION('center_axis',(-1.46935395824477E-15,-1.,0.));
#1090=DIRECTION('ref_axis',(-1.,1.46935395824477E-15,0.));
#1091=DIRECTION('',(0.,0.,1.));
#1092=DIRECTION('',(-1.,1.46935395824477E-15,0.));
#1093=DIRECTION('center_axis',(0.,0.,-1.));
#1094=DIRECTION('ref_axis',(-0.697809321357948,-0.716283568864985,0.));
#1095=DIRECTION('center_axis',(0.,0.,1.));
#1096=DIRECTION('ref_axis',(-0.697809321357948,-0.716283568864985,0.));
#1097=DIRECTION('',(0.,0.,-1.));
#1098=DIRECTION('center_axis',(-0.999658702179049,-0.0261243020519202,0.));
#1099=DIRECTION('ref_axis',(-0.0261243020519202,0.999658702179049,0.));
#1100=DIRECTION('',(0.,0.,1.));
#1101=DIRECTION('',(-0.0261243020519202,0.999658702179049,0.));
#1102=DIRECTION('center_axis',(0.,0.,-1.));
#1103=DIRECTION('ref_axis',(-0.707106781186546,0.707106781186549,0.));
#1104=DIRECTION('center_axis',(0.,0.,1.));
#1105=DIRECTION('ref_axis',(-0.707106781186546,0.707106781186549,0.));
#1106=DIRECTION('',(0.,0.,1.));
#1107=DIRECTION('',(0.,0.,-1.));
#1108=DIRECTION('center_axis',(1.5918186381595E-15,1.,0.));
#1109=DIRECTION('ref_axis',(1.,-1.5918186381595E-15,0.));
#1110=DIRECTION('',(1.,-1.5918186381595E-15,0.));
#1111=DIRECTION('center_axis',(0.,0.,1.));
#1112=DIRECTION('ref_axis',(-1.,0.,0.));
#1113=DIRECTION('center_axis',(0.,0.,1.));
#1114=DIRECTION('ref_axis',(-1.,0.,0.));
#1115=DIRECTION('',(0.,0.,1.));
#1116=DIRECTION('center_axis',(0.,0.,1.));
#1117=DIRECTION('ref_axis',(-1.,0.,0.));
#1118=DIRECTION('center_axis',(0.,0.,1.));
#1119=DIRECTION('ref_axis',(-1.,0.,0.));
#1120=DIRECTION('',(0.,0.,1.));
#1121=DIRECTION('center_axis',(0.,0.,1.));
#1122=DIRECTION('ref_axis',(-1.,0.,0.));
#1123=DIRECTION('center_axis',(0.,0.,1.));
#1124=DIRECTION('ref_axis',(-1.,0.,0.));
#1125=DIRECTION('',(0.,0.,1.));
#1126=DIRECTION('center_axis',(0.,0.,1.));
#1127=DIRECTION('ref_axis',(-1.,0.,0.));
#1128=DIRECTION('center_axis',(0.,0.,1.));
#1129=DIRECTION('ref_axis',(-1.,0.,0.));
#1130=DIRECTION('',(0.,0.,1.));
#1131=DIRECTION('center_axis',(0.,0.,-1.));
#1132=DIRECTION('ref_axis',(0.233970959159551,-0.972243585872368,0.));
#1133=DIRECTION('',(0.,0.,-1.));
#1134=DIRECTION('center_axis',(0.,0.,1.));
#1135=DIRECTION('ref_axis',(0.233970959159551,-0.972243585872368,0.));
#1136=DIRECTION('center_axis',(-1.22464679914735E-16,1.,0.));
#1137=DIRECTION('ref_axis',(1.,1.22464679914735E-16,0.));
#1138=DIRECTION('',(-1.,0.,0.));
#1139=DIRECTION('center_axis',(1.,1.22464679914735E-16,0.));
#1140=DIRECTION('ref_axis',(1.22464679914735E-16,-1.,0.));
#1141=DIRECTION('',(1.22464679914735E-16,-1.,0.));
#1142=DIRECTION('',(0.,0.,-1.));
#1143=DIRECTION('center_axis',(-2.98334424010744E-16,1.,0.));
#1144=DIRECTION('ref_axis',(-1.,-2.98334424010744E-16,0.));
#1145=DIRECTION('',(0.,0.,-1.));
#1146=DIRECTION('',(-1.,-2.98334424010744E-16,0.));
#1147=DIRECTION('center_axis',(1.,0.,0.));
#1148=DIRECTION('ref_axis',(0.,-1.,0.));
#1149=DIRECTION('',(0.,0.,1.));
#1150=DIRECTION('',(0.,1.,0.));
#1151=DIRECTION('center_axis',(0.,0.,1.));
#1152=DIRECTION('ref_axis',(1.,0.,0.));
#1153=DIRECTION('center_axis',(0.,0.,-1.));
#1154=DIRECTION('ref_axis',(1.,0.,0.));
#1155=DIRECTION('',(0.,0.,1.));
#1156=DIRECTION('center_axis',(0.,0.,1.));
#1157=DIRECTION('ref_axis',(1.,0.,0.));
#1158=DIRECTION('center_axis',(0.,0.,-1.));
#1159=DIRECTION('ref_axis',(1.,0.,0.));
#1160=DIRECTION('',(0.,0.,1.));
#1161=DIRECTION('center_axis',(0.,0.,1.));
#1162=DIRECTION('ref_axis',(1.,0.,0.));
#1163=DIRECTION('center_axis',(0.,0.,-1.));
#1164=DIRECTION('ref_axis',(1.,0.,0.));
#1165=DIRECTION('',(0.,0.,1.));
#1166=DIRECTION('center_axis',(0.,0.,1.));
#1167=DIRECTION('ref_axis',(1.,0.,0.));
#1168=DIRECTION('center_axis',(0.,0.,-1.));
#1169=DIRECTION('ref_axis',(1.,0.,0.));
#1170=DIRECTION('',(0.,0.,1.));
#1171=DIRECTION('center_axis',(0.,0.,1.));
#1172=DIRECTION('ref_axis',(1.,0.,0.));
#1173=DIRECTION('center_axis',(0.,0.,-1.));
#1174=DIRECTION('ref_axis',(1.,0.,0.));
#1175=DIRECTION('',(0.,0.,1.));
#1176=DIRECTION('center_axis',(0.,0.,1.));
#1177=DIRECTION('ref_axis',(1.,0.,0.));
#1178=DIRECTION('center_axis',(0.,0.,-1.));
#1179=DIRECTION('ref_axis',(1.,0.,0.));
#1180=DIRECTION('',(0.,0.,1.));
#1181=DIRECTION('center_axis',(0.,0.,1.));
#1182=DIRECTION('ref_axis',(1.,0.,0.));
#1183=DIRECTION('center_axis',(0.,0.,-1.));
#1184=DIRECTION('ref_axis',(1.,0.,0.));
#1185=DIRECTION('',(0.,0.,1.));
#1186=DIRECTION('center_axis',(0.,0.,1.));
#1187=DIRECTION('ref_axis',(1.,0.,0.));
#1188=DIRECTION('center_axis',(0.,0.,-1.));
#1189=DIRECTION('ref_axis',(1.,0.,0.));
#1190=DIRECTION('',(0.,0.,1.));
#1191=DIRECTION('center_axis',(8.79196355564676E-17,-1.,0.));
#1192=DIRECTION('ref_axis',(1.,8.79196355564676E-17,0.));
#1193=DIRECTION('',(1.,8.79196355564676E-17,0.));
#1194=DIRECTION('center_axis',(0.,0.,-1.));
#1195=DIRECTION('ref_axis',(-0.233970959159551,0.972243585872368,0.));
#1196=DIRECTION('',(0.,0.,-1.));
#1197=DIRECTION('',(0.,0.,-1.));
#1198=DIRECTION('center_axis',(0.,0.,1.));
#1199=DIRECTION('ref_axis',(-0.233970959159551,0.972243585872368,0.));
#1200=DIRECTION('center_axis',(0.,-1.,0.));
#1201=DIRECTION('ref_axis',(-1.,0.,0.));
#1202=DIRECTION('',(1.,0.,0.));
#1203=DIRECTION('',(0.,0.,-1.));
#1204=DIRECTION('center_axis',(0.,1.,0.));
#1205=DIRECTION('ref_axis',(1.,0.,0.));
#1206=DIRECTION('',(-1.,0.,0.));
#1207=DIRECTION('center_axis',(0.,0.,-1.));
#1208=DIRECTION('ref_axis',(0.0601316409474602,-0.998190455653111,0.));
#1209=DIRECTION('center_axis',(0.,0.,-1.));
#1210=DIRECTION('ref_axis',(0.0601316409474602,-0.998190455653111,0.));
#1211=DIRECTION('center_axis',(-1.,0.,0.));
#1212=DIRECTION('ref_axis',(0.,1.,0.));
#1213=DIRECTION('',(0.,1.,0.));
#1214=DIRECTION('center_axis',(0.,0.,1.));
#1215=DIRECTION('ref_axis',(-1.,0.,0.));
#1216=DIRECTION('',(0.,0.,1.));
#1217=DIRECTION('',(1.,0.,0.));
#1218=CARTESIAN_POINT('',(0.,0.,0.));
#1219=CARTESIAN_POINT('',(0.,0.,0.));
#1220=CARTESIAN_POINT('Origin',(31.000000461936,65.0000009685755,-4.));
#1221=CARTESIAN_POINT('',(26.875395813648,64.9999991804361,0.75));
#1222=CARTESIAN_POINT('',(31.000000461936,65.0000009685755,0.75));
#1223=CARTESIAN_POINT('',(26.0191018501306,65.0000005096845,0.75));
#1224=CARTESIAN_POINT('',(26.875395813648,64.9999991804361,-4.));
#1225=CARTESIAN_POINT('',(26.875395813648,64.9999991804361,5.));
#1226=CARTESIAN_POINT('',(31.000000461936,65.0000009685755,-4.));
#1227=CARTESIAN_POINT('',(15.5385904626226,64.9999995441132,-4.));
#1228=CARTESIAN_POINT('',(31.000000461936,65.0000009685755,-4.));
#1229=CARTESIAN_POINT('Origin',(30.5949261403297,60.9872815038718,-4.));
#1230=CARTESIAN_POINT('',(31.3462718748012,57.024771908208,0.75));
#1231=CARTESIAN_POINT('Origin',(30.5949261403297,60.9872815038718,0.75));
#1232=CARTESIAN_POINT('',(31.3462718748012,57.024771908208,-4.));
#1233=CARTESIAN_POINT('Origin',(30.5949261403297,60.9872815038718,-4.));
#1234=CARTESIAN_POINT('',(31.3462718748012,57.024771908208,-4.));
#1235=CARTESIAN_POINT('Origin',(26.6614980866233,57.0162284070167,-4.));
#1236=CARTESIAN_POINT('',(26.6614980866233,57.0162284070167,0.75));
#1237=CARTESIAN_POINT('',(23.8267270241768,57.011058708106,0.75));
#1238=CARTESIAN_POINT('',(26.6614980866233,57.0162284070167,-4.));
#1239=CARTESIAN_POINT('',(13.3175519575925,56.9918933964472,-4.));
#1240=CARTESIAN_POINT('',(26.6614980866233,57.0162284070167,5.));
#1241=CARTESIAN_POINT('Origin',(-31.3010936201013,-64.7610655697707,-4.));
#1242=CARTESIAN_POINT('',(-23.1368087501536,-64.6603989100575,0.75));
#1243=CARTESIAN_POINT('',(-31.3010936201013,-64.7610655697707,0.75));
#1244=CARTESIAN_POINT('',(-4.54116374426709,-64.4311122673477,0.75));
#1245=CARTESIAN_POINT('',(-23.1368087501536,-64.6603989100575,-4.));
#1246=CARTESIAN_POINT('',(-23.1368087501545,-64.6603989100575,0.5));
#1247=CARTESIAN_POINT('',(-31.3010936201013,-64.7610655697707,-4.));
#1248=CARTESIAN_POINT('',(-15.2140964583688,-64.5627108706287,-4.));
#1249=CARTESIAN_POINT('',(-31.3010936201013,-64.7610655697707,-4.));
#1250=CARTESIAN_POINT('Origin',(-30.5822191093765,-60.7107321803095,-4.));
#1251=CARTESIAN_POINT('',(-31.3010936201013,-56.6603987908482,0.75));
#1252=CARTESIAN_POINT('Origin',(-30.5822191093765,-60.7107321803095,0.75));
#1253=CARTESIAN_POINT('',(-31.3010936201013,-56.6603987908482,-4.));
#1254=CARTESIAN_POINT('Origin',(-30.5822191093765,-60.7107321803095,-4.));
#1255=CARTESIAN_POINT('',(-31.3010936201013,-56.6603987908482,-4.));
#1256=CARTESIAN_POINT('Origin',(31.5184977617748,-64.6603989100575,5.));
#1257=CARTESIAN_POINT('',(31.5184977617748,-64.6603989100575,0.75));
#1258=CARTESIAN_POINT('',(15.7870310566504,-64.6603989100575,0.75));
#1259=CARTESIAN_POINT('',(31.5184977617748,-64.6603989100575,-4.));
#1260=CARTESIAN_POINT('',(31.5184977617748,-64.6603989100575,5.));
#1261=CARTESIAN_POINT('',(15.7870310566504,-64.6603989100575,-4.));
#1262=CARTESIAN_POINT('Origin',(21.0382063113446,31.6448080291428,0.75));
#1263=CARTESIAN_POINT('',(45.1289590345923,69.9999999999998,0.75));
#1264=CARTESIAN_POINT('',(50.1272525454876,65.1306215102595,0.75));
#1265=CARTESIAN_POINT('Origin',(45.1289590345923,64.9999999999998,0.75));
#1266=CARTESIAN_POINT('',(-45.4336246061739,70.,0.75));
#1267=CARTESIAN_POINT('',(-25.1782190850238,70.,0.75));
#1268=CARTESIAN_POINT('',(-50.4336246061739,65.,0.75));
#1269=CARTESIAN_POINT('Origin',(-45.4336246061739,65.,0.75));
#1270=CARTESIAN_POINT('',(-50.4336246061739,-47.8301998648106,0.75));
#1271=CARTESIAN_POINT('',(-50.4336246061739,-34.745299797216,0.75));
#1272=CARTESIAN_POINT('',(-50.4377426556389,-47.8301998648107,0.75));
#1273=CARTESIAN_POINT('',(14.8304599350669,-47.8301998648107,0.75));
#1274=CARTESIAN_POINT('',(-49.9945017578353,-64.7910212398808,0.75));
#1275=CARTESIAN_POINT('',(-50.7620348804048,-35.4210053955405,0.75));
#1276=CARTESIAN_POINT('',(-44.9962082469401,-69.6603997296212,0.75));
#1277=CARTESIAN_POINT('Origin',(-44.9962082469401,-64.6603997296212,0.75));
#1278=CARTESIAN_POINT('',(45.5663753938261,-69.6603997296213,0.75));
#1279=CARTESIAN_POINT('',(25.310969872676,-69.6603997296213,0.75));
#1280=CARTESIAN_POINT('',(50.5663753938261,-64.6603997296213,0.75));
#1281=CARTESIAN_POINT('Origin',(45.5663753938261,-64.6603997296213,0.75));
#1282=CARTESIAN_POINT('',(50.5663753938261,-47.8301998648107,0.75));
#1283=CARTESIAN_POINT('',(50.5663753938261,35.0849000675946,0.75));
#1284=CARTESIAN_POINT('',(50.5879974784263,-47.8301998648106,0.75));
#1285=CARTESIAN_POINT('',(-14.6977091474146,-47.8301998648106,0.75));
#1286=CARTESIAN_POINT('',(50.5879974784263,47.5,0.75));
#1287=CARTESIAN_POINT('',(50.5879974784263,23.8349000675947,0.75));
#1288=CARTESIAN_POINT('',(50.894785668057,35.7606056659191,0.75));
#1289=CARTESIAN_POINT('',(-33.4336246061739,-3.67394039744206E-16,0.75));
#1290=CARTESIAN_POINT('Origin',(-36.4336246061739,0.,0.75));
#1291=CARTESIAN_POINT('',(39.5879974784263,-0.165099932405317,0.75));
#1292=CARTESIAN_POINT('Origin',(36.5879974784263,-0.165099932405317,0.75));
#1293=CARTESIAN_POINT('',(46.3631337829281,55.9999999999998,0.75));
#1294=CARTESIAN_POINT('Origin',(42.3631337829281,55.9999999999998,0.75));
#1295=CARTESIAN_POINT('',(-38.4377426556389,-55.6603997296212,0.75));
#1296=CARTESIAN_POINT('Origin',(-42.4377426556389,-55.6603997296212,0.75));
#1297=CARTESIAN_POINT('',(46.5663753938261,-55.6603997296213,0.75));
#1298=CARTESIAN_POINT('Origin',(42.5663753938261,-55.6603997296213,0.75));
#1299=CARTESIAN_POINT('',(-38.4336246061739,56.,0.75));
#1300=CARTESIAN_POINT('Origin',(-42.4336246061739,56.,0.75));
#1301=CARTESIAN_POINT('',(31.0243794972726,-56.6603987908482,0.75));
#1302=CARTESIAN_POINT('',(-13.140367807727,-56.6603987908482,0.75));
#1303=CARTESIAN_POINT('Origin',(30.5663753938261,-60.7039469276023,0.75));
#1304=CARTESIAN_POINT('',(18.9382063113446,31.6448080291428,0.75));
#1305=CARTESIAN_POINT('Origin',(21.0382063113446,31.6448080291428,0.75));
#1306=CARTESIAN_POINT('',(18.9382063113446,-31.6448080291428,0.75));
#1307=CARTESIAN_POINT('Origin',(21.0382063113446,-31.6448080291428,0.75));
#1308=CARTESIAN_POINT('',(29.5448080291428,21.0382063113446,0.75));
#1309=CARTESIAN_POINT('Origin',(31.6448080291428,21.0382063113446,0.75));
#1310=CARTESIAN_POINT('',(29.5448080291428,-21.0382063113446,0.75));
#1311=CARTESIAN_POINT('Origin',(31.6448080291428,-21.0382063113446,0.75));
#1312=CARTESIAN_POINT('',(-33.7448080291428,21.0382063113446,0.75));
#1313=CARTESIAN_POINT('Origin',(-31.6448080291428,21.0382063113446,0.75));
#1314=CARTESIAN_POINT('',(-23.1382063113446,-31.6448080291428,0.75));
#1315=CARTESIAN_POINT('Origin',(-21.0382063113446,-31.6448080291428,0.75));
#1316=CARTESIAN_POINT('',(-23.1382063113446,31.6448080291428,0.75));
#1317=CARTESIAN_POINT('Origin',(-21.0382063113446,31.6448080291428,0.75));
#1318=CARTESIAN_POINT('',(-33.7448080291428,-21.0382063113446,0.75));
#1319=CARTESIAN_POINT('Origin',(-31.6448080291428,-21.0382063113446,0.75));
#1320=CARTESIAN_POINT('',(26.4690507546323,56.9999990612268,0.75));
#1321=CARTESIAN_POINT('Origin',(26.2267250141441,61.0226273730959,0.75));
#1322=CARTESIAN_POINT('',(-30.8916287096203,56.9999990612269,0.75));
#1323=CARTESIAN_POINT('',(13.2731185953793,56.9999990612268,0.75));
#1324=CARTESIAN_POINT('',(-31.3857469741226,64.9999991804361,0.75));
#1325=CARTESIAN_POINT('Origin',(-30.4336246061739,61.043547197981,0.75));
#1326=CARTESIAN_POINT('',(-15.6542802689982,64.9999991804361,0.75));
#1327=CARTESIAN_POINT('Origin',(-36.4336246061739,0.,-1.3875));
#1328=CARTESIAN_POINT('',(-33.4336246061739,3.67394039744206E-16,-4.));
#1329=CARTESIAN_POINT('Origin',(-36.4336246061739,0.,-4.));
#1330=CARTESIAN_POINT('',(-33.4336246061739,3.67394039744206E-16,-1.3875));
#1331=CARTESIAN_POINT('Origin',(36.5879974784263,-0.165099932405317,-1.3875));
#1332=CARTESIAN_POINT('',(39.5879974784263,-0.165099932405317,-4.));
#1333=CARTESIAN_POINT('Origin',(36.5879974784263,-0.165099932405317,-4.));
#1334=CARTESIAN_POINT('',(39.5879974784263,-0.165099932405317,-1.3875));
#1335=CARTESIAN_POINT('Origin',(45.1289590345923,64.9999999999998,5.));
#1336=CARTESIAN_POINT('',(50.1272525454876,65.1306215102595,-4.));
#1337=CARTESIAN_POINT('',(45.1289590345923,69.9999999999998,-4.));
#1338=CARTESIAN_POINT('Origin',(45.1289590345923,64.9999999999998,-4.));
#1339=CARTESIAN_POINT('',(45.1289590345923,69.9999999999998,5.));
#1340=CARTESIAN_POINT('',(50.1272525454876,65.1306215102594,5.));
#1341=CARTESIAN_POINT('Origin',(50.,69.9999999999998,5.));
#1342=CARTESIAN_POINT('',(50.5879974784263,47.5,-4.));
#1343=CARTESIAN_POINT('',(50.5879974784263,47.5,5.));
#1344=CARTESIAN_POINT('',(50.894785668057,35.7606056659191,-4.));
#1345=CARTESIAN_POINT('Origin',(45.5663753938261,-64.6603997296213,5.));
#1346=CARTESIAN_POINT('',(45.5663753938261,-69.6603997296213,-4.));
#1347=CARTESIAN_POINT('',(50.5663753938261,-64.6603997296213,-4.));
#1348=CARTESIAN_POINT('Origin',(45.5663753938261,-64.6603997296213,-4.));
#1349=CARTESIAN_POINT('',(50.5663753938261,-64.6603997296213,5.));
#1350=CARTESIAN_POINT('',(45.5663753938261,-69.6603997296213,5.));
#1351=CARTESIAN_POINT('Origin',(50.5663753938261,-69.6603997296213,5.));
#1352=CARTESIAN_POINT('',(-44.9962082469401,-69.6603997296212,-4.));
#1353=CARTESIAN_POINT('',(-44.9962082469401,-69.6603997296212,5.));
#1354=CARTESIAN_POINT('',(25.310969872676,-69.6603997296213,-4.));
#1355=CARTESIAN_POINT('Origin',(-44.9962082469401,-64.6603997296212,5.));
#1356=CARTESIAN_POINT('',(-49.9945017578353,-64.7910212398808,-4.));
#1357=CARTESIAN_POINT('Origin',(-44.9962082469401,-64.6603997296212,-4.));
#1358=CARTESIAN_POINT('',(-49.9945017578353,-64.7910212398808,5.));
#1359=CARTESIAN_POINT('Origin',(-49.8672492123477,-69.6603997296212,5.));
#1360=CARTESIAN_POINT('',(-50.4377426556389,-47.8301998648107,-4.));
#1361=CARTESIAN_POINT('',(-50.4377426556389,-47.8301998648107,2.875));
#1362=CARTESIAN_POINT('',(-50.7620348804048,-35.4210053955405,-4.));
#1363=CARTESIAN_POINT('Origin',(-45.4336246061739,65.,5.));
#1364=CARTESIAN_POINT('',(-45.4336246061739,70.,-4.));
#1365=CARTESIAN_POINT('',(-50.4336246061739,65.,-4.));
#1366=CARTESIAN_POINT('Origin',(-45.4336246061739,65.,-4.));
#1367=CARTESIAN_POINT('',(-50.4336246061739,65.,5.));
#1368=CARTESIAN_POINT('',(-45.4336246061739,70.,5.));
#1369=CARTESIAN_POINT('Origin',(-50.4336246061739,70.,5.));
#1370=CARTESIAN_POINT('',(-25.1782190850238,70.,-4.));
#1371=CARTESIAN_POINT('Origin',(42.3631337829281,55.9999999999998,-1.3875));
#1372=CARTESIAN_POINT('',(46.3631337829281,55.9999999999998,-4.));
#1373=CARTESIAN_POINT('Origin',(42.3631337829281,55.9999999999998,-4.));
#1374=CARTESIAN_POINT('',(46.3631337829281,55.9999999999998,-1.3875));
#1375=CARTESIAN_POINT('Origin',(-42.4377426556389,-55.6603997296212,-1.3875));
#1376=CARTESIAN_POINT('',(-38.4377426556389,-55.6603997296212,-4.));
#1377=CARTESIAN_POINT('Origin',(-42.4377426556389,-55.6603997296212,-4.));
#1378=CARTESIAN_POINT('',(-38.4377426556389,-55.6603997296212,-1.3875));
#1379=CARTESIAN_POINT('Origin',(42.5663753938261,-55.6603997296213,-1.3875));
#1380=CARTESIAN_POINT('',(46.5663753938261,-55.6603997296213,-4.));
#1381=CARTESIAN_POINT('Origin',(42.5663753938261,-55.6603997296213,-4.));
#1382=CARTESIAN_POINT('',(46.5663753938261,-55.6603997296213,-1.3875));
#1383=CARTESIAN_POINT('Origin',(-42.4336246061739,56.,-1.3875));
#1384=CARTESIAN_POINT('',(-38.4336246061739,56.,-4.));
#1385=CARTESIAN_POINT('Origin',(-42.4336246061739,56.,-4.));
#1386=CARTESIAN_POINT('',(-38.4336246061739,56.,-1.3875));
#1387=CARTESIAN_POINT('Origin',(30.5663753938261,-60.7039469276023,5.));
#1388=CARTESIAN_POINT('',(31.0243794972725,-56.6603987908482,-4.));
#1389=CARTESIAN_POINT('',(31.0243794972726,-56.6603987908482,5.));
#1390=CARTESIAN_POINT('Origin',(30.5663753938261,-60.7039469276023,-4.));
#1391=CARTESIAN_POINT('Origin',(-26.33629996698,-56.6603987908482,5.));
#1392=CARTESIAN_POINT('',(-13.1295567654269,-56.6603987908482,-4.));
#1393=CARTESIAN_POINT('Origin',(50.5663753938261,70.,5.));
#1394=CARTESIAN_POINT('',(50.5663753938261,-47.8301998648107,-4.));
#1395=CARTESIAN_POINT('',(50.5663753938261,35.0849000675946,-4.));
#1396=CARTESIAN_POINT('',(50.5663753938261,-47.8301998648106,2.875));
#1397=CARTESIAN_POINT('Origin',(50.5663753938261,-47.8301998648107,0.75));
#1398=CARTESIAN_POINT('',(-50.4336246061739,-47.8301998648106,-4.));
#1399=CARTESIAN_POINT('',(-50.4336246061739,-47.8301998648106,2.875));
#1400=CARTESIAN_POINT('',(25.3109698726761,-47.8301998648107,-4.));
#1401=CARTESIAN_POINT('Origin',(50.5879974784263,47.5,5.));
#1402=CARTESIAN_POINT('',(50.5879974784263,-47.8301998648106,-4.));
#1403=CARTESIAN_POINT('',(50.5879974784263,-47.8301998648106,2.875));
#1404=CARTESIAN_POINT('',(50.5879974784263,23.8349000675947,-4.));
#1405=CARTESIAN_POINT('Origin',(-21.0382063113446,-31.6448080291428,0.));
#1406=CARTESIAN_POINT('',(-23.1382063113446,-31.6448080291428,-4.));
#1407=CARTESIAN_POINT('Origin',(-21.0382063113446,-31.6448080291428,-4.));
#1408=CARTESIAN_POINT('',(-23.1382063113446,-31.6448080291428,0.));
#1409=CARTESIAN_POINT('Origin',(-21.0382063113446,31.6448080291428,0.));
#1410=CARTESIAN_POINT('',(-23.1382063113446,31.6448080291428,-4.));
#1411=CARTESIAN_POINT('Origin',(-21.0382063113446,31.6448080291428,-4.));
#1412=CARTESIAN_POINT('',(-23.1382063113446,31.6448080291428,0.));
#1413=CARTESIAN_POINT('Origin',(31.6448080291428,-21.0382063113446,0.));
#1414=CARTESIAN_POINT('',(29.5448080291428,-21.0382063113446,-4.));
#1415=CARTESIAN_POINT('Origin',(31.6448080291428,-21.0382063113446,-4.));
#1416=CARTESIAN_POINT('',(29.5448080291428,-21.0382063113446,0.));
#1417=CARTESIAN_POINT('Origin',(-31.6448080291428,21.0382063113446,0.));
#1418=CARTESIAN_POINT('',(-33.7448080291428,21.0382063113446,-4.));
#1419=CARTESIAN_POINT('Origin',(-31.6448080291428,21.0382063113446,-4.));
#1420=CARTESIAN_POINT('',(-33.7448080291428,21.0382063113446,0.));
#1421=CARTESIAN_POINT('Origin',(21.0382063113446,-31.6448080291428,0.));
#1422=CARTESIAN_POINT('',(18.9382063113446,-31.6448080291428,-4.));
#1423=CARTESIAN_POINT('Origin',(21.0382063113446,-31.6448080291428,-4.));
#1424=CARTESIAN_POINT('',(18.9382063113446,-31.6448080291428,0.));
#1425=CARTESIAN_POINT('Origin',(21.0382063113446,31.6448080291428,0.));
#1426=CARTESIAN_POINT('',(18.9382063113446,31.6448080291428,-4.));
#1427=CARTESIAN_POINT('Origin',(21.0382063113446,31.6448080291428,-4.));
#1428=CARTESIAN_POINT('',(18.9382063113446,31.6448080291428,0.));
#1429=CARTESIAN_POINT('Origin',(-31.6448080291428,-21.0382063113446,0.));
#1430=CARTESIAN_POINT('',(-33.7448080291428,-21.0382063113446,-4.));
#1431=CARTESIAN_POINT('Origin',(-31.6448080291428,-21.0382063113446,-4.));
#1432=CARTESIAN_POINT('',(-33.7448080291428,-21.0382063113446,0.));
#1433=CARTESIAN_POINT('Origin',(31.6448080291428,21.0382063113446,0.));
#1434=CARTESIAN_POINT('',(29.5448080291428,21.0382063113446,-4.));
#1435=CARTESIAN_POINT('Origin',(31.6448080291428,21.0382063113446,-4.));
#1436=CARTESIAN_POINT('',(29.5448080291428,21.0382063113446,0.));
#1437=CARTESIAN_POINT('Origin',(-50.4336246061739,-47.8301998648106,0.75));
#1438=CARTESIAN_POINT('',(-25.1782190850238,-47.8301998648106,-4.));
#1439=CARTESIAN_POINT('Origin',(-30.4336246061739,61.043547197981,5.));
#1440=CARTESIAN_POINT('',(-31.3857469741226,64.9999991804361,-4.));
#1441=CARTESIAN_POINT('',(-31.3857469741226,64.9999991804361,5.));
#1442=CARTESIAN_POINT('',(-30.8916287096202,56.9999990612268,-4.));
#1443=CARTESIAN_POINT('',(-30.8916287096203,56.9999990612269,5.));
#1444=CARTESIAN_POINT('Origin',(-30.4336246061739,61.043547197981,-4.));
#1445=CARTESIAN_POINT('Origin',(26.4690507546323,56.9999990612268,5.));
#1446=CARTESIAN_POINT('',(26.4690507546323,56.9999990612268,-4.));
#1447=CARTESIAN_POINT('',(13.2731185953793,56.9999990612268,-4.));
#1448=CARTESIAN_POINT('',(26.4690507546323,56.9999990612268,5.));
#1449=CARTESIAN_POINT('Origin',(-31.3857469741226,64.9999991804361,5.));
#1450=CARTESIAN_POINT('',(-15.6542802689982,64.9999991804361,-4.));
#1451=CARTESIAN_POINT('Origin',(26.2267250141441,61.0226273730959,5.));
#1452=CARTESIAN_POINT('Origin',(26.2267250141441,61.0226273730959,-4.));
#1453=CARTESIAN_POINT('Origin',(-50.4336246061739,-69.6603997296213,5.));
#1454=CARTESIAN_POINT('',(-50.4336246061739,-34.745299797216,-4.));
#1455=CARTESIAN_POINT('Origin',(0.0771864361262242,0.169800135189364,-4.));
#1456=CARTESIAN_POINT('',(0.,0.,0.));
#1457=UNCERTAINTY_MEASURE_WITH_UNIT(LENGTH_MEASURE(0.01),#1463,
'DISTANCE_ACCURACY_VALUE',
'Maximum model space distance between geometric entities at asserted c
onnectivities');
#1458=UNCERTAINTY_MEASURE_WITH_UNIT(LENGTH_MEASURE(0.01),#1463,
'DISTANCE_ACCURACY_VALUE',
'Maximum model space distance between geometric entities at asserted c
onnectivities');
#1459=UNCERTAINTY_MEASURE_WITH_UNIT(LENGTH_MEASURE(0.01),#1463,
'DISTANCE_ACCURACY_VALUE',
'Maximum model space distance between geometric entities at asserted c
onnectivities');
#1460=(
GEOMETRIC_REPRESENTATION_CONTEXT(3)
GLOBAL_UNCERTAINTY_ASSIGNED_CONTEXT((#1457))
GLOBAL_UNIT_ASSIGNED_CONTEXT((#1463,#1465,#1466))
REPRESENTATION_CONTEXT('','3D')
);
#1461=(
GEOMETRIC_REPRESENTATION_CONTEXT(3)
GLOBAL_UNCERTAINTY_ASSIGNED_CONTEXT((#1458))
GLOBAL_UNIT_ASSIGNED_CONTEXT((#1463,#1465,#1466))
REPRESENTATION_CONTEXT('','3D')
);
#1462=(
GEOMETRIC_REPRESENTATION_CONTEXT(3)
GLOBAL_UNCERTAINTY_ASSIGNED_CONTEXT((#1459))
GLOBAL_UNIT_ASSIGNED_CONTEXT((#1463,#1465,#1466))
REPRESENTATION_CONTEXT('','3D')
);
#1463=(
LENGTH_UNIT()
NAMED_UNIT(*)
SI_UNIT(.MILLI.,.METRE.)
);
#1464=(
LENGTH_UNIT()
NAMED_UNIT(*)
SI_UNIT($,.METRE.)
);
#1465=(
NAMED_UNIT(*)
PLANE_ANGLE_UNIT()
SI_UNIT($,.RADIAN.)
);
#1466=(
NAMED_UNIT(*)
SI_UNIT($,.STERADIAN.)
SOLID_ANGLE_UNIT()
);
#1467=SHAPE_DEFINITION_REPRESENTATION(#1469,#1472);
#1468=SHAPE_DEFINITION_REPRESENTATION(#1470,#1473);
#1469=PRODUCT_DEFINITION_SHAPE('',$,#1475);
#1470=PRODUCT_DEFINITION_SHAPE('',$,#1476);
#1471=PRODUCT_DEFINITION_SHAPE($,$,#14);
#1472=SHAPE_REPRESENTATION('',(#877,#966),#1460);
#1473=SHAPE_REPRESENTATION('',(#878),#1461);
#1474=PRODUCT_DEFINITION_CONTEXT('part definition',#1482,'design');
#1475=PRODUCT_DEFINITION('(Unsaved)',
'voltra strap mount (v8~recovered)',#1477,#1474);
#1476=PRODUCT_DEFINITION('Component1','Component1',#1478,#1474);
#1477=PRODUCT_DEFINITION_FORMATION('',$,#1484);
#1478=PRODUCT_DEFINITION_FORMATION('',$,#1485);
#1479=PRODUCT_RELATED_PRODUCT_CATEGORY(
'voltra strap mount (v8~recovered)','voltra strap mount (v8~recovered)',
(#1484));
#1480=PRODUCT_RELATED_PRODUCT_CATEGORY('Component1','Component1',(#1485));
#1481=APPLICATION_PROTOCOL_DEFINITION('international standard',
'automotive_design',2009,#1482);
#1482=APPLICATION_CONTEXT(
'Core Data for Automotive Mechanical Design Process');
#1483=PRODUCT_CONTEXT('part definition',#1482,'mechanical');
#1484=PRODUCT('(Unsaved)','voltra strap mount (v8~recovered)',$,(#1483));
#1485=PRODUCT('Component1','Component1',$,(#1483));
#1486=PRESENTATION_STYLE_ASSIGNMENT((#1488));
#1487=PRESENTATION_STYLE_ASSIGNMENT((#1489));
#1488=SURFACE_STYLE_USAGE(.BOTH.,#1490);
#1489=SURFACE_STYLE_USAGE(.BOTH.,#1491);
#1490=SURFACE_SIDE_STYLE('',(#1492));
#1491=SURFACE_SIDE_STYLE('',(#1493));
#1492=SURFACE_STYLE_FILL_AREA(#1494);
#1493=SURFACE_STYLE_FILL_AREA(#1495);
#1494=FILL_AREA_STYLE('Steel - Satin',(#1496));
#1495=FILL_AREA_STYLE('Opaque(160,160,160)',(#1497));
#1496=FILL_AREA_STYLE_COLOUR('Steel - Satin',#1498);
#1497=FILL_AREA_STYLE_COLOUR('Opaque(160,160,160)',#1499);
#1498=COLOUR_RGB('Steel - Satin',0.627450980392157,0.627450980392157,0.627450980392157);
#1499=COLOUR_RGB('Opaque(160,160,160)',0.627450980392157,0.627450980392157,
0.627450980392157);
ENDSEC;
END-ISO-10303-21;
