ISO-10303-21;
HEADER;
/* Generated by software containing ST-Developer
 * from STEP Tools, Inc. (www.steptools.com) 
 */

FILE_DESCRIPTION(
/* description */ (''),
/* implementation_level */ '2;1');

FILE_NAME(
/* name */ 'Prime pad Bracket 2.step',
/* time_stamp */ '2026-04-29T22:28:34-06:00',
/* author */ (''),
/* organization */ (''),
/* preprocessor_version */ 'ST-DEVELOPER v20.1',
/* originating_system */ 'Autodesk Translation Framework v14.24.0.0',
/* authorisation */ '');

FILE_SCHEMA (('AUTOMOTIVE_DESIGN { 1 0 10303 214 3 1 1 }'));
ENDSEC;

DATA;
#10=MECHANICAL_DESIGN_GEOMETRIC_PRESENTATION_REPRESENTATION('',(#13),#1113);
#11=SHAPE_REPRESENTATION_RELATIONSHIP('SRR','None',#1120,#12);
#12=ADVANCED_BREP_SHAPE_REPRESENTATION('',(#14),#1112);
#13=STYLED_ITEM('',(#1129),#14);
#14=MANIFOLD_SOLID_BREP('Body6',#649);
#15=FACE_BOUND('',#97,.T.);
#16=FACE_BOUND('',#98,.T.);
#17=FACE_BOUND('',#99,.T.);
#18=FACE_BOUND('',#100,.T.);
#19=FACE_BOUND('',#101,.T.);
#20=FACE_BOUND('',#102,.T.);
#21=FACE_BOUND('',#103,.T.);
#22=FACE_BOUND('',#104,.T.);
#23=FACE_BOUND('',#105,.T.);
#24=FACE_BOUND('',#106,.T.);
#25=FACE_BOUND('',#107,.T.);
#26=FACE_BOUND('',#108,.T.);
#27=FACE_BOUND('',#109,.T.);
#28=FACE_BOUND('',#110,.T.);
#29=FACE_BOUND('',#111,.T.);
#30=FACE_BOUND('',#112,.T.);
#31=FACE_BOUND('',#113,.T.);
#32=FACE_BOUND('',#114,.T.);
#33=FACE_BOUND('',#115,.T.);
#34=FACE_BOUND('',#116,.T.);
#35=FACE_BOUND('',#117,.T.);
#36=FACE_BOUND('',#118,.T.);
#37=FACE_BOUND('',#146,.T.);
#38=FACE_BOUND('',#147,.T.);
#39=FACE_BOUND('',#148,.T.);
#40=FACE_BOUND('',#149,.T.);
#41=FACE_BOUND('',#150,.T.);
#42=FACE_BOUND('',#151,.T.);
#43=FACE_BOUND('',#152,.T.);
#44=FACE_BOUND('',#153,.T.);
#45=FACE_BOUND('',#154,.T.);
#46=FACE_BOUND('',#155,.T.);
#47=FACE_BOUND('',#156,.T.);
#48=FACE_BOUND('',#157,.T.);
#49=FACE_BOUND('',#158,.T.);
#50=FACE_BOUND('',#159,.T.);
#51=FACE_BOUND('',#160,.T.);
#52=FACE_BOUND('',#161,.T.);
#53=FACE_BOUND('',#162,.T.);
#54=FACE_BOUND('',#163,.T.);
#55=FACE_BOUND('',#164,.T.);
#56=FACE_BOUND('',#165,.T.);
#57=FACE_BOUND('',#166,.T.);
#58=FACE_BOUND('',#167,.T.);
#59=PLANE('',#666);
#60=PLANE('',#667);
#61=PLANE('',#740);
#62=PLANE('',#741);
#63=PLANE('',#742);
#64=FACE_OUTER_BOUND('',#94,.T.);
#65=FACE_OUTER_BOUND('',#95,.T.);
#66=FACE_OUTER_BOUND('',#96,.T.);
#67=FACE_OUTER_BOUND('',#119,.T.);
#68=FACE_OUTER_BOUND('',#120,.T.);
#69=FACE_OUTER_BOUND('',#121,.T.);
#70=FACE_OUTER_BOUND('',#122,.T.);
#71=FACE_OUTER_BOUND('',#123,.T.);
#72=FACE_OUTER_BOUND('',#124,.T.);
#73=FACE_OUTER_BOUND('',#125,.T.);
#74=FACE_OUTER_BOUND('',#126,.T.);
#75=FACE_OUTER_BOUND('',#127,.T.);
#76=FACE_OUTER_BOUND('',#128,.T.);
#77=FACE_OUTER_BOUND('',#129,.T.);
#78=FACE_OUTER_BOUND('',#130,.T.);
#79=FACE_OUTER_BOUND('',#131,.T.);
#80=FACE_OUTER_BOUND('',#132,.T.);
#81=FACE_OUTER_BOUND('',#133,.T.);
#82=FACE_OUTER_BOUND('',#134,.T.);
#83=FACE_OUTER_BOUND('',#135,.T.);
#84=FACE_OUTER_BOUND('',#136,.T.);
#85=FACE_OUTER_BOUND('',#137,.T.);
#86=FACE_OUTER_BOUND('',#138,.T.);
#87=FACE_OUTER_BOUND('',#139,.T.);
#88=FACE_OUTER_BOUND('',#140,.T.);
#89=FACE_OUTER_BOUND('',#141,.T.);
#90=FACE_OUTER_BOUND('',#142,.T.);
#91=FACE_OUTER_BOUND('',#143,.T.);
#92=FACE_OUTER_BOUND('',#144,.T.);
#93=FACE_OUTER_BOUND('',#145,.T.);
#94=EDGE_LOOP('',(#426,#427,#428,#429));
#95=EDGE_LOOP('',(#430,#431,#432,#433));
#96=EDGE_LOOP('',(#434,#435,#436,#437,#438,#439));
#97=EDGE_LOOP('',(#440));
#98=EDGE_LOOP('',(#441));
#99=EDGE_LOOP('',(#442));
#100=EDGE_LOOP('',(#443));
#101=EDGE_LOOP('',(#444));
#102=EDGE_LOOP('',(#445));
#103=EDGE_LOOP('',(#446));
#104=EDGE_LOOP('',(#447));
#105=EDGE_LOOP('',(#448));
#106=EDGE_LOOP('',(#449));
#107=EDGE_LOOP('',(#450));
#108=EDGE_LOOP('',(#451));
#109=EDGE_LOOP('',(#452));
#110=EDGE_LOOP('',(#453));
#111=EDGE_LOOP('',(#454));
#112=EDGE_LOOP('',(#455));
#113=EDGE_LOOP('',(#456));
#114=EDGE_LOOP('',(#457));
#115=EDGE_LOOP('',(#458));
#116=EDGE_LOOP('',(#459));
#117=EDGE_LOOP('',(#460));
#118=EDGE_LOOP('',(#461));
#119=EDGE_LOOP('',(#462,#463,#464,#465));
#120=EDGE_LOOP('',(#466,#467,#468,#469));
#121=EDGE_LOOP('',(#470,#471,#472,#473));
#122=EDGE_LOOP('',(#474,#475,#476,#477));
#123=EDGE_LOOP('',(#478,#479,#480,#481));
#124=EDGE_LOOP('',(#482,#483,#484,#485));
#125=EDGE_LOOP('',(#486,#487,#488,#489));
#126=EDGE_LOOP('',(#490,#491,#492,#493));
#127=EDGE_LOOP('',(#494,#495,#496,#497));
#128=EDGE_LOOP('',(#498,#499,#500,#501));
#129=EDGE_LOOP('',(#502,#503,#504,#505));
#130=EDGE_LOOP('',(#506,#507,#508,#509));
#131=EDGE_LOOP('',(#510,#511,#512,#513));
#132=EDGE_LOOP('',(#514,#515,#516,#517));
#133=EDGE_LOOP('',(#518,#519,#520,#521));
#134=EDGE_LOOP('',(#522,#523,#524,#525));
#135=EDGE_LOOP('',(#526,#527,#528,#529));
#136=EDGE_LOOP('',(#530,#531,#532,#533));
#137=EDGE_LOOP('',(#534,#535,#536,#537));
#138=EDGE_LOOP('',(#538,#539,#540,#541));
#139=EDGE_LOOP('',(#542,#543,#544,#545));
#140=EDGE_LOOP('',(#546,#547,#548,#549));
#141=EDGE_LOOP('',(#550,#551,#552,#553));
#142=EDGE_LOOP('',(#554,#555,#556,#557));
#143=EDGE_LOOP('',(#558,#559,#560,#561));
#144=EDGE_LOOP('',(#562,#563,#564,#565));
#145=EDGE_LOOP('',(#566,#567,#568,#569,#570,#571));
#146=EDGE_LOOP('',(#572));
#147=EDGE_LOOP('',(#573));
#148=EDGE_LOOP('',(#574));
#149=EDGE_LOOP('',(#575));
#150=EDGE_LOOP('',(#576));
#151=EDGE_LOOP('',(#577));
#152=EDGE_LOOP('',(#578));
#153=EDGE_LOOP('',(#579));
#154=EDGE_LOOP('',(#580));
#155=EDGE_LOOP('',(#581));
#156=EDGE_LOOP('',(#582));
#157=EDGE_LOOP('',(#583));
#158=EDGE_LOOP('',(#584));
#159=EDGE_LOOP('',(#585));
#160=EDGE_LOOP('',(#586));
#161=EDGE_LOOP('',(#587));
#162=EDGE_LOOP('',(#588));
#163=EDGE_LOOP('',(#589));
#164=EDGE_LOOP('',(#590));
#165=EDGE_LOOP('',(#591));
#166=EDGE_LOOP('',(#592));
#167=EDGE_LOOP('',(#593));
#168=LINE('',#945,#202);
#169=LINE('',#948,#203);
#170=LINE('',#951,#204);
#171=LINE('',#953,#205);
#172=LINE('',#954,#206);
#173=LINE('',#957,#207);
#174=LINE('',#961,#208);
#175=LINE('',#1010,#209);
#176=LINE('',#1014,#210);
#177=LINE('',#1018,#211);
#178=LINE('',#1022,#212);
#179=LINE('',#1026,#213);
#180=LINE('',#1030,#214);
#181=LINE('',#1034,#215);
#182=LINE('',#1038,#216);
#183=LINE('',#1042,#217);
#184=LINE('',#1046,#218);
#185=LINE('',#1050,#219);
#186=LINE('',#1054,#220);
#187=LINE('',#1058,#221);
#188=LINE('',#1062,#222);
#189=LINE('',#1066,#223);
#190=LINE('',#1070,#224);
#191=LINE('',#1074,#225);
#192=LINE('',#1078,#226);
#193=LINE('',#1082,#227);
#194=LINE('',#1086,#228);
#195=LINE('',#1090,#229);
#196=LINE('',#1094,#230);
#197=LINE('',#1098,#231);
#198=LINE('',#1101,#232);
#199=LINE('',#1104,#233);
#200=LINE('',#1106,#234);
#201=LINE('',#1108,#235);
#202=VECTOR('',#749,10.);
#203=VECTOR('',#752,10.);
#204=VECTOR('',#755,10.);
#205=VECTOR('',#756,10.);
#206=VECTOR('',#757,10.);
#207=VECTOR('',#760,10.);
#208=VECTOR('',#763,10.);
#209=VECTOR('',#814,10.);
#210=VECTOR('',#819,5.5);
#211=VECTOR('',#824,5.5);
#212=VECTOR('',#829,5.5);
#213=VECTOR('',#834,5.50000000000001);
#214=VECTOR('',#839,5.5);
#215=VECTOR('',#844,5.5);
#216=VECTOR('',#849,5.5);
#217=VECTOR('',#854,5.5);
#218=VECTOR('',#859,5.5);
#219=VECTOR('',#864,5.5);
#220=VECTOR('',#869,5.);
#221=VECTOR('',#874,5.5);
#222=VECTOR('',#879,5.5);
#223=VECTOR('',#884,5.5);
#224=VECTOR('',#889,5.5);
#225=VECTOR('',#894,5.5);
#226=VECTOR('',#899,5.5);
#227=VECTOR('',#904,5.5);
#228=VECTOR('',#909,5.);
#229=VECTOR('',#914,5.);
#230=VECTOR('',#919,5.5);
#231=VECTOR('',#924,5.50000000000001);
#232=VECTOR('',#927,10.);
#233=VECTOR('',#930,10.);
#234=VECTOR('',#933,10.);
#235=VECTOR('',#936,10.);
#236=CIRCLE('',#664,5.);
#237=CIRCLE('',#665,5.);
#238=CIRCLE('',#668,86.2);
#239=CIRCLE('',#669,5.);
#240=CIRCLE('',#670,5.50000000000001);
#241=CIRCLE('',#671,5.5);
#242=CIRCLE('',#672,5.);
#243=CIRCLE('',#673,5.);
#244=CIRCLE('',#674,5.5);
#245=CIRCLE('',#675,5.5);
#246=CIRCLE('',#676,5.5);
#247=CIRCLE('',#677,5.5);
#248=CIRCLE('',#678,5.5);
#249=CIRCLE('',#679,5.5);
#250=CIRCLE('',#680,5.5);
#251=CIRCLE('',#681,5.);
#252=CIRCLE('',#682,5.5);
#253=CIRCLE('',#683,5.5);
#254=CIRCLE('',#684,5.5);
#255=CIRCLE('',#685,5.5);
#256=CIRCLE('',#686,5.5);
#257=CIRCLE('',#687,5.5);
#258=CIRCLE('',#688,5.50000000000001);
#259=CIRCLE('',#689,5.5);
#260=CIRCLE('',#690,5.5);
#261=CIRCLE('',#691,5.5);
#262=CIRCLE('',#693,5.);
#263=CIRCLE('',#695,5.5);
#264=CIRCLE('',#697,5.5);
#265=CIRCLE('',#699,5.5);
#266=CIRCLE('',#701,5.50000000000001);
#267=CIRCLE('',#703,5.5);
#268=CIRCLE('',#705,5.5);
#269=CIRCLE('',#707,5.5);
#270=CIRCLE('',#709,5.5);
#271=CIRCLE('',#711,5.5);
#272=CIRCLE('',#713,5.5);
#273=CIRCLE('',#715,5.);
#274=CIRCLE('',#717,5.5);
#275=CIRCLE('',#719,5.5);
#276=CIRCLE('',#721,5.5);
#277=CIRCLE('',#723,5.5);
#278=CIRCLE('',#725,5.5);
#279=CIRCLE('',#727,5.5);
#280=CIRCLE('',#729,5.5);
#281=CIRCLE('',#731,5.);
#282=CIRCLE('',#733,5.);
#283=CIRCLE('',#735,5.5);
#284=CIRCLE('',#737,5.50000000000001);
#285=CIRCLE('',#739,86.2);
#286=VERTEX_POINT('',#941);
#287=VERTEX_POINT('',#942);
#288=VERTEX_POINT('',#944);
#289=VERTEX_POINT('',#946);
#290=VERTEX_POINT('',#950);
#291=VERTEX_POINT('',#952);
#292=VERTEX_POINT('',#956);
#293=VERTEX_POINT('',#958);
#294=VERTEX_POINT('',#960);
#295=VERTEX_POINT('',#963);
#296=VERTEX_POINT('',#965);
#297=VERTEX_POINT('',#967);
#298=VERTEX_POINT('',#969);
#299=VERTEX_POINT('',#971);
#300=VERTEX_POINT('',#973);
#301=VERTEX_POINT('',#975);
#302=VERTEX_POINT('',#977);
#303=VERTEX_POINT('',#979);
#304=VERTEX_POINT('',#981);
#305=VERTEX_POINT('',#983);
#306=VERTEX_POINT('',#985);
#307=VERTEX_POINT('',#987);
#308=VERTEX_POINT('',#989);
#309=VERTEX_POINT('',#991);
#310=VERTEX_POINT('',#993);
#311=VERTEX_POINT('',#995);
#312=VERTEX_POINT('',#997);
#313=VERTEX_POINT('',#999);
#314=VERTEX_POINT('',#1001);
#315=VERTEX_POINT('',#1003);
#316=VERTEX_POINT('',#1005);
#317=VERTEX_POINT('',#1008);
#318=VERTEX_POINT('',#1012);
#319=VERTEX_POINT('',#1016);
#320=VERTEX_POINT('',#1020);
#321=VERTEX_POINT('',#1024);
#322=VERTEX_POINT('',#1028);
#323=VERTEX_POINT('',#1032);
#324=VERTEX_POINT('',#1036);
#325=VERTEX_POINT('',#1040);
#326=VERTEX_POINT('',#1044);
#327=VERTEX_POINT('',#1048);
#328=VERTEX_POINT('',#1052);
#329=VERTEX_POINT('',#1056);
#330=VERTEX_POINT('',#1060);
#331=VERTEX_POINT('',#1064);
#332=VERTEX_POINT('',#1068);
#333=VERTEX_POINT('',#1072);
#334=VERTEX_POINT('',#1076);
#335=VERTEX_POINT('',#1080);
#336=VERTEX_POINT('',#1084);
#337=VERTEX_POINT('',#1088);
#338=VERTEX_POINT('',#1092);
#339=VERTEX_POINT('',#1096);
#340=VERTEX_POINT('',#1100);
#341=VERTEX_POINT('',#1102);
#342=EDGE_CURVE('',#286,#287,#236,.T.);
#343=EDGE_CURVE('',#287,#288,#168,.T.);
#344=EDGE_CURVE('',#288,#289,#237,.T.);
#345=EDGE_CURVE('',#289,#286,#169,.T.);
#346=EDGE_CURVE('',#289,#290,#170,.T.);
#347=EDGE_CURVE('',#291,#290,#171,.T.);
#348=EDGE_CURVE('',#286,#291,#172,.T.);
#349=EDGE_CURVE('',#292,#288,#173,.T.);
#350=EDGE_CURVE('',#293,#292,#238,.T.);
#351=EDGE_CURVE('',#293,#294,#174,.T.);
#352=EDGE_CURVE('',#290,#294,#239,.T.);
#353=EDGE_CURVE('',#295,#295,#240,.T.);
#354=EDGE_CURVE('',#296,#296,#241,.T.);
#355=EDGE_CURVE('',#297,#297,#242,.T.);
#356=EDGE_CURVE('',#298,#298,#243,.T.);
#357=EDGE_CURVE('',#299,#299,#244,.T.);
#358=EDGE_CURVE('',#300,#300,#245,.T.);
#359=EDGE_CURVE('',#301,#301,#246,.T.);
#360=EDGE_CURVE('',#302,#302,#247,.T.);
#361=EDGE_CURVE('',#303,#303,#248,.T.);
#362=EDGE_CURVE('',#304,#304,#249,.T.);
#363=EDGE_CURVE('',#305,#305,#250,.T.);
#364=EDGE_CURVE('',#306,#306,#251,.T.);
#365=EDGE_CURVE('',#307,#307,#252,.T.);
#366=EDGE_CURVE('',#308,#308,#253,.T.);
#367=EDGE_CURVE('',#309,#309,#254,.T.);
#368=EDGE_CURVE('',#310,#310,#255,.T.);
#369=EDGE_CURVE('',#311,#311,#256,.T.);
#370=EDGE_CURVE('',#312,#312,#257,.T.);
#371=EDGE_CURVE('',#313,#313,#258,.T.);
#372=EDGE_CURVE('',#314,#314,#259,.T.);
#373=EDGE_CURVE('',#315,#315,#260,.T.);
#374=EDGE_CURVE('',#316,#316,#261,.T.);
#375=EDGE_CURVE('',#317,#291,#262,.T.);
#376=EDGE_CURVE('',#294,#317,#175,.T.);
#377=EDGE_CURVE('',#318,#318,#263,.T.);
#378=EDGE_CURVE('',#318,#316,#176,.T.);
#379=EDGE_CURVE('',#319,#319,#264,.T.);
#380=EDGE_CURVE('',#319,#315,#177,.T.);
#381=EDGE_CURVE('',#320,#320,#265,.T.);
#382=EDGE_CURVE('',#320,#314,#178,.T.);
#383=EDGE_CURVE('',#321,#321,#266,.T.);
#384=EDGE_CURVE('',#321,#313,#179,.T.);
#385=EDGE_CURVE('',#322,#322,#267,.T.);
#386=EDGE_CURVE('',#322,#312,#180,.T.);
#387=EDGE_CURVE('',#323,#323,#268,.T.);
#388=EDGE_CURVE('',#323,#311,#181,.T.);
#389=EDGE_CURVE('',#324,#324,#269,.T.);
#390=EDGE_CURVE('',#324,#310,#182,.T.);
#391=EDGE_CURVE('',#325,#325,#270,.T.);
#392=EDGE_CURVE('',#325,#309,#183,.T.);
#393=EDGE_CURVE('',#326,#326,#271,.T.);
#394=EDGE_CURVE('',#326,#308,#184,.T.);
#395=EDGE_CURVE('',#327,#327,#272,.T.);
#396=EDGE_CURVE('',#327,#307,#185,.T.);
#397=EDGE_CURVE('',#328,#328,#273,.T.);
#398=EDGE_CURVE('',#328,#306,#186,.T.);
#399=EDGE_CURVE('',#329,#329,#274,.T.);
#400=EDGE_CURVE('',#329,#305,#187,.T.);
#401=EDGE_CURVE('',#330,#330,#275,.T.);
#402=EDGE_CURVE('',#330,#304,#188,.T.);
#403=EDGE_CURVE('',#331,#331,#276,.T.);
#404=EDGE_CURVE('',#331,#303,#189,.T.);
#405=EDGE_CURVE('',#332,#332,#277,.T.);
#406=EDGE_CURVE('',#332,#302,#190,.T.);
#407=EDGE_CURVE('',#333,#333,#278,.T.);
#408=EDGE_CURVE('',#333,#301,#191,.T.);
#409=EDGE_CURVE('',#334,#334,#279,.T.);
#410=EDGE_CURVE('',#334,#300,#192,.T.);
#411=EDGE_CURVE('',#335,#335,#280,.T.);
#412=EDGE_CURVE('',#335,#299,#193,.T.);
#413=EDGE_CURVE('',#336,#336,#281,.T.);
#414=EDGE_CURVE('',#336,#298,#194,.T.);
#415=EDGE_CURVE('',#337,#337,#282,.T.);
#416=EDGE_CURVE('',#337,#297,#195,.T.);
#417=EDGE_CURVE('',#338,#338,#283,.T.);
#418=EDGE_CURVE('',#338,#296,#196,.T.);
#419=EDGE_CURVE('',#339,#339,#284,.T.);
#420=EDGE_CURVE('',#339,#295,#197,.T.);
#421=EDGE_CURVE('',#292,#340,#198,.T.);
#422=EDGE_CURVE('',#341,#340,#285,.T.);
#423=EDGE_CURVE('',#293,#341,#199,.T.);
#424=EDGE_CURVE('',#317,#341,#200,.T.);
#425=EDGE_CURVE('',#340,#287,#201,.T.);
#426=ORIENTED_EDGE('',*,*,#342,.T.);
#427=ORIENTED_EDGE('',*,*,#343,.T.);
#428=ORIENTED_EDGE('',*,*,#344,.T.);
#429=ORIENTED_EDGE('',*,*,#345,.T.);
#430=ORIENTED_EDGE('',*,*,#345,.F.);
#431=ORIENTED_EDGE('',*,*,#346,.T.);
#432=ORIENTED_EDGE('',*,*,#347,.F.);
#433=ORIENTED_EDGE('',*,*,#348,.F.);
#434=ORIENTED_EDGE('',*,*,#344,.F.);
#435=ORIENTED_EDGE('',*,*,#349,.F.);
#436=ORIENTED_EDGE('',*,*,#350,.F.);
#437=ORIENTED_EDGE('',*,*,#351,.T.);
#438=ORIENTED_EDGE('',*,*,#352,.F.);
#439=ORIENTED_EDGE('',*,*,#346,.F.);
#440=ORIENTED_EDGE('',*,*,#353,.F.);
#441=ORIENTED_EDGE('',*,*,#354,.F.);
#442=ORIENTED_EDGE('',*,*,#355,.F.);
#443=ORIENTED_EDGE('',*,*,#356,.F.);
#444=ORIENTED_EDGE('',*,*,#357,.F.);
#445=ORIENTED_EDGE('',*,*,#358,.F.);
#446=ORIENTED_EDGE('',*,*,#359,.F.);
#447=ORIENTED_EDGE('',*,*,#360,.F.);
#448=ORIENTED_EDGE('',*,*,#361,.F.);
#449=ORIENTED_EDGE('',*,*,#362,.F.);
#450=ORIENTED_EDGE('',*,*,#363,.F.);
#451=ORIENTED_EDGE('',*,*,#364,.F.);
#452=ORIENTED_EDGE('',*,*,#365,.F.);
#453=ORIENTED_EDGE('',*,*,#366,.F.);
#454=ORIENTED_EDGE('',*,*,#367,.F.);
#455=ORIENTED_EDGE('',*,*,#368,.F.);
#456=ORIENTED_EDGE('',*,*,#369,.F.);
#457=ORIENTED_EDGE('',*,*,#370,.F.);
#458=ORIENTED_EDGE('',*,*,#371,.F.);
#459=ORIENTED_EDGE('',*,*,#372,.F.);
#460=ORIENTED_EDGE('',*,*,#373,.F.);
#461=ORIENTED_EDGE('',*,*,#374,.F.);
#462=ORIENTED_EDGE('',*,*,#375,.T.);
#463=ORIENTED_EDGE('',*,*,#347,.T.);
#464=ORIENTED_EDGE('',*,*,#352,.T.);
#465=ORIENTED_EDGE('',*,*,#376,.T.);
#466=ORIENTED_EDGE('',*,*,#377,.F.);
#467=ORIENTED_EDGE('',*,*,#378,.T.);
#468=ORIENTED_EDGE('',*,*,#374,.T.);
#469=ORIENTED_EDGE('',*,*,#378,.F.);
#470=ORIENTED_EDGE('',*,*,#379,.F.);
#471=ORIENTED_EDGE('',*,*,#380,.T.);
#472=ORIENTED_EDGE('',*,*,#373,.T.);
#473=ORIENTED_EDGE('',*,*,#380,.F.);
#474=ORIENTED_EDGE('',*,*,#381,.F.);
#475=ORIENTED_EDGE('',*,*,#382,.T.);
#476=ORIENTED_EDGE('',*,*,#372,.T.);
#477=ORIENTED_EDGE('',*,*,#382,.F.);
#478=ORIENTED_EDGE('',*,*,#383,.F.);
#479=ORIENTED_EDGE('',*,*,#384,.T.);
#480=ORIENTED_EDGE('',*,*,#371,.T.);
#481=ORIENTED_EDGE('',*,*,#384,.F.);
#482=ORIENTED_EDGE('',*,*,#385,.F.);
#483=ORIENTED_EDGE('',*,*,#386,.T.);
#484=ORIENTED_EDGE('',*,*,#370,.T.);
#485=ORIENTED_EDGE('',*,*,#386,.F.);
#486=ORIENTED_EDGE('',*,*,#387,.F.);
#487=ORIENTED_EDGE('',*,*,#388,.T.);
#488=ORIENTED_EDGE('',*,*,#369,.T.);
#489=ORIENTED_EDGE('',*,*,#388,.F.);
#490=ORIENTED_EDGE('',*,*,#389,.F.);
#491=ORIENTED_EDGE('',*,*,#390,.T.);
#492=ORIENTED_EDGE('',*,*,#368,.T.);
#493=ORIENTED_EDGE('',*,*,#390,.F.);
#494=ORIENTED_EDGE('',*,*,#391,.F.);
#495=ORIENTED_EDGE('',*,*,#392,.T.);
#496=ORIENTED_EDGE('',*,*,#367,.T.);
#497=ORIENTED_EDGE('',*,*,#392,.F.);
#498=ORIENTED_EDGE('',*,*,#393,.F.);
#499=ORIENTED_EDGE('',*,*,#394,.T.);
#500=ORIENTED_EDGE('',*,*,#366,.T.);
#501=ORIENTED_EDGE('',*,*,#394,.F.);
#502=ORIENTED_EDGE('',*,*,#395,.F.);
#503=ORIENTED_EDGE('',*,*,#396,.T.);
#504=ORIENTED_EDGE('',*,*,#365,.T.);
#505=ORIENTED_EDGE('',*,*,#396,.F.);
#506=ORIENTED_EDGE('',*,*,#397,.F.);
#507=ORIENTED_EDGE('',*,*,#398,.T.);
#508=ORIENTED_EDGE('',*,*,#364,.T.);
#509=ORIENTED_EDGE('',*,*,#398,.F.);
#510=ORIENTED_EDGE('',*,*,#399,.F.);
#511=ORIENTED_EDGE('',*,*,#400,.T.);
#512=ORIENTED_EDGE('',*,*,#363,.T.);
#513=ORIENTED_EDGE('',*,*,#400,.F.);
#514=ORIENTED_EDGE('',*,*,#401,.F.);
#515=ORIENTED_EDGE('',*,*,#402,.T.);
#516=ORIENTED_EDGE('',*,*,#362,.T.);
#517=ORIENTED_EDGE('',*,*,#402,.F.);
#518=ORIENTED_EDGE('',*,*,#403,.F.);
#519=ORIENTED_EDGE('',*,*,#404,.T.);
#520=ORIENTED_EDGE('',*,*,#361,.T.);
#521=ORIENTED_EDGE('',*,*,#404,.F.);
#522=ORIENTED_EDGE('',*,*,#405,.F.);
#523=ORIENTED_EDGE('',*,*,#406,.T.);
#524=ORIENTED_EDGE('',*,*,#360,.T.);
#525=ORIENTED_EDGE('',*,*,#406,.F.);
#526=ORIENTED_EDGE('',*,*,#407,.F.);
#527=ORIENTED_EDGE('',*,*,#408,.T.);
#528=ORIENTED_EDGE('',*,*,#359,.T.);
#529=ORIENTED_EDGE('',*,*,#408,.F.);
#530=ORIENTED_EDGE('',*,*,#409,.F.);
#531=ORIENTED_EDGE('',*,*,#410,.T.);
#532=ORIENTED_EDGE('',*,*,#358,.T.);
#533=ORIENTED_EDGE('',*,*,#410,.F.);
#534=ORIENTED_EDGE('',*,*,#411,.F.);
#535=ORIENTED_EDGE('',*,*,#412,.T.);
#536=ORIENTED_EDGE('',*,*,#357,.T.);
#537=ORIENTED_EDGE('',*,*,#412,.F.);
#538=ORIENTED_EDGE('',*,*,#413,.F.);
#539=ORIENTED_EDGE('',*,*,#414,.T.);
#540=ORIENTED_EDGE('',*,*,#356,.T.);
#541=ORIENTED_EDGE('',*,*,#414,.F.);
#542=ORIENTED_EDGE('',*,*,#415,.F.);
#543=ORIENTED_EDGE('',*,*,#416,.T.);
#544=ORIENTED_EDGE('',*,*,#355,.T.);
#545=ORIENTED_EDGE('',*,*,#416,.F.);
#546=ORIENTED_EDGE('',*,*,#417,.F.);
#547=ORIENTED_EDGE('',*,*,#418,.T.);
#548=ORIENTED_EDGE('',*,*,#354,.T.);
#549=ORIENTED_EDGE('',*,*,#418,.F.);
#550=ORIENTED_EDGE('',*,*,#419,.F.);
#551=ORIENTED_EDGE('',*,*,#420,.T.);
#552=ORIENTED_EDGE('',*,*,#353,.T.);
#553=ORIENTED_EDGE('',*,*,#420,.F.);
#554=ORIENTED_EDGE('',*,*,#350,.T.);
#555=ORIENTED_EDGE('',*,*,#421,.T.);
#556=ORIENTED_EDGE('',*,*,#422,.F.);
#557=ORIENTED_EDGE('',*,*,#423,.F.);
#558=ORIENTED_EDGE('',*,*,#376,.F.);
#559=ORIENTED_EDGE('',*,*,#351,.F.);
#560=ORIENTED_EDGE('',*,*,#423,.T.);
#561=ORIENTED_EDGE('',*,*,#424,.F.);
#562=ORIENTED_EDGE('',*,*,#343,.F.);
#563=ORIENTED_EDGE('',*,*,#425,.F.);
#564=ORIENTED_EDGE('',*,*,#421,.F.);
#565=ORIENTED_EDGE('',*,*,#349,.T.);
#566=ORIENTED_EDGE('',*,*,#342,.F.);
#567=ORIENTED_EDGE('',*,*,#348,.T.);
#568=ORIENTED_EDGE('',*,*,#375,.F.);
#569=ORIENTED_EDGE('',*,*,#424,.T.);
#570=ORIENTED_EDGE('',*,*,#422,.T.);
#571=ORIENTED_EDGE('',*,*,#425,.T.);
#572=ORIENTED_EDGE('',*,*,#419,.T.);
#573=ORIENTED_EDGE('',*,*,#417,.T.);
#574=ORIENTED_EDGE('',*,*,#415,.T.);
#575=ORIENTED_EDGE('',*,*,#413,.T.);
#576=ORIENTED_EDGE('',*,*,#411,.T.);
#577=ORIENTED_EDGE('',*,*,#409,.T.);
#578=ORIENTED_EDGE('',*,*,#407,.T.);
#579=ORIENTED_EDGE('',*,*,#405,.T.);
#580=ORIENTED_EDGE('',*,*,#403,.T.);
#581=ORIENTED_EDGE('',*,*,#401,.T.);
#582=ORIENTED_EDGE('',*,*,#399,.T.);
#583=ORIENTED_EDGE('',*,*,#397,.T.);
#584=ORIENTED_EDGE('',*,*,#395,.T.);
#585=ORIENTED_EDGE('',*,*,#393,.T.);
#586=ORIENTED_EDGE('',*,*,#391,.T.);
#587=ORIENTED_EDGE('',*,*,#389,.T.);
#588=ORIENTED_EDGE('',*,*,#387,.T.);
#589=ORIENTED_EDGE('',*,*,#385,.T.);
#590=ORIENTED_EDGE('',*,*,#383,.T.);
#591=ORIENTED_EDGE('',*,*,#381,.T.);
#592=ORIENTED_EDGE('',*,*,#379,.T.);
#593=ORIENTED_EDGE('',*,*,#377,.T.);
#594=CYLINDRICAL_SURFACE('',#663,5.);
#595=CYLINDRICAL_SURFACE('',#692,5.);
#596=CYLINDRICAL_SURFACE('',#694,5.5);
#597=CYLINDRICAL_SURFACE('',#696,5.5);
#598=CYLINDRICAL_SURFACE('',#698,5.5);
#599=CYLINDRICAL_SURFACE('',#700,5.50000000000001);
#600=CYLINDRICAL_SURFACE('',#702,5.5);
#601=CYLINDRICAL_SURFACE('',#704,5.5);
#602=CYLINDRICAL_SURFACE('',#706,5.5);
#603=CYLINDRICAL_SURFACE('',#708,5.5);
#604=CYLINDRICAL_SURFACE('',#710,5.5);
#605=CYLINDRICAL_SURFACE('',#712,5.5);
#606=CYLINDRICAL_SURFACE('',#714,5.);
#607=CYLINDRICAL_SURFACE('',#716,5.5);
#608=CYLINDRICAL_SURFACE('',#718,5.5);
#609=CYLINDRICAL_SURFACE('',#720,5.5);
#610=CYLINDRICAL_SURFACE('',#722,5.5);
#611=CYLINDRICAL_SURFACE('',#724,5.5);
#612=CYLINDRICAL_SURFACE('',#726,5.5);
#613=CYLINDRICAL_SURFACE('',#728,5.5);
#614=CYLINDRICAL_SURFACE('',#730,5.);
#615=CYLINDRICAL_SURFACE('',#732,5.);
#616=CYLINDRICAL_SURFACE('',#734,5.5);
#617=CYLINDRICAL_SURFACE('',#736,5.50000000000001);
#618=CYLINDRICAL_SURFACE('',#738,86.2);
#619=ADVANCED_FACE('',(#64),#594,.T.);
#620=ADVANCED_FACE('',(#65),#59,.T.);
#621=ADVANCED_FACE('',(#66,#15,#16,#17,#18,#19,#20,#21,#22,#23,#24,#25,
#26,#27,#28,#29,#30,#31,#32,#33,#34,#35,#36),#60,.F.);
#622=ADVANCED_FACE('',(#67),#595,.T.);
#623=ADVANCED_FACE('',(#68),#596,.F.);
#624=ADVANCED_FACE('',(#69),#597,.F.);
#625=ADVANCED_FACE('',(#70),#598,.F.);
#626=ADVANCED_FACE('',(#71),#599,.F.);
#627=ADVANCED_FACE('',(#72),#600,.F.);
#628=ADVANCED_FACE('',(#73),#601,.F.);
#629=ADVANCED_FACE('',(#74),#602,.F.);
#630=ADVANCED_FACE('',(#75),#603,.F.);
#631=ADVANCED_FACE('',(#76),#604,.F.);
#632=ADVANCED_FACE('',(#77),#605,.F.);
#633=ADVANCED_FACE('',(#78),#606,.F.);
#634=ADVANCED_FACE('',(#79),#607,.F.);
#635=ADVANCED_FACE('',(#80),#608,.F.);
#636=ADVANCED_FACE('',(#81),#609,.F.);
#637=ADVANCED_FACE('',(#82),#610,.F.);
#638=ADVANCED_FACE('',(#83),#611,.F.);
#639=ADVANCED_FACE('',(#84),#612,.F.);
#640=ADVANCED_FACE('',(#85),#613,.F.);
#641=ADVANCED_FACE('',(#86),#614,.F.);
#642=ADVANCED_FACE('',(#87),#615,.F.);
#643=ADVANCED_FACE('',(#88),#616,.F.);
#644=ADVANCED_FACE('',(#89),#617,.F.);
#645=ADVANCED_FACE('',(#90),#618,.T.);
#646=ADVANCED_FACE('',(#91),#61,.T.);
#647=ADVANCED_FACE('',(#92),#62,.T.);
#648=ADVANCED_FACE('',(#93,#37,#38,#39,#40,#41,#42,#43,#44,#45,#46,#47,
#48,#49,#50,#51,#52,#53,#54,#55,#56,#57,#58),#63,.T.);
#649=CLOSED_SHELL('',(#619,#620,#621,#622,#623,#624,#625,#626,#627,#628,
#629,#630,#631,#632,#633,#634,#635,#636,#637,#638,#639,#640,#641,#642,#643,
#644,#645,#646,#647,#648));
#650=DERIVED_UNIT_ELEMENT(#652,1.);
#651=DERIVED_UNIT_ELEMENT(#1115,-3.);
#652=(
MASS_UNIT()
NAMED_UNIT(*)
SI_UNIT(.KILO.,.GRAM.)
);
#653=DERIVED_UNIT((#650,#651));
#654=MEASURE_REPRESENTATION_ITEM('density measure',
POSITIVE_RATIO_MEASURE(7850.),#653);
#655=PROPERTY_DEFINITION_REPRESENTATION(#660,#657);
#656=PROPERTY_DEFINITION_REPRESENTATION(#661,#658);
#657=REPRESENTATION('material name',(#659),#1112);
#658=REPRESENTATION('density',(#654),#1112);
#659=DESCRIPTIVE_REPRESENTATION_ITEM('Steel','Steel');
#660=PROPERTY_DEFINITION('material property','material name',#1122);
#661=PROPERTY_DEFINITION('material property','density of part',#1122);
#662=AXIS2_PLACEMENT_3D('',#939,#743,#744);
#663=AXIS2_PLACEMENT_3D('',#940,#745,#746);
#664=AXIS2_PLACEMENT_3D('',#943,#747,#748);
#665=AXIS2_PLACEMENT_3D('',#947,#750,#751);
#666=AXIS2_PLACEMENT_3D('',#949,#753,#754);
#667=AXIS2_PLACEMENT_3D('',#955,#758,#759);
#668=AXIS2_PLACEMENT_3D('',#959,#761,#762);
#669=AXIS2_PLACEMENT_3D('',#962,#764,#765);
#670=AXIS2_PLACEMENT_3D('',#964,#766,#767);
#671=AXIS2_PLACEMENT_3D('',#966,#768,#769);
#672=AXIS2_PLACEMENT_3D('',#968,#770,#771);
#673=AXIS2_PLACEMENT_3D('',#970,#772,#773);
#674=AXIS2_PLACEMENT_3D('',#972,#774,#775);
#675=AXIS2_PLACEMENT_3D('',#974,#776,#777);
#676=AXIS2_PLACEMENT_3D('',#976,#778,#779);
#677=AXIS2_PLACEMENT_3D('',#978,#780,#781);
#678=AXIS2_PLACEMENT_3D('',#980,#782,#783);
#679=AXIS2_PLACEMENT_3D('',#982,#784,#785);
#680=AXIS2_PLACEMENT_3D('',#984,#786,#787);
#681=AXIS2_PLACEMENT_3D('',#986,#788,#789);
#682=AXIS2_PLACEMENT_3D('',#988,#790,#791);
#683=AXIS2_PLACEMENT_3D('',#990,#792,#793);
#684=AXIS2_PLACEMENT_3D('',#992,#794,#795);
#685=AXIS2_PLACEMENT_3D('',#994,#796,#797);
#686=AXIS2_PLACEMENT_3D('',#996,#798,#799);
#687=AXIS2_PLACEMENT_3D('',#998,#800,#801);
#688=AXIS2_PLACEMENT_3D('',#1000,#802,#803);
#689=AXIS2_PLACEMENT_3D('',#1002,#804,#805);
#690=AXIS2_PLACEMENT_3D('',#1004,#806,#807);
#691=AXIS2_PLACEMENT_3D('',#1006,#808,#809);
#692=AXIS2_PLACEMENT_3D('',#1007,#810,#811);
#693=AXIS2_PLACEMENT_3D('',#1009,#812,#813);
#694=AXIS2_PLACEMENT_3D('',#1011,#815,#816);
#695=AXIS2_PLACEMENT_3D('',#1013,#817,#818);
#696=AXIS2_PLACEMENT_3D('',#1015,#820,#821);
#697=AXIS2_PLACEMENT_3D('',#1017,#822,#823);
#698=AXIS2_PLACEMENT_3D('',#1019,#825,#826);
#699=AXIS2_PLACEMENT_3D('',#1021,#827,#828);
#700=AXIS2_PLACEMENT_3D('',#1023,#830,#831);
#701=AXIS2_PLACEMENT_3D('',#1025,#832,#833);
#702=AXIS2_PLACEMENT_3D('',#1027,#835,#836);
#703=AXIS2_PLACEMENT_3D('',#1029,#837,#838);
#704=AXIS2_PLACEMENT_3D('',#1031,#840,#841);
#705=AXIS2_PLACEMENT_3D('',#1033,#842,#843);
#706=AXIS2_PLACEMENT_3D('',#1035,#845,#846);
#707=AXIS2_PLACEMENT_3D('',#1037,#847,#848);
#708=AXIS2_PLACEMENT_3D('',#1039,#850,#851);
#709=AXIS2_PLACEMENT_3D('',#1041,#852,#853);
#710=AXIS2_PLACEMENT_3D('',#1043,#855,#856);
#711=AXIS2_PLACEMENT_3D('',#1045,#857,#858);
#712=AXIS2_PLACEMENT_3D('',#1047,#860,#861);
#713=AXIS2_PLACEMENT_3D('',#1049,#862,#863);
#714=AXIS2_PLACEMENT_3D('',#1051,#865,#866);
#715=AXIS2_PLACEMENT_3D('',#1053,#867,#868);
#716=AXIS2_PLACEMENT_3D('',#1055,#870,#871);
#717=AXIS2_PLACEMENT_3D('',#1057,#872,#873);
#718=AXIS2_PLACEMENT_3D('',#1059,#875,#876);
#719=AXIS2_PLACEMENT_3D('',#1061,#877,#878);
#720=AXIS2_PLACEMENT_3D('',#1063,#880,#881);
#721=AXIS2_PLACEMENT_3D('',#1065,#882,#883);
#722=AXIS2_PLACEMENT_3D('',#1067,#885,#886);
#723=AXIS2_PLACEMENT_3D('',#1069,#887,#888);
#724=AXIS2_PLACEMENT_3D('',#1071,#890,#891);
#725=AXIS2_PLACEMENT_3D('',#1073,#892,#893);
#726=AXIS2_PLACEMENT_3D('',#1075,#895,#896);
#727=AXIS2_PLACEMENT_3D('',#1077,#897,#898);
#728=AXIS2_PLACEMENT_3D('',#1079,#900,#901);
#729=AXIS2_PLACEMENT_3D('',#1081,#902,#903);
#730=AXIS2_PLACEMENT_3D('',#1083,#905,#906);
#731=AXIS2_PLACEMENT_3D('',#1085,#907,#908);
#732=AXIS2_PLACEMENT_3D('',#1087,#910,#911);
#733=AXIS2_PLACEMENT_3D('',#1089,#912,#913);
#734=AXIS2_PLACEMENT_3D('',#1091,#915,#916);
#735=AXIS2_PLACEMENT_3D('',#1093,#917,#918);
#736=AXIS2_PLACEMENT_3D('',#1095,#920,#921);
#737=AXIS2_PLACEMENT_3D('',#1097,#922,#923);
#738=AXIS2_PLACEMENT_3D('',#1099,#925,#926);
#739=AXIS2_PLACEMENT_3D('',#1103,#928,#929);
#740=AXIS2_PLACEMENT_3D('',#1105,#931,#932);
#741=AXIS2_PLACEMENT_3D('',#1107,#934,#935);
#742=AXIS2_PLACEMENT_3D('',#1109,#937,#938);
#743=DIRECTION('axis',(0.,0.,1.));
#744=DIRECTION('refdir',(1.,0.,0.));
#745=DIRECTION('center_axis',(0.,0.,1.));
#746=DIRECTION('ref_axis',(-0.705745341712246,-0.708465604423719,0.));
#747=DIRECTION('center_axis',(0.,0.,-1.));
#748=DIRECTION('ref_axis',(-0.705745341712246,-0.708465604423719,0.));
#749=DIRECTION('',(0.,0.,-1.));
#750=DIRECTION('center_axis',(0.,0.,1.));
#751=DIRECTION('ref_axis',(-0.705745341712246,-0.708465604423719,0.));
#752=DIRECTION('',(0.,0.,1.));
#753=DIRECTION('center_axis',(0.,-1.,0.));
#754=DIRECTION('ref_axis',(1.,0.,0.));
#755=DIRECTION('',(1.,0.,0.));
#756=DIRECTION('',(0.,0.,-1.));
#757=DIRECTION('',(1.,0.,0.));
#758=DIRECTION('center_axis',(0.,0.,1.));
#759=DIRECTION('ref_axis',(1.,0.,0.));
#760=DIRECTION('',(0.00384702530293496,-0.999992600170781,0.));
#761=DIRECTION('center_axis',(0.,0.,1.));
#762=DIRECTION('ref_axis',(1.,2.22044604925031E-16,0.));
#763=DIRECTION('',(0.00384702530293495,-0.999992600170781,0.));
#764=DIRECTION('center_axis',(0.,0.,1.));
#765=DIRECTION('ref_axis',(0.708465604423722,-0.705745341712243,0.));
#766=DIRECTION('center_axis',(0.,0.,-1.));
#767=DIRECTION('ref_axis',(1.,0.,0.));
#768=DIRECTION('center_axis',(0.,0.,-1.));
#769=DIRECTION('ref_axis',(1.,0.,0.));
#770=DIRECTION('center_axis',(0.,0.,-1.));
#771=DIRECTION('ref_axis',(1.,0.,0.));
#772=DIRECTION('center_axis',(0.,0.,-1.));
#773=DIRECTION('ref_axis',(1.,0.,0.));
#774=DIRECTION('center_axis',(0.,0.,-1.));
#775=DIRECTION('ref_axis',(1.,0.,0.));
#776=DIRECTION('center_axis',(0.,0.,-1.));
#777=DIRECTION('ref_axis',(1.,0.,0.));
#778=DIRECTION('center_axis',(0.,0.,-1.));
#779=DIRECTION('ref_axis',(1.,0.,0.));
#780=DIRECTION('center_axis',(0.,0.,-1.));
#781=DIRECTION('ref_axis',(1.,0.,0.));
#782=DIRECTION('center_axis',(0.,0.,-1.));
#783=DIRECTION('ref_axis',(1.,0.,0.));
#784=DIRECTION('center_axis',(0.,0.,-1.));
#785=DIRECTION('ref_axis',(1.,0.,0.));
#786=DIRECTION('center_axis',(0.,0.,-1.));
#787=DIRECTION('ref_axis',(1.,0.,0.));
#788=DIRECTION('center_axis',(0.,0.,-1.));
#789=DIRECTION('ref_axis',(1.,0.,0.));
#790=DIRECTION('center_axis',(0.,0.,-1.));
#791=DIRECTION('ref_axis',(1.,0.,0.));
#792=DIRECTION('center_axis',(0.,0.,-1.));
#793=DIRECTION('ref_axis',(1.,0.,0.));
#794=DIRECTION('center_axis',(0.,0.,-1.));
#795=DIRECTION('ref_axis',(1.,0.,0.));
#796=DIRECTION('center_axis',(0.,0.,-1.));
#797=DIRECTION('ref_axis',(1.,0.,0.));
#798=DIRECTION('center_axis',(0.,0.,-1.));
#799=DIRECTION('ref_axis',(1.,0.,0.));
#800=DIRECTION('center_axis',(0.,0.,-1.));
#801=DIRECTION('ref_axis',(1.,0.,0.));
#802=DIRECTION('center_axis',(0.,0.,-1.));
#803=DIRECTION('ref_axis',(1.,0.,0.));
#804=DIRECTION('center_axis',(0.,0.,-1.));
#805=DIRECTION('ref_axis',(1.,0.,0.));
#806=DIRECTION('center_axis',(0.,0.,-1.));
#807=DIRECTION('ref_axis',(1.,0.,0.));
#808=DIRECTION('center_axis',(0.,0.,-1.));
#809=DIRECTION('ref_axis',(1.,0.,0.));
#810=DIRECTION('center_axis',(0.,0.,1.));
#811=DIRECTION('ref_axis',(0.708465604423722,-0.705745341712243,0.));
#812=DIRECTION('center_axis',(0.,0.,-1.));
#813=DIRECTION('ref_axis',(0.708465604423722,-0.705745341712243,0.));
#814=DIRECTION('',(0.,0.,1.));
#815=DIRECTION('center_axis',(0.,0.,1.));
#816=DIRECTION('ref_axis',(1.,0.,0.));
#817=DIRECTION('center_axis',(0.,0.,-1.));
#818=DIRECTION('ref_axis',(1.,0.,0.));
#819=DIRECTION('',(0.,0.,-1.));
#820=DIRECTION('center_axis',(0.,0.,1.));
#821=DIRECTION('ref_axis',(1.,0.,0.));
#822=DIRECTION('center_axis',(0.,0.,-1.));
#823=DIRECTION('ref_axis',(1.,0.,0.));
#824=DIRECTION('',(0.,0.,-1.));
#825=DIRECTION('center_axis',(0.,0.,1.));
#826=DIRECTION('ref_axis',(1.,0.,0.));
#827=DIRECTION('center_axis',(0.,0.,-1.));
#828=DIRECTION('ref_axis',(1.,0.,0.));
#829=DIRECTION('',(0.,0.,-1.));
#830=DIRECTION('center_axis',(0.,0.,1.));
#831=DIRECTION('ref_axis',(1.,0.,0.));
#832=DIRECTION('center_axis',(0.,0.,-1.));
#833=DIRECTION('ref_axis',(1.,0.,0.));
#834=DIRECTION('',(0.,0.,-1.));
#835=DIRECTION('center_axis',(0.,0.,1.));
#836=DIRECTION('ref_axis',(1.,0.,0.));
#837=DIRECTION('center_axis',(0.,0.,-1.));
#838=DIRECTION('ref_axis',(1.,0.,0.));
#839=DIRECTION('',(0.,0.,-1.));
#840=DIRECTION('center_axis',(0.,0.,1.));
#841=DIRECTION('ref_axis',(1.,0.,0.));
#842=DIRECTION('center_axis',(0.,0.,-1.));
#843=DIRECTION('ref_axis',(1.,0.,0.));
#844=DIRECTION('',(0.,0.,-1.));
#845=DIRECTION('center_axis',(0.,0.,1.));
#846=DIRECTION('ref_axis',(1.,0.,0.));
#847=DIRECTION('center_axis',(0.,0.,-1.));
#848=DIRECTION('ref_axis',(1.,0.,0.));
#849=DIRECTION('',(0.,0.,-1.));
#850=DIRECTION('center_axis',(0.,0.,1.));
#851=DIRECTION('ref_axis',(1.,0.,0.));
#852=DIRECTION('center_axis',(0.,0.,-1.));
#853=DIRECTION('ref_axis',(1.,0.,0.));
#854=DIRECTION('',(0.,0.,-1.));
#855=DIRECTION('center_axis',(0.,0.,1.));
#856=DIRECTION('ref_axis',(1.,0.,0.));
#857=DIRECTION('center_axis',(0.,0.,-1.));
#858=DIRECTION('ref_axis',(1.,0.,0.));
#859=DIRECTION('',(0.,0.,-1.));
#860=DIRECTION('center_axis',(0.,0.,1.));
#861=DIRECTION('ref_axis',(1.,0.,0.));
#862=DIRECTION('center_axis',(0.,0.,-1.));
#863=DIRECTION('ref_axis',(1.,0.,0.));
#864=DIRECTION('',(0.,0.,-1.));
#865=DIRECTION('center_axis',(0.,0.,1.));
#866=DIRECTION('ref_axis',(1.,0.,0.));
#867=DIRECTION('center_axis',(0.,0.,-1.));
#868=DIRECTION('ref_axis',(1.,0.,0.));
#869=DIRECTION('',(0.,0.,-1.));
#870=DIRECTION('center_axis',(0.,0.,1.));
#871=DIRECTION('ref_axis',(1.,0.,0.));
#872=DIRECTION('center_axis',(0.,0.,-1.));
#873=DIRECTION('ref_axis',(1.,0.,0.));
#874=DIRECTION('',(0.,0.,-1.));
#875=DIRECTION('center_axis',(0.,0.,1.));
#876=DIRECTION('ref_axis',(1.,0.,0.));
#877=DIRECTION('center_axis',(0.,0.,-1.));
#878=DIRECTION('ref_axis',(1.,0.,0.));
#879=DIRECTION('',(0.,0.,-1.));
#880=DIRECTION('center_axis',(0.,0.,1.));
#881=DIRECTION('ref_axis',(1.,0.,0.));
#882=DIRECTION('center_axis',(0.,0.,-1.));
#883=DIRECTION('ref_axis',(1.,0.,0.));
#884=DIRECTION('',(0.,0.,-1.));
#885=DIRECTION('center_axis',(0.,0.,1.));
#886=DIRECTION('ref_axis',(1.,0.,0.));
#887=DIRECTION('center_axis',(0.,0.,-1.));
#888=DIRECTION('ref_axis',(1.,0.,0.));
#889=DIRECTION('',(0.,0.,-1.));
#890=DIRECTION('center_axis',(0.,0.,1.));
#891=DIRECTION('ref_axis',(1.,0.,0.));
#892=DIRECTION('center_axis',(0.,0.,-1.));
#893=DIRECTION('ref_axis',(1.,0.,0.));
#894=DIRECTION('',(0.,0.,-1.));
#895=DIRECTION('center_axis',(0.,0.,1.));
#896=DIRECTION('ref_axis',(1.,0.,0.));
#897=DIRECTION('center_axis',(0.,0.,-1.));
#898=DIRECTION('ref_axis',(1.,0.,0.));
#899=DIRECTION('',(0.,0.,-1.));
#900=DIRECTION('center_axis',(0.,0.,1.));
#901=DIRECTION('ref_axis',(1.,0.,0.));
#902=DIRECTION('center_axis',(0.,0.,-1.));
#903=DIRECTION('ref_axis',(1.,0.,0.));
#904=DIRECTION('',(0.,0.,-1.));
#905=DIRECTION('center_axis',(0.,0.,1.));
#906=DIRECTION('ref_axis',(1.,0.,0.));
#907=DIRECTION('center_axis',(0.,0.,-1.));
#908=DIRECTION('ref_axis',(1.,0.,0.));
#909=DIRECTION('',(0.,0.,-1.));
#910=DIRECTION('center_axis',(0.,0.,1.));
#911=DIRECTION('ref_axis',(1.,0.,0.));
#912=DIRECTION('center_axis',(0.,0.,-1.));
#913=DIRECTION('ref_axis',(1.,0.,0.));
#914=DIRECTION('',(0.,0.,-1.));
#915=DIRECTION('center_axis',(0.,0.,1.));
#916=DIRECTION('ref_axis',(1.,0.,0.));
#917=DIRECTION('center_axis',(0.,0.,-1.));
#918=DIRECTION('ref_axis',(1.,0.,0.));
#919=DIRECTION('',(0.,0.,-1.));
#920=DIRECTION('center_axis',(0.,0.,1.));
#921=DIRECTION('ref_axis',(1.,0.,0.));
#922=DIRECTION('center_axis',(0.,0.,-1.));
#923=DIRECTION('ref_axis',(1.,0.,0.));
#924=DIRECTION('',(0.,0.,-1.));
#925=DIRECTION('center_axis',(0.,0.,1.));
#926=DIRECTION('ref_axis',(1.,2.22044604925031E-16,0.));
#927=DIRECTION('',(0.,0.,1.));
#928=DIRECTION('center_axis',(0.,0.,1.));
#929=DIRECTION('ref_axis',(1.,2.22044604925031E-16,0.));
#930=DIRECTION('',(0.,0.,1.));
#931=DIRECTION('center_axis',(0.999992600170781,0.00384702530293495,0.));
#932=DIRECTION('ref_axis',(-0.00384702530293495,0.999992600170781,0.));
#933=DIRECTION('',(-0.00384702530293495,0.999992600170781,0.));
#934=DIRECTION('center_axis',(-0.999992600170781,-0.00384702530293496,0.));
#935=DIRECTION('ref_axis',(0.00384702530293496,-0.999992600170781,0.));
#936=DIRECTION('',(0.00384702530293496,-0.999992600170781,0.));
#937=DIRECTION('center_axis',(0.,0.,1.));
#938=DIRECTION('ref_axis',(1.,0.,0.));
#939=CARTESIAN_POINT('',(0.,0.,0.));
#940=CARTESIAN_POINT('Origin',(-81.1614924628753,-10.,0.));
#941=CARTESIAN_POINT('',(-81.1614924628753,-15.,4.35));
#942=CARTESIAN_POINT('',(-86.1614554637293,-10.0192351265147,4.35));
#943=CARTESIAN_POINT('Origin',(-81.1614924628753,-10.,4.35));
#944=CARTESIAN_POINT('',(-86.1614554637293,-10.0192351265147,0.));
#945=CARTESIAN_POINT('',(-86.1614554637293,-10.0192351265147,0.));
#946=CARTESIAN_POINT('',(-81.1614924628753,-15.,0.));
#947=CARTESIAN_POINT('Origin',(-81.1614924628753,-10.,0.));
#948=CARTESIAN_POINT('',(-81.1614924628753,-15.,0.));
#949=CARTESIAN_POINT('Origin',(-86.1422941934429,-15.,0.));
#950=CARTESIAN_POINT('',(81.2384335382849,-15.,0.));
#951=CARTESIAN_POINT('',(-125.,-15.,0.));
#952=CARTESIAN_POINT('',(81.2384335382849,-15.,4.35));
#953=CARTESIAN_POINT('',(81.2384335382849,-15.,0.));
#954=CARTESIAN_POINT('',(-125.,-15.,4.35));
#955=CARTESIAN_POINT('Origin',(0.0288529032785689,35.6,0.));
#956=CARTESIAN_POINT('',(-86.2,-8.58378953588751E-15,0.));
#957=CARTESIAN_POINT('',(-86.2,-8.58378953588751E-15,0.));
#958=CARTESIAN_POINT('',(86.2,1.91402449445377E-14,0.));
#959=CARTESIAN_POINT('Origin',(0.,0.,0.));
#960=CARTESIAN_POINT('',(86.2383965391388,-9.98076487348533,0.));
#961=CARTESIAN_POINT('',(86.2,1.91402449445377E-14,0.));
#962=CARTESIAN_POINT('Origin',(81.2384335382849,-10.,0.));
#963=CARTESIAN_POINT('',(70.7,1.62462431557563E-14,0.));
#964=CARTESIAN_POINT('Origin',(76.2,1.69197988952874E-14,0.));
#965=CARTESIAN_POINT('',(-81.7,1.62462431557563E-14,0.));
#966=CARTESIAN_POINT('Origin',(-76.2,1.69197988952874E-14,0.));
#967=CARTESIAN_POINT('',(-55.8,-6.12323399573677E-16,0.));
#968=CARTESIAN_POINT('Origin',(-50.8,0.,0.));
#969=CARTESIAN_POINT('',(-5.,-6.12323399573677E-16,0.));
#970=CARTESIAN_POINT('Origin',(0.,0.,0.));
#971=CARTESIAN_POINT('',(-43.6,65.9911357683742,0.));
#972=CARTESIAN_POINT('Origin',(-38.1,65.9911357683742,0.));
#973=CARTESIAN_POINT('',(-31.561934921416,71.6045777038862,0.));
#974=CARTESIAN_POINT('Origin',(-26.061934921416,71.6045777038862,0.));
#975=CARTESIAN_POINT('',(-18.7319911382201,75.0423507795303,0.));
#976=CARTESIAN_POINT('Origin',(-13.2319911382201,75.0423507795303,0.));
#977=CARTESIAN_POINT('',(-5.5,76.2,0.));
#978=CARTESIAN_POINT('Origin',(0.,76.2,0.));
#979=CARTESIAN_POINT('',(-80.5423507795302,13.2319911382201,0.));
#980=CARTESIAN_POINT('Origin',(-75.0423507795303,13.2319911382201,0.));
#981=CARTESIAN_POINT('',(20.561934921416,71.6045777038862,0.));
#982=CARTESIAN_POINT('Origin',(26.061934921416,71.6045777038862,0.));
#983=CARTESIAN_POINT('',(32.6,65.9911357683742,0.));
#984=CARTESIAN_POINT('Origin',(38.1,65.9911357683742,0.));
#985=CARTESIAN_POINT('',(45.8,-6.12323399573677E-16,0.));
#986=CARTESIAN_POINT('Origin',(50.8,0.,0.));
#987=CARTESIAN_POINT('',(-77.1045777038862,26.061934921416,0.));
#988=CARTESIAN_POINT('Origin',(-71.6045777038862,26.061934921416,0.));
#989=CARTESIAN_POINT('',(-63.8725865656661,48.9804158581143,0.));
#990=CARTESIAN_POINT('Origin',(-58.3725865656661,48.9804158581143,0.));
#991=CARTESIAN_POINT('',(-71.4911357683742,38.1,0.));
#992=CARTESIAN_POINT('Origin',(-65.9911357683742,38.1,0.));
#993=CARTESIAN_POINT('',(7.7319911382201,75.0423507795303,0.));
#994=CARTESIAN_POINT('Origin',(13.2319911382201,75.0423507795303,0.));
#995=CARTESIAN_POINT('',(-54.4804158581143,58.3725865656661,0.));
#996=CARTESIAN_POINT('Origin',(-48.9804158581143,58.3725865656661,0.));
#997=CARTESIAN_POINT('',(66.1045777038862,26.061934921416,0.));
#998=CARTESIAN_POINT('Origin',(71.6045777038862,26.061934921416,0.));
#999=CARTESIAN_POINT('',(69.5423507795302,13.2319911382201,0.));
#1000=CARTESIAN_POINT('Origin',(75.0423507795303,13.2319911382201,0.));
#1001=CARTESIAN_POINT('',(43.4804158581143,58.3725865656661,0.));
#1002=CARTESIAN_POINT('Origin',(48.9804158581143,58.3725865656661,0.));
#1003=CARTESIAN_POINT('',(60.4911357683742,38.1,0.));
#1004=CARTESIAN_POINT('Origin',(65.9911357683742,38.1,0.));
#1005=CARTESIAN_POINT('',(52.8725865656661,48.9804158581143,0.));
#1006=CARTESIAN_POINT('Origin',(58.3725865656661,48.9804158581143,0.));
#1007=CARTESIAN_POINT('Origin',(81.2384335382849,-10.,0.));
#1008=CARTESIAN_POINT('',(86.2383965391388,-9.98076487348533,4.35));
#1009=CARTESIAN_POINT('Origin',(81.2384335382849,-10.,4.35));
#1010=CARTESIAN_POINT('',(86.2383965391388,-9.98076487348533,0.));
#1011=CARTESIAN_POINT('Origin',(58.3725865656661,48.9804158581143,0.));
#1012=CARTESIAN_POINT('',(52.8725865656661,48.9804158581143,4.35));
#1013=CARTESIAN_POINT('Origin',(58.3725865656661,48.9804158581143,4.35));
#1014=CARTESIAN_POINT('',(52.8725865656661,48.9804158581143,0.));
#1015=CARTESIAN_POINT('Origin',(65.9911357683742,38.1,0.));
#1016=CARTESIAN_POINT('',(60.4911357683742,38.1,4.35));
#1017=CARTESIAN_POINT('Origin',(65.9911357683742,38.1,4.35));
#1018=CARTESIAN_POINT('',(60.4911357683742,38.1,0.));
#1019=CARTESIAN_POINT('Origin',(48.9804158581143,58.3725865656661,0.));
#1020=CARTESIAN_POINT('',(43.4804158581143,58.3725865656661,4.35));
#1021=CARTESIAN_POINT('Origin',(48.9804158581143,58.3725865656661,4.35));
#1022=CARTESIAN_POINT('',(43.4804158581143,58.3725865656661,0.));
#1023=CARTESIAN_POINT('Origin',(75.0423507795303,13.2319911382201,0.));
#1024=CARTESIAN_POINT('',(69.5423507795302,13.2319911382201,4.35));
#1025=CARTESIAN_POINT('Origin',(75.0423507795303,13.2319911382201,4.35));
#1026=CARTESIAN_POINT('',(69.5423507795302,13.2319911382201,0.));
#1027=CARTESIAN_POINT('Origin',(71.6045777038862,26.061934921416,0.));
#1028=CARTESIAN_POINT('',(66.1045777038862,26.061934921416,4.35));
#1029=CARTESIAN_POINT('Origin',(71.6045777038862,26.061934921416,4.35));
#1030=CARTESIAN_POINT('',(66.1045777038862,26.061934921416,0.));
#1031=CARTESIAN_POINT('Origin',(-48.9804158581143,58.3725865656661,0.));
#1032=CARTESIAN_POINT('',(-54.4804158581143,58.3725865656661,4.35));
#1033=CARTESIAN_POINT('Origin',(-48.9804158581143,58.3725865656661,4.35));
#1034=CARTESIAN_POINT('',(-54.4804158581143,58.3725865656661,0.));
#1035=CARTESIAN_POINT('Origin',(13.2319911382201,75.0423507795303,0.));
#1036=CARTESIAN_POINT('',(7.7319911382201,75.0423507795303,4.35));
#1037=CARTESIAN_POINT('Origin',(13.2319911382201,75.0423507795303,4.35));
#1038=CARTESIAN_POINT('',(7.7319911382201,75.0423507795303,0.));
#1039=CARTESIAN_POINT('Origin',(-65.9911357683742,38.1,0.));
#1040=CARTESIAN_POINT('',(-71.4911357683742,38.1,4.35));
#1041=CARTESIAN_POINT('Origin',(-65.9911357683742,38.1,4.35));
#1042=CARTESIAN_POINT('',(-71.4911357683742,38.1,0.));
#1043=CARTESIAN_POINT('Origin',(-58.3725865656661,48.9804158581143,0.));
#1044=CARTESIAN_POINT('',(-63.8725865656661,48.9804158581143,4.35));
#1045=CARTESIAN_POINT('Origin',(-58.3725865656661,48.9804158581143,4.35));
#1046=CARTESIAN_POINT('',(-63.8725865656661,48.9804158581143,0.));
#1047=CARTESIAN_POINT('Origin',(-71.6045777038862,26.061934921416,0.));
#1048=CARTESIAN_POINT('',(-77.1045777038862,26.061934921416,4.35));
#1049=CARTESIAN_POINT('Origin',(-71.6045777038862,26.061934921416,4.35));
#1050=CARTESIAN_POINT('',(-77.1045777038862,26.061934921416,0.));
#1051=CARTESIAN_POINT('Origin',(50.8,0.,0.));
#1052=CARTESIAN_POINT('',(45.8,-6.12323399573676E-16,4.35));
#1053=CARTESIAN_POINT('Origin',(50.8,0.,4.35));
#1054=CARTESIAN_POINT('',(45.8,-6.12323399573677E-16,0.));
#1055=CARTESIAN_POINT('Origin',(38.1,65.9911357683742,0.));
#1056=CARTESIAN_POINT('',(32.6,65.9911357683742,4.35));
#1057=CARTESIAN_POINT('Origin',(38.1,65.9911357683742,4.35));
#1058=CARTESIAN_POINT('',(32.6,65.9911357683742,0.));
#1059=CARTESIAN_POINT('Origin',(26.061934921416,71.6045777038862,0.));
#1060=CARTESIAN_POINT('',(20.561934921416,71.6045777038862,4.35));
#1061=CARTESIAN_POINT('Origin',(26.061934921416,71.6045777038862,4.35));
#1062=CARTESIAN_POINT('',(20.561934921416,71.6045777038862,0.));
#1063=CARTESIAN_POINT('Origin',(-75.0423507795303,13.2319911382201,0.));
#1064=CARTESIAN_POINT('',(-80.5423507795302,13.2319911382201,4.35));
#1065=CARTESIAN_POINT('Origin',(-75.0423507795303,13.2319911382201,4.35));
#1066=CARTESIAN_POINT('',(-80.5423507795302,13.2319911382201,0.));
#1067=CARTESIAN_POINT('Origin',(0.,76.2,0.));
#1068=CARTESIAN_POINT('',(-5.5,76.2,4.35));
#1069=CARTESIAN_POINT('Origin',(0.,76.2,4.35));
#1070=CARTESIAN_POINT('',(-5.5,76.2,0.));
#1071=CARTESIAN_POINT('Origin',(-13.2319911382201,75.0423507795303,0.));
#1072=CARTESIAN_POINT('',(-18.7319911382201,75.0423507795303,4.35));
#1073=CARTESIAN_POINT('Origin',(-13.2319911382201,75.0423507795303,4.35));
#1074=CARTESIAN_POINT('',(-18.7319911382201,75.0423507795303,0.));
#1075=CARTESIAN_POINT('Origin',(-26.061934921416,71.6045777038862,0.));
#1076=CARTESIAN_POINT('',(-31.561934921416,71.6045777038862,4.35));
#1077=CARTESIAN_POINT('Origin',(-26.061934921416,71.6045777038862,4.35));
#1078=CARTESIAN_POINT('',(-31.561934921416,71.6045777038862,0.));
#1079=CARTESIAN_POINT('Origin',(-38.1,65.9911357683742,0.));
#1080=CARTESIAN_POINT('',(-43.6,65.9911357683742,4.35));
#1081=CARTESIAN_POINT('Origin',(-38.1,65.9911357683742,4.35));
#1082=CARTESIAN_POINT('',(-43.6,65.9911357683742,0.));
#1083=CARTESIAN_POINT('Origin',(0.,0.,0.));
#1084=CARTESIAN_POINT('',(-5.,-6.12323399573676E-16,4.35));
#1085=CARTESIAN_POINT('Origin',(0.,0.,4.35));
#1086=CARTESIAN_POINT('',(-5.,-6.12323399573677E-16,0.));
#1087=CARTESIAN_POINT('Origin',(-50.8,0.,0.));
#1088=CARTESIAN_POINT('',(-55.8,-6.12323399573676E-16,4.35));
#1089=CARTESIAN_POINT('Origin',(-50.8,0.,4.35));
#1090=CARTESIAN_POINT('',(-55.8,-6.12323399573677E-16,0.));
#1091=CARTESIAN_POINT('Origin',(-76.2,1.69197988952874E-14,0.));
#1092=CARTESIAN_POINT('',(-81.7,1.62462431557563E-14,4.35));
#1093=CARTESIAN_POINT('Origin',(-76.2,1.69197988952874E-14,4.35));
#1094=CARTESIAN_POINT('',(-81.7,1.62462431557563E-14,0.));
#1095=CARTESIAN_POINT('Origin',(76.2,1.69197988952874E-14,0.));
#1096=CARTESIAN_POINT('',(70.7,1.62462431557563E-14,4.35));
#1097=CARTESIAN_POINT('Origin',(76.2,1.69197988952874E-14,4.35));
#1098=CARTESIAN_POINT('',(70.7,1.62462431557563E-14,0.));
#1099=CARTESIAN_POINT('Origin',(0.,0.,0.));
#1100=CARTESIAN_POINT('',(-86.2,-8.58378953588751E-15,4.35));
#1101=CARTESIAN_POINT('',(-86.2,-8.58378953588751E-15,0.));
#1102=CARTESIAN_POINT('',(86.2,1.91402449445377E-14,4.35));
#1103=CARTESIAN_POINT('Origin',(0.,0.,4.35));
#1104=CARTESIAN_POINT('',(86.2,1.91402449445377E-14,0.));
#1105=CARTESIAN_POINT('Origin',(86.2577058065571,-15.,0.));
#1106=CARTESIAN_POINT('',(86.2,1.91402449445377E-14,4.35));
#1107=CARTESIAN_POINT('Origin',(-86.2,-8.58378953588751E-15,0.));
#1108=CARTESIAN_POINT('',(-86.2,-8.58378953588751E-15,4.35));
#1109=CARTESIAN_POINT('Origin',(0.0288529032785689,35.6,4.35));
#1110=UNCERTAINTY_MEASURE_WITH_UNIT(LENGTH_MEASURE(0.01),#1114,
'DISTANCE_ACCURACY_VALUE',
'Maximum model space distance between geometric entities at asserted c
onnectivities');
#1111=UNCERTAINTY_MEASURE_WITH_UNIT(LENGTH_MEASURE(0.01),#1114,
'DISTANCE_ACCURACY_VALUE',
'Maximum model space distance between geometric entities at asserted c
onnectivities');
#1112=(
GEOMETRIC_REPRESENTATION_CONTEXT(3)
GLOBAL_UNCERTAINTY_ASSIGNED_CONTEXT((#1110))
GLOBAL_UNIT_ASSIGNED_CONTEXT((#1114,#1116,#1117))
REPRESENTATION_CONTEXT('','3D')
);
#1113=(
GEOMETRIC_REPRESENTATION_CONTEXT(3)
GLOBAL_UNCERTAINTY_ASSIGNED_CONTEXT((#1111))
GLOBAL_UNIT_ASSIGNED_CONTEXT((#1114,#1116,#1117))
REPRESENTATION_CONTEXT('','3D')
);
#1114=(
LENGTH_UNIT()
NAMED_UNIT(*)
SI_UNIT(.MILLI.,.METRE.)
);
#1115=(
LENGTH_UNIT()
NAMED_UNIT(*)
SI_UNIT($,.METRE.)
);
#1116=(
NAMED_UNIT(*)
PLANE_ANGLE_UNIT()
SI_UNIT($,.RADIAN.)
);
#1117=(
NAMED_UNIT(*)
SI_UNIT($,.STERADIAN.)
SOLID_ANGLE_UNIT()
);
#1118=SHAPE_DEFINITION_REPRESENTATION(#1119,#1120);
#1119=PRODUCT_DEFINITION_SHAPE('',$,#1122);
#1120=SHAPE_REPRESENTATION('',(#662),#1112);
#1121=PRODUCT_DEFINITION_CONTEXT('part definition',#1126,'design');
#1122=PRODUCT_DEFINITION('2026-02-12-03-08-27-459','(Unsaved)',#1123,#1121);
#1123=PRODUCT_DEFINITION_FORMATION('',$,#1128);
#1124=PRODUCT_RELATED_PRODUCT_CATEGORY('(Unsaved)','(Unsaved)',(#1128));
#1125=APPLICATION_PROTOCOL_DEFINITION('international standard',
'automotive_design',2009,#1126);
#1126=APPLICATION_CONTEXT(
'Core Data for Automotive Mechanical Design Process');
#1127=PRODUCT_CONTEXT('part definition',#1126,'mechanical');
#1128=PRODUCT('2026-02-12-03-08-27-459','(Unsaved)',$,(#1127));
#1129=PRESENTATION_STYLE_ASSIGNMENT((#1130));
#1130=SURFACE_STYLE_USAGE(.BOTH.,#1131);
#1131=SURFACE_SIDE_STYLE('',(#1132));
#1132=SURFACE_STYLE_FILL_AREA(#1133);
#1133=FILL_AREA_STYLE('Steel - Satin',(#1134));
#1134=FILL_AREA_STYLE_COLOUR('Steel - Satin',#1135);
#1135=COLOUR_RGB('Steel - Satin',0.627450980392157,0.627450980392157,0.627450980392157);
ENDSEC;
END-ISO-10303-21;
