ISO-10303-21;
HEADER;
/* Generated by software containing ST-Developer
 * from STEP Tools, Inc. (www.steptools.com) 
 */

FILE_DESCRIPTION(
/* description */ (''),
/* implementation_level */ '2;1');

FILE_NAME(
/* name */ 'Angled Supported Curl Bracket V6 - Right.step',
/* time_stamp */ '2026-03-20T15:17:38-07:00',
/* author */ (''),
/* organization */ (''),
/* preprocessor_version */ 'ST-DEVELOPER v20.1',
/* originating_system */ 'Autodesk Translation Framework v14.24.0.0',
/* authorisation */ '');

FILE_SCHEMA (('AUTOMOTIVE_DESIGN { 1 0 10303 214 3 1 1 }'));
ENDSEC;

DATA;
#10=MECHANICAL_DESIGN_GEOMETRIC_PRESENTATION_REPRESENTATION('',(#13),#1363);
#11=SHAPE_REPRESENTATION_RELATIONSHIP('SRR','None',#1370,#12);
#12=ADVANCED_BREP_SHAPE_REPRESENTATION('',(#14),#1362);
#13=STYLED_ITEM('',(#1379),#14);
#14=MANIFOLD_SOLID_BREP('Right_Bracket',#781);
#15=B_SPLINE_SURFACE_WITH_KNOTS('',3,3,((#1181,#1182,#1183,#1184),(#1185,
#1186,#1187,#1188),(#1189,#1190,#1191,#1192),(#1193,#1194,#1195,#1196)),
 .UNSPECIFIED.,.F.,.F.,.F.,(4,4),(4,4),(-0.63,0.),(-0.873412230683145,-0.793547487270471),
 .UNSPECIFIED.);
#16=B_SPLINE_SURFACE_WITH_KNOTS('',3,3,((#1304,#1305,#1306,#1307),(#1308,
#1309,#1310,#1311),(#1312,#1313,#1314,#1315),(#1316,#1317,#1318,#1319)),
 .UNSPECIFIED.,.F.,.F.,.F.,(4,4),(4,4),(1.16533312894841,1.24999999999994),
(0.,0.63),.UNSPECIFIED.);
#17=B_SPLINE_SURFACE_WITH_KNOTS('',3,3,((#1320,#1321,#1322,#1323),(#1324,
#1325,#1326,#1327),(#1328,#1329,#1330,#1331),(#1332,#1333,#1334,#1335)),
 .UNSPECIFIED.,.F.,.F.,.F.,(4,4),(4,4),(0.,0.63),(0.328381013834254,0.383880477956721),
 .UNSPECIFIED.);
#18=B_SPLINE_CURVE_WITH_KNOTS('',3,(#1115,#1116,#1117,#1118),
 .UNSPECIFIED.,.F.,.F.,(4,4),(-0.38388047795672,-0.328381013834254),
 .UNSPECIFIED.);
#19=B_SPLINE_CURVE_WITH_KNOTS('',3,(#1159,#1160,#1161,#1162),
 .UNSPECIFIED.,.F.,.F.,(4,4),(0.328381013834254,0.383880477956721),
 .UNSPECIFIED.);
#20=B_SPLINE_CURVE_WITH_KNOTS('',3,(#1201,#1202,#1203,#1204),
 .UNSPECIFIED.,.F.,.F.,(4,4),(0.,0.130899693899574),.UNSPECIFIED.);
#21=B_SPLINE_CURVE_WITH_KNOTS('',3,(#1209,#1210,#1211,#1212),
 .UNSPECIFIED.,.F.,.F.,(4,4),(0.,0.130899693899574),.UNSPECIFIED.);
#22=B_SPLINE_CURVE_WITH_KNOTS('',3,(#1218,#1219,#1220,#1221),
 .UNSPECIFIED.,.F.,.F.,(4,4),(0.,0.130899693899574),.UNSPECIFIED.);
#23=B_SPLINE_CURVE_WITH_KNOTS('',3,(#1253,#1254,#1255,#1256),
 .UNSPECIFIED.,.F.,.F.,(4,4),(0.,0.130899693899574),.UNSPECIFIED.);
#24=CYLINDRICAL_SURFACE('',#806,10.11);
#25=CYLINDRICAL_SURFACE('',#807,10.);
#26=CYLINDRICAL_SURFACE('',#813,10.);
#27=CYLINDRICAL_SURFACE('',#815,3.81);
#28=CYLINDRICAL_SURFACE('',#821,10.11);
#29=CYLINDRICAL_SURFACE('',#827,3.81);
#30=CYLINDRICAL_SURFACE('',#828,10.);
#31=CYLINDRICAL_SURFACE('',#837,10.);
#32=CYLINDRICAL_SURFACE('',#838,10.);
#33=CYLINDRICAL_SURFACE('',#845,10.);
#34=CYLINDRICAL_SURFACE('',#847,10.);
#35=CYLINDRICAL_SURFACE('',#849,9.99999999999999);
#36=CYLINDRICAL_SURFACE('',#851,10.);
#37=CYLINDRICAL_SURFACE('',#853,6.50000000000001);
#38=CYLINDRICAL_SURFACE('',#854,6.49999999999999);
#39=CYLINDRICAL_SURFACE('',#860,20.);
#40=CYLINDRICAL_SURFACE('',#861,20.);
#41=FACE_BOUND('',#90,.T.);
#42=FACE_BOUND('',#96,.T.);
#43=FACE_BOUND('',#100,.T.);
#44=FACE_BOUND('',#106,.T.);
#45=FACE_BOUND('',#111,.T.);
#46=FACE_BOUND('',#117,.T.);
#47=FACE_OUTER_BOUND('',#89,.T.);
#48=FACE_OUTER_BOUND('',#91,.T.);
#49=FACE_OUTER_BOUND('',#92,.T.);
#50=FACE_OUTER_BOUND('',#93,.T.);
#51=FACE_OUTER_BOUND('',#94,.T.);
#52=FACE_OUTER_BOUND('',#95,.T.);
#53=FACE_OUTER_BOUND('',#97,.T.);
#54=FACE_OUTER_BOUND('',#98,.T.);
#55=FACE_OUTER_BOUND('',#99,.T.);
#56=FACE_OUTER_BOUND('',#101,.T.);
#57=FACE_OUTER_BOUND('',#102,.T.);
#58=FACE_OUTER_BOUND('',#103,.T.);
#59=FACE_OUTER_BOUND('',#104,.T.);
#60=FACE_OUTER_BOUND('',#105,.T.);
#61=FACE_OUTER_BOUND('',#107,.T.);
#62=FACE_OUTER_BOUND('',#108,.T.);
#63=FACE_OUTER_BOUND('',#109,.T.);
#64=FACE_OUTER_BOUND('',#110,.T.);
#65=FACE_OUTER_BOUND('',#112,.T.);
#66=FACE_OUTER_BOUND('',#113,.T.);
#67=FACE_OUTER_BOUND('',#114,.T.);
#68=FACE_OUTER_BOUND('',#115,.T.);
#69=FACE_OUTER_BOUND('',#116,.T.);
#70=FACE_OUTER_BOUND('',#118,.T.);
#71=FACE_OUTER_BOUND('',#119,.T.);
#72=FACE_OUTER_BOUND('',#120,.T.);
#73=FACE_OUTER_BOUND('',#121,.T.);
#74=FACE_OUTER_BOUND('',#122,.T.);
#75=FACE_OUTER_BOUND('',#123,.T.);
#76=FACE_OUTER_BOUND('',#124,.T.);
#77=FACE_OUTER_BOUND('',#125,.T.);
#78=FACE_OUTER_BOUND('',#126,.T.);
#79=FACE_OUTER_BOUND('',#127,.T.);
#80=FACE_OUTER_BOUND('',#128,.T.);
#81=FACE_OUTER_BOUND('',#129,.T.);
#82=FACE_OUTER_BOUND('',#130,.T.);
#83=FACE_OUTER_BOUND('',#131,.T.);
#84=FACE_OUTER_BOUND('',#132,.T.);
#85=FACE_OUTER_BOUND('',#133,.T.);
#86=FACE_OUTER_BOUND('',#134,.T.);
#87=FACE_OUTER_BOUND('',#135,.T.);
#88=FACE_OUTER_BOUND('',#136,.T.);
#89=EDGE_LOOP('',(#497,#498,#499,#500,#501,#502,#503,#504,#505,#506,#507,
#508));
#90=EDGE_LOOP('',(#509));
#91=EDGE_LOOP('',(#510,#511,#512,#513));
#92=EDGE_LOOP('',(#514,#515,#516,#517));
#93=EDGE_LOOP('',(#518,#519,#520,#521,#522));
#94=EDGE_LOOP('',(#523,#524,#525,#526));
#95=EDGE_LOOP('',(#527,#528,#529,#530,#531,#532,#533));
#96=EDGE_LOOP('',(#534,#535,#536,#537));
#97=EDGE_LOOP('',(#538,#539,#540,#541,#542));
#98=EDGE_LOOP('',(#543,#544,#545,#546));
#99=EDGE_LOOP('',(#547,#548,#549,#550,#551,#552,#553));
#100=EDGE_LOOP('',(#554));
#101=EDGE_LOOP('',(#555,#556,#557,#558,#559,#560));
#102=EDGE_LOOP('',(#561,#562,#563,#564));
#103=EDGE_LOOP('',(#565,#566,#567,#568,#569));
#104=EDGE_LOOP('',(#570,#571,#572,#573,#574));
#105=EDGE_LOOP('',(#575,#576,#577,#578,#579,#580,#581));
#106=EDGE_LOOP('',(#582,#583,#584,#585));
#107=EDGE_LOOP('',(#586,#587,#588,#589,#590));
#108=EDGE_LOOP('',(#591,#592,#593,#594));
#109=EDGE_LOOP('',(#595,#596,#597,#598));
#110=EDGE_LOOP('',(#599,#600,#601,#602,#603,#604,#605,#606,#607,#608,#609,
#610));
#111=EDGE_LOOP('',(#611));
#112=EDGE_LOOP('',(#612,#613,#614,#615));
#113=EDGE_LOOP('',(#616,#617,#618,#619));
#114=EDGE_LOOP('',(#620,#621,#622,#623));
#115=EDGE_LOOP('',(#624,#625,#626,#627));
#116=EDGE_LOOP('',(#628,#629,#630,#631,#632,#633,#634));
#117=EDGE_LOOP('',(#635));
#118=EDGE_LOOP('',(#636,#637,#638,#639));
#119=EDGE_LOOP('',(#640,#641,#642,#643));
#120=EDGE_LOOP('',(#644,#645,#646,#647));
#121=EDGE_LOOP('',(#648,#649,#650,#651,#652,#653));
#122=EDGE_LOOP('',(#654,#655,#656,#657,#658,#659));
#123=EDGE_LOOP('',(#660,#661,#662,#663));
#124=EDGE_LOOP('',(#664,#665,#666,#667));
#125=EDGE_LOOP('',(#668,#669,#670,#671,#672));
#126=EDGE_LOOP('',(#673,#674,#675,#676));
#127=EDGE_LOOP('',(#677,#678,#679,#680));
#128=EDGE_LOOP('',(#681,#682,#683,#684));
#129=EDGE_LOOP('',(#685,#686,#687,#688));
#130=EDGE_LOOP('',(#689,#690,#691,#692));
#131=EDGE_LOOP('',(#693,#694,#695,#696));
#132=EDGE_LOOP('',(#697,#698,#699,#700));
#133=EDGE_LOOP('',(#701,#702,#703,#704));
#134=EDGE_LOOP('',(#705,#706,#707,#708));
#135=EDGE_LOOP('',(#709,#710,#711,#712));
#136=EDGE_LOOP('',(#713,#714,#715,#716));
#137=CIRCLE('',#796,10.);
#138=CIRCLE('',#797,10.);
#139=CIRCLE('',#798,10.);
#140=CIRCLE('',#799,10.);
#141=CIRCLE('',#800,20.);
#142=CIRCLE('',#801,10.);
#143=CIRCLE('',#802,6.50000000000001);
#144=CIRCLE('',#804,3.81);
#145=CIRCLE('',#805,10.11);
#146=CIRCLE('',#808,10.);
#147=CIRCLE('',#811,10.);
#148=CIRCLE('',#812,10.);
#149=CIRCLE('',#814,10.);
#150=CIRCLE('',#817,9.99999999999999);
#151=CIRCLE('',#818,20.);
#152=CIRCLE('',#819,10.);
#153=CIRCLE('',#820,6.49999999999999);
#154=CIRCLE('',#825,10.);
#155=CIRCLE('',#829,10.);
#156=CIRCLE('',#831,20.);
#157=CIRCLE('',#832,10.);
#158=CIRCLE('',#833,10.);
#159=CIRCLE('',#834,10.);
#160=CIRCLE('',#835,6.50000000000001);
#161=CIRCLE('',#841,10.);
#162=CIRCLE('',#842,20.);
#163=CIRCLE('',#843,9.99999999999999);
#164=CIRCLE('',#844,6.49999999999999);
#165=LINE('',#1078,#241);
#166=LINE('',#1080,#242);
#167=LINE('',#1084,#243);
#168=LINE('',#1088,#244);
#169=LINE('',#1092,#245);
#170=LINE('',#1098,#246);
#171=LINE('',#1104,#247);
#172=LINE('',#1108,#248);
#173=LINE('',#1112,#249);
#174=LINE('',#1114,#250);
#175=LINE('',#1121,#251);
#176=LINE('',#1123,#252);
#177=LINE('',#1125,#253);
#178=LINE('',#1128,#254);
#179=LINE('',#1129,#255);
#180=LINE('',#1132,#256);
#181=LINE('',#1136,#257);
#182=LINE('',#1138,#258);
#183=LINE('',#1140,#259);
#184=LINE('',#1144,#260);
#185=LINE('',#1146,#261);
#186=LINE('',#1148,#262);
#187=LINE('',#1149,#263);
#188=LINE('',#1153,#264);
#189=LINE('',#1154,#265);
#190=LINE('',#1156,#266);
#191=LINE('',#1163,#267);
#192=LINE('',#1167,#268);
#193=LINE('',#1169,#269);
#194=LINE('',#1175,#270);
#195=LINE('',#1178,#271);
#196=LINE('',#1199,#272);
#197=LINE('',#1200,#273);
#198=LINE('',#1206,#274);
#199=LINE('',#1208,#275);
#200=LINE('',#1215,#276);
#201=LINE('',#1217,#277);
#202=LINE('',#1224,#278);
#203=LINE('',#1226,#279);
#204=LINE('',#1227,#280);
#205=LINE('',#1228,#281);
#206=LINE('',#1231,#282);
#207=LINE('',#1232,#283);
#208=LINE('',#1234,#284);
#209=LINE('',#1236,#285);
#210=LINE('',#1239,#286);
#211=LINE('',#1242,#287);
#212=LINE('',#1244,#288);
#213=LINE('',#1246,#289);
#214=LINE('',#1247,#290);
#215=LINE('',#1250,#291);
#216=LINE('',#1251,#292);
#217=LINE('',#1259,#293);
#218=LINE('',#1262,#294);
#219=LINE('',#1265,#295);
#220=LINE('',#1270,#296);
#221=LINE('',#1272,#297);
#222=LINE('',#1276,#298);
#223=LINE('',#1281,#299);
#224=LINE('',#1283,#300);
#225=LINE('',#1285,#301);
#226=LINE('',#1286,#302);
#227=LINE('',#1292,#303);
#228=LINE('',#1299,#304);
#229=LINE('',#1301,#305);
#230=LINE('',#1303,#306);
#231=LINE('',#1337,#307);
#232=LINE('',#1339,#308);
#233=LINE('',#1341,#309);
#234=LINE('',#1345,#310);
#235=LINE('',#1347,#311);
#236=LINE('',#1349,#312);
#237=LINE('',#1350,#313);
#238=LINE('',#1352,#314);
#239=LINE('',#1354,#315);
#240=LINE('',#1357,#316);
#241=VECTOR('',#866,10.);
#242=VECTOR('',#867,10.);
#243=VECTOR('',#870,10.);
#244=VECTOR('',#873,10.);
#245=VECTOR('',#876,10.);
#246=VECTOR('',#881,10.);
#247=VECTOR('',#888,10.);
#248=VECTOR('',#891,10.);
#249=VECTOR('',#896,10.);
#250=VECTOR('',#897,10.);
#251=VECTOR('',#900,10.);
#252=VECTOR('',#901,10.);
#253=VECTOR('',#904,10.);
#254=VECTOR('',#907,10.);
#255=VECTOR('',#908,10.);
#256=VECTOR('',#911,10.);
#257=VECTOR('',#914,10.);
#258=VECTOR('',#915,10.);
#259=VECTOR('',#916,10.);
#260=VECTOR('',#919,10.);
#261=VECTOR('',#920,10.);
#262=VECTOR('',#921,10.);
#263=VECTOR('',#922,10.);
#264=VECTOR('',#925,10.);
#265=VECTOR('',#926,10.);
#266=VECTOR('',#927,10.);
#267=VECTOR('',#932,10.);
#268=VECTOR('',#935,10.);
#269=VECTOR('',#936,10.);
#270=VECTOR('',#941,10.);
#271=VECTOR('',#944,10.);
#272=VECTOR('',#947,10.);
#273=VECTOR('',#948,10.);
#274=VECTOR('',#949,10.);
#275=VECTOR('',#950,10.);
#276=VECTOR('',#953,10.);
#277=VECTOR('',#954,10.);
#278=VECTOR('',#957,10.);
#279=VECTOR('',#958,10.);
#280=VECTOR('',#959,10.);
#281=VECTOR('',#960,10.);
#282=VECTOR('',#963,10.);
#283=VECTOR('',#964,9.99999999999999);
#284=VECTOR('',#967,10.);
#285=VECTOR('',#968,10.);
#286=VECTOR('',#971,10.);
#287=VECTOR('',#972,10.);
#288=VECTOR('',#973,10.);
#289=VECTOR('',#974,10.);
#290=VECTOR('',#975,10.);
#291=VECTOR('',#978,10.);
#292=VECTOR('',#979,10.);
#293=VECTOR('',#984,10.);
#294=VECTOR('',#987,10.);
#295=VECTOR('',#990,10.);
#296=VECTOR('',#995,10.);
#297=VECTOR('',#996,10.);
#298=VECTOR('',#999,10.);
#299=VECTOR('',#1006,10.);
#300=VECTOR('',#1009,10.);
#301=VECTOR('',#1012,10.);
#302=VECTOR('',#1013,10.);
#303=VECTOR('',#1020,10.);
#304=VECTOR('',#1029,10.);
#305=VECTOR('',#1032,10.);
#306=VECTOR('',#1035,10.);
#307=VECTOR('',#1038,10.);
#308=VECTOR('',#1041,9.99999999999999);
#309=VECTOR('',#1044,10.);
#310=VECTOR('',#1051,6.50000000000001);
#311=VECTOR('',#1054,6.49999999999999);
#312=VECTOR('',#1057,10.);
#313=VECTOR('',#1058,10.);
#314=VECTOR('',#1061,10.);
#315=VECTOR('',#1064,10.);
#316=VECTOR('',#1069,10.);
#317=VERTEX_POINT('',#1076);
#318=VERTEX_POINT('',#1077);
#319=VERTEX_POINT('',#1079);
#320=VERTEX_POINT('',#1081);
#321=VERTEX_POINT('',#1083);
#322=VERTEX_POINT('',#1085);
#323=VERTEX_POINT('',#1087);
#324=VERTEX_POINT('',#1089);
#325=VERTEX_POINT('',#1091);
#326=VERTEX_POINT('',#1093);
#327=VERTEX_POINT('',#1095);
#328=VERTEX_POINT('',#1097);
#329=VERTEX_POINT('',#1100);
#330=VERTEX_POINT('',#1103);
#331=VERTEX_POINT('',#1105);
#332=VERTEX_POINT('',#1107);
#333=VERTEX_POINT('',#1111);
#334=VERTEX_POINT('',#1113);
#335=VERTEX_POINT('',#1120);
#336=VERTEX_POINT('',#1122);
#337=VERTEX_POINT('',#1127);
#338=VERTEX_POINT('',#1131);
#339=VERTEX_POINT('',#1133);
#340=VERTEX_POINT('',#1135);
#341=VERTEX_POINT('',#1137);
#342=VERTEX_POINT('',#1139);
#343=VERTEX_POINT('',#1142);
#344=VERTEX_POINT('',#1143);
#345=VERTEX_POINT('',#1145);
#346=VERTEX_POINT('',#1147);
#347=VERTEX_POINT('',#1151);
#348=VERTEX_POINT('',#1152);
#349=VERTEX_POINT('',#1155);
#350=VERTEX_POINT('',#1165);
#351=VERTEX_POINT('',#1166);
#352=VERTEX_POINT('',#1168);
#353=VERTEX_POINT('',#1170);
#354=VERTEX_POINT('',#1172);
#355=VERTEX_POINT('',#1174);
#356=VERTEX_POINT('',#1176);
#357=VERTEX_POINT('',#1179);
#358=VERTEX_POINT('',#1197);
#359=VERTEX_POINT('',#1198);
#360=VERTEX_POINT('',#1205);
#361=VERTEX_POINT('',#1207);
#362=VERTEX_POINT('',#1214);
#363=VERTEX_POINT('',#1216);
#364=VERTEX_POINT('',#1223);
#365=VERTEX_POINT('',#1225);
#366=VERTEX_POINT('',#1230);
#367=VERTEX_POINT('',#1235);
#368=VERTEX_POINT('',#1237);
#369=VERTEX_POINT('',#1240);
#370=VERTEX_POINT('',#1241);
#371=VERTEX_POINT('',#1243);
#372=VERTEX_POINT('',#1245);
#373=VERTEX_POINT('',#1249);
#374=VERTEX_POINT('',#1258);
#375=VERTEX_POINT('',#1260);
#376=VERTEX_POINT('',#1264);
#377=VERTEX_POINT('',#1266);
#378=VERTEX_POINT('',#1268);
#379=VERTEX_POINT('',#1271);
#380=VERTEX_POINT('',#1273);
#381=VERTEX_POINT('',#1275);
#382=VERTEX_POINT('',#1278);
#383=VERTEX_POINT('',#1289);
#384=VERTEX_POINT('',#1291);
#385=VERTEX_POINT('',#1293);
#386=VERTEX_POINT('',#1296);
#387=EDGE_CURVE('',#317,#318,#165,.T.);
#388=EDGE_CURVE('',#319,#317,#166,.T.);
#389=EDGE_CURVE('',#319,#320,#137,.T.);
#390=EDGE_CURVE('',#320,#321,#167,.T.);
#391=EDGE_CURVE('',#321,#322,#138,.T.);
#392=EDGE_CURVE('',#323,#322,#168,.T.);
#393=EDGE_CURVE('',#323,#324,#139,.T.);
#394=EDGE_CURVE('',#325,#324,#169,.T.);
#395=EDGE_CURVE('',#325,#326,#140,.T.);
#396=EDGE_CURVE('',#327,#326,#141,.T.);
#397=EDGE_CURVE('',#328,#327,#170,.T.);
#398=EDGE_CURVE('',#328,#318,#142,.T.);
#399=EDGE_CURVE('',#329,#329,#143,.T.);
#400=EDGE_CURVE('',#330,#317,#171,.T.);
#401=EDGE_CURVE('',#317,#331,#144,.T.);
#402=EDGE_CURVE('',#332,#331,#172,.T.);
#403=EDGE_CURVE('',#330,#332,#145,.T.);
#404=EDGE_CURVE('',#333,#330,#173,.T.);
#405=EDGE_CURVE('',#334,#332,#174,.T.);
#406=EDGE_CURVE('',#334,#333,#18,.T.);
#407=EDGE_CURVE('',#318,#335,#175,.T.);
#408=EDGE_CURVE('',#336,#328,#176,.T.);
#409=EDGE_CURVE('',#333,#336,#146,.T.);
#410=EDGE_CURVE('',#335,#333,#177,.T.);
#411=EDGE_CURVE('',#337,#330,#178,.T.);
#412=EDGE_CURVE('',#337,#319,#179,.T.);
#413=EDGE_CURVE('',#332,#338,#180,.T.);
#414=EDGE_CURVE('',#338,#339,#147,.T.);
#415=EDGE_CURVE('',#339,#340,#181,.T.);
#416=EDGE_CURVE('',#340,#341,#182,.T.);
#417=EDGE_CURVE('',#342,#341,#183,.T.);
#418=EDGE_CURVE('',#342,#334,#148,.T.);
#419=EDGE_CURVE('',#343,#344,#184,.T.);
#420=EDGE_CURVE('',#344,#345,#185,.T.);
#421=EDGE_CURVE('',#345,#346,#186,.T.);
#422=EDGE_CURVE('',#346,#343,#187,.T.);
#423=EDGE_CURVE('',#347,#348,#188,.T.);
#424=EDGE_CURVE('',#348,#334,#189,.T.);
#425=EDGE_CURVE('',#349,#342,#190,.T.);
#426=EDGE_CURVE('',#347,#349,#149,.T.);
#427=EDGE_CURVE('',#318,#347,#19,.T.);
#428=EDGE_CURVE('',#331,#347,#191,.T.);
#429=EDGE_CURVE('',#350,#351,#192,.T.);
#430=EDGE_CURVE('',#350,#352,#193,.T.);
#431=EDGE_CURVE('',#352,#353,#150,.T.);
#432=EDGE_CURVE('',#353,#354,#151,.T.);
#433=EDGE_CURVE('',#355,#354,#194,.T.);
#434=EDGE_CURVE('',#355,#356,#152,.T.);
#435=EDGE_CURVE('',#351,#356,#195,.T.);
#436=EDGE_CURVE('',#357,#357,#153,.T.);
#437=EDGE_CURVE('',#358,#359,#196,.T.);
#438=EDGE_CURVE('',#359,#350,#197,.T.);
#439=EDGE_CURVE('',#340,#350,#20,.T.);
#440=EDGE_CURVE('',#360,#340,#198,.T.);
#441=EDGE_CURVE('',#361,#360,#199,.T.);
#442=EDGE_CURVE('',#358,#361,#21,.T.);
#443=EDGE_CURVE('',#362,#358,#200,.T.);
#444=EDGE_CURVE('',#363,#361,#201,.T.);
#445=EDGE_CURVE('',#362,#363,#22,.T.);
#446=EDGE_CURVE('',#351,#364,#202,.T.);
#447=EDGE_CURVE('',#356,#365,#203,.T.);
#448=EDGE_CURVE('',#365,#362,#204,.T.);
#449=EDGE_CURVE('',#364,#362,#205,.T.);
#450=EDGE_CURVE('',#366,#358,#206,.T.);
#451=EDGE_CURVE('',#366,#352,#207,.T.);
#452=EDGE_CURVE('',#363,#349,#208,.T.);
#453=EDGE_CURVE('',#361,#367,#209,.T.);
#454=EDGE_CURVE('',#367,#368,#154,.T.);
#455=EDGE_CURVE('',#331,#368,#210,.T.);
#456=EDGE_CURVE('',#369,#370,#211,.T.);
#457=EDGE_CURVE('',#371,#369,#212,.T.);
#458=EDGE_CURVE('',#372,#371,#213,.T.);
#459=EDGE_CURVE('',#370,#372,#214,.T.);
#460=EDGE_CURVE('',#341,#373,#215,.T.);
#461=EDGE_CURVE('',#373,#363,#216,.T.);
#462=EDGE_CURVE('',#341,#351,#23,.T.);
#463=EDGE_CURVE('',#374,#323,#217,.T.);
#464=EDGE_CURVE('',#375,#374,#155,.T.);
#465=EDGE_CURVE('',#324,#375,#218,.T.);
#466=EDGE_CURVE('',#336,#376,#219,.T.);
#467=EDGE_CURVE('',#376,#377,#156,.T.);
#468=EDGE_CURVE('',#377,#378,#157,.T.);
#469=EDGE_CURVE('',#378,#375,#220,.T.);
#470=EDGE_CURVE('',#374,#379,#221,.T.);
#471=EDGE_CURVE('',#379,#380,#158,.T.);
#472=EDGE_CURVE('',#380,#381,#222,.T.);
#473=EDGE_CURVE('',#381,#337,#159,.T.);
#474=EDGE_CURVE('',#382,#382,#160,.T.);
#475=EDGE_CURVE('',#378,#325,#223,.T.);
#476=EDGE_CURVE('',#326,#377,#224,.T.);
#477=EDGE_CURVE('',#322,#379,#225,.T.);
#478=EDGE_CURVE('',#380,#321,#226,.T.);
#479=EDGE_CURVE('',#365,#383,#161,.T.);
#480=EDGE_CURVE('',#384,#383,#227,.T.);
#481=EDGE_CURVE('',#385,#384,#162,.T.);
#482=EDGE_CURVE('',#385,#366,#163,.T.);
#483=EDGE_CURVE('',#386,#386,#164,.T.);
#484=EDGE_CURVE('',#320,#381,#228,.T.);
#485=EDGE_CURVE('',#368,#338,#229,.T.);
#486=EDGE_CURVE('',#383,#355,#230,.T.);
#487=EDGE_CURVE('',#376,#327,#231,.T.);
#488=EDGE_CURVE('',#353,#385,#232,.T.);
#489=EDGE_CURVE('',#339,#367,#233,.T.);
#490=EDGE_CURVE('',#329,#382,#234,.T.);
#491=EDGE_CURVE('',#386,#357,#235,.T.);
#492=EDGE_CURVE('',#346,#371,#236,.T.);
#493=EDGE_CURVE('',#343,#369,#237,.T.);
#494=EDGE_CURVE('',#345,#372,#238,.T.);
#495=EDGE_CURVE('',#344,#370,#239,.T.);
#496=EDGE_CURVE('',#354,#384,#240,.T.);
#497=ORIENTED_EDGE('',*,*,#387,.F.);
#498=ORIENTED_EDGE('',*,*,#388,.F.);
#499=ORIENTED_EDGE('',*,*,#389,.T.);
#500=ORIENTED_EDGE('',*,*,#390,.T.);
#501=ORIENTED_EDGE('',*,*,#391,.T.);
#502=ORIENTED_EDGE('',*,*,#392,.F.);
#503=ORIENTED_EDGE('',*,*,#393,.T.);
#504=ORIENTED_EDGE('',*,*,#394,.F.);
#505=ORIENTED_EDGE('',*,*,#395,.T.);
#506=ORIENTED_EDGE('',*,*,#396,.F.);
#507=ORIENTED_EDGE('',*,*,#397,.F.);
#508=ORIENTED_EDGE('',*,*,#398,.T.);
#509=ORIENTED_EDGE('',*,*,#399,.F.);
#510=ORIENTED_EDGE('',*,*,#400,.T.);
#511=ORIENTED_EDGE('',*,*,#401,.T.);
#512=ORIENTED_EDGE('',*,*,#402,.F.);
#513=ORIENTED_EDGE('',*,*,#403,.F.);
#514=ORIENTED_EDGE('',*,*,#404,.T.);
#515=ORIENTED_EDGE('',*,*,#403,.T.);
#516=ORIENTED_EDGE('',*,*,#405,.F.);
#517=ORIENTED_EDGE('',*,*,#406,.T.);
#518=ORIENTED_EDGE('',*,*,#407,.F.);
#519=ORIENTED_EDGE('',*,*,#398,.F.);
#520=ORIENTED_EDGE('',*,*,#408,.F.);
#521=ORIENTED_EDGE('',*,*,#409,.F.);
#522=ORIENTED_EDGE('',*,*,#410,.F.);
#523=ORIENTED_EDGE('',*,*,#400,.F.);
#524=ORIENTED_EDGE('',*,*,#411,.F.);
#525=ORIENTED_EDGE('',*,*,#412,.T.);
#526=ORIENTED_EDGE('',*,*,#388,.T.);
#527=ORIENTED_EDGE('',*,*,#405,.T.);
#528=ORIENTED_EDGE('',*,*,#413,.T.);
#529=ORIENTED_EDGE('',*,*,#414,.T.);
#530=ORIENTED_EDGE('',*,*,#415,.T.);
#531=ORIENTED_EDGE('',*,*,#416,.T.);
#532=ORIENTED_EDGE('',*,*,#417,.F.);
#533=ORIENTED_EDGE('',*,*,#418,.T.);
#534=ORIENTED_EDGE('',*,*,#419,.T.);
#535=ORIENTED_EDGE('',*,*,#420,.T.);
#536=ORIENTED_EDGE('',*,*,#421,.T.);
#537=ORIENTED_EDGE('',*,*,#422,.T.);
#538=ORIENTED_EDGE('',*,*,#423,.T.);
#539=ORIENTED_EDGE('',*,*,#424,.T.);
#540=ORIENTED_EDGE('',*,*,#418,.F.);
#541=ORIENTED_EDGE('',*,*,#425,.F.);
#542=ORIENTED_EDGE('',*,*,#426,.F.);
#543=ORIENTED_EDGE('',*,*,#387,.T.);
#544=ORIENTED_EDGE('',*,*,#427,.T.);
#545=ORIENTED_EDGE('',*,*,#428,.F.);
#546=ORIENTED_EDGE('',*,*,#401,.F.);
#547=ORIENTED_EDGE('',*,*,#429,.F.);
#548=ORIENTED_EDGE('',*,*,#430,.T.);
#549=ORIENTED_EDGE('',*,*,#431,.T.);
#550=ORIENTED_EDGE('',*,*,#432,.T.);
#551=ORIENTED_EDGE('',*,*,#433,.F.);
#552=ORIENTED_EDGE('',*,*,#434,.T.);
#553=ORIENTED_EDGE('',*,*,#435,.F.);
#554=ORIENTED_EDGE('',*,*,#436,.T.);
#555=ORIENTED_EDGE('',*,*,#437,.T.);
#556=ORIENTED_EDGE('',*,*,#438,.T.);
#557=ORIENTED_EDGE('',*,*,#439,.F.);
#558=ORIENTED_EDGE('',*,*,#440,.F.);
#559=ORIENTED_EDGE('',*,*,#441,.F.);
#560=ORIENTED_EDGE('',*,*,#442,.F.);
#561=ORIENTED_EDGE('',*,*,#443,.T.);
#562=ORIENTED_EDGE('',*,*,#442,.T.);
#563=ORIENTED_EDGE('',*,*,#444,.F.);
#564=ORIENTED_EDGE('',*,*,#445,.F.);
#565=ORIENTED_EDGE('',*,*,#446,.F.);
#566=ORIENTED_EDGE('',*,*,#435,.T.);
#567=ORIENTED_EDGE('',*,*,#447,.T.);
#568=ORIENTED_EDGE('',*,*,#448,.T.);
#569=ORIENTED_EDGE('',*,*,#449,.F.);
#570=ORIENTED_EDGE('',*,*,#437,.F.);
#571=ORIENTED_EDGE('',*,*,#450,.F.);
#572=ORIENTED_EDGE('',*,*,#451,.T.);
#573=ORIENTED_EDGE('',*,*,#430,.F.);
#574=ORIENTED_EDGE('',*,*,#438,.F.);
#575=ORIENTED_EDGE('',*,*,#428,.T.);
#576=ORIENTED_EDGE('',*,*,#426,.T.);
#577=ORIENTED_EDGE('',*,*,#452,.F.);
#578=ORIENTED_EDGE('',*,*,#444,.T.);
#579=ORIENTED_EDGE('',*,*,#453,.T.);
#580=ORIENTED_EDGE('',*,*,#454,.T.);
#581=ORIENTED_EDGE('',*,*,#455,.F.);
#582=ORIENTED_EDGE('',*,*,#456,.F.);
#583=ORIENTED_EDGE('',*,*,#457,.F.);
#584=ORIENTED_EDGE('',*,*,#458,.F.);
#585=ORIENTED_EDGE('',*,*,#459,.F.);
#586=ORIENTED_EDGE('',*,*,#460,.T.);
#587=ORIENTED_EDGE('',*,*,#461,.T.);
#588=ORIENTED_EDGE('',*,*,#452,.T.);
#589=ORIENTED_EDGE('',*,*,#425,.T.);
#590=ORIENTED_EDGE('',*,*,#417,.T.);
#591=ORIENTED_EDGE('',*,*,#429,.T.);
#592=ORIENTED_EDGE('',*,*,#462,.F.);
#593=ORIENTED_EDGE('',*,*,#416,.F.);
#594=ORIENTED_EDGE('',*,*,#439,.T.);
#595=ORIENTED_EDGE('',*,*,#393,.F.);
#596=ORIENTED_EDGE('',*,*,#463,.F.);
#597=ORIENTED_EDGE('',*,*,#464,.F.);
#598=ORIENTED_EDGE('',*,*,#465,.F.);
#599=ORIENTED_EDGE('',*,*,#404,.F.);
#600=ORIENTED_EDGE('',*,*,#409,.T.);
#601=ORIENTED_EDGE('',*,*,#466,.T.);
#602=ORIENTED_EDGE('',*,*,#467,.T.);
#603=ORIENTED_EDGE('',*,*,#468,.T.);
#604=ORIENTED_EDGE('',*,*,#469,.T.);
#605=ORIENTED_EDGE('',*,*,#464,.T.);
#606=ORIENTED_EDGE('',*,*,#470,.T.);
#607=ORIENTED_EDGE('',*,*,#471,.T.);
#608=ORIENTED_EDGE('',*,*,#472,.T.);
#609=ORIENTED_EDGE('',*,*,#473,.T.);
#610=ORIENTED_EDGE('',*,*,#411,.T.);
#611=ORIENTED_EDGE('',*,*,#474,.T.);
#612=ORIENTED_EDGE('',*,*,#465,.T.);
#613=ORIENTED_EDGE('',*,*,#469,.F.);
#614=ORIENTED_EDGE('',*,*,#475,.T.);
#615=ORIENTED_EDGE('',*,*,#394,.T.);
#616=ORIENTED_EDGE('',*,*,#395,.F.);
#617=ORIENTED_EDGE('',*,*,#475,.F.);
#618=ORIENTED_EDGE('',*,*,#468,.F.);
#619=ORIENTED_EDGE('',*,*,#476,.F.);
#620=ORIENTED_EDGE('',*,*,#471,.F.);
#621=ORIENTED_EDGE('',*,*,#477,.F.);
#622=ORIENTED_EDGE('',*,*,#391,.F.);
#623=ORIENTED_EDGE('',*,*,#478,.F.);
#624=ORIENTED_EDGE('',*,*,#463,.T.);
#625=ORIENTED_EDGE('',*,*,#392,.T.);
#626=ORIENTED_EDGE('',*,*,#477,.T.);
#627=ORIENTED_EDGE('',*,*,#470,.F.);
#628=ORIENTED_EDGE('',*,*,#443,.F.);
#629=ORIENTED_EDGE('',*,*,#448,.F.);
#630=ORIENTED_EDGE('',*,*,#479,.T.);
#631=ORIENTED_EDGE('',*,*,#480,.F.);
#632=ORIENTED_EDGE('',*,*,#481,.F.);
#633=ORIENTED_EDGE('',*,*,#482,.T.);
#634=ORIENTED_EDGE('',*,*,#450,.T.);
#635=ORIENTED_EDGE('',*,*,#483,.F.);
#636=ORIENTED_EDGE('',*,*,#389,.F.);
#637=ORIENTED_EDGE('',*,*,#412,.F.);
#638=ORIENTED_EDGE('',*,*,#473,.F.);
#639=ORIENTED_EDGE('',*,*,#484,.F.);
#640=ORIENTED_EDGE('',*,*,#402,.T.);
#641=ORIENTED_EDGE('',*,*,#455,.T.);
#642=ORIENTED_EDGE('',*,*,#485,.T.);
#643=ORIENTED_EDGE('',*,*,#413,.F.);
#644=ORIENTED_EDGE('',*,*,#434,.F.);
#645=ORIENTED_EDGE('',*,*,#486,.F.);
#646=ORIENTED_EDGE('',*,*,#479,.F.);
#647=ORIENTED_EDGE('',*,*,#447,.F.);
#648=ORIENTED_EDGE('',*,*,#446,.T.);
#649=ORIENTED_EDGE('',*,*,#449,.T.);
#650=ORIENTED_EDGE('',*,*,#445,.T.);
#651=ORIENTED_EDGE('',*,*,#461,.F.);
#652=ORIENTED_EDGE('',*,*,#460,.F.);
#653=ORIENTED_EDGE('',*,*,#462,.T.);
#654=ORIENTED_EDGE('',*,*,#407,.T.);
#655=ORIENTED_EDGE('',*,*,#410,.T.);
#656=ORIENTED_EDGE('',*,*,#406,.F.);
#657=ORIENTED_EDGE('',*,*,#424,.F.);
#658=ORIENTED_EDGE('',*,*,#423,.F.);
#659=ORIENTED_EDGE('',*,*,#427,.F.);
#660=ORIENTED_EDGE('',*,*,#408,.T.);
#661=ORIENTED_EDGE('',*,*,#397,.T.);
#662=ORIENTED_EDGE('',*,*,#487,.F.);
#663=ORIENTED_EDGE('',*,*,#466,.F.);
#664=ORIENTED_EDGE('',*,*,#431,.F.);
#665=ORIENTED_EDGE('',*,*,#451,.F.);
#666=ORIENTED_EDGE('',*,*,#482,.F.);
#667=ORIENTED_EDGE('',*,*,#488,.F.);
#668=ORIENTED_EDGE('',*,*,#441,.T.);
#669=ORIENTED_EDGE('',*,*,#440,.T.);
#670=ORIENTED_EDGE('',*,*,#415,.F.);
#671=ORIENTED_EDGE('',*,*,#489,.T.);
#672=ORIENTED_EDGE('',*,*,#453,.F.);
#673=ORIENTED_EDGE('',*,*,#414,.F.);
#674=ORIENTED_EDGE('',*,*,#485,.F.);
#675=ORIENTED_EDGE('',*,*,#454,.F.);
#676=ORIENTED_EDGE('',*,*,#489,.F.);
#677=ORIENTED_EDGE('',*,*,#478,.T.);
#678=ORIENTED_EDGE('',*,*,#390,.F.);
#679=ORIENTED_EDGE('',*,*,#484,.T.);
#680=ORIENTED_EDGE('',*,*,#472,.F.);
#681=ORIENTED_EDGE('',*,*,#399,.T.);
#682=ORIENTED_EDGE('',*,*,#490,.T.);
#683=ORIENTED_EDGE('',*,*,#474,.F.);
#684=ORIENTED_EDGE('',*,*,#490,.F.);
#685=ORIENTED_EDGE('',*,*,#483,.T.);
#686=ORIENTED_EDGE('',*,*,#491,.T.);
#687=ORIENTED_EDGE('',*,*,#436,.F.);
#688=ORIENTED_EDGE('',*,*,#491,.F.);
#689=ORIENTED_EDGE('',*,*,#422,.F.);
#690=ORIENTED_EDGE('',*,*,#492,.T.);
#691=ORIENTED_EDGE('',*,*,#457,.T.);
#692=ORIENTED_EDGE('',*,*,#493,.F.);
#693=ORIENTED_EDGE('',*,*,#421,.F.);
#694=ORIENTED_EDGE('',*,*,#494,.T.);
#695=ORIENTED_EDGE('',*,*,#458,.T.);
#696=ORIENTED_EDGE('',*,*,#492,.F.);
#697=ORIENTED_EDGE('',*,*,#420,.F.);
#698=ORIENTED_EDGE('',*,*,#495,.T.);
#699=ORIENTED_EDGE('',*,*,#459,.T.);
#700=ORIENTED_EDGE('',*,*,#494,.F.);
#701=ORIENTED_EDGE('',*,*,#419,.F.);
#702=ORIENTED_EDGE('',*,*,#493,.T.);
#703=ORIENTED_EDGE('',*,*,#456,.T.);
#704=ORIENTED_EDGE('',*,*,#495,.F.);
#705=ORIENTED_EDGE('',*,*,#486,.T.);
#706=ORIENTED_EDGE('',*,*,#433,.T.);
#707=ORIENTED_EDGE('',*,*,#496,.T.);
#708=ORIENTED_EDGE('',*,*,#480,.T.);
#709=ORIENTED_EDGE('',*,*,#488,.T.);
#710=ORIENTED_EDGE('',*,*,#481,.T.);
#711=ORIENTED_EDGE('',*,*,#496,.F.);
#712=ORIENTED_EDGE('',*,*,#432,.F.);
#713=ORIENTED_EDGE('',*,*,#476,.T.);
#714=ORIENTED_EDGE('',*,*,#467,.F.);
#715=ORIENTED_EDGE('',*,*,#487,.T.);
#716=ORIENTED_EDGE('',*,*,#396,.T.);
#717=PLANE('',#795);
#718=PLANE('',#803);
#719=PLANE('',#809);
#720=PLANE('',#810);
#721=PLANE('',#816);
#722=PLANE('',#822);
#723=PLANE('',#823);
#724=PLANE('',#824);
#725=PLANE('',#826);
#726=PLANE('',#830);
#727=PLANE('',#836);
#728=PLANE('',#839);
#729=PLANE('',#840);
#730=PLANE('',#846);
#731=PLANE('',#848);
#732=PLANE('',#850);
#733=PLANE('',#852);
#734=PLANE('',#855);
#735=PLANE('',#856);
#736=PLANE('',#857);
#737=PLANE('',#858);
#738=PLANE('',#859);
#739=ADVANCED_FACE('',(#47,#41),#717,.F.);
#740=ADVANCED_FACE('',(#48),#718,.F.);
#741=ADVANCED_FACE('',(#49),#24,.T.);
#742=ADVANCED_FACE('',(#50),#25,.F.);
#743=ADVANCED_FACE('',(#51),#719,.F.);
#744=ADVANCED_FACE('',(#52,#42),#720,.T.);
#745=ADVANCED_FACE('',(#53),#26,.F.);
#746=ADVANCED_FACE('',(#54),#27,.F.);
#747=ADVANCED_FACE('',(#55,#43),#721,.T.);
#748=ADVANCED_FACE('',(#56),#15,.F.);
#749=ADVANCED_FACE('',(#57),#28,.T.);
#750=ADVANCED_FACE('',(#58),#722,.F.);
#751=ADVANCED_FACE('',(#59),#723,.F.);
#752=ADVANCED_FACE('',(#60,#44),#724,.F.);
#753=ADVANCED_FACE('',(#61),#725,.F.);
#754=ADVANCED_FACE('',(#62),#29,.F.);
#755=ADVANCED_FACE('',(#63),#30,.T.);
#756=ADVANCED_FACE('',(#64,#45),#726,.T.);
#757=ADVANCED_FACE('',(#65),#727,.F.);
#758=ADVANCED_FACE('',(#66),#31,.T.);
#759=ADVANCED_FACE('',(#67),#32,.T.);
#760=ADVANCED_FACE('',(#68),#728,.F.);
#761=ADVANCED_FACE('',(#69,#46),#729,.F.);
#762=ADVANCED_FACE('',(#70),#33,.T.);
#763=ADVANCED_FACE('',(#71),#730,.F.);
#764=ADVANCED_FACE('',(#72),#34,.F.);
#765=ADVANCED_FACE('',(#73),#16,.F.);
#766=ADVANCED_FACE('',(#74),#17,.F.);
#767=ADVANCED_FACE('',(#75),#731,.F.);
#768=ADVANCED_FACE('',(#76),#35,.T.);
#769=ADVANCED_FACE('',(#77),#732,.F.);
#770=ADVANCED_FACE('',(#78),#36,.T.);
#771=ADVANCED_FACE('',(#79),#733,.F.);
#772=ADVANCED_FACE('',(#80),#37,.F.);
#773=ADVANCED_FACE('',(#81),#38,.F.);
#774=ADVANCED_FACE('',(#82),#734,.F.);
#775=ADVANCED_FACE('',(#83),#735,.F.);
#776=ADVANCED_FACE('',(#84),#736,.F.);
#777=ADVANCED_FACE('',(#85),#737,.F.);
#778=ADVANCED_FACE('',(#86),#738,.F.);
#779=ADVANCED_FACE('',(#87),#39,.T.);
#780=ADVANCED_FACE('',(#88),#40,.T.);
#781=CLOSED_SHELL('',(#739,#740,#741,#742,#743,#744,#745,#746,#747,#748,
#749,#750,#751,#752,#753,#754,#755,#756,#757,#758,#759,#760,#761,#762,#763,
#764,#765,#766,#767,#768,#769,#770,#771,#772,#773,#774,#775,#776,#777,#778,
#779,#780));
#782=DERIVED_UNIT_ELEMENT(#784,1.);
#783=DERIVED_UNIT_ELEMENT(#1365,-3.);
#784=(
MASS_UNIT()
NAMED_UNIT(*)
SI_UNIT(.KILO.,.GRAM.)
);
#785=DERIVED_UNIT((#782,#783));
#786=MEASURE_REPRESENTATION_ITEM('density measure',
POSITIVE_RATIO_MEASURE(7850.),#785);
#787=PROPERTY_DEFINITION_REPRESENTATION(#792,#789);
#788=PROPERTY_DEFINITION_REPRESENTATION(#793,#790);
#789=REPRESENTATION('material name',(#791),#1362);
#790=REPRESENTATION('density',(#786),#1362);
#791=DESCRIPTIVE_REPRESENTATION_ITEM('Steel','Steel');
#792=PROPERTY_DEFINITION('material property','material name',#1372);
#793=PROPERTY_DEFINITION('material property','density of part',#1372);
#794=AXIS2_PLACEMENT_3D('',#1074,#862,#863);
#795=AXIS2_PLACEMENT_3D('',#1075,#864,#865);
#796=AXIS2_PLACEMENT_3D('',#1082,#868,#869);
#797=AXIS2_PLACEMENT_3D('',#1086,#871,#872);
#798=AXIS2_PLACEMENT_3D('',#1090,#874,#875);
#799=AXIS2_PLACEMENT_3D('',#1094,#877,#878);
#800=AXIS2_PLACEMENT_3D('',#1096,#879,#880);
#801=AXIS2_PLACEMENT_3D('',#1099,#882,#883);
#802=AXIS2_PLACEMENT_3D('',#1101,#884,#885);
#803=AXIS2_PLACEMENT_3D('',#1102,#886,#887);
#804=AXIS2_PLACEMENT_3D('',#1106,#889,#890);
#805=AXIS2_PLACEMENT_3D('',#1109,#892,#893);
#806=AXIS2_PLACEMENT_3D('',#1110,#894,#895);
#807=AXIS2_PLACEMENT_3D('',#1119,#898,#899);
#808=AXIS2_PLACEMENT_3D('',#1124,#902,#903);
#809=AXIS2_PLACEMENT_3D('',#1126,#905,#906);
#810=AXIS2_PLACEMENT_3D('',#1130,#909,#910);
#811=AXIS2_PLACEMENT_3D('',#1134,#912,#913);
#812=AXIS2_PLACEMENT_3D('',#1141,#917,#918);
#813=AXIS2_PLACEMENT_3D('',#1150,#923,#924);
#814=AXIS2_PLACEMENT_3D('',#1157,#928,#929);
#815=AXIS2_PLACEMENT_3D('',#1158,#930,#931);
#816=AXIS2_PLACEMENT_3D('',#1164,#933,#934);
#817=AXIS2_PLACEMENT_3D('',#1171,#937,#938);
#818=AXIS2_PLACEMENT_3D('',#1173,#939,#940);
#819=AXIS2_PLACEMENT_3D('',#1177,#942,#943);
#820=AXIS2_PLACEMENT_3D('',#1180,#945,#946);
#821=AXIS2_PLACEMENT_3D('',#1213,#951,#952);
#822=AXIS2_PLACEMENT_3D('',#1222,#955,#956);
#823=AXIS2_PLACEMENT_3D('',#1229,#961,#962);
#824=AXIS2_PLACEMENT_3D('',#1233,#965,#966);
#825=AXIS2_PLACEMENT_3D('',#1238,#969,#970);
#826=AXIS2_PLACEMENT_3D('',#1248,#976,#977);
#827=AXIS2_PLACEMENT_3D('',#1252,#980,#981);
#828=AXIS2_PLACEMENT_3D('',#1257,#982,#983);
#829=AXIS2_PLACEMENT_3D('',#1261,#985,#986);
#830=AXIS2_PLACEMENT_3D('',#1263,#988,#989);
#831=AXIS2_PLACEMENT_3D('',#1267,#991,#992);
#832=AXIS2_PLACEMENT_3D('',#1269,#993,#994);
#833=AXIS2_PLACEMENT_3D('',#1274,#997,#998);
#834=AXIS2_PLACEMENT_3D('',#1277,#1000,#1001);
#835=AXIS2_PLACEMENT_3D('',#1279,#1002,#1003);
#836=AXIS2_PLACEMENT_3D('',#1280,#1004,#1005);
#837=AXIS2_PLACEMENT_3D('',#1282,#1007,#1008);
#838=AXIS2_PLACEMENT_3D('',#1284,#1010,#1011);
#839=AXIS2_PLACEMENT_3D('',#1287,#1014,#1015);
#840=AXIS2_PLACEMENT_3D('',#1288,#1016,#1017);
#841=AXIS2_PLACEMENT_3D('',#1290,#1018,#1019);
#842=AXIS2_PLACEMENT_3D('',#1294,#1021,#1022);
#843=AXIS2_PLACEMENT_3D('',#1295,#1023,#1024);
#844=AXIS2_PLACEMENT_3D('',#1297,#1025,#1026);
#845=AXIS2_PLACEMENT_3D('',#1298,#1027,#1028);
#846=AXIS2_PLACEMENT_3D('',#1300,#1030,#1031);
#847=AXIS2_PLACEMENT_3D('',#1302,#1033,#1034);
#848=AXIS2_PLACEMENT_3D('',#1336,#1036,#1037);
#849=AXIS2_PLACEMENT_3D('',#1338,#1039,#1040);
#850=AXIS2_PLACEMENT_3D('',#1340,#1042,#1043);
#851=AXIS2_PLACEMENT_3D('',#1342,#1045,#1046);
#852=AXIS2_PLACEMENT_3D('',#1343,#1047,#1048);
#853=AXIS2_PLACEMENT_3D('',#1344,#1049,#1050);
#854=AXIS2_PLACEMENT_3D('',#1346,#1052,#1053);
#855=AXIS2_PLACEMENT_3D('',#1348,#1055,#1056);
#856=AXIS2_PLACEMENT_3D('',#1351,#1059,#1060);
#857=AXIS2_PLACEMENT_3D('',#1353,#1062,#1063);
#858=AXIS2_PLACEMENT_3D('',#1355,#1065,#1066);
#859=AXIS2_PLACEMENT_3D('',#1356,#1067,#1068);
#860=AXIS2_PLACEMENT_3D('',#1358,#1070,#1071);
#861=AXIS2_PLACEMENT_3D('',#1359,#1072,#1073);
#862=DIRECTION('axis',(0.,0.,1.));
#863=DIRECTION('refdir',(1.,0.,0.));
#864=DIRECTION('center_axis',(-0.0871557427476581,7.17976357464779E-15,
0.996194698091746));
#865=DIRECTION('ref_axis',(0.996194698091746,3.13475247529305E-16,0.0871557427476581));
#866=DIRECTION('',(8.2382680670026E-14,1.,3.61524400952036E-19));
#867=DIRECTION('',(0.996194698091746,3.64129020868642E-14,0.0871557427476581));
#868=DIRECTION('center_axis',(0.0871557427476581,-7.17976357464779E-15,
-0.996194698091746));
#869=DIRECTION('ref_axis',(-0.299561523151492,-0.95371695074826,-0.0262082373043073));
#870=DIRECTION('',(-0.816034923451814,0.573576436350895,-0.0713938048432829));
#871=DIRECTION('center_axis',(0.0871557427476581,-7.17976357464779E-15,
-0.996194698091746));
#872=DIRECTION('ref_axis',(-0.79033439131145,-0.608761429008793,-0.0691452996344089));
#873=DIRECTION('',(0.340718653421609,-0.939692620785909,0.0298090196262158));
#874=DIRECTION('center_axis',(0.0871557427476581,-7.17976357464779E-15,
-0.996194698091746));
#875=DIRECTION('ref_axis',(-0.981060262190407,-0.17364817766693,-0.08583165117743));
#876=DIRECTION('',(-3.13475247529305E-16,-1.,7.17976357464779E-15));
#877=DIRECTION('center_axis',(0.0871557427476581,-7.17976357464779E-15,
-0.996194698091746));
#878=DIRECTION('ref_axis',(-0.897276553126977,0.434433306221086,-0.07850152644623));
#879=DIRECTION('center_axis',(-0.0871557427476581,7.17976357464779E-15,
0.996194698091746));
#880=DIRECTION('ref_axis',(0.996194698091746,3.13475247529305E-16,0.0871557427476581));
#881=DIRECTION('',(-0.257834160496215,0.965925826289091,-0.0225575661131493));
#882=DIRECTION('center_axis',(-0.0871557427476581,7.17976357464779E-15,
0.996194698091746));
#883=DIRECTION('ref_axis',(-0.606444907981162,-0.793353340291298,-0.053057054501368));
#884=DIRECTION('center_axis',(0.0871557427476581,-7.17976357464779E-15,
-0.996194698091746));
#885=DIRECTION('ref_axis',(0.996194698091745,3.13475247529305E-16,0.0871557427476581));
#886=DIRECTION('center_axis',(8.23785484272144E-14,1.,0.));
#887=DIRECTION('ref_axis',(0.,0.,1.));
#888=DIRECTION('',(0.0871557427476581,-7.17976357464779E-15,-0.996194698091746));
#889=DIRECTION('center_axis',(8.23785484272144E-14,1.,0.));
#890=DIRECTION('ref_axis',(-0.0871557427476585,6.99353086378051E-15,0.996194698091746));
#891=DIRECTION('',(0.,0.,-1.));
#892=DIRECTION('center_axis',(8.23785484272144E-14,1.,0.));
#893=DIRECTION('ref_axis',(-0.0871557427476579,7.24774674829479E-15,0.996194698091745));
#894=DIRECTION('center_axis',(-8.23785484272144E-14,-1.,0.));
#895=DIRECTION('ref_axis',(0.,0.,1.));
#896=DIRECTION('',(-8.2382680670026E-14,-1.,-3.61524400952036E-19));
#897=DIRECTION('',(-8.23826964545222E-14,-1.,0.));
#898=DIRECTION('center_axis',(-0.0871557427476581,7.17976357464779E-15,
0.996194698091746));
#899=DIRECTION('ref_axis',(-0.606444907981162,-0.793353340291298,-0.053057054501368));
#900=DIRECTION('',(-0.0871557427476581,7.17976357464779E-15,0.996194698091746));
#901=DIRECTION('',(0.0871557427476581,-7.17976357464779E-15,-0.996194698091746));
#902=DIRECTION('center_axis',(0.0871557427476581,-7.17976357464779E-15,
-0.996194698091746));
#903=DIRECTION('ref_axis',(-0.606444907981162,-0.793353340291298,-0.053057054501368));
#904=DIRECTION('',(-0.0871557427476581,7.17976357464779E-15,0.996194698091746));
#905=DIRECTION('center_axis',(-3.5648582373967E-14,1.,-1.03260359335948E-14));
#906=DIRECTION('ref_axis',(0.996194698091746,3.64129020868642E-14,0.0871557427476581));
#907=DIRECTION('',(0.996194698091746,3.64129020868642E-14,0.0871557427476581));
#908=DIRECTION('',(0.0871557427476581,-7.17976357464779E-15,-0.996194698091746));
#909=DIRECTION('center_axis',(0.,0.,1.));
#910=DIRECTION('ref_axis',(1.,0.,0.));
#911=DIRECTION('',(1.,3.60994268393349E-14,0.));
#912=DIRECTION('center_axis',(0.,0.,1.));
#913=DIRECTION('ref_axis',(0.130526192219959,-0.991444861373822,0.));
#914=DIRECTION('',(0.965925826289126,0.258819045102306,0.));
#915=DIRECTION('',(-0.342020143325592,0.939692620785936,0.));
#916=DIRECTION('',(1.,2.92388335765281E-13,0.));
#917=DIRECTION('center_axis',(0.,0.,-1.));
#918=DIRECTION('ref_axis',(-0.60876142900864,-0.793353340291297,0.));
#919=DIRECTION('',(1.,0.,0.));
#920=DIRECTION('',(0.,-1.,0.));
#921=DIRECTION('',(-1.,0.,0.));
#922=DIRECTION('',(0.,1.,0.));
#923=DIRECTION('center_axis',(0.,0.,1.));
#924=DIRECTION('ref_axis',(-0.60876142900864,-0.793353340291297,0.));
#925=DIRECTION('',(0.,0.,1.));
#926=DIRECTION('',(0.,0.,1.));
#927=DIRECTION('',(0.,0.,1.));
#928=DIRECTION('center_axis',(0.,0.,1.));
#929=DIRECTION('ref_axis',(-0.60876142900864,-0.793353340291297,0.));
#930=DIRECTION('center_axis',(-8.23785484272144E-14,-1.,0.));
#931=DIRECTION('ref_axis',(0.,0.,1.));
#932=DIRECTION('',(8.23826964545222E-14,1.,0.));
#933=DIRECTION('center_axis',(-0.122654499648469,-0.0446425869708458,0.99144486137381));
#934=DIRECTION('ref_axis',(0.992445622484552,-0.00274956855403208,0.122654499648469));
#935=DIRECTION('',(-0.342020143325592,0.939692620785936,-1.38777878078145E-17));
#936=DIRECTION('',(0.957917217237819,0.255904149789756,0.130029500651718));
#937=DIRECTION('center_axis',(-0.122654499648469,-0.0446425869708458,0.99144486137381));
#938=DIRECTION('ref_axis',(-0.259519707604908,0.965670805993913,0.0113761072309805));
#939=DIRECTION('center_axis',(-0.122654499648469,-0.0446425869708458,0.99144486137381));
#940=DIRECTION('ref_axis',(0.992445622484552,-0.00274956855403208,0.122654499648469));
#941=DIRECTION('',(0.858108336669267,0.497118423227389,0.128543206069467));
#942=DIRECTION('center_axis',(0.122654499648469,0.0446425869708458,-0.99144486137381));
#943=DIRECTION('ref_axis',(0.25951970760526,-0.965670805993818,-0.0113761072309327));
#944=DIRECTION('',(0.992445622484551,-0.00274956855373998,0.122654499648482));
#945=DIRECTION('center_axis',(0.122654499648469,0.0446425869708458,-0.99144486137381));
#946=DIRECTION('ref_axis',(0.992445622484552,-0.00274956855403208,0.122654499648469));
#947=DIRECTION('',(-0.122654499648469,-0.0446425869708458,0.99144486137381));
#948=DIRECTION('',(-0.122654499648469,-0.0446425869708458,0.99144486137381));
#949=DIRECTION('',(0.,0.,1.));
#950=DIRECTION('',(0.,0.,1.));
#951=DIRECTION('center_axis',(0.342020143325592,-0.939692620785936,0.));
#952=DIRECTION('ref_axis',(0.,0.,-1.));
#953=DIRECTION('',(0.342020143325592,-0.939692620785936,1.38777878078145E-17));
#954=DIRECTION('',(0.342020143325592,-0.939692620785936,0.));
#955=DIRECTION('center_axis',(0.00274956855432248,-0.998999238889259,-0.0446425869708099));
#956=DIRECTION('ref_axis',(-0.992445622484551,0.00274956855373998,-0.122654499648482));
#957=DIRECTION('',(0.122654499648469,0.0446425869708458,-0.99144486137381));
#958=DIRECTION('',(0.122654499648469,0.0446425869708458,-0.99144486137381));
#959=DIRECTION('',(-0.992445622484551,0.00274956855373998,-0.122654499648482));
#960=DIRECTION('',(0.122654499648469,0.0446425869708458,-0.99144486137381));
#961=DIRECTION('center_axis',(-0.259519707604908,0.965670805993913,0.0113761072309805));
#962=DIRECTION('ref_axis',(-0.122654499648469,-0.0446425869708458,0.99144486137381));
#963=DIRECTION('',(-0.957917217237819,-0.255904149789756,-0.130029500651718));
#964=DIRECTION('',(-0.122654499648469,-0.0446425869708458,0.99144486137381));
#965=DIRECTION('center_axis',(0.,0.,1.));
#966=DIRECTION('ref_axis',(1.,0.,0.));
#967=DIRECTION('',(-1.,-2.92388335765281E-13,0.));
#968=DIRECTION('',(-0.965925826289126,-0.258819045102306,0.));
#969=DIRECTION('center_axis',(0.,0.,-1.));
#970=DIRECTION('ref_axis',(0.130526192219959,-0.991444861373822,0.));
#971=DIRECTION('',(1.,3.60994268393349E-14,0.));
#972=DIRECTION('',(1.,0.,0.));
#973=DIRECTION('',(0.,1.,0.));
#974=DIRECTION('',(-1.,0.,0.));
#975=DIRECTION('',(0.,-1.,0.));
#976=DIRECTION('center_axis',(2.92388335765281E-13,-1.,0.));
#977=DIRECTION('ref_axis',(-1.,-2.92388335765281E-13,0.));
#978=DIRECTION('',(0.,0.,-1.));
#979=DIRECTION('',(0.,0.,-1.));
#980=DIRECTION('center_axis',(0.342020143325592,-0.939692620785936,0.));
#981=DIRECTION('ref_axis',(0.,0.,-1.));
#982=DIRECTION('center_axis',(-0.0871557427476581,7.17976357464779E-15,
0.996194698091746));
#983=DIRECTION('ref_axis',(-0.981060262190407,-0.17364817766693,-0.08583165117743));
#984=DIRECTION('',(0.0871557427476581,-7.17976357464779E-15,-0.996194698091746));
#985=DIRECTION('center_axis',(-0.0871557427476581,7.17976357464779E-15,
0.996194698091746));
#986=DIRECTION('ref_axis',(-0.981060262190407,-0.17364817766693,-0.08583165117743));
#987=DIRECTION('',(-0.0871557427476581,7.17976357464779E-15,0.996194698091746));
#988=DIRECTION('center_axis',(-0.0871557427476581,7.17976357464779E-15,
0.996194698091746));
#989=DIRECTION('ref_axis',(0.996194698091746,3.13475247529305E-16,0.0871557427476581));
#990=DIRECTION('',(-0.257834160496215,0.965925826289091,-0.0225575661131493));
#991=DIRECTION('center_axis',(-0.0871557427476581,7.17976357464779E-15,
0.996194698091746));
#992=DIRECTION('ref_axis',(0.996194698091746,3.13475247529305E-16,0.0871557427476581));
#993=DIRECTION('center_axis',(-0.0871557427476581,7.17976357464779E-15,
0.996194698091746));
#994=DIRECTION('ref_axis',(-0.897276553126977,0.434433306221086,-0.07850152644623));
#995=DIRECTION('',(-3.13475247529305E-16,-1.,7.17976357464779E-15));
#996=DIRECTION('',(0.340718653421609,-0.939692620785909,0.0298090196262158));
#997=DIRECTION('center_axis',(-0.0871557427476581,7.17976357464779E-15,
0.996194698091746));
#998=DIRECTION('ref_axis',(-0.79033439131145,-0.608761429008793,-0.0691452996344089));
#999=DIRECTION('',(0.816034923451814,-0.573576436350895,0.0713938048432829));
#1000=DIRECTION('center_axis',(-0.0871557427476581,7.17976357464779E-15,
0.996194698091746));
#1001=DIRECTION('ref_axis',(-0.299561523151492,-0.95371695074826,-0.0262082373043073));
#1002=DIRECTION('center_axis',(0.0871557427476581,-7.17976357464779E-15,
-0.996194698091746));
#1003=DIRECTION('ref_axis',(0.996194698091745,3.13475247529305E-16,0.0871557427476581));
#1004=DIRECTION('center_axis',(0.996194698091746,3.13475247529305E-16,0.0871557427476581));
#1005=DIRECTION('ref_axis',(-3.13475247529305E-16,-1.,7.17976357464779E-15));
#1006=DIRECTION('',(0.0871557427476581,-7.17976357464779E-15,-0.996194698091746));
#1007=DIRECTION('center_axis',(-0.0871557427476581,7.17976357464779E-15,
0.996194698091746));
#1008=DIRECTION('ref_axis',(-0.897276553126977,0.434433306221086,-0.07850152644623));
#1009=DIRECTION('',(-0.0871557427476581,7.17976357464779E-15,0.996194698091746));
#1010=DIRECTION('center_axis',(0.0871557427476581,-7.17976357464779E-15,
-0.996194698091746));
#1011=DIRECTION('ref_axis',(-0.79033439131145,-0.608761429008793,-0.0691452996344089));
#1012=DIRECTION('',(-0.0871557427476581,7.17976357464779E-15,0.996194698091746));
#1013=DIRECTION('',(0.0871557427476581,-7.17976357464779E-15,-0.996194698091746));
#1014=DIRECTION('center_axis',(0.93611680666286,0.342020143325668,0.0818996083190868));
#1015=DIRECTION('ref_axis',(0.340718653421609,-0.939692620785909,0.0298090196262158));
#1016=DIRECTION('center_axis',(-0.122654499648469,-0.0446425869708458,0.99144486137381));
#1017=DIRECTION('ref_axis',(0.992445622484552,-0.00274956855403208,0.122654499648469));
#1018=DIRECTION('center_axis',(-0.122654499648469,-0.0446425869708458,0.99144486137381));
#1019=DIRECTION('ref_axis',(0.25951970760526,-0.965670805993818,-0.0113761072309327));
#1020=DIRECTION('',(-0.858108336669267,-0.497118423227389,-0.128543206069467));
#1021=DIRECTION('center_axis',(-0.122654499648469,-0.0446425869708458,0.99144486137381));
#1022=DIRECTION('ref_axis',(0.992445622484552,-0.00274956855403208,0.122654499648469));
#1023=DIRECTION('center_axis',(0.122654499648469,0.0446425869708458,-0.99144486137381));
#1024=DIRECTION('ref_axis',(-0.259519707604908,0.965670805993913,0.0113761072309805));
#1025=DIRECTION('center_axis',(0.122654499648469,0.0446425869708458,-0.99144486137381));
#1026=DIRECTION('ref_axis',(0.992445622484552,-0.00274956855403208,0.122654499648469));
#1027=DIRECTION('center_axis',(-0.0871557427476581,7.17976357464779E-15,
0.996194698091746));
#1028=DIRECTION('ref_axis',(-0.299561523151492,-0.95371695074826,-0.0262082373043073));
#1029=DIRECTION('',(-0.0871557427476581,7.17976357464779E-15,0.996194698091746));
#1030=DIRECTION('center_axis',(-3.60994268393349E-14,1.,0.));
#1031=DIRECTION('ref_axis',(1.,3.60994268393349E-14,0.));
#1032=DIRECTION('',(0.,0.,1.));
#1033=DIRECTION('center_axis',(-0.122654499648469,-0.0446425869708458,0.99144486137381));
#1034=DIRECTION('ref_axis',(0.25951970760526,-0.965670805993818,-0.0113761072309327));
#1035=DIRECTION('',(-0.122654499648469,-0.0446425869708458,0.99144486137381));
#1036=DIRECTION('center_axis',(-0.962250186899081,-0.258819045102436,-0.0841859828293692));
#1037=DIRECTION('ref_axis',(-0.257834160496215,0.965925826289091,-0.0225575661131493));
#1038=DIRECTION('',(0.0871557427476581,-7.17976357464779E-15,-0.996194698091746));
#1039=DIRECTION('center_axis',(-0.122654499648469,-0.0446425869708458,0.99144486137381));
#1040=DIRECTION('ref_axis',(-0.259519707604908,0.965670805993913,0.0113761072309805));
#1041=DIRECTION('',(0.122654499648469,0.0446425869708458,-0.99144486137381));
#1042=DIRECTION('center_axis',(-0.258819045102306,0.965925826289126,0.));
#1043=DIRECTION('ref_axis',(0.,0.,1.));
#1044=DIRECTION('',(0.,0.,-1.));
#1045=DIRECTION('center_axis',(0.,0.,-1.));
#1046=DIRECTION('ref_axis',(0.130526192219959,-0.991444861373822,0.));
#1047=DIRECTION('center_axis',(0.571393804843119,0.819152044289098,0.0499904803327112));
#1048=DIRECTION('ref_axis',(0.0871557427476581,-7.17976357464779E-15,-0.996194698091746));
#1049=DIRECTION('center_axis',(-0.0871557427476581,7.17976357464779E-15,
0.996194698091746));
#1050=DIRECTION('ref_axis',(0.996194698091745,3.13475247529305E-16,0.0871557427476581));
#1051=DIRECTION('',(-0.0871557427476581,7.17976357464779E-15,0.996194698091745));
#1052=DIRECTION('center_axis',(-0.122654499648469,-0.0446425869708458,0.99144486137381));
#1053=DIRECTION('ref_axis',(0.992445622484552,-0.00274956855403208,0.122654499648469));
#1054=DIRECTION('',(-0.122654499648469,-0.0446425869708458,0.99144486137381));
#1055=DIRECTION('center_axis',(-1.,0.,0.));
#1056=DIRECTION('ref_axis',(0.,1.,0.));
#1057=DIRECTION('',(0.,0.,-1.));
#1058=DIRECTION('',(0.,0.,-1.));
#1059=DIRECTION('center_axis',(0.,-1.,0.));
#1060=DIRECTION('ref_axis',(-1.,0.,0.));
#1061=DIRECTION('',(0.,0.,-1.));
#1062=DIRECTION('center_axis',(1.,0.,0.));
#1063=DIRECTION('ref_axis',(0.,-1.,0.));
#1064=DIRECTION('',(0.,0.,-1.));
#1065=DIRECTION('center_axis',(0.,1.,0.));
#1066=DIRECTION('ref_axis',(1.,0.,0.));
#1067=DIRECTION('center_axis',(0.498604007459514,-0.866533503516433,0.0226656354168257));
#1068=DIRECTION('ref_axis',(-0.858108336669267,-0.497118423227389,-0.128543206069467));
#1069=DIRECTION('',(0.122654499648469,0.0446425869708458,-0.99144486137381));
#1070=DIRECTION('center_axis',(-0.122654499648469,-0.0446425869708458,0.99144486137381));
#1071=DIRECTION('ref_axis',(0.992445622484552,-0.00274956855403208,0.122654499648469));
#1072=DIRECTION('center_axis',(-0.0871557427476581,7.17976357464779E-15,
0.996194698091746));
#1073=DIRECTION('ref_axis',(0.996194698091746,3.13475247529305E-16,0.0871557427476581));
#1074=CARTESIAN_POINT('',(0.,0.,0.));
#1075=CARTESIAN_POINT('Origin',(8.05881163906235,19.485882377589,-49.393175170903));
#1076=CARTESIAN_POINT('',(-25.3320633798719,-19.9999999999864,-52.3144982002705));
#1077=CARTESIAN_POINT('',(-25.3320633798685,20.5270667858991,-52.3144982002705));
#1078=CARTESIAN_POINT('',(-25.3320633798694,9.74294118879691,-52.3144982002705));
#1079=CARTESIAN_POINT('',(-27.2499250811024,-19.9999999999864,-52.4822893573387));
#1080=CARTESIAN_POINT('',(-60.3609327490432,-19.9999999999877,-55.3791271662034));
#1081=CARTESIAN_POINT('',(-32.9638631295339,-18.1915204428774,-52.9821941606659));
#1082=CARTESIAN_POINT('Origin',(-27.2499250811027,-9.99999999998645,-52.4822893573388));
#1083=CARTESIAN_POINT('',(-61.2408004564214,1.68383596254174,-55.4561056160017));
#1084=CARTESIAN_POINT('',(-35.0873959960243,-16.6989269532711,-53.1679792131085));
#1085=CARTESIAN_POINT('',(-64.8880304746188,6.45515497217603,-55.7751968958655));
#1086=CARTESIAN_POINT('Origin',(-55.5268624079903,9.8753564054327,-54.9562008126746));
#1087=CARTESIAN_POINT('',(-71.0383401782274,23.4175389977945,-56.3132792721049));
#1088=CARTESIAN_POINT('',(-83.9297768624602,58.9717647551742,-57.4411338385377));
#1089=CARTESIAN_POINT('',(-71.6391190925163,26.8377404310512,-56.3658406163906));
#1090=CARTESIAN_POINT('Origin',(-61.6771721115988,26.8377404310512,-55.494283188914));
#1091=CARTESIAN_POINT('',(-71.6391190925163,46.7976811210473,-56.3658406163907));
#1092=CARTESIAN_POINT('',(-71.6391190925163,58.9717647551742,-56.3658406163908));
#1093=CARTESIAN_POINT('',(-67.8788368088732,54.6235974869204,-56.0368585449146));
#1094=CARTESIAN_POINT('Origin',(-61.6771721115988,46.7976811210473,-55.4942831889141));
#1095=CARTESIAN_POINT('',(-36.2305011360226,44.1481361403951,-53.267987954077));
#1096=CARTESIAN_POINT('Origin',(-55.4755074143244,38.9717647551742,-54.9517078329136));
#1097=CARTESIAN_POINT('',(-31.7630807616594,27.4118095489632,-52.8771393161154));
#1098=CARTESIAN_POINT('',(-29.7846496639448,19.9999999999954,-52.7040490234982));
#1099=CARTESIAN_POINT('Origin',(-22.1405788926686,29.9999999999876,-52.0352794878217));
#1100=CARTESIAN_POINT('',(-61.9507729519207,38.9717647551742,-55.5182201607734));
#1101=CARTESIAN_POINT('Origin',(-55.4755074143244,38.9717647551742,-54.9517078329136));
#1102=CARTESIAN_POINT('Origin',(-25.8811445591821,-19.9999999999863,-46.0384716022925));
#1103=CARTESIAN_POINT('',(-25.8811445591821,-19.9999999999863,-46.0384716022925));
#1104=CARTESIAN_POINT('',(-25.8811445591821,-19.9999999999863,-46.0384716022925));
#1105=CARTESIAN_POINT('',(-25.0000000000033,-19.9999999999863,-52.3));
#1106=CARTESIAN_POINT('Origin',(-25.0000000000033,-19.9999999999864,-56.11));
#1107=CARTESIAN_POINT('',(-25.0000000000033,-19.9999999999863,-46.));
#1108=CARTESIAN_POINT('',(-25.0000000000033,-19.9999999999863,-46.));
#1109=CARTESIAN_POINT('Origin',(-25.0000000000033,-19.9999999999864,-56.11));
#1110=CARTESIAN_POINT('Origin',(-25.0000000000016,6.7434946515732E-12,-56.11));
#1111=CARTESIAN_POINT('',(-25.8811445591788,20.5270667858992,-46.0384716022925));
#1112=CARTESIAN_POINT('',(-25.8811445591797,9.74294118879695,-46.0384716022925));
#1113=CARTESIAN_POINT('',(-25.,20.3639412543256,-46.));
#1114=CARTESIAN_POINT('',(-25.0000000000008,9.74294118879688,-46.));
#1115=CARTESIAN_POINT('Ctrl Pts',(-25.,20.3639412543256,-46.));
#1116=CARTESIAN_POINT('Ctrl Pts',(-25.2965223503893,20.4133962695865,-46.));
#1117=CARTESIAN_POINT('Ctrl Pts',(-25.590751189394,20.4677993625283,-46.0130654744732));
#1118=CARTESIAN_POINT('Ctrl Pts',(-25.8811445591788,20.5270667858992,-46.0384716022925));
#1119=CARTESIAN_POINT('Origin',(-22.6896600719788,29.9999999999876,-45.7592528898437));
#1120=CARTESIAN_POINT('',(-25.5297326044202,20.5270667858992,-50.0551286249984));
#1121=CARTESIAN_POINT('',(-25.8811445591788,20.5270667858992,-46.0384716022925));
#1122=CARTESIAN_POINT('',(-32.3121619409696,27.4118095489633,-46.6011127181374));
#1123=CARTESIAN_POINT('',(-32.3121619409696,27.4118095489633,-46.6011127181374));
#1124=CARTESIAN_POINT('Origin',(-22.6896600719788,29.9999999999876,-45.7592528898437));
#1125=CARTESIAN_POINT('',(-25.8811445591788,20.5270667858992,-46.0384716022925));
#1126=CARTESIAN_POINT('Origin',(-55.8448635306654,-19.9999999999874,-48.6599573293739));
#1127=CARTESIAN_POINT('',(-27.7990062604126,-19.9999999999864,-46.2062627593607));
#1128=CARTESIAN_POINT('',(-60.9100139283534,-19.9999999999876,-49.1031005682254));
#1129=CARTESIAN_POINT('',(-27.7990062604126,-19.9999999999864,-46.2062627593607));
#1130=CARTESIAN_POINT('Origin',(7.98801717725238,19.485882377589,-46.));
#1131=CARTESIAN_POINT('',(29.4014427213691,-19.9999999999844,-46.));
#1132=CARTESIAN_POINT('',(-60.693079519173,-19.9999999999876,-46.));
#1133=CARTESIAN_POINT('',(31.9896331723918,-19.6592582628756,-46.));
#1134=CARTESIAN_POINT('Origin',(29.4014427213687,-9.99999999998438,-46.));
#1135=CARTESIAN_POINT('',(45.6067709384105,-16.0105571952508,-46.));
#1136=CARTESIAN_POINT('',(36.7126954938201,-18.3937175280482,-46.));
#1137=CARTESIAN_POINT('',(32.5000000000006,20.0000000000037,-46.));
#1138=CARTESIAN_POINT('',(32.4619876102903,20.1044381823923,-46.));
#1139=CARTESIAN_POINT('',(-22.3267301202149,19.9999999999876,-46.));
#1140=CARTESIAN_POINT('',(20.,20.,-46.));
#1141=CARTESIAN_POINT('Origin',(-22.3267301202178,29.9999999999876,-46.));
#1142=CARTESIAN_POINT('',(-5.625,5.625,-46.));
#1143=CARTESIAN_POINT('',(5.625,5.625,-46.));
#1144=CARTESIAN_POINT('',(-5.625,5.625,-46.));
#1145=CARTESIAN_POINT('',(5.625,-5.625,-46.));
#1146=CARTESIAN_POINT('',(5.625,5.625,-46.));
#1147=CARTESIAN_POINT('',(-5.625,-5.625,-46.));
#1148=CARTESIAN_POINT('',(5.625,-5.625,-46.));
#1149=CARTESIAN_POINT('',(-5.625,-5.625,-46.));
#1150=CARTESIAN_POINT('Origin',(-22.3267301202178,29.9999999999876,-46.));
#1151=CARTESIAN_POINT('',(-25.,20.3639412543256,-52.3));
#1152=CARTESIAN_POINT('',(-25.,20.3639412543256,-50.032));
#1153=CARTESIAN_POINT('',(-25.,20.3639412543256,-46.));
#1154=CARTESIAN_POINT('',(-25.,20.3639412543256,-46.));
#1155=CARTESIAN_POINT('',(-22.3267301202149,19.9999999999876,-52.3));
#1156=CARTESIAN_POINT('',(-22.3267301202149,19.9999999999876,-46.));
#1157=CARTESIAN_POINT('Origin',(-22.3267301202178,29.9999999999876,-52.3));
#1158=CARTESIAN_POINT('Origin',(-25.0000000000016,6.7434946515732E-12,-56.11));
#1159=CARTESIAN_POINT('Ctrl Pts',(-25.3320633798685,20.5270667858991,-52.3144982002705));
#1160=CARTESIAN_POINT('Ctrl Pts',(-25.222627302828,20.4677993625283,-52.3049237841487));
#1161=CARTESIAN_POINT('Ctrl Pts',(-25.111745811571,20.4133962695865,-52.3));
#1162=CARTESIAN_POINT('Ctrl Pts',(-25.,20.3639412543256,-52.3));
#1163=CARTESIAN_POINT('',(-25.0000000000008,9.74294118879688,-52.3));
#1164=CARTESIAN_POINT('Origin',(7.90068596384146,19.4540964153851,-49.1007091780784));
#1165=CARTESIAN_POINT('',(46.0978914791095,-15.905877850932,-45.9674049218342));
#1166=CARTESIAN_POINT('',(33.0663550684923,19.8979741780486,-45.9674049218342));
#1167=CARTESIAN_POINT('',(32.9293012539509,20.2745264387512,-45.9674049218342));
#1168=CARTESIAN_POINT('',(75.5155351618154,-8.04705982368295,-41.9741981503322));
#1169=CARTESIAN_POINT('',(36.5125197731359,-18.466575532,-47.2685414648049));
#1170=CARTESIAN_POINT('',(78.3653182782002,-6.77274235035861,-41.5642635521388));
#1171=CARTESIAN_POINT('Origin',(72.9203380857663,1.60964823625617,-41.8604370780224));
#1172=CARTESIAN_POINT('',(57.5032926458332,27.3227175260229,-42.6099210799943));
#1173=CARTESIAN_POINT('Origin',(67.4753578933324,9.99203882287094,-42.156610603906));
#1174=CARTESIAN_POINT('',(46.9309470523912,21.1979573452521,-44.1936409206966));
#1175=CARTESIAN_POINT('',(44.6316526941031,19.8659325447887,-44.5380714032845));
#1176=CARTESIAN_POINT('',(41.9724026633393,19.8732999915238,-44.8667231445729));
#1177=CARTESIAN_POINT('Origin',(41.9449069777961,29.8632923804164,-44.4202972748648));
#1178=CARTESIAN_POINT('',(19.8205121319893,19.9346717586322,-47.6044338944966));
#1179=CARTESIAN_POINT('',(61.0244613471828,10.0099110184721,-42.9538648516211));
#1180=CARTESIAN_POINT('Origin',(67.4753578933324,9.99203882287094,-42.156610603906));
#1181=CARTESIAN_POINT('Ctrl Pts',(45.6067709384105,-16.0105571952508,-52.3));
#1182=CARTESIAN_POINT('Ctrl Pts',(46.029235026294,-15.881484146859,-52.3));
#1183=CARTESIAN_POINT('Ctrl Pts',(46.4516970874131,-15.752411836149,-52.2710868245964));
#1184=CARTESIAN_POINT('Ctrl Pts',(46.8706148268949,-15.6246295530157,-52.2135075484892));
#1185=CARTESIAN_POINT('Ctrl Pts',(45.6067709384105,-16.0105571952508,-50.2));
#1186=CARTESIAN_POINT('Ctrl Pts',(45.9431311927996,-15.9128233793071,-50.2));
#1187=CARTESIAN_POINT('Ctrl Pts',(46.2794898414139,-15.8150901478177,-50.1770925286862));
#1188=CARTESIAN_POINT('Ctrl Pts',(46.6130403776331,-15.7183789856545,-50.1314733396042));
#1189=CARTESIAN_POINT('Ctrl Pts',(45.6067709384105,-16.0105571952508,-48.1));
#1190=CARTESIAN_POINT('Ctrl Pts',(45.8570273593052,-15.9441626117553,-48.1));
#1191=CARTESIAN_POINT('Ctrl Pts',(46.1072825954147,-15.8777684594863,-48.083098232776));
#1192=CARTESIAN_POINT('Ctrl Pts',(46.3554659283713,-15.8121284182933,-48.0494391307192));
#1193=CARTESIAN_POINT('Ctrl Pts',(45.6067709384105,-16.0105571952508,-46.));
#1194=CARTESIAN_POINT('Ctrl Pts',(45.7709235258108,-15.9755018442035,-46.));
#1195=CARTESIAN_POINT('Ctrl Pts',(45.9350753494155,-15.9404467711549,-45.9891039368657));
#1196=CARTESIAN_POINT('Ctrl Pts',(46.0978914791095,-15.905877850932,-45.9674049218342));
#1197=CARTESIAN_POINT('',(46.8706148268949,-15.6246295530157,-52.2135075484892));
#1198=CARTESIAN_POINT('',(46.3760718843123,-15.8046284636821,-48.21600186743));
#1199=CARTESIAN_POINT('',(46.0978914791095,-15.905877850932,-45.9674049218342));
#1200=CARTESIAN_POINT('',(46.0978914791095,-15.905877850932,-45.9674049218342));
#1201=CARTESIAN_POINT('Ctrl Pts',(45.6067709384105,-16.0105571952508,-46.));
#1202=CARTESIAN_POINT('Ctrl Pts',(45.7709235258108,-15.9755018442035,-46.));
#1203=CARTESIAN_POINT('Ctrl Pts',(45.9350753494155,-15.9404467711549,-45.9891039368657));
#1204=CARTESIAN_POINT('Ctrl Pts',(46.0978914791095,-15.905877850932,-45.9674049218342));
#1205=CARTESIAN_POINT('',(45.6067709384105,-16.0105571952508,-48.268));
#1206=CARTESIAN_POINT('',(45.6067709384105,-16.0105571952508,-46.));
#1207=CARTESIAN_POINT('',(45.6067709384105,-16.0105571952508,-52.3));
#1208=CARTESIAN_POINT('',(45.6067709384105,-16.0105571952508,-46.));
#1209=CARTESIAN_POINT('Ctrl Pts',(46.8706148268949,-15.6246295530157,-52.2135075484892));
#1210=CARTESIAN_POINT('Ctrl Pts',(46.4516970874131,-15.752411836149,-52.2710868245964));
#1211=CARTESIAN_POINT('Ctrl Pts',(46.029235026294,-15.881484146859,-52.3));
#1212=CARTESIAN_POINT('Ctrl Pts',(45.6067709384105,-16.0105571952508,-52.3));
#1213=CARTESIAN_POINT('Origin',(39.7794046853226,4.20996570937859E-12,-42.19));
#1214=CARTESIAN_POINT('',(33.8390784162777,20.1792224759649,-52.2135075484892));
#1215=CARTESIAN_POINT('',(33.7020246017363,20.5557747366675,-52.2135075484892));
#1216=CARTESIAN_POINT('',(32.5000000000006,20.0000000000037,-52.3));
#1217=CARTESIAN_POINT('',(32.4619876102903,20.1044381823923,-52.3));
#1218=CARTESIAN_POINT('Ctrl Pts',(33.8390784162777,20.1792224759649,-52.2135075484892));
#1219=CARTESIAN_POINT('Ctrl Pts',(33.395082500865,20.1203419149229,-52.2710868245964));
#1220=CARTESIAN_POINT('Ctrl Pts',(32.9475422638149,20.0601713263042,-52.3));
#1221=CARTESIAN_POINT('Ctrl Pts',(32.5000000000006,20.0000000000037,-52.3));
#1222=CARTESIAN_POINT('Origin',(44.6316526941031,19.8659325447887,-44.5380714032845));
#1223=CARTESIAN_POINT('',(33.344535473695,19.9992235652985,-48.21600186743));
#1224=CARTESIAN_POINT('',(33.0663550684923,19.8979741780486,-45.9674049218342));
#1225=CARTESIAN_POINT('',(42.7451260111246,20.1545482894401,-51.1128257712279));
#1226=CARTESIAN_POINT('',(41.9724026633393,19.8732999915238,-44.8667231445729));
#1227=CARTESIAN_POINT('',(20.5932354797747,20.2159200565486,-53.8505365211516));
#1228=CARTESIAN_POINT('',(33.0663550684923,19.8979741780486,-45.9674049218342));
#1229=CARTESIAN_POINT('Origin',(53.6994194866315,-13.8751569004545,-44.9355590867022));
#1230=CARTESIAN_POINT('',(76.2882585096008,-7.76581152576662,-48.2203007769872));
#1231=CARTESIAN_POINT('',(37.2852431209213,-18.1853272340837,-53.5146440914599));
#1232=CARTESIAN_POINT('',(75.5155351618154,-8.04705982368295,-41.9741981503322));
#1233=CARTESIAN_POINT('Origin',(7.98801717725238,19.485882377589,-52.3));
#1234=CARTESIAN_POINT('',(20.,20.,-52.3));
#1235=CARTESIAN_POINT('',(31.9896331723918,-19.6592582628756,-52.3));
#1236=CARTESIAN_POINT('',(36.7126954938201,-18.3937175280482,-52.3));
#1237=CARTESIAN_POINT('',(29.4014427213691,-19.9999999999844,-52.3));
#1238=CARTESIAN_POINT('Origin',(29.4014427213687,-9.99999999998438,-52.3));
#1239=CARTESIAN_POINT('',(-60.693079519173,-19.9999999999876,-52.3));
#1240=CARTESIAN_POINT('',(-5.625,5.625,-52.3));
#1241=CARTESIAN_POINT('',(5.625,5.625,-52.3));
#1242=CARTESIAN_POINT('',(-5.625,5.625,-52.3));
#1243=CARTESIAN_POINT('',(-5.625,-5.625,-52.3));
#1244=CARTESIAN_POINT('',(-5.625,-5.625,-52.3));
#1245=CARTESIAN_POINT('',(5.625,-5.625,-52.3));
#1246=CARTESIAN_POINT('',(5.625,-5.625,-52.3));
#1247=CARTESIAN_POINT('',(5.625,5.625,-52.3));
#1248=CARTESIAN_POINT('Origin',(45.,20.0000000000073,-46.));
#1249=CARTESIAN_POINT('',(32.5000000000006,20.0000000000037,-48.268));
#1250=CARTESIAN_POINT('',(32.5000000000006,20.0000000000037,-46.));
#1251=CARTESIAN_POINT('',(32.5000000000006,20.0000000000037,-46.));
#1252=CARTESIAN_POINT('Origin',(39.7794046853226,4.20996570937859E-12,-42.19));
#1253=CARTESIAN_POINT('Ctrl Pts',(32.5000000000006,20.0000000000037,-46.));
#1254=CARTESIAN_POINT('Ctrl Pts',(32.6892307633317,19.9661536289597,-46.));
#1255=CARTESIAN_POINT('Ctrl Pts',(32.8784607628674,19.932306979917,-45.9891039368657));
#1256=CARTESIAN_POINT('Ctrl Pts',(33.0663550684923,19.8979741780486,-45.9674049218342));
#1257=CARTESIAN_POINT('Origin',(-62.226253290909,26.8377404310512,-49.218256590936));
#1258=CARTESIAN_POINT('',(-71.5874213575377,23.4175389977946,-50.0372526741268));
#1259=CARTESIAN_POINT('',(-71.5874213575377,23.4175389977946,-50.0372526741268));
#1260=CARTESIAN_POINT('',(-72.1882002718265,26.8377404310512,-50.0898140184126));
#1261=CARTESIAN_POINT('Origin',(-62.226253290909,26.8377404310512,-49.218256590936));
#1262=CARTESIAN_POINT('',(-72.1882002718265,26.8377404310512,-50.0898140184126));
#1263=CARTESIAN_POINT('Origin',(7.50973045975211,19.485882377589,-43.117148572925));
#1264=CARTESIAN_POINT('',(-36.7795823153328,44.1481361403952,-46.991961356099));
#1265=CARTESIAN_POINT('',(-30.3337308432551,19.9999999999955,-46.4280224255202));
#1266=CARTESIAN_POINT('',(-68.4279179881835,54.6235974869205,-49.7608319469366));
#1267=CARTESIAN_POINT('Origin',(-56.0245885936346,38.9717647551742,-48.6756812349356));
#1268=CARTESIAN_POINT('',(-72.1882002718265,46.7976811210473,-50.0898140184127));
#1269=CARTESIAN_POINT('Origin',(-62.226253290909,46.7976811210473,-49.2182565909361));
#1270=CARTESIAN_POINT('',(-72.1882002718265,58.9717647551743,-50.0898140184128));
#1271=CARTESIAN_POINT('',(-65.4371116539291,6.45515497217607,-49.4991702978875));
#1272=CARTESIAN_POINT('',(-84.4788580417705,58.9717647551743,-51.1651072405597));
#1273=CARTESIAN_POINT('',(-61.7898816357317,1.68383596254178,-49.1800790180237));
#1274=CARTESIAN_POINT('Origin',(-56.0759435873005,9.87535640543275,-48.6801742146966));
#1275=CARTESIAN_POINT('',(-33.5129443088442,-18.1915204428774,-46.7061675626879));
#1276=CARTESIAN_POINT('',(-35.6364771753345,-16.6989269532711,-46.8919526151305));
#1277=CARTESIAN_POINT('Origin',(-27.799006260413,-9.9999999999864,-46.2062627593608));
#1278=CARTESIAN_POINT('',(-62.499854131231,38.9717647551742,-49.2421935627954));
#1279=CARTESIAN_POINT('Origin',(-56.0245885936346,38.9717647551742,-48.6756812349356));
#1280=CARTESIAN_POINT('Origin',(-72.1882002718265,50.6652623494492,-50.0898140184127));
#1281=CARTESIAN_POINT('',(-72.1882002718265,46.7976811210473,-50.0898140184127));
#1282=CARTESIAN_POINT('Origin',(-62.226253290909,46.7976811210473,-49.2182565909361));
#1283=CARTESIAN_POINT('',(-68.4279179881835,54.6235974869205,-49.7608319469366));
#1284=CARTESIAN_POINT('Origin',(-56.0759435873005,9.87535640543275,-48.6801742146966));
#1285=CARTESIAN_POINT('',(-65.4371116539291,6.45515497217607,-49.4991702978875));
#1286=CARTESIAN_POINT('',(-61.7898816357317,1.68383596254178,-49.1800790180237));
#1287=CARTESIAN_POINT('Origin',(-72.1882002718265,25.0744706239666,-50.0898140184125));
#1288=CARTESIAN_POINT('Origin',(8.67340931162682,19.7353447133014,-55.3468118047335));
#1289=CARTESIAN_POINT('',(47.7036704001765,21.4792056431684,-50.4397435473516));
#1290=CARTESIAN_POINT('Origin',(42.7176303255814,30.1445406783327,-50.6663999015198));
#1291=CARTESIAN_POINT('',(58.2760159936185,27.6039658239393,-48.8560237066493));
#1292=CARTESIAN_POINT('',(45.4043760418885,20.1471808427051,-50.7841740299396));
#1293=CARTESIAN_POINT('',(79.1380416259856,-6.49149405244228,-47.8103661787938));
#1294=CARTESIAN_POINT('Origin',(68.2480812411178,10.2732871207873,-48.402713230561));
#1295=CARTESIAN_POINT('Origin',(73.6930614335517,1.8908965341725,-48.1065397046774));
#1296=CARTESIAN_POINT('',(61.7971846949682,10.2911593163885,-49.1999674782761));
#1297=CARTESIAN_POINT('Origin',(68.2480812411178,10.2732871207873,-48.402713230561));
#1298=CARTESIAN_POINT('Origin',(-27.799006260413,-9.9999999999864,-46.2062627593608));
#1299=CARTESIAN_POINT('',(-33.5129443088442,-18.1915204428774,-46.7061675626879));
#1300=CARTESIAN_POINT('Origin',(-55.6085810698332,-19.9999999999874,-46.));
#1301=CARTESIAN_POINT('',(29.4014427213691,-19.9999999999844,-46.));
#1302=CARTESIAN_POINT('Origin',(41.9449069777961,29.8632923804164,-44.4202972748648));
#1303=CARTESIAN_POINT('',(46.9309470523912,21.1979573452521,-44.1936409206966));
#1304=CARTESIAN_POINT('Ctrl Pts',(33.0663550684923,19.8979741780486,-45.9674049218342));
#1305=CARTESIAN_POINT('Ctrl Pts',(33.3239295177541,19.9917236106874,-48.0494391307192));
#1306=CARTESIAN_POINT('Ctrl Pts',(33.5815039670159,20.0854730433262,-50.1314733396042));
#1307=CARTESIAN_POINT('Ctrl Pts',(33.8390784162777,20.1792224759649,-52.2135075484892));
#1308=CARTESIAN_POINT('Ctrl Pts',(32.8784607628674,19.932306979917,-45.9891039368657));
#1309=CARTESIAN_POINT('Ctrl Pts',(33.0506681395545,19.9949853391521,-48.0831000645381));
#1310=CARTESIAN_POINT('Ctrl Pts',(33.2228751241779,20.0576635556878,-50.1770906969241));
#1311=CARTESIAN_POINT('Ctrl Pts',(33.395082500865,20.1203419149229,-52.2710868245964));
#1312=CARTESIAN_POINT('Ctrl Pts',(32.6892307633317,19.9661536289597,-46.));
#1313=CARTESIAN_POINT('Ctrl Pts',(32.7753346919302,19.9974928960229,-48.1000018342441));
#1314=CARTESIAN_POINT('Ctrl Pts',(32.8614383352165,20.028832059241,-50.1999981657559));
#1315=CARTESIAN_POINT('Ctrl Pts',(32.9475422638149,20.0601713263042,-52.3));
#1316=CARTESIAN_POINT('Ctrl Pts',(32.5000000000006,20.0000000000037,-46.));
#1317=CARTESIAN_POINT('Ctrl Pts',(32.5000000000006,20.0000000000037,-48.1));
#1318=CARTESIAN_POINT('Ctrl Pts',(32.5000000000006,20.0000000000037,-50.2));
#1319=CARTESIAN_POINT('Ctrl Pts',(32.5000000000006,20.0000000000037,-52.3));
#1320=CARTESIAN_POINT('Ctrl Pts',(-25.8811445591788,20.5270667858992,-46.0384716022925));
#1321=CARTESIAN_POINT('Ctrl Pts',(-25.590751189394,20.4677993625283,-46.0130654744732));
#1322=CARTESIAN_POINT('Ctrl Pts',(-25.2965223503893,20.4133962695865,-46.));
#1323=CARTESIAN_POINT('Ctrl Pts',(-25.,20.3639412543256,-46.));
#1324=CARTESIAN_POINT('Ctrl Pts',(-25.6981174994087,20.5270667858992,-48.1304804682851));
#1325=CARTESIAN_POINT('Ctrl Pts',(-25.4680432272053,20.4677993625283,-48.1103515776984));
#1326=CARTESIAN_POINT('Ctrl Pts',(-25.2349301707832,20.4133962695865,-48.1));
#1327=CARTESIAN_POINT('Ctrl Pts',(-25.,20.3639412543256,-48.1));
#1328=CARTESIAN_POINT('Ctrl Pts',(-25.5150904396386,20.5270667858992,-50.2224893342778));
#1329=CARTESIAN_POINT('Ctrl Pts',(-25.3453352650167,20.4677993625283,-50.2076376809235));
#1330=CARTESIAN_POINT('Ctrl Pts',(-25.1733379911771,20.4133962695865,-50.2));
#1331=CARTESIAN_POINT('Ctrl Pts',(-25.,20.3639412543256,-50.2));
#1332=CARTESIAN_POINT('Ctrl Pts',(-25.3320633798685,20.5270667858991,-52.3144982002705));
#1333=CARTESIAN_POINT('Ctrl Pts',(-25.222627302828,20.4677993625283,-52.3049237841487));
#1334=CARTESIAN_POINT('Ctrl Pts',(-25.111745811571,20.4133962695865,-52.3));
#1335=CARTESIAN_POINT('Ctrl Pts',(-25.,20.3639412543256,-52.3));
#1336=CARTESIAN_POINT('Origin',(-30.3337308432551,19.9999999999955,-46.4280224255202));
#1337=CARTESIAN_POINT('',(-36.7795823153328,44.1481361403952,-46.991961356099));
#1338=CARTESIAN_POINT('Origin',(72.9203380857663,1.60964823625617,-41.8604370780224));
#1339=CARTESIAN_POINT('',(78.3653182782002,-6.77274235035861,-41.5642635521388));
#1340=CARTESIAN_POINT('Origin',(54.043285244547,-13.7499999999899,-46.));
#1341=CARTESIAN_POINT('',(31.9896331723918,-19.6592582628756,-46.));
#1342=CARTESIAN_POINT('Origin',(29.4014427213687,-9.99999999998438,-46.));
#1343=CARTESIAN_POINT('Origin',(-47.6514129722887,-8.25384224016728,-47.9431232903559));
#1344=CARTESIAN_POINT('Origin',(-56.0245885936346,38.9717647551742,-48.6756812349356));
#1345=CARTESIAN_POINT('',(-62.499854131231,38.9717647551742,-49.2421935627954));
#1346=CARTESIAN_POINT('Origin',(67.4753578933324,9.99203882287094,-42.156610603906));
#1347=CARTESIAN_POINT('',(61.0244613471828,10.0099110184721,-42.9538648516211));
#1348=CARTESIAN_POINT('Origin',(-5.625,-5.625,-46.));
#1349=CARTESIAN_POINT('',(-5.625,-5.625,-46.));
#1350=CARTESIAN_POINT('',(-5.625,5.625,-46.));
#1351=CARTESIAN_POINT('Origin',(5.625,-5.625,-46.));
#1352=CARTESIAN_POINT('',(5.625,-5.625,-46.));
#1353=CARTESIAN_POINT('Origin',(5.625,5.625,-46.));
#1354=CARTESIAN_POINT('',(5.625,5.625,-46.));
#1355=CARTESIAN_POINT('Origin',(-5.625,5.625,-46.));
#1356=CARTESIAN_POINT('Origin',(57.5032926458294,27.3227175260294,-42.6099210799945));
#1357=CARTESIAN_POINT('',(57.5032926458332,27.3227175260229,-42.6099210799943));
#1358=CARTESIAN_POINT('Origin',(67.4753578933324,9.99203882287094,-42.156610603906));
#1359=CARTESIAN_POINT('Origin',(-56.0245885936346,38.9717647551742,-48.6756812349356));
#1360=UNCERTAINTY_MEASURE_WITH_UNIT(LENGTH_MEASURE(0.01),#1364,
'DISTANCE_ACCURACY_VALUE',
'Maximum model space distance between geometric entities at asserted c
onnectivities');
#1361=UNCERTAINTY_MEASURE_WITH_UNIT(LENGTH_MEASURE(0.01),#1364,
'DISTANCE_ACCURACY_VALUE',
'Maximum model space distance between geometric entities at asserted c
onnectivities');
#1362=(
GEOMETRIC_REPRESENTATION_CONTEXT(3)
GLOBAL_UNCERTAINTY_ASSIGNED_CONTEXT((#1360))
GLOBAL_UNIT_ASSIGNED_CONTEXT((#1364,#1366,#1367))
REPRESENTATION_CONTEXT('','3D')
);
#1363=(
GEOMETRIC_REPRESENTATION_CONTEXT(3)
GLOBAL_UNCERTAINTY_ASSIGNED_CONTEXT((#1361))
GLOBAL_UNIT_ASSIGNED_CONTEXT((#1364,#1366,#1367))
REPRESENTATION_CONTEXT('','3D')
);
#1364=(
LENGTH_UNIT()
NAMED_UNIT(*)
SI_UNIT(.MILLI.,.METRE.)
);
#1365=(
LENGTH_UNIT()
NAMED_UNIT(*)
SI_UNIT($,.METRE.)
);
#1366=(
NAMED_UNIT(*)
PLANE_ANGLE_UNIT()
SI_UNIT($,.RADIAN.)
);
#1367=(
NAMED_UNIT(*)
SI_UNIT($,.STERADIAN.)
SOLID_ANGLE_UNIT()
);
#1368=SHAPE_DEFINITION_REPRESENTATION(#1369,#1370);
#1369=PRODUCT_DEFINITION_SHAPE('',$,#1372);
#1370=SHAPE_REPRESENTATION('',(#794),#1362);
#1371=PRODUCT_DEFINITION_CONTEXT('part definition',#1376,'design');
#1372=PRODUCT_DEFINITION('(Unsaved)','(Unsaved)',#1373,#1371);
#1373=PRODUCT_DEFINITION_FORMATION('',$,#1378);
#1374=PRODUCT_RELATED_PRODUCT_CATEGORY('(Unsaved)','(Unsaved)',(#1378));
#1375=APPLICATION_PROTOCOL_DEFINITION('international standard',
'automotive_design',2009,#1376);
#1376=APPLICATION_CONTEXT(
'Core Data for Automotive Mechanical Design Process');
#1377=PRODUCT_CONTEXT('part definition',#1376,'mechanical');
#1378=PRODUCT('(Unsaved)','(Unsaved)',$,(#1377));
#1379=PRESENTATION_STYLE_ASSIGNMENT((#1380));
#1380=SURFACE_STYLE_USAGE(.BOTH.,#1381);
#1381=SURFACE_SIDE_STYLE('',(#1382));
#1382=SURFACE_STYLE_FILL_AREA(#1383);
#1383=FILL_AREA_STYLE('Steel - Satin',(#1384));
#1384=FILL_AREA_STYLE_COLOUR('Steel - Satin',#1385);
#1385=COLOUR_RGB('Steel - Satin',0.627450980392157,0.627450980392157,0.627450980392157);
ENDSEC;
END-ISO-10303-21;
