ISO-10303-21;
HEADER;
/* Generated by software containing ST-Developer
 * from STEP Tools, Inc. (www.steptools.com) 
 */

FILE_DESCRIPTION(
/* description */ (''),
/* implementation_level */ '2;1');

FILE_NAME(
/* name */ 'Angled Open D Handle (Stainless).step',
/* time_stamp */ '2025-10-25T01:00:35-07:00',
/* author */ (''),
/* organization */ (''),
/* preprocessor_version */ 'ST-DEVELOPER v20.1',
/* originating_system */ 'Autodesk Translation Framework v14.17.0.0',
/* authorisation */ '');

FILE_SCHEMA (('AUTOMOTIVE_DESIGN { 1 0 10303 214 3 1 1 }'));
ENDSEC;

DATA;
#10=MECHANICAL_DESIGN_GEOMETRIC_PRESENTATION_REPRESENTATION('',(#13),#657);
#11=SHAPE_REPRESENTATION_RELATIONSHIP('SRR','None',#664,#12);
#12=ADVANCED_BREP_SHAPE_REPRESENTATION('',(#14),#656);
#13=STYLED_ITEM('',(#673),#14);
#14=MANIFOLD_SOLID_BREP('Body1',#381);
#15=FACE_BOUND('',#71,.T.);
#16=FACE_BOUND('',#73,.T.);
#17=FACE_BOUND('',#84,.T.);
#18=FACE_BOUND('',#94,.T.);
#19=CIRCLE('',#397,12.015);
#20=CIRCLE('',#398,12.015);
#21=CIRCLE('',#400,5.71500000000001);
#22=CIRCLE('',#402,16.);
#23=CIRCLE('',#403,6.35);
#24=CIRCLE('',#405,16.);
#25=CIRCLE('',#406,6.35);
#26=CIRCLE('',#410,5.71500000000001);
#27=CIRCLE('',#413,5.715);
#28=CIRCLE('',#414,5.715);
#29=CIRCLE('',#416,12.015);
#30=CIRCLE('',#421,18.);
#31=CIRCLE('',#422,5.);
#32=CIRCLE('',#424,12.015);
#33=CIRCLE('',#426,5.);
#34=CIRCLE('',#432,18.);
#35=CYLINDRICAL_SURFACE('',#396,12.015);
#36=CYLINDRICAL_SURFACE('',#412,5.715);
#37=CYLINDRICAL_SURFACE('',#418,5.71500000000001);
#38=CYLINDRICAL_SURFACE('',#425,5.);
#39=CYLINDRICAL_SURFACE('',#427,6.35);
#40=CYLINDRICAL_SURFACE('',#429,16.);
#41=CYLINDRICAL_SURFACE('',#431,18.);
#42=CYLINDRICAL_SURFACE('',#433,12.015);
#43=FACE_OUTER_BOUND('',#67,.T.);
#44=FACE_OUTER_BOUND('',#68,.T.);
#45=FACE_OUTER_BOUND('',#69,.T.);
#46=FACE_OUTER_BOUND('',#70,.T.);
#47=FACE_OUTER_BOUND('',#72,.T.);
#48=FACE_OUTER_BOUND('',#74,.T.);
#49=FACE_OUTER_BOUND('',#75,.T.);
#50=FACE_OUTER_BOUND('',#76,.T.);
#51=FACE_OUTER_BOUND('',#77,.T.);
#52=FACE_OUTER_BOUND('',#78,.T.);
#53=FACE_OUTER_BOUND('',#79,.T.);
#54=FACE_OUTER_BOUND('',#80,.T.);
#55=FACE_OUTER_BOUND('',#81,.T.);
#56=FACE_OUTER_BOUND('',#82,.T.);
#57=FACE_OUTER_BOUND('',#83,.T.);
#58=FACE_OUTER_BOUND('',#85,.T.);
#59=FACE_OUTER_BOUND('',#86,.T.);
#60=FACE_OUTER_BOUND('',#87,.T.);
#61=FACE_OUTER_BOUND('',#88,.T.);
#62=FACE_OUTER_BOUND('',#89,.T.);
#63=FACE_OUTER_BOUND('',#90,.T.);
#64=FACE_OUTER_BOUND('',#91,.T.);
#65=FACE_OUTER_BOUND('',#92,.T.);
#66=FACE_OUTER_BOUND('',#93,.T.);
#67=EDGE_LOOP('',(#241,#242,#243,#244));
#68=EDGE_LOOP('',(#245,#246,#247,#248));
#69=EDGE_LOOP('',(#249,#250,#251,#252));
#70=EDGE_LOOP('',(#253,#254,#255,#256));
#71=EDGE_LOOP('',(#257));
#72=EDGE_LOOP('',(#258,#259,#260,#261));
#73=EDGE_LOOP('',(#262));
#74=EDGE_LOOP('',(#263,#264,#265,#266));
#75=EDGE_LOOP('',(#267,#268,#269,#270));
#76=EDGE_LOOP('',(#271,#272,#273,#274));
#77=EDGE_LOOP('',(#275,#276,#277,#278));
#78=EDGE_LOOP('',(#279,#280,#281,#282));
#79=EDGE_LOOP('',(#283,#284,#285,#286));
#80=EDGE_LOOP('',(#287,#288,#289,#290));
#81=EDGE_LOOP('',(#291,#292,#293,#294));
#82=EDGE_LOOP('',(#295,#296,#297,#298));
#83=EDGE_LOOP('',(#299,#300,#301,#302));
#84=EDGE_LOOP('',(#303));
#85=EDGE_LOOP('',(#304,#305,#306,#307));
#86=EDGE_LOOP('',(#308,#309,#310,#311));
#87=EDGE_LOOP('',(#312,#313,#314,#315));
#88=EDGE_LOOP('',(#316,#317,#318,#319));
#89=EDGE_LOOP('',(#320,#321,#322,#323));
#90=EDGE_LOOP('',(#324,#325,#326,#327));
#91=EDGE_LOOP('',(#328,#329,#330,#331));
#92=EDGE_LOOP('',(#332,#333,#334,#335));
#93=EDGE_LOOP('',(#336,#337,#338,#339));
#94=EDGE_LOOP('',(#340));
#95=LINE('',#555,#129);
#96=LINE('',#557,#130);
#97=LINE('',#559,#131);
#98=LINE('',#560,#132);
#99=LINE('',#563,#133);
#100=LINE('',#567,#134);
#101=LINE('',#571,#135);
#102=LINE('',#574,#136);
#103=LINE('',#576,#137);
#104=LINE('',#578,#138);
#105=LINE('',#585,#139);
#106=LINE('',#590,#140);
#107=LINE('',#592,#141);
#108=LINE('',#593,#142);
#109=LINE('',#596,#143);
#110=LINE('',#598,#144);
#111=LINE('',#599,#145);
#112=LINE('',#601,#146);
#113=LINE('',#604,#147);
#114=LINE('',#609,#148);
#115=LINE('',#613,#149);
#116=LINE('',#616,#150);
#117=LINE('',#618,#151);
#118=LINE('',#619,#152);
#119=LINE('',#623,#153);
#120=LINE('',#625,#154);
#121=LINE('',#626,#155);
#122=LINE('',#629,#156);
#123=LINE('',#631,#157);
#124=LINE('',#636,#158);
#125=LINE('',#640,#159);
#126=LINE('',#643,#160);
#127=LINE('',#646,#161);
#128=LINE('',#647,#162);
#129=VECTOR('',#439,10.);
#130=VECTOR('',#440,10.);
#131=VECTOR('',#441,10.);
#132=VECTOR('',#442,10.);
#133=VECTOR('',#445,10.);
#134=VECTOR('',#448,10.);
#135=VECTOR('',#453,10.);
#136=VECTOR('',#456,10.);
#137=VECTOR('',#459,10.);
#138=VECTOR('',#460,10.);
#139=VECTOR('',#469,10.);
#140=VECTOR('',#474,10.);
#141=VECTOR('',#475,10.);
#142=VECTOR('',#476,10.);
#143=VECTOR('',#479,10.);
#144=VECTOR('',#480,10.);
#145=VECTOR('',#481,10.);
#146=VECTOR('',#484,10.);
#147=VECTOR('',#489,10.);
#148=VECTOR('',#494,10.);
#149=VECTOR('',#499,10.);
#150=VECTOR('',#502,10.);
#151=VECTOR('',#505,10.);
#152=VECTOR('',#506,10.);
#153=VECTOR('',#511,10.);
#154=VECTOR('',#512,10.);
#155=VECTOR('',#513,10.);
#156=VECTOR('',#516,10.);
#157=VECTOR('',#517,10.);
#158=VECTOR('',#524,10.);
#159=VECTOR('',#529,5.);
#160=VECTOR('',#534,6.35);
#161=VECTOR('',#537,10.);
#162=VECTOR('',#538,10.);
#163=VERTEX_POINT('',#553);
#164=VERTEX_POINT('',#554);
#165=VERTEX_POINT('',#556);
#166=VERTEX_POINT('',#558);
#167=VERTEX_POINT('',#562);
#168=VERTEX_POINT('',#564);
#169=VERTEX_POINT('',#566);
#170=VERTEX_POINT('',#570);
#171=VERTEX_POINT('',#572);
#172=VERTEX_POINT('',#577);
#173=VERTEX_POINT('',#580);
#174=VERTEX_POINT('',#583);
#175=VERTEX_POINT('',#586);
#176=VERTEX_POINT('',#589);
#177=VERTEX_POINT('',#591);
#178=VERTEX_POINT('',#595);
#179=VERTEX_POINT('',#597);
#180=VERTEX_POINT('',#606);
#181=VERTEX_POINT('',#608);
#182=VERTEX_POINT('',#612);
#183=VERTEX_POINT('',#614);
#184=VERTEX_POINT('',#622);
#185=VERTEX_POINT('',#624);
#186=VERTEX_POINT('',#628);
#187=VERTEX_POINT('',#630);
#188=VERTEX_POINT('',#633);
#189=VERTEX_POINT('',#639);
#190=VERTEX_POINT('',#645);
#191=EDGE_CURVE('',#163,#164,#95,.T.);
#192=EDGE_CURVE('',#165,#164,#96,.T.);
#193=EDGE_CURVE('',#165,#166,#97,.T.);
#194=EDGE_CURVE('',#163,#166,#98,.T.);
#195=EDGE_CURVE('',#167,#163,#99,.T.);
#196=EDGE_CURVE('',#167,#168,#19,.T.);
#197=EDGE_CURVE('',#168,#169,#100,.T.);
#198=EDGE_CURVE('',#169,#163,#20,.T.);
#199=EDGE_CURVE('',#170,#167,#101,.T.);
#200=EDGE_CURVE('',#171,#170,#21,.T.);
#201=EDGE_CURVE('',#171,#168,#102,.T.);
#202=EDGE_CURVE('',#164,#170,#103,.T.);
#203=EDGE_CURVE('',#170,#172,#104,.T.);
#204=EDGE_CURVE('',#165,#172,#22,.T.);
#205=EDGE_CURVE('',#173,#173,#23,.T.);
#206=EDGE_CURVE('',#166,#174,#24,.T.);
#207=EDGE_CURVE('',#174,#167,#105,.T.);
#208=EDGE_CURVE('',#175,#175,#25,.T.);
#209=EDGE_CURVE('',#176,#171,#106,.T.);
#210=EDGE_CURVE('',#176,#177,#107,.T.);
#211=EDGE_CURVE('',#168,#177,#108,.T.);
#212=EDGE_CURVE('',#178,#171,#109,.T.);
#213=EDGE_CURVE('',#178,#179,#110,.T.);
#214=EDGE_CURVE('',#179,#176,#111,.T.);
#215=EDGE_CURVE('',#169,#178,#112,.T.);
#216=EDGE_CURVE('',#164,#178,#26,.T.);
#217=EDGE_CURVE('',#172,#174,#113,.T.);
#218=EDGE_CURVE('',#179,#180,#27,.T.);
#219=EDGE_CURVE('',#180,#181,#114,.T.);
#220=EDGE_CURVE('',#181,#176,#28,.T.);
#221=EDGE_CURVE('',#182,#179,#115,.T.);
#222=EDGE_CURVE('',#183,#182,#29,.T.);
#223=EDGE_CURVE('',#183,#180,#116,.T.);
#224=EDGE_CURVE('',#177,#182,#117,.T.);
#225=EDGE_CURVE('',#182,#169,#118,.T.);
#226=EDGE_CURVE('',#184,#183,#119,.T.);
#227=EDGE_CURVE('',#185,#184,#120,.T.);
#228=EDGE_CURVE('',#180,#185,#121,.T.);
#229=EDGE_CURVE('',#186,#183,#122,.T.);
#230=EDGE_CURVE('',#186,#187,#123,.T.);
#231=EDGE_CURVE('',#187,#184,#30,.T.);
#232=EDGE_CURVE('',#188,#188,#31,.T.);
#233=EDGE_CURVE('',#181,#186,#124,.T.);
#234=EDGE_CURVE('',#177,#186,#32,.T.);
#235=EDGE_CURVE('',#188,#189,#125,.T.);
#236=EDGE_CURVE('',#189,#189,#33,.T.);
#237=EDGE_CURVE('',#175,#173,#126,.T.);
#238=EDGE_CURVE('',#190,#181,#127,.T.);
#239=EDGE_CURVE('',#190,#187,#128,.T.);
#240=EDGE_CURVE('',#190,#185,#34,.T.);
#241=ORIENTED_EDGE('',*,*,#191,.T.);
#242=ORIENTED_EDGE('',*,*,#192,.F.);
#243=ORIENTED_EDGE('',*,*,#193,.T.);
#244=ORIENTED_EDGE('',*,*,#194,.F.);
#245=ORIENTED_EDGE('',*,*,#195,.F.);
#246=ORIENTED_EDGE('',*,*,#196,.T.);
#247=ORIENTED_EDGE('',*,*,#197,.T.);
#248=ORIENTED_EDGE('',*,*,#198,.T.);
#249=ORIENTED_EDGE('',*,*,#199,.F.);
#250=ORIENTED_EDGE('',*,*,#200,.F.);
#251=ORIENTED_EDGE('',*,*,#201,.T.);
#252=ORIENTED_EDGE('',*,*,#196,.F.);
#253=ORIENTED_EDGE('',*,*,#202,.T.);
#254=ORIENTED_EDGE('',*,*,#203,.T.);
#255=ORIENTED_EDGE('',*,*,#204,.F.);
#256=ORIENTED_EDGE('',*,*,#192,.T.);
#257=ORIENTED_EDGE('',*,*,#205,.F.);
#258=ORIENTED_EDGE('',*,*,#195,.T.);
#259=ORIENTED_EDGE('',*,*,#194,.T.);
#260=ORIENTED_EDGE('',*,*,#206,.T.);
#261=ORIENTED_EDGE('',*,*,#207,.T.);
#262=ORIENTED_EDGE('',*,*,#208,.T.);
#263=ORIENTED_EDGE('',*,*,#201,.F.);
#264=ORIENTED_EDGE('',*,*,#209,.F.);
#265=ORIENTED_EDGE('',*,*,#210,.T.);
#266=ORIENTED_EDGE('',*,*,#211,.F.);
#267=ORIENTED_EDGE('',*,*,#212,.F.);
#268=ORIENTED_EDGE('',*,*,#213,.T.);
#269=ORIENTED_EDGE('',*,*,#214,.T.);
#270=ORIENTED_EDGE('',*,*,#209,.T.);
#271=ORIENTED_EDGE('',*,*,#191,.F.);
#272=ORIENTED_EDGE('',*,*,#198,.F.);
#273=ORIENTED_EDGE('',*,*,#215,.T.);
#274=ORIENTED_EDGE('',*,*,#216,.F.);
#275=ORIENTED_EDGE('',*,*,#199,.T.);
#276=ORIENTED_EDGE('',*,*,#207,.F.);
#277=ORIENTED_EDGE('',*,*,#217,.F.);
#278=ORIENTED_EDGE('',*,*,#203,.F.);
#279=ORIENTED_EDGE('',*,*,#214,.F.);
#280=ORIENTED_EDGE('',*,*,#218,.T.);
#281=ORIENTED_EDGE('',*,*,#219,.T.);
#282=ORIENTED_EDGE('',*,*,#220,.T.);
#283=ORIENTED_EDGE('',*,*,#221,.F.);
#284=ORIENTED_EDGE('',*,*,#222,.F.);
#285=ORIENTED_EDGE('',*,*,#223,.T.);
#286=ORIENTED_EDGE('',*,*,#218,.F.);
#287=ORIENTED_EDGE('',*,*,#197,.F.);
#288=ORIENTED_EDGE('',*,*,#211,.T.);
#289=ORIENTED_EDGE('',*,*,#224,.T.);
#290=ORIENTED_EDGE('',*,*,#225,.T.);
#291=ORIENTED_EDGE('',*,*,#202,.F.);
#292=ORIENTED_EDGE('',*,*,#216,.T.);
#293=ORIENTED_EDGE('',*,*,#212,.T.);
#294=ORIENTED_EDGE('',*,*,#200,.T.);
#295=ORIENTED_EDGE('',*,*,#223,.F.);
#296=ORIENTED_EDGE('',*,*,#226,.F.);
#297=ORIENTED_EDGE('',*,*,#227,.F.);
#298=ORIENTED_EDGE('',*,*,#228,.F.);
#299=ORIENTED_EDGE('',*,*,#229,.F.);
#300=ORIENTED_EDGE('',*,*,#230,.T.);
#301=ORIENTED_EDGE('',*,*,#231,.T.);
#302=ORIENTED_EDGE('',*,*,#226,.T.);
#303=ORIENTED_EDGE('',*,*,#232,.T.);
#304=ORIENTED_EDGE('',*,*,#210,.F.);
#305=ORIENTED_EDGE('',*,*,#220,.F.);
#306=ORIENTED_EDGE('',*,*,#233,.T.);
#307=ORIENTED_EDGE('',*,*,#234,.F.);
#308=ORIENTED_EDGE('',*,*,#232,.F.);
#309=ORIENTED_EDGE('',*,*,#235,.T.);
#310=ORIENTED_EDGE('',*,*,#236,.T.);
#311=ORIENTED_EDGE('',*,*,#235,.F.);
#312=ORIENTED_EDGE('',*,*,#208,.F.);
#313=ORIENTED_EDGE('',*,*,#237,.T.);
#314=ORIENTED_EDGE('',*,*,#205,.T.);
#315=ORIENTED_EDGE('',*,*,#237,.F.);
#316=ORIENTED_EDGE('',*,*,#233,.F.);
#317=ORIENTED_EDGE('',*,*,#238,.F.);
#318=ORIENTED_EDGE('',*,*,#239,.T.);
#319=ORIENTED_EDGE('',*,*,#230,.F.);
#320=ORIENTED_EDGE('',*,*,#204,.T.);
#321=ORIENTED_EDGE('',*,*,#217,.T.);
#322=ORIENTED_EDGE('',*,*,#206,.F.);
#323=ORIENTED_EDGE('',*,*,#193,.F.);
#324=ORIENTED_EDGE('',*,*,#215,.F.);
#325=ORIENTED_EDGE('',*,*,#225,.F.);
#326=ORIENTED_EDGE('',*,*,#221,.T.);
#327=ORIENTED_EDGE('',*,*,#213,.F.);
#328=ORIENTED_EDGE('',*,*,#240,.T.);
#329=ORIENTED_EDGE('',*,*,#227,.T.);
#330=ORIENTED_EDGE('',*,*,#231,.F.);
#331=ORIENTED_EDGE('',*,*,#239,.F.);
#332=ORIENTED_EDGE('',*,*,#224,.F.);
#333=ORIENTED_EDGE('',*,*,#234,.T.);
#334=ORIENTED_EDGE('',*,*,#229,.T.);
#335=ORIENTED_EDGE('',*,*,#222,.T.);
#336=ORIENTED_EDGE('',*,*,#219,.F.);
#337=ORIENTED_EDGE('',*,*,#228,.T.);
#338=ORIENTED_EDGE('',*,*,#240,.F.);
#339=ORIENTED_EDGE('',*,*,#238,.T.);
#340=ORIENTED_EDGE('',*,*,#236,.F.);
#341=PLANE('',#395);
#342=PLANE('',#399);
#343=PLANE('',#401);
#344=PLANE('',#404);
#345=PLANE('',#407);
#346=PLANE('',#408);
#347=PLANE('',#409);
#348=PLANE('',#411);
#349=PLANE('',#415);
#350=PLANE('',#417);
#351=PLANE('',#419);
#352=PLANE('',#420);
#353=PLANE('',#423);
#354=PLANE('',#428);
#355=PLANE('',#430);
#356=PLANE('',#434);
#357=ADVANCED_FACE('',(#43),#341,.T.);
#358=ADVANCED_FACE('',(#44),#35,.T.);
#359=ADVANCED_FACE('',(#45),#342,.T.);
#360=ADVANCED_FACE('',(#46,#15),#343,.F.);
#361=ADVANCED_FACE('',(#47,#16),#344,.T.);
#362=ADVANCED_FACE('',(#48),#345,.T.);
#363=ADVANCED_FACE('',(#49),#346,.F.);
#364=ADVANCED_FACE('',(#50),#347,.T.);
#365=ADVANCED_FACE('',(#51),#348,.T.);
#366=ADVANCED_FACE('',(#52),#36,.F.);
#367=ADVANCED_FACE('',(#53),#349,.T.);
#368=ADVANCED_FACE('',(#54),#350,.T.);
#369=ADVANCED_FACE('',(#55),#37,.F.);
#370=ADVANCED_FACE('',(#56),#351,.T.);
#371=ADVANCED_FACE('',(#57,#17),#352,.T.);
#372=ADVANCED_FACE('',(#58),#353,.T.);
#373=ADVANCED_FACE('',(#59),#38,.F.);
#374=ADVANCED_FACE('',(#60),#39,.F.);
#375=ADVANCED_FACE('',(#61),#354,.T.);
#376=ADVANCED_FACE('',(#62),#40,.T.);
#377=ADVANCED_FACE('',(#63),#355,.T.);
#378=ADVANCED_FACE('',(#64),#41,.T.);
#379=ADVANCED_FACE('',(#65),#42,.T.);
#380=ADVANCED_FACE('',(#66,#18),#356,.F.);
#381=CLOSED_SHELL('',(#357,#358,#359,#360,#361,#362,#363,#364,#365,#366,
#367,#368,#369,#370,#371,#372,#373,#374,#375,#376,#377,#378,#379,#380));
#382=DERIVED_UNIT_ELEMENT(#384,1.);
#383=DERIVED_UNIT_ELEMENT(#659,-3.);
#384=(
MASS_UNIT()
NAMED_UNIT(*)
SI_UNIT(.KILO.,.GRAM.)
);
#385=DERIVED_UNIT((#382,#383));
#386=MEASURE_REPRESENTATION_ITEM('density measure',
POSITIVE_RATIO_MEASURE(7850.),#385);
#387=PROPERTY_DEFINITION_REPRESENTATION(#392,#389);
#388=PROPERTY_DEFINITION_REPRESENTATION(#393,#390);
#389=REPRESENTATION('material name',(#391),#656);
#390=REPRESENTATION('density',(#386),#656);
#391=DESCRIPTIVE_REPRESENTATION_ITEM('Steel','Steel');
#392=PROPERTY_DEFINITION('material property','material name',#666);
#393=PROPERTY_DEFINITION('material property','density of part',#666);
#394=AXIS2_PLACEMENT_3D('',#551,#435,#436);
#395=AXIS2_PLACEMENT_3D('',#552,#437,#438);
#396=AXIS2_PLACEMENT_3D('',#561,#443,#444);
#397=AXIS2_PLACEMENT_3D('',#565,#446,#447);
#398=AXIS2_PLACEMENT_3D('',#568,#449,#450);
#399=AXIS2_PLACEMENT_3D('',#569,#451,#452);
#400=AXIS2_PLACEMENT_3D('',#573,#454,#455);
#401=AXIS2_PLACEMENT_3D('',#575,#457,#458);
#402=AXIS2_PLACEMENT_3D('',#579,#461,#462);
#403=AXIS2_PLACEMENT_3D('',#581,#463,#464);
#404=AXIS2_PLACEMENT_3D('',#582,#465,#466);
#405=AXIS2_PLACEMENT_3D('',#584,#467,#468);
#406=AXIS2_PLACEMENT_3D('',#587,#470,#471);
#407=AXIS2_PLACEMENT_3D('',#588,#472,#473);
#408=AXIS2_PLACEMENT_3D('',#594,#477,#478);
#409=AXIS2_PLACEMENT_3D('',#600,#482,#483);
#410=AXIS2_PLACEMENT_3D('',#602,#485,#486);
#411=AXIS2_PLACEMENT_3D('',#603,#487,#488);
#412=AXIS2_PLACEMENT_3D('',#605,#490,#491);
#413=AXIS2_PLACEMENT_3D('',#607,#492,#493);
#414=AXIS2_PLACEMENT_3D('',#610,#495,#496);
#415=AXIS2_PLACEMENT_3D('',#611,#497,#498);
#416=AXIS2_PLACEMENT_3D('',#615,#500,#501);
#417=AXIS2_PLACEMENT_3D('',#617,#503,#504);
#418=AXIS2_PLACEMENT_3D('',#620,#507,#508);
#419=AXIS2_PLACEMENT_3D('',#621,#509,#510);
#420=AXIS2_PLACEMENT_3D('',#627,#514,#515);
#421=AXIS2_PLACEMENT_3D('',#632,#518,#519);
#422=AXIS2_PLACEMENT_3D('',#634,#520,#521);
#423=AXIS2_PLACEMENT_3D('',#635,#522,#523);
#424=AXIS2_PLACEMENT_3D('',#637,#525,#526);
#425=AXIS2_PLACEMENT_3D('',#638,#527,#528);
#426=AXIS2_PLACEMENT_3D('',#641,#530,#531);
#427=AXIS2_PLACEMENT_3D('',#642,#532,#533);
#428=AXIS2_PLACEMENT_3D('',#644,#535,#536);
#429=AXIS2_PLACEMENT_3D('',#648,#539,#540);
#430=AXIS2_PLACEMENT_3D('',#649,#541,#542);
#431=AXIS2_PLACEMENT_3D('',#650,#543,#544);
#432=AXIS2_PLACEMENT_3D('',#651,#545,#546);
#433=AXIS2_PLACEMENT_3D('',#652,#547,#548);
#434=AXIS2_PLACEMENT_3D('',#653,#549,#550);
#435=DIRECTION('axis',(0.,0.,1.));
#436=DIRECTION('refdir',(1.,0.,0.));
#437=DIRECTION('center_axis',(2.41905780816893E-17,1.,1.05618344854855E-18));
#438=DIRECTION('ref_axis',(0.087155742747658,-1.05618344854855E-18,-0.996194698091746));
#439=DIRECTION('',(0.996194698091746,-2.41905780816893E-17,0.087155742747658));
#440=DIRECTION('',(-0.087155742747658,1.05618344854855E-18,0.996194698091746));
#441=DIRECTION('',(-0.996194698091746,2.41905780816893E-17,-0.087155742747658));
#442=DIRECTION('',(0.087155742747658,-1.05618344854855E-18,-0.996194698091746));
#443=DIRECTION('center_axis',(-1.69953884180861E-32,-1.,-2.77555756156289E-16));
#444=DIRECTION('ref_axis',(-1.,0.,6.12323399573677E-17));
#445=DIRECTION('',(-2.68784200907653E-18,1.,3.08277930901593E-16));
#446=DIRECTION('center_axis',(1.69953884180861E-32,1.,2.77555756156289E-16));
#447=DIRECTION('ref_axis',(-0.996194698091746,0.,-0.0871557427476579));
#448=DIRECTION('',(1.88837649089846E-32,1.,3.08395284618099E-16));
#449=DIRECTION('center_axis',(-1.69953884180861E-32,-1.,-2.77555756156289E-16));
#450=DIRECTION('ref_axis',(-1.,0.,0.));
#451=DIRECTION('center_axis',(-1.69953884180861E-32,-1.,-2.77555756156289E-16));
#452=DIRECTION('ref_axis',(0.,2.77555756156289E-16,-1.));
#453=DIRECTION('',(-0.996194698091746,2.41905780816893E-17,-0.087155742747658));
#454=DIRECTION('center_axis',(-1.69953884180861E-32,-1.,-2.77555756156289E-16));
#455=DIRECTION('ref_axis',(-1.,0.,1.554117969729E-15));
#456=DIRECTION('',(-1.,-2.55111560080014E-34,5.1753747260325E-17));
#457=DIRECTION('center_axis',(-0.996194698091746,2.41905780816893E-17,-0.087155742747658));
#458=DIRECTION('ref_axis',(-0.087155742747658,1.05618344854855E-18,0.996194698091746));
#459=DIRECTION('',(2.68784200907653E-18,-1.,-3.08277930901593E-16));
#460=DIRECTION('',(0.087155742747658,-2.7970681015219E-17,-0.996194698091746));
#461=DIRECTION('center_axis',(-0.996194698091746,2.41905780816893E-17,-0.087155742747658));
#462=DIRECTION('ref_axis',(-0.087155742747658,1.05618344854855E-18,0.996194698091746));
#463=DIRECTION('center_axis',(0.996194698091746,-2.41905780816893E-17,0.087155742747658));
#464=DIRECTION('ref_axis',(-0.087155742747658,1.05618344854855E-18,0.996194698091746));
#465=DIRECTION('center_axis',(-0.996194698091746,2.41905780816893E-17,-0.087155742747658));
#466=DIRECTION('ref_axis',(-0.087155742747658,1.05618344854855E-18,0.996194698091746));
#467=DIRECTION('center_axis',(-0.996194698091746,2.41905780816893E-17,-0.087155742747658));
#468=DIRECTION('ref_axis',(-0.087155742747658,1.05618344854855E-18,0.996194698091746));
#469=DIRECTION('',(-0.087155742747658,2.7970681015219E-17,0.996194698091746));
#470=DIRECTION('center_axis',(0.996194698091746,-2.41905780816893E-17,0.087155742747658));
#471=DIRECTION('ref_axis',(-0.087155742747658,1.05618344854855E-18,0.996194698091746));
#472=DIRECTION('center_axis',(1.64803766478411E-33,-1.,2.69144975666705E-17));
#473=DIRECTION('ref_axis',(6.12323399573677E-17,2.69144975666705E-17,1.));
#474=DIRECTION('',(-6.12323399573677E-17,-2.69144975666705E-17,-1.));
#475=DIRECTION('',(-1.,0.,6.12323399573677E-17));
#476=DIRECTION('',(6.12323399573677E-17,2.69144975666705E-17,1.));
#477=DIRECTION('center_axis',(-1.,0.,6.12323399573677E-17));
#478=DIRECTION('ref_axis',(6.12323399573677E-17,0.,1.));
#479=DIRECTION('',(-1.88837649089846E-32,-1.,-3.08395284618099E-16));
#480=DIRECTION('',(6.12323399573677E-17,0.,1.));
#481=DIRECTION('',(0.,-1.,0.));
#482=DIRECTION('center_axis',(1.69953884180861E-32,1.,2.77555756156289E-16));
#483=DIRECTION('ref_axis',(0.,-2.77555756156289E-16,1.));
#484=DIRECTION('',(1.,0.,-5.1753747260325E-17));
#485=DIRECTION('center_axis',(1.69953884180861E-32,1.,2.77555756156289E-16));
#486=DIRECTION('ref_axis',(-0.996194698091745,0.,-0.0871557427476592));
#487=DIRECTION('center_axis',(-2.65363311077924E-17,-1.,2.57558963291718E-17));
#488=DIRECTION('ref_axis',(-0.087155742747658,2.7970681015219E-17,0.996194698091746));
#489=DIRECTION('',(-0.996194698091746,2.41905780816893E-17,-0.087155742747658));
#490=DIRECTION('center_axis',(0.,-1.,0.));
#491=DIRECTION('ref_axis',(0.,0.,1.));
#492=DIRECTION('center_axis',(0.,1.,0.));
#493=DIRECTION('ref_axis',(-1.,0.,-1.94264746216125E-16));
#494=DIRECTION('',(0.,-1.,0.));
#495=DIRECTION('center_axis',(0.,-1.,0.));
#496=DIRECTION('ref_axis',(3.88529492432251E-16,0.,1.));
#497=DIRECTION('center_axis',(0.,1.,0.));
#498=DIRECTION('ref_axis',(0.,0.,1.));
#499=DIRECTION('',(1.,0.,-6.12323399573677E-17));
#500=DIRECTION('center_axis',(0.,-1.,0.));
#501=DIRECTION('ref_axis',(-9.24030815335128E-16,0.,1.));
#502=DIRECTION('',(0.,0.,-1.));
#503=DIRECTION('center_axis',(-1.,0.,6.12323399573677E-17));
#504=DIRECTION('ref_axis',(6.12323399573677E-17,0.,1.));
#505=DIRECTION('',(0.,1.,0.));
#506=DIRECTION('',(-6.12323399573677E-17,0.,-1.));
#507=DIRECTION('center_axis',(-1.69953884180861E-32,-1.,-2.77555756156289E-16));
#508=DIRECTION('ref_axis',(-1.,0.,6.12323399573677E-17));
#509=DIRECTION('center_axis',(0.,1.,0.));
#510=DIRECTION('ref_axis',(-1.,0.,0.));
#511=DIRECTION('',(-1.,0.,0.));
#512=DIRECTION('',(0.,0.,1.));
#513=DIRECTION('',(1.,0.,0.));
#514=DIRECTION('center_axis',(0.,0.,1.));
#515=DIRECTION('ref_axis',(1.,0.,0.));
#516=DIRECTION('',(0.,1.,0.));
#517=DIRECTION('',(1.,2.69144975666705E-17,0.));
#518=DIRECTION('center_axis',(0.,0.,1.));
#519=DIRECTION('ref_axis',(1.,0.,0.));
#520=DIRECTION('center_axis',(0.,0.,-1.));
#521=DIRECTION('ref_axis',(1.,0.,0.));
#522=DIRECTION('center_axis',(0.,-1.,0.));
#523=DIRECTION('ref_axis',(0.,0.,-1.));
#524=DIRECTION('',(0.,0.,1.));
#525=DIRECTION('center_axis',(0.,1.,0.));
#526=DIRECTION('ref_axis',(-1.,0.,-1.84806163067026E-16));
#527=DIRECTION('center_axis',(0.,0.,1.));
#528=DIRECTION('ref_axis',(1.,0.,0.));
#529=DIRECTION('',(0.,0.,-1.));
#530=DIRECTION('center_axis',(0.,0.,-1.));
#531=DIRECTION('ref_axis',(1.,0.,0.));
#532=DIRECTION('center_axis',(-0.996194698091746,2.41905780816893E-17,-0.087155742747658));
#533=DIRECTION('ref_axis',(-0.087155742747658,1.05618344854855E-18,0.996194698091746));
#534=DIRECTION('',(0.996194698091746,-2.41905780816893E-17,0.087155742747658));
#535=DIRECTION('center_axis',(2.69144975666705E-17,-1.,0.));
#536=DIRECTION('ref_axis',(1.,2.69144975666705E-17,0.));
#537=DIRECTION('',(-1.,-2.69144975666705E-17,0.));
#538=DIRECTION('',(0.,0.,1.));
#539=DIRECTION('center_axis',(-0.996194698091746,2.41905780816893E-17,-0.087155742747658));
#540=DIRECTION('ref_axis',(0.087155742747658,1.21408496466187E-16,-0.996194698091746));
#541=DIRECTION('center_axis',(0.,1.,0.));
#542=DIRECTION('ref_axis',(-6.12323399573677E-17,0.,-1.));
#543=DIRECTION('center_axis',(0.,0.,1.));
#544=DIRECTION('ref_axis',(1.,0.,0.));
#545=DIRECTION('center_axis',(0.,0.,1.));
#546=DIRECTION('ref_axis',(1.,0.,0.));
#547=DIRECTION('center_axis',(0.,-1.,0.));
#548=DIRECTION('ref_axis',(0.,0.,1.));
#549=DIRECTION('center_axis',(0.,0.,1.));
#550=DIRECTION('ref_axis',(1.,0.,0.));
#551=CARTESIAN_POINT('',(0.,0.,0.));
#552=CARTESIAN_POINT('Origin',(-3.09246286515376,16.,54.007300394972));
#553=CARTESIAN_POINT('',(-1.2624059277586,16.,-39.1947395642062));
#554=CARTESIAN_POINT('',(5.0136206702194,16.,-38.645658384896));
#555=CARTESIAN_POINT('',(2.52718177794249,16.,-38.8631936005202));
#556=CARTESIAN_POINT('',(7.78054625382924,16.,-70.271762523405));
#557=CARTESIAN_POINT('',(9.17503813779178,16.,-86.210877692873));
#558=CARTESIAN_POINT('',(1.50451965585125,16.,-70.8208437027153));
#559=CARTESIAN_POINT('',(7.78054625382924,16.,-70.271762523405));
#560=CARTESIAN_POINT('',(2.89901153981378,16.,-86.7599588721832));
#561=CARTESIAN_POINT('Origin',(10.7068733698137,-2.22044604925031E-15,-38.1475633150931));
#562=CARTESIAN_POINT('',(-1.2624059277586,-16.,-39.1947395642062));
#563=CARTESIAN_POINT('',(-1.2624059277586,1.27115984047029E-14,-39.1947395642062));
#564=CARTESIAN_POINT('',(-1.30812663018627,-16.,-38.1475633150931));
#565=CARTESIAN_POINT('Origin',(10.7068733698137,-16.,-38.1475633150931));
#566=CARTESIAN_POINT('',(-1.30812663018628,16.,-38.1475633150931));
#567=CARTESIAN_POINT('',(-1.30812663018627,1.23998034062822E-14,-38.1475633150931));
#568=CARTESIAN_POINT('Origin',(10.7068733698137,16.,-38.1475633150931));
#569=CARTESIAN_POINT('Origin',(5.0136206702194,-16.,-38.645658384896));
#570=CARTESIAN_POINT('',(5.0136206702194,-16.,-38.645658384896));
#571=CARTESIAN_POINT('',(2.52718177794249,-16.,-38.8631936005202));
#572=CARTESIAN_POINT('',(4.99187336981373,-16.,-38.1475633150931));
#573=CARTESIAN_POINT('Origin',(10.7068733698137,-16.,-38.1475633150931));
#574=CARTESIAN_POINT('',(2.49593668490686,-16.,-38.1475633150931));
#575=CARTESIAN_POINT('Origin',(1.89753361836233,2.20615019919823E-15,-3.0286204022122));
#576=CARTESIAN_POINT('',(5.0136206702194,1.25591977627882E-14,-38.645658384896));
#577=CARTESIAN_POINT('',(7.78054625382924,-16.,-70.271762523405));
#578=CARTESIAN_POINT('',(-5.2056594155718,-16.,78.161247492265));
#579=CARTESIAN_POINT('Origin',(7.78054625382924,2.37102904283088E-16,-70.271762523405));
#580=CARTESIAN_POINT('',(8.33398522027687,-5.47254578073764E-16,-76.5975988562876));
#581=CARTESIAN_POINT('Origin',(7.78054625382924,2.37102904283088E-16,-70.271762523405));
#582=CARTESIAN_POINT('Origin',(-4.37849297961567,2.35855084111287E-15,-3.57770158152245));
#583=CARTESIAN_POINT('',(1.50451965585125,-16.,-70.8208437027153));
#584=CARTESIAN_POINT('Origin',(1.50451965585125,3.8950354619773E-16,-70.8208437027153));
#585=CARTESIAN_POINT('',(-11.4816860135498,-16.,77.6121663129548));
#586=CARTESIAN_POINT('',(2.05795862229888,-3.94853936159122E-16,-77.1466800355979));
#587=CARTESIAN_POINT('Origin',(1.50451965585125,3.8950354619773E-16,-70.8208437027153));
#588=CARTESIAN_POINT('Origin',(4.99187336981372,-16.,-70.5801266301862));
#589=CARTESIAN_POINT('',(4.99187336981373,-16.,-5.715));
#590=CARTESIAN_POINT('',(4.99187336981373,-16.,78.4198733698138));
#591=CARTESIAN_POINT('',(-1.30812663018627,-16.,-5.715));
#592=CARTESIAN_POINT('',(4.99187336981373,-16.,-5.715));
#593=CARTESIAN_POINT('',(-1.30812663018627,-16.,78.4198733698138));
#594=CARTESIAN_POINT('Origin',(4.99187336981373,2.22044604925031E-15,-3.08012663018623));
#595=CARTESIAN_POINT('',(4.99187336981373,16.,-38.1475633150931));
#596=CARTESIAN_POINT('',(4.99187336981373,1.23998034062822E-14,-38.1475633150931));
#597=CARTESIAN_POINT('',(4.99187336981373,16.,-5.715));
#598=CARTESIAN_POINT('',(4.99187336981372,16.,-86.5801266301862));
#599=CARTESIAN_POINT('',(4.99187336981373,1.11022302462516E-15,-5.715));
#600=CARTESIAN_POINT('Origin',(-1.2624059277586,16.,-39.1947395642062));
#601=CARTESIAN_POINT('',(2.49593668490686,16.,-38.1475633150931));
#602=CARTESIAN_POINT('Origin',(10.7068733698137,16.,-38.1475633150931));
#603=CARTESIAN_POINT('Origin',(7.78054625382924,-16.,-70.271762523405));
#604=CARTESIAN_POINT('',(7.78054625382924,-16.,-70.271762523405));
#605=CARTESIAN_POINT('Origin',(10.7068733698137,0.,-5.715));
#606=CARTESIAN_POINT('',(10.7068733698137,16.,0.));
#607=CARTESIAN_POINT('Origin',(10.7068733698137,16.,-5.715));
#608=CARTESIAN_POINT('',(10.7068733698137,-16.,0.));
#609=CARTESIAN_POINT('',(10.7068733698137,1.11022302462516E-15,0.));
#610=CARTESIAN_POINT('Origin',(10.7068733698137,-16.,-5.715));
#611=CARTESIAN_POINT('Origin',(-1.30812663018627,16.,-5.715));
#612=CARTESIAN_POINT('',(-1.30812663018627,16.,-5.715));
#613=CARTESIAN_POINT('',(4.99187336981373,16.,-5.715));
#614=CARTESIAN_POINT('',(10.7068733698137,16.,6.3));
#615=CARTESIAN_POINT('Origin',(10.7068733698137,16.,-5.715));
#616=CARTESIAN_POINT('',(10.7068733698137,16.,0.));
#617=CARTESIAN_POINT('Origin',(-1.30812663018627,2.22044604925031E-15,-3.08012663018623));
#618=CARTESIAN_POINT('',(-1.30812663018627,1.11022302462516E-15,-5.715));
#619=CARTESIAN_POINT('',(-1.30812663018628,16.,-86.5801266301862));
#620=CARTESIAN_POINT('Origin',(10.7068733698137,-2.22044604925031E-15,-38.1475633150931));
#621=CARTESIAN_POINT('Origin',(58.2537887487646,16.,0.));
#622=CARTESIAN_POINT('',(58.2537887487646,16.,6.3));
#623=CARTESIAN_POINT('',(-82.5,16.,6.3));
#624=CARTESIAN_POINT('',(58.2537887487646,16.,0.));
#625=CARTESIAN_POINT('',(58.2537887487646,16.,0.));
#626=CARTESIAN_POINT('',(-82.5,16.,0.));
#627=CARTESIAN_POINT('Origin',(0.999999999999996,2.22044604925031E-15,6.3));
#628=CARTESIAN_POINT('',(10.7068733698137,-16.,6.3));
#629=CARTESIAN_POINT('',(10.7068733698137,1.11022302462516E-15,6.3));
#630=CARTESIAN_POINT('',(58.2537887487646,-16.,6.3));
#631=CARTESIAN_POINT('',(82.5,-16.,6.3));
#632=CARTESIAN_POINT('Origin',(66.5,1.43291416173733E-15,6.3));
#633=CARTESIAN_POINT('',(61.5,8.20590762163654E-16,6.3));
#634=CARTESIAN_POINT('Origin',(66.5,1.43291416173733E-15,6.3));
#635=CARTESIAN_POINT('Origin',(4.99187336981373,-16.,-5.715));
#636=CARTESIAN_POINT('',(10.7068733698137,-16.,0.));
#637=CARTESIAN_POINT('Origin',(10.7068733698137,-16.,-5.715));
#638=CARTESIAN_POINT('Origin',(66.5,1.43291416173733E-15,0.));
#639=CARTESIAN_POINT('',(61.5,8.20590762163654E-16,0.));
#640=CARTESIAN_POINT('',(61.5,8.20590762163654E-16,0.));
#641=CARTESIAN_POINT('Origin',(66.5,1.43291416173733E-15,0.));
#642=CARTESIAN_POINT('Origin',(7.78054625382924,2.37102904283088E-16,-70.271762523405));
#643=CARTESIAN_POINT('',(8.33398522027687,-5.47254578073764E-16,-76.5975988562876));
#644=CARTESIAN_POINT('Origin',(-66.5,-16.,0.));
#645=CARTESIAN_POINT('',(58.2537887487646,-16.,0.));
#646=CARTESIAN_POINT('',(82.5,-16.,0.));
#647=CARTESIAN_POINT('',(58.2537887487646,-16.,0.));
#648=CARTESIAN_POINT('Origin',(7.78054625382924,2.37102904283088E-16,-70.271762523405));
#649=CARTESIAN_POINT('Origin',(4.99187336981373,16.,54.1736621185784));
#650=CARTESIAN_POINT('Origin',(66.5,1.43291416173733E-15,0.));
#651=CARTESIAN_POINT('Origin',(66.5,1.43291416173733E-15,0.));
#652=CARTESIAN_POINT('Origin',(10.7068733698137,0.,-5.715));
#653=CARTESIAN_POINT('Origin',(0.999999999999996,2.22044604925031E-15,0.));
#654=UNCERTAINTY_MEASURE_WITH_UNIT(LENGTH_MEASURE(0.01),#658,
'DISTANCE_ACCURACY_VALUE',
'Maximum model space distance between geometric entities at asserted c
onnectivities');
#655=UNCERTAINTY_MEASURE_WITH_UNIT(LENGTH_MEASURE(0.01),#658,
'DISTANCE_ACCURACY_VALUE',
'Maximum model space distance between geometric entities at asserted c
onnectivities');
#656=(
GEOMETRIC_REPRESENTATION_CONTEXT(3)
GLOBAL_UNCERTAINTY_ASSIGNED_CONTEXT((#654))
GLOBAL_UNIT_ASSIGNED_CONTEXT((#658,#660,#661))
REPRESENTATION_CONTEXT('','3D')
);
#657=(
GEOMETRIC_REPRESENTATION_CONTEXT(3)
GLOBAL_UNCERTAINTY_ASSIGNED_CONTEXT((#655))
GLOBAL_UNIT_ASSIGNED_CONTEXT((#658,#660,#661))
REPRESENTATION_CONTEXT('','3D')
);
#658=(
LENGTH_UNIT()
NAMED_UNIT(*)
SI_UNIT(.MILLI.,.METRE.)
);
#659=(
LENGTH_UNIT()
NAMED_UNIT(*)
SI_UNIT($,.METRE.)
);
#660=(
NAMED_UNIT(*)
PLANE_ANGLE_UNIT()
SI_UNIT($,.RADIAN.)
);
#661=(
NAMED_UNIT(*)
SI_UNIT($,.STERADIAN.)
SOLID_ANGLE_UNIT()
);
#662=SHAPE_DEFINITION_REPRESENTATION(#663,#664);
#663=PRODUCT_DEFINITION_SHAPE('',$,#666);
#664=SHAPE_REPRESENTATION('',(#394),#656);
#665=PRODUCT_DEFINITION_CONTEXT('part definition',#670,'design');
#666=PRODUCT_DEFINITION('(Unsaved)','(Unsaved)',#667,#665);
#667=PRODUCT_DEFINITION_FORMATION('',$,#672);
#668=PRODUCT_RELATED_PRODUCT_CATEGORY('(Unsaved)','(Unsaved)',(#672));
#669=APPLICATION_PROTOCOL_DEFINITION('international standard',
'automotive_design',2009,#670);
#670=APPLICATION_CONTEXT(
'Core Data for Automotive Mechanical Design Process');
#671=PRODUCT_CONTEXT('part definition',#670,'mechanical');
#672=PRODUCT('(Unsaved)','(Unsaved)',$,(#671));
#673=PRESENTATION_STYLE_ASSIGNMENT((#674));
#674=SURFACE_STYLE_USAGE(.BOTH.,#675);
#675=SURFACE_SIDE_STYLE('',(#676));
#676=SURFACE_STYLE_FILL_AREA(#677);
#677=FILL_AREA_STYLE('Steel - Satin',(#678));
#678=FILL_AREA_STYLE_COLOUR('Steel - Satin',#679);
#679=COLOUR_RGB('Steel - Satin',0.627450980392157,0.627450980392157,0.627450980392157);
ENDSEC;
END-ISO-10303-21;
