ISO-10303-21;
HEADER;
/* Generated by software containing ST-Developer
 * from STEP Tools, Inc. (www.steptools.com) 
 */

FILE_DESCRIPTION(
/* description */ (''),
/* implementation_level */ '2;1');

FILE_NAME(
/* name */ 
'Hammer Supported Curl Bracket VF (angled pads) LEFT.step',
/* time_stamp */ '2026-02-20T10:16:22-08:00',
/* author */ (''),
/* organization */ (''),
/* preprocessor_version */ 'ST-DEVELOPER v20.1',
/* originating_system */ 'Autodesk Translation Framework v14.24.0.0',
/* authorisation */ '');

FILE_SCHEMA (('AUTOMOTIVE_DESIGN { 1 0 10303 214 3 1 1 }'));
ENDSEC;

DATA;
#10=MECHANICAL_DESIGN_GEOMETRIC_PRESENTATION_REPRESENTATION('',(#13),#1377);
#11=SHAPE_REPRESENTATION_RELATIONSHIP('SRR','None',#1384,#12);
#12=ADVANCED_BREP_SHAPE_REPRESENTATION('',(#14),#1376);
#13=STYLED_ITEM('',(#1393),#14);
#14=MANIFOLD_SOLID_BREP('Left_Bracket',#807);
#15=B_SPLINE_CURVE_WITH_KNOTS('',3,(#1272,#1273,#1274,#1275),
 .UNSPECIFIED.,.F.,.F.,(4,4),(0.308638525784824,0.337343603263205),
 .UNSPECIFIED.);
#16=B_SPLINE_CURVE_WITH_KNOTS('',3,(#1279,#1280,#1281,#1282),
 .UNSPECIFIED.,.F.,.F.,(4,4),(-0.337343603263205,-0.308638525784824),
 .UNSPECIFIED.);
#17=B_SPLINE_SURFACE_WITH_KNOTS('',3,3,((#1254,#1255,#1256,#1257),(#1258,
#1259,#1260,#1261),(#1262,#1263,#1264,#1265),(#1266,#1267,#1268,#1269)),
 .UNSPECIFIED.,.F.,.F.,.F.,(4,4),(4,4),(0.,0.315),(-0.337343603263205,-0.308638525784824),
 .UNSPECIFIED.);
#18=FACE_BOUND('',#103,.T.);
#19=FACE_BOUND('',#108,.T.);
#20=FACE_BOUND('',#112,.T.);
#21=FACE_BOUND('',#115,.T.);
#22=FACE_BOUND('',#124,.T.);
#23=FACE_BOUND('',#125,.T.);
#24=FACE_BOUND('',#126,.T.);
#25=FACE_BOUND('',#128,.T.);
#26=FACE_BOUND('',#129,.T.);
#27=FACE_BOUND('',#130,.T.);
#28=PLANE('',#824);
#29=PLANE('',#828);
#30=PLANE('',#829);
#31=PLANE('',#839);
#32=PLANE('',#840);
#33=PLANE('',#845);
#34=PLANE('',#846);
#35=PLANE('',#850);
#36=PLANE('',#851);
#37=PLANE('',#858);
#38=PLANE('',#862);
#39=PLANE('',#864);
#40=PLANE('',#869);
#41=PLANE('',#874);
#42=PLANE('',#875);
#43=PLANE('',#878);
#44=PLANE('',#879);
#45=PLANE('',#880);
#46=PLANE('',#881);
#47=PLANE('',#882);
#48=PLANE('',#887);
#49=PLANE('',#889);
#50=PLANE('',#890);
#51=PLANE('',#891);
#52=PLANE('',#892);
#53=PLANE('',#894);
#54=FACE_OUTER_BOUND('',#98,.T.);
#55=FACE_OUTER_BOUND('',#99,.T.);
#56=FACE_OUTER_BOUND('',#100,.T.);
#57=FACE_OUTER_BOUND('',#101,.T.);
#58=FACE_OUTER_BOUND('',#102,.T.);
#59=FACE_OUTER_BOUND('',#104,.T.);
#60=FACE_OUTER_BOUND('',#105,.T.);
#61=FACE_OUTER_BOUND('',#106,.T.);
#62=FACE_OUTER_BOUND('',#107,.T.);
#63=FACE_OUTER_BOUND('',#109,.T.);
#64=FACE_OUTER_BOUND('',#110,.T.);
#65=FACE_OUTER_BOUND('',#111,.T.);
#66=FACE_OUTER_BOUND('',#113,.T.);
#67=FACE_OUTER_BOUND('',#114,.T.);
#68=FACE_OUTER_BOUND('',#116,.T.);
#69=FACE_OUTER_BOUND('',#117,.T.);
#70=FACE_OUTER_BOUND('',#118,.T.);
#71=FACE_OUTER_BOUND('',#119,.T.);
#72=FACE_OUTER_BOUND('',#120,.T.);
#73=FACE_OUTER_BOUND('',#121,.T.);
#74=FACE_OUTER_BOUND('',#122,.T.);
#75=FACE_OUTER_BOUND('',#123,.T.);
#76=FACE_OUTER_BOUND('',#127,.T.);
#77=FACE_OUTER_BOUND('',#131,.T.);
#78=FACE_OUTER_BOUND('',#132,.T.);
#79=FACE_OUTER_BOUND('',#133,.T.);
#80=FACE_OUTER_BOUND('',#134,.T.);
#81=FACE_OUTER_BOUND('',#135,.T.);
#82=FACE_OUTER_BOUND('',#136,.T.);
#83=FACE_OUTER_BOUND('',#137,.T.);
#84=FACE_OUTER_BOUND('',#138,.T.);
#85=FACE_OUTER_BOUND('',#139,.T.);
#86=FACE_OUTER_BOUND('',#140,.T.);
#87=FACE_OUTER_BOUND('',#141,.T.);
#88=FACE_OUTER_BOUND('',#142,.T.);
#89=FACE_OUTER_BOUND('',#143,.T.);
#90=FACE_OUTER_BOUND('',#144,.T.);
#91=FACE_OUTER_BOUND('',#145,.T.);
#92=FACE_OUTER_BOUND('',#146,.T.);
#93=FACE_OUTER_BOUND('',#147,.T.);
#94=FACE_OUTER_BOUND('',#148,.T.);
#95=FACE_OUTER_BOUND('',#149,.T.);
#96=FACE_OUTER_BOUND('',#150,.T.);
#97=FACE_OUTER_BOUND('',#151,.T.);
#98=EDGE_LOOP('',(#522,#523,#524,#525));
#99=EDGE_LOOP('',(#526,#527,#528,#529));
#100=EDGE_LOOP('',(#530,#531,#532,#533));
#101=EDGE_LOOP('',(#534,#535,#536,#537));
#102=EDGE_LOOP('',(#538,#539,#540,#541,#542,#543,#544,#545,#546));
#103=EDGE_LOOP('',(#547));
#104=EDGE_LOOP('',(#548,#549,#550,#551));
#105=EDGE_LOOP('',(#552,#553,#554,#555));
#106=EDGE_LOOP('',(#556,#557,#558,#559));
#107=EDGE_LOOP('',(#560,#561,#562,#563,#564,#565,#566,#567,#568,#569,#570));
#108=EDGE_LOOP('',(#571,#572,#573,#574));
#109=EDGE_LOOP('',(#575,#576,#577,#578));
#110=EDGE_LOOP('',(#579,#580,#581,#582));
#111=EDGE_LOOP('',(#583,#584,#585,#586,#587,#588,#589,#590,#591));
#112=EDGE_LOOP('',(#592));
#113=EDGE_LOOP('',(#593,#594,#595,#596));
#114=EDGE_LOOP('',(#597,#598,#599,#600,#601,#602,#603,#604,#605,#606,#607));
#115=EDGE_LOOP('',(#608,#609,#610,#611));
#116=EDGE_LOOP('',(#612,#613,#614,#615,#616,#617));
#117=EDGE_LOOP('',(#618,#619,#620,#621));
#118=EDGE_LOOP('',(#622,#623,#624,#625,#626));
#119=EDGE_LOOP('',(#627,#628,#629,#630));
#120=EDGE_LOOP('',(#631,#632,#633,#634));
#121=EDGE_LOOP('',(#635,#636,#637,#638));
#122=EDGE_LOOP('',(#639,#640,#641,#642));
#123=EDGE_LOOP('',(#643,#644,#645,#646,#647,#648));
#124=EDGE_LOOP('',(#649));
#125=EDGE_LOOP('',(#650));
#126=EDGE_LOOP('',(#651));
#127=EDGE_LOOP('',(#652,#653,#654,#655,#656,#657));
#128=EDGE_LOOP('',(#658));
#129=EDGE_LOOP('',(#659));
#130=EDGE_LOOP('',(#660));
#131=EDGE_LOOP('',(#661,#662,#663,#664));
#132=EDGE_LOOP('',(#665,#666,#667,#668));
#133=EDGE_LOOP('',(#669,#670,#671,#672,#673));
#134=EDGE_LOOP('',(#674,#675,#676,#677));
#135=EDGE_LOOP('',(#678,#679,#680,#681));
#136=EDGE_LOOP('',(#682,#683,#684,#685));
#137=EDGE_LOOP('',(#686,#687,#688,#689));
#138=EDGE_LOOP('',(#690,#691,#692,#693));
#139=EDGE_LOOP('',(#694,#695,#696,#697));
#140=EDGE_LOOP('',(#698,#699,#700,#701));
#141=EDGE_LOOP('',(#702,#703,#704,#705));
#142=EDGE_LOOP('',(#706,#707,#708,#709));
#143=EDGE_LOOP('',(#710,#711,#712,#713));
#144=EDGE_LOOP('',(#714,#715,#716,#717));
#145=EDGE_LOOP('',(#718,#719,#720,#721));
#146=EDGE_LOOP('',(#722,#723,#724,#725));
#147=EDGE_LOOP('',(#726,#727,#728,#729));
#148=EDGE_LOOP('',(#730,#731,#732,#733));
#149=EDGE_LOOP('',(#734,#735,#736,#737));
#150=EDGE_LOOP('',(#738,#739,#740,#741));
#151=EDGE_LOOP('',(#742,#743,#744,#745));
#152=LINE('',#1132,#230);
#153=LINE('',#1135,#231);
#154=LINE('',#1138,#232);
#155=LINE('',#1140,#233);
#156=LINE('',#1141,#234);
#157=LINE('',#1147,#235);
#158=LINE('',#1150,#236);
#159=LINE('',#1153,#237);
#160=LINE('',#1155,#238);
#161=LINE('',#1156,#239);
#162=LINE('',#1159,#240);
#163=LINE('',#1161,#241);
#164=LINE('',#1165,#242);
#165=LINE('',#1169,#243);
#166=LINE('',#1176,#244);
#167=LINE('',#1182,#245);
#168=LINE('',#1185,#246);
#169=LINE('',#1188,#247);
#170=LINE('',#1190,#248);
#171=LINE('',#1191,#249);
#172=LINE('',#1194,#250);
#173=LINE('',#1196,#251);
#174=LINE('',#1199,#252);
#175=LINE('',#1201,#253);
#176=LINE('',#1203,#254);
#177=LINE('',#1207,#255);
#178=LINE('',#1209,#256);
#179=LINE('',#1211,#257);
#180=LINE('',#1212,#258);
#181=LINE('',#1216,#259);
#182=LINE('',#1219,#260);
#183=LINE('',#1220,#261);
#184=LINE('',#1223,#262);
#185=LINE('',#1227,#263);
#186=LINE('',#1230,#264);
#187=LINE('',#1235,#265);
#188=LINE('',#1236,#266);
#189=LINE('',#1239,#267);
#190=LINE('',#1240,#268);
#191=LINE('',#1242,#269);
#192=LINE('',#1245,#270);
#193=LINE('',#1248,#271);
#194=LINE('',#1250,#272);
#195=LINE('',#1252,#273);
#196=LINE('',#1253,#274);
#197=LINE('',#1271,#275);
#198=LINE('',#1277,#276);
#199=LINE('',#1278,#277);
#200=LINE('',#1283,#278);
#201=LINE('',#1287,#279);
#202=LINE('',#1293,#280);
#203=LINE('',#1295,#281);
#204=LINE('',#1297,#282);
#205=LINE('',#1298,#283);
#206=LINE('',#1301,#284);
#207=LINE('',#1306,#285);
#208=LINE('',#1308,#286);
#209=LINE('',#1310,#287);
#210=LINE('',#1312,#288);
#211=LINE('',#1314,#289);
#212=LINE('',#1317,#290);
#213=LINE('',#1326,#291);
#214=LINE('',#1330,#292);
#215=LINE('',#1331,#293);
#216=LINE('',#1342,#294);
#217=LINE('',#1345,#295);
#218=LINE('',#1346,#296);
#219=LINE('',#1348,#297);
#220=LINE('',#1350,#298);
#221=LINE('',#1353,#299);
#222=LINE('',#1355,#300);
#223=LINE('',#1357,#301);
#224=LINE('',#1359,#302);
#225=LINE('',#1361,#303);
#226=LINE('',#1363,#304);
#227=LINE('',#1367,#305);
#228=LINE('',#1369,#306);
#229=LINE('',#1371,#307);
#230=VECTOR('',#902,10.);
#231=VECTOR('',#905,10.);
#232=VECTOR('',#908,10.);
#233=VECTOR('',#909,10.);
#234=VECTOR('',#910,10.);
#235=VECTOR('',#915,10.);
#236=VECTOR('',#918,10.);
#237=VECTOR('',#921,10.);
#238=VECTOR('',#922,10.);
#239=VECTOR('',#923,10.);
#240=VECTOR('',#926,10.);
#241=VECTOR('',#927,10.);
#242=VECTOR('',#930,10.);
#243=VECTOR('',#933,10.);
#244=VECTOR('',#942,10.);
#245=VECTOR('',#947,10.);
#246=VECTOR('',#950,10.);
#247=VECTOR('',#953,10.);
#248=VECTOR('',#954,10.);
#249=VECTOR('',#955,10.);
#250=VECTOR('',#958,10.);
#251=VECTOR('',#959,10.);
#252=VECTOR('',#962,10.);
#253=VECTOR('',#963,10.);
#254=VECTOR('',#964,10.);
#255=VECTOR('',#967,10.);
#256=VECTOR('',#968,10.);
#257=VECTOR('',#969,10.);
#258=VECTOR('',#970,10.);
#259=VECTOR('',#975,10.);
#260=VECTOR('',#978,10.);
#261=VECTOR('',#979,10.);
#262=VECTOR('',#982,10.);
#263=VECTOR('',#985,10.);
#264=VECTOR('',#988,10.);
#265=VECTOR('',#993,10.);
#266=VECTOR('',#994,10.);
#267=VECTOR('',#997,10.);
#268=VECTOR('',#998,10.);
#269=VECTOR('',#999,10.);
#270=VECTOR('',#1002,10.);
#271=VECTOR('',#1003,10.);
#272=VECTOR('',#1004,10.);
#273=VECTOR('',#1005,10.);
#274=VECTOR('',#1006,10.);
#275=VECTOR('',#1007,10.);
#276=VECTOR('',#1008,10.);
#277=VECTOR('',#1009,10.);
#278=VECTOR('',#1010,10.);
#279=VECTOR('',#1017,10.);
#280=VECTOR('',#1024,10.);
#281=VECTOR('',#1025,10.);
#282=VECTOR('',#1026,10.);
#283=VECTOR('',#1027,10.);
#284=VECTOR('',#1030,10.);
#285=VECTOR('',#1037,10.);
#286=VECTOR('',#1040,10.);
#287=VECTOR('',#1043,10.);
#288=VECTOR('',#1044,10.);
#289=VECTOR('',#1045,10.);
#290=VECTOR('',#1048,10.);
#291=VECTOR('',#1057,10.);
#292=VECTOR('',#1060,10.);
#293=VECTOR('',#1061,10.);
#294=VECTOR('',#1076,10.);
#295=VECTOR('',#1081,10.);
#296=VECTOR('',#1082,10.);
#297=VECTOR('',#1085,10.);
#298=VECTOR('',#1088,10.);
#299=VECTOR('',#1093,6.5);
#300=VECTOR('',#1096,6.5);
#301=VECTOR('',#1099,6.5);
#302=VECTOR('',#1102,6.5);
#303=VECTOR('',#1105,10.);
#304=VECTOR('',#1108,10.);
#305=VECTOR('',#1115,10.);
#306=VECTOR('',#1118,10.);
#307=VECTOR('',#1121,10.);
#308=CIRCLE('',#822,10.);
#309=CIRCLE('',#823,10.);
#310=CIRCLE('',#826,20.);
#311=CIRCLE('',#827,20.);
#312=CIRCLE('',#830,20.);
#313=CIRCLE('',#831,20.);
#314=CIRCLE('',#832,20.);
#315=CIRCLE('',#833,6.5);
#316=CIRCLE('',#835,20.);
#317=CIRCLE('',#837,20.);
#318=CIRCLE('',#838,20.);
#319=CIRCLE('',#841,20.);
#320=CIRCLE('',#842,20.);
#321=CIRCLE('',#844,20.);
#322=CIRCLE('',#847,20.);
#323=CIRCLE('',#848,20.);
#324=CIRCLE('',#849,6.5);
#325=CIRCLE('',#852,20.);
#326=CIRCLE('',#854,10.11);
#327=CIRCLE('',#857,3.81);
#328=CIRCLE('',#860,3.81);
#329=CIRCLE('',#861,3.81);
#330=CIRCLE('',#863,10.11);
#331=CIRCLE('',#865,20.);
#332=CIRCLE('',#866,6.5);
#333=CIRCLE('',#867,6.5);
#334=CIRCLE('',#868,6.5);
#335=CIRCLE('',#870,20.);
#336=CIRCLE('',#871,6.5);
#337=CIRCLE('',#872,6.5);
#338=CIRCLE('',#873,6.5);
#339=CIRCLE('',#876,10.11);
#340=VERTEX_POINT('',#1128);
#341=VERTEX_POINT('',#1129);
#342=VERTEX_POINT('',#1131);
#343=VERTEX_POINT('',#1133);
#344=VERTEX_POINT('',#1137);
#345=VERTEX_POINT('',#1139);
#346=VERTEX_POINT('',#1143);
#347=VERTEX_POINT('',#1144);
#348=VERTEX_POINT('',#1146);
#349=VERTEX_POINT('',#1148);
#350=VERTEX_POINT('',#1152);
#351=VERTEX_POINT('',#1154);
#352=VERTEX_POINT('',#1158);
#353=VERTEX_POINT('',#1160);
#354=VERTEX_POINT('',#1162);
#355=VERTEX_POINT('',#1164);
#356=VERTEX_POINT('',#1166);
#357=VERTEX_POINT('',#1168);
#358=VERTEX_POINT('',#1171);
#359=VERTEX_POINT('',#1174);
#360=VERTEX_POINT('',#1178);
#361=VERTEX_POINT('',#1179);
#362=VERTEX_POINT('',#1181);
#363=VERTEX_POINT('',#1183);
#364=VERTEX_POINT('',#1187);
#365=VERTEX_POINT('',#1189);
#366=VERTEX_POINT('',#1193);
#367=VERTEX_POINT('',#1195);
#368=VERTEX_POINT('',#1197);
#369=VERTEX_POINT('',#1200);
#370=VERTEX_POINT('',#1202);
#371=VERTEX_POINT('',#1205);
#372=VERTEX_POINT('',#1206);
#373=VERTEX_POINT('',#1208);
#374=VERTEX_POINT('',#1210);
#375=VERTEX_POINT('',#1214);
#376=VERTEX_POINT('',#1218);
#377=VERTEX_POINT('',#1222);
#378=VERTEX_POINT('',#1224);
#379=VERTEX_POINT('',#1226);
#380=VERTEX_POINT('',#1228);
#381=VERTEX_POINT('',#1231);
#382=VERTEX_POINT('',#1234);
#383=VERTEX_POINT('',#1238);
#384=VERTEX_POINT('',#1241);
#385=VERTEX_POINT('',#1243);
#386=VERTEX_POINT('',#1246);
#387=VERTEX_POINT('',#1247);
#388=VERTEX_POINT('',#1249);
#389=VERTEX_POINT('',#1251);
#390=VERTEX_POINT('',#1270);
#391=VERTEX_POINT('',#1276);
#392=VERTEX_POINT('',#1291);
#393=VERTEX_POINT('',#1292);
#394=VERTEX_POINT('',#1294);
#395=VERTEX_POINT('',#1296);
#396=VERTEX_POINT('',#1300);
#397=VERTEX_POINT('',#1305);
#398=VERTEX_POINT('',#1311);
#399=VERTEX_POINT('',#1313);
#400=VERTEX_POINT('',#1315);
#401=VERTEX_POINT('',#1318);
#402=VERTEX_POINT('',#1320);
#403=VERTEX_POINT('',#1322);
#404=VERTEX_POINT('',#1325);
#405=VERTEX_POINT('',#1327);
#406=VERTEX_POINT('',#1329);
#407=VERTEX_POINT('',#1332);
#408=VERTEX_POINT('',#1334);
#409=VERTEX_POINT('',#1336);
#410=EDGE_CURVE('',#340,#341,#308,.T.);
#411=EDGE_CURVE('',#341,#342,#152,.T.);
#412=EDGE_CURVE('',#342,#343,#309,.T.);
#413=EDGE_CURVE('',#343,#340,#153,.T.);
#414=EDGE_CURVE('',#344,#341,#154,.T.);
#415=EDGE_CURVE('',#345,#344,#155,.T.);
#416=EDGE_CURVE('',#342,#345,#156,.T.);
#417=EDGE_CURVE('',#346,#347,#310,.T.);
#418=EDGE_CURVE('',#347,#348,#157,.T.);
#419=EDGE_CURVE('',#348,#349,#311,.T.);
#420=EDGE_CURVE('',#349,#346,#158,.T.);
#421=EDGE_CURVE('',#347,#350,#159,.T.);
#422=EDGE_CURVE('',#351,#350,#160,.T.);
#423=EDGE_CURVE('',#351,#348,#161,.T.);
#424=EDGE_CURVE('',#352,#346,#162,.T.);
#425=EDGE_CURVE('',#352,#353,#163,.T.);
#426=EDGE_CURVE('',#354,#353,#312,.T.);
#427=EDGE_CURVE('',#354,#355,#164,.T.);
#428=EDGE_CURVE('',#356,#355,#313,.T.);
#429=EDGE_CURVE('',#357,#356,#165,.T.);
#430=EDGE_CURVE('',#350,#357,#314,.T.);
#431=EDGE_CURVE('',#358,#358,#315,.T.);
#432=EDGE_CURVE('',#359,#351,#316,.T.);
#433=EDGE_CURVE('',#357,#359,#166,.T.);
#434=EDGE_CURVE('',#360,#361,#317,.T.);
#435=EDGE_CURVE('',#361,#362,#167,.T.);
#436=EDGE_CURVE('',#362,#363,#318,.T.);
#437=EDGE_CURVE('',#363,#360,#168,.T.);
#438=EDGE_CURVE('',#361,#364,#169,.T.);
#439=EDGE_CURVE('',#365,#364,#170,.T.);
#440=EDGE_CURVE('',#365,#362,#171,.T.);
#441=EDGE_CURVE('',#360,#366,#172,.T.);
#442=EDGE_CURVE('',#367,#366,#173,.T.);
#443=EDGE_CURVE('',#368,#367,#319,.T.);
#444=EDGE_CURVE('',#368,#343,#174,.T.);
#445=EDGE_CURVE('',#369,#345,#175,.T.);
#446=EDGE_CURVE('',#369,#370,#176,.T.);
#447=EDGE_CURVE('',#364,#370,#320,.T.);
#448=EDGE_CURVE('',#371,#372,#177,.T.);
#449=EDGE_CURVE('',#372,#373,#178,.T.);
#450=EDGE_CURVE('',#373,#374,#179,.T.);
#451=EDGE_CURVE('',#374,#371,#180,.T.);
#452=EDGE_CURVE('',#375,#365,#321,.T.);
#453=EDGE_CURVE('',#370,#375,#181,.T.);
#454=EDGE_CURVE('',#376,#349,#182,.T.);
#455=EDGE_CURVE('',#376,#352,#183,.T.);
#456=EDGE_CURVE('',#359,#377,#184,.T.);
#457=EDGE_CURVE('',#377,#378,#322,.T.);
#458=EDGE_CURVE('',#378,#379,#185,.T.);
#459=EDGE_CURVE('',#380,#379,#323,.T.);
#460=EDGE_CURVE('',#380,#376,#186,.T.);
#461=EDGE_CURVE('',#381,#381,#324,.T.);
#462=EDGE_CURVE('',#363,#382,#187,.T.);
#463=EDGE_CURVE('',#366,#382,#188,.T.);
#464=EDGE_CURVE('',#383,#375,#189,.T.);
#465=EDGE_CURVE('',#344,#383,#190,.T.);
#466=EDGE_CURVE('',#384,#340,#191,.T.);
#467=EDGE_CURVE('',#385,#384,#325,.T.);
#468=EDGE_CURVE('',#382,#385,#192,.T.);
#469=EDGE_CURVE('',#386,#387,#193,.T.);
#470=EDGE_CURVE('',#388,#386,#194,.T.);
#471=EDGE_CURVE('',#389,#388,#195,.T.);
#472=EDGE_CURVE('',#387,#389,#196,.T.);
#473=EDGE_CURVE('',#353,#390,#197,.T.);
#474=EDGE_CURVE('',#353,#385,#15,.T.);
#475=EDGE_CURVE('',#385,#391,#198,.T.);
#476=EDGE_CURVE('',#391,#367,#199,.T.);
#477=EDGE_CURVE('',#367,#380,#16,.T.);
#478=EDGE_CURVE('',#390,#380,#200,.T.);
#479=EDGE_CURVE('',#382,#352,#326,.T.);
#480=EDGE_CURVE('',#379,#354,#201,.T.);
#481=EDGE_CURVE('',#366,#376,#327,.T.);
#482=EDGE_CURVE('',#392,#393,#202,.T.);
#483=EDGE_CURVE('',#394,#393,#203,.T.);
#484=EDGE_CURVE('',#394,#395,#204,.T.);
#485=EDGE_CURVE('',#392,#395,#205,.T.);
#486=EDGE_CURVE('',#396,#392,#206,.T.);
#487=EDGE_CURVE('',#396,#369,#328,.T.);
#488=EDGE_CURVE('',#345,#392,#329,.T.);
#489=EDGE_CURVE('',#397,#396,#207,.T.);
#490=EDGE_CURVE('',#397,#383,#330,.T.);
#491=EDGE_CURVE('',#383,#369,#208,.T.);
#492=EDGE_CURVE('',#393,#397,#209,.T.);
#493=EDGE_CURVE('',#398,#397,#210,.T.);
#494=EDGE_CURVE('',#398,#399,#211,.T.);
#495=EDGE_CURVE('',#400,#399,#331,.T.);
#496=EDGE_CURVE('',#394,#400,#212,.T.);
#497=EDGE_CURVE('',#401,#401,#332,.T.);
#498=EDGE_CURVE('',#402,#402,#333,.T.);
#499=EDGE_CURVE('',#403,#403,#334,.T.);
#500=EDGE_CURVE('',#395,#404,#213,.T.);
#501=EDGE_CURVE('',#404,#405,#335,.T.);
#502=EDGE_CURVE('',#405,#406,#214,.T.);
#503=EDGE_CURVE('',#406,#396,#215,.T.);
#504=EDGE_CURVE('',#407,#407,#336,.T.);
#505=EDGE_CURVE('',#408,#408,#337,.T.);
#506=EDGE_CURVE('',#409,#409,#338,.T.);
#507=EDGE_CURVE('',#393,#344,#339,.T.);
#508=EDGE_CURVE('',#384,#368,#216,.T.);
#509=EDGE_CURVE('',#386,#371,#217,.T.);
#510=EDGE_CURVE('',#388,#374,#218,.T.);
#511=EDGE_CURVE('',#389,#373,#219,.T.);
#512=EDGE_CURVE('',#387,#372,#220,.T.);
#513=EDGE_CURVE('',#407,#401,#221,.T.);
#514=EDGE_CURVE('',#408,#402,#222,.T.);
#515=EDGE_CURVE('',#409,#403,#223,.T.);
#516=EDGE_CURVE('',#381,#358,#224,.T.);
#517=EDGE_CURVE('',#355,#378,#225,.T.);
#518=EDGE_CURVE('',#356,#377,#226,.T.);
#519=EDGE_CURVE('',#398,#406,#227,.T.);
#520=EDGE_CURVE('',#399,#405,#228,.T.);
#521=EDGE_CURVE('',#400,#404,#229,.T.);
#522=ORIENTED_EDGE('',*,*,#410,.T.);
#523=ORIENTED_EDGE('',*,*,#411,.T.);
#524=ORIENTED_EDGE('',*,*,#412,.T.);
#525=ORIENTED_EDGE('',*,*,#413,.T.);
#526=ORIENTED_EDGE('',*,*,#411,.F.);
#527=ORIENTED_EDGE('',*,*,#414,.F.);
#528=ORIENTED_EDGE('',*,*,#415,.F.);
#529=ORIENTED_EDGE('',*,*,#416,.F.);
#530=ORIENTED_EDGE('',*,*,#417,.T.);
#531=ORIENTED_EDGE('',*,*,#418,.T.);
#532=ORIENTED_EDGE('',*,*,#419,.T.);
#533=ORIENTED_EDGE('',*,*,#420,.T.);
#534=ORIENTED_EDGE('',*,*,#418,.F.);
#535=ORIENTED_EDGE('',*,*,#421,.T.);
#536=ORIENTED_EDGE('',*,*,#422,.F.);
#537=ORIENTED_EDGE('',*,*,#423,.T.);
#538=ORIENTED_EDGE('',*,*,#417,.F.);
#539=ORIENTED_EDGE('',*,*,#424,.F.);
#540=ORIENTED_EDGE('',*,*,#425,.T.);
#541=ORIENTED_EDGE('',*,*,#426,.F.);
#542=ORIENTED_EDGE('',*,*,#427,.T.);
#543=ORIENTED_EDGE('',*,*,#428,.F.);
#544=ORIENTED_EDGE('',*,*,#429,.F.);
#545=ORIENTED_EDGE('',*,*,#430,.F.);
#546=ORIENTED_EDGE('',*,*,#421,.F.);
#547=ORIENTED_EDGE('',*,*,#431,.F.);
#548=ORIENTED_EDGE('',*,*,#432,.T.);
#549=ORIENTED_EDGE('',*,*,#422,.T.);
#550=ORIENTED_EDGE('',*,*,#430,.T.);
#551=ORIENTED_EDGE('',*,*,#433,.T.);
#552=ORIENTED_EDGE('',*,*,#434,.T.);
#553=ORIENTED_EDGE('',*,*,#435,.T.);
#554=ORIENTED_EDGE('',*,*,#436,.T.);
#555=ORIENTED_EDGE('',*,*,#437,.T.);
#556=ORIENTED_EDGE('',*,*,#435,.F.);
#557=ORIENTED_EDGE('',*,*,#438,.T.);
#558=ORIENTED_EDGE('',*,*,#439,.F.);
#559=ORIENTED_EDGE('',*,*,#440,.T.);
#560=ORIENTED_EDGE('',*,*,#434,.F.);
#561=ORIENTED_EDGE('',*,*,#441,.T.);
#562=ORIENTED_EDGE('',*,*,#442,.F.);
#563=ORIENTED_EDGE('',*,*,#443,.F.);
#564=ORIENTED_EDGE('',*,*,#444,.T.);
#565=ORIENTED_EDGE('',*,*,#412,.F.);
#566=ORIENTED_EDGE('',*,*,#416,.T.);
#567=ORIENTED_EDGE('',*,*,#445,.F.);
#568=ORIENTED_EDGE('',*,*,#446,.T.);
#569=ORIENTED_EDGE('',*,*,#447,.F.);
#570=ORIENTED_EDGE('',*,*,#438,.F.);
#571=ORIENTED_EDGE('',*,*,#448,.T.);
#572=ORIENTED_EDGE('',*,*,#449,.T.);
#573=ORIENTED_EDGE('',*,*,#450,.T.);
#574=ORIENTED_EDGE('',*,*,#451,.T.);
#575=ORIENTED_EDGE('',*,*,#452,.T.);
#576=ORIENTED_EDGE('',*,*,#439,.T.);
#577=ORIENTED_EDGE('',*,*,#447,.T.);
#578=ORIENTED_EDGE('',*,*,#453,.T.);
#579=ORIENTED_EDGE('',*,*,#420,.F.);
#580=ORIENTED_EDGE('',*,*,#454,.F.);
#581=ORIENTED_EDGE('',*,*,#455,.T.);
#582=ORIENTED_EDGE('',*,*,#424,.T.);
#583=ORIENTED_EDGE('',*,*,#419,.F.);
#584=ORIENTED_EDGE('',*,*,#423,.F.);
#585=ORIENTED_EDGE('',*,*,#432,.F.);
#586=ORIENTED_EDGE('',*,*,#456,.T.);
#587=ORIENTED_EDGE('',*,*,#457,.T.);
#588=ORIENTED_EDGE('',*,*,#458,.T.);
#589=ORIENTED_EDGE('',*,*,#459,.F.);
#590=ORIENTED_EDGE('',*,*,#460,.T.);
#591=ORIENTED_EDGE('',*,*,#454,.T.);
#592=ORIENTED_EDGE('',*,*,#461,.T.);
#593=ORIENTED_EDGE('',*,*,#437,.F.);
#594=ORIENTED_EDGE('',*,*,#462,.T.);
#595=ORIENTED_EDGE('',*,*,#463,.F.);
#596=ORIENTED_EDGE('',*,*,#441,.F.);
#597=ORIENTED_EDGE('',*,*,#436,.F.);
#598=ORIENTED_EDGE('',*,*,#440,.F.);
#599=ORIENTED_EDGE('',*,*,#452,.F.);
#600=ORIENTED_EDGE('',*,*,#464,.F.);
#601=ORIENTED_EDGE('',*,*,#465,.F.);
#602=ORIENTED_EDGE('',*,*,#414,.T.);
#603=ORIENTED_EDGE('',*,*,#410,.F.);
#604=ORIENTED_EDGE('',*,*,#466,.F.);
#605=ORIENTED_EDGE('',*,*,#467,.F.);
#606=ORIENTED_EDGE('',*,*,#468,.F.);
#607=ORIENTED_EDGE('',*,*,#462,.F.);
#608=ORIENTED_EDGE('',*,*,#469,.F.);
#609=ORIENTED_EDGE('',*,*,#470,.F.);
#610=ORIENTED_EDGE('',*,*,#471,.F.);
#611=ORIENTED_EDGE('',*,*,#472,.F.);
#612=ORIENTED_EDGE('',*,*,#473,.F.);
#613=ORIENTED_EDGE('',*,*,#474,.T.);
#614=ORIENTED_EDGE('',*,*,#475,.T.);
#615=ORIENTED_EDGE('',*,*,#476,.T.);
#616=ORIENTED_EDGE('',*,*,#477,.T.);
#617=ORIENTED_EDGE('',*,*,#478,.F.);
#618=ORIENTED_EDGE('',*,*,#425,.F.);
#619=ORIENTED_EDGE('',*,*,#479,.F.);
#620=ORIENTED_EDGE('',*,*,#468,.T.);
#621=ORIENTED_EDGE('',*,*,#474,.F.);
#622=ORIENTED_EDGE('',*,*,#473,.T.);
#623=ORIENTED_EDGE('',*,*,#478,.T.);
#624=ORIENTED_EDGE('',*,*,#459,.T.);
#625=ORIENTED_EDGE('',*,*,#480,.T.);
#626=ORIENTED_EDGE('',*,*,#426,.T.);
#627=ORIENTED_EDGE('',*,*,#460,.F.);
#628=ORIENTED_EDGE('',*,*,#477,.F.);
#629=ORIENTED_EDGE('',*,*,#442,.T.);
#630=ORIENTED_EDGE('',*,*,#481,.T.);
#631=ORIENTED_EDGE('',*,*,#482,.T.);
#632=ORIENTED_EDGE('',*,*,#483,.F.);
#633=ORIENTED_EDGE('',*,*,#484,.T.);
#634=ORIENTED_EDGE('',*,*,#485,.F.);
#635=ORIENTED_EDGE('',*,*,#486,.F.);
#636=ORIENTED_EDGE('',*,*,#487,.T.);
#637=ORIENTED_EDGE('',*,*,#445,.T.);
#638=ORIENTED_EDGE('',*,*,#488,.T.);
#639=ORIENTED_EDGE('',*,*,#489,.F.);
#640=ORIENTED_EDGE('',*,*,#490,.T.);
#641=ORIENTED_EDGE('',*,*,#491,.T.);
#642=ORIENTED_EDGE('',*,*,#487,.F.);
#643=ORIENTED_EDGE('',*,*,#492,.T.);
#644=ORIENTED_EDGE('',*,*,#493,.F.);
#645=ORIENTED_EDGE('',*,*,#494,.T.);
#646=ORIENTED_EDGE('',*,*,#495,.F.);
#647=ORIENTED_EDGE('',*,*,#496,.F.);
#648=ORIENTED_EDGE('',*,*,#483,.T.);
#649=ORIENTED_EDGE('',*,*,#497,.F.);
#650=ORIENTED_EDGE('',*,*,#498,.F.);
#651=ORIENTED_EDGE('',*,*,#499,.F.);
#652=ORIENTED_EDGE('',*,*,#486,.T.);
#653=ORIENTED_EDGE('',*,*,#485,.T.);
#654=ORIENTED_EDGE('',*,*,#500,.T.);
#655=ORIENTED_EDGE('',*,*,#501,.T.);
#656=ORIENTED_EDGE('',*,*,#502,.T.);
#657=ORIENTED_EDGE('',*,*,#503,.T.);
#658=ORIENTED_EDGE('',*,*,#504,.T.);
#659=ORIENTED_EDGE('',*,*,#505,.T.);
#660=ORIENTED_EDGE('',*,*,#506,.T.);
#661=ORIENTED_EDGE('',*,*,#453,.F.);
#662=ORIENTED_EDGE('',*,*,#446,.F.);
#663=ORIENTED_EDGE('',*,*,#491,.F.);
#664=ORIENTED_EDGE('',*,*,#464,.T.);
#665=ORIENTED_EDGE('',*,*,#482,.F.);
#666=ORIENTED_EDGE('',*,*,#488,.F.);
#667=ORIENTED_EDGE('',*,*,#415,.T.);
#668=ORIENTED_EDGE('',*,*,#507,.F.);
#669=ORIENTED_EDGE('',*,*,#475,.F.);
#670=ORIENTED_EDGE('',*,*,#467,.T.);
#671=ORIENTED_EDGE('',*,*,#508,.T.);
#672=ORIENTED_EDGE('',*,*,#443,.T.);
#673=ORIENTED_EDGE('',*,*,#476,.F.);
#674=ORIENTED_EDGE('',*,*,#413,.F.);
#675=ORIENTED_EDGE('',*,*,#444,.F.);
#676=ORIENTED_EDGE('',*,*,#508,.F.);
#677=ORIENTED_EDGE('',*,*,#466,.T.);
#678=ORIENTED_EDGE('',*,*,#470,.T.);
#679=ORIENTED_EDGE('',*,*,#509,.T.);
#680=ORIENTED_EDGE('',*,*,#451,.F.);
#681=ORIENTED_EDGE('',*,*,#510,.F.);
#682=ORIENTED_EDGE('',*,*,#471,.T.);
#683=ORIENTED_EDGE('',*,*,#510,.T.);
#684=ORIENTED_EDGE('',*,*,#450,.F.);
#685=ORIENTED_EDGE('',*,*,#511,.F.);
#686=ORIENTED_EDGE('',*,*,#472,.T.);
#687=ORIENTED_EDGE('',*,*,#511,.T.);
#688=ORIENTED_EDGE('',*,*,#449,.F.);
#689=ORIENTED_EDGE('',*,*,#512,.F.);
#690=ORIENTED_EDGE('',*,*,#469,.T.);
#691=ORIENTED_EDGE('',*,*,#512,.T.);
#692=ORIENTED_EDGE('',*,*,#448,.F.);
#693=ORIENTED_EDGE('',*,*,#509,.F.);
#694=ORIENTED_EDGE('',*,*,#504,.F.);
#695=ORIENTED_EDGE('',*,*,#513,.T.);
#696=ORIENTED_EDGE('',*,*,#497,.T.);
#697=ORIENTED_EDGE('',*,*,#513,.F.);
#698=ORIENTED_EDGE('',*,*,#505,.F.);
#699=ORIENTED_EDGE('',*,*,#514,.T.);
#700=ORIENTED_EDGE('',*,*,#498,.T.);
#701=ORIENTED_EDGE('',*,*,#514,.F.);
#702=ORIENTED_EDGE('',*,*,#506,.F.);
#703=ORIENTED_EDGE('',*,*,#515,.T.);
#704=ORIENTED_EDGE('',*,*,#499,.T.);
#705=ORIENTED_EDGE('',*,*,#515,.F.);
#706=ORIENTED_EDGE('',*,*,#461,.F.);
#707=ORIENTED_EDGE('',*,*,#516,.T.);
#708=ORIENTED_EDGE('',*,*,#431,.T.);
#709=ORIENTED_EDGE('',*,*,#516,.F.);
#710=ORIENTED_EDGE('',*,*,#480,.F.);
#711=ORIENTED_EDGE('',*,*,#458,.F.);
#712=ORIENTED_EDGE('',*,*,#517,.F.);
#713=ORIENTED_EDGE('',*,*,#427,.F.);
#714=ORIENTED_EDGE('',*,*,#428,.T.);
#715=ORIENTED_EDGE('',*,*,#517,.T.);
#716=ORIENTED_EDGE('',*,*,#457,.F.);
#717=ORIENTED_EDGE('',*,*,#518,.F.);
#718=ORIENTED_EDGE('',*,*,#433,.F.);
#719=ORIENTED_EDGE('',*,*,#429,.T.);
#720=ORIENTED_EDGE('',*,*,#518,.T.);
#721=ORIENTED_EDGE('',*,*,#456,.F.);
#722=ORIENTED_EDGE('',*,*,#455,.F.);
#723=ORIENTED_EDGE('',*,*,#481,.F.);
#724=ORIENTED_EDGE('',*,*,#463,.T.);
#725=ORIENTED_EDGE('',*,*,#479,.T.);
#726=ORIENTED_EDGE('',*,*,#489,.T.);
#727=ORIENTED_EDGE('',*,*,#503,.F.);
#728=ORIENTED_EDGE('',*,*,#519,.F.);
#729=ORIENTED_EDGE('',*,*,#493,.T.);
#730=ORIENTED_EDGE('',*,*,#494,.F.);
#731=ORIENTED_EDGE('',*,*,#519,.T.);
#732=ORIENTED_EDGE('',*,*,#502,.F.);
#733=ORIENTED_EDGE('',*,*,#520,.F.);
#734=ORIENTED_EDGE('',*,*,#495,.T.);
#735=ORIENTED_EDGE('',*,*,#520,.T.);
#736=ORIENTED_EDGE('',*,*,#501,.F.);
#737=ORIENTED_EDGE('',*,*,#521,.F.);
#738=ORIENTED_EDGE('',*,*,#496,.T.);
#739=ORIENTED_EDGE('',*,*,#521,.T.);
#740=ORIENTED_EDGE('',*,*,#500,.F.);
#741=ORIENTED_EDGE('',*,*,#484,.F.);
#742=ORIENTED_EDGE('',*,*,#492,.F.);
#743=ORIENTED_EDGE('',*,*,#507,.T.);
#744=ORIENTED_EDGE('',*,*,#465,.T.);
#745=ORIENTED_EDGE('',*,*,#490,.F.);
#746=CYLINDRICAL_SURFACE('',#821,10.);
#747=CYLINDRICAL_SURFACE('',#825,20.);
#748=CYLINDRICAL_SURFACE('',#834,20.);
#749=CYLINDRICAL_SURFACE('',#836,20.);
#750=CYLINDRICAL_SURFACE('',#843,20.);
#751=CYLINDRICAL_SURFACE('',#853,10.11);
#752=CYLINDRICAL_SURFACE('',#855,20.);
#753=CYLINDRICAL_SURFACE('',#856,3.81);
#754=CYLINDRICAL_SURFACE('',#859,3.81);
#755=CYLINDRICAL_SURFACE('',#877,20.);
#756=CYLINDRICAL_SURFACE('',#883,6.5);
#757=CYLINDRICAL_SURFACE('',#884,6.5);
#758=CYLINDRICAL_SURFACE('',#885,6.5);
#759=CYLINDRICAL_SURFACE('',#886,6.5);
#760=CYLINDRICAL_SURFACE('',#888,20.);
#761=CYLINDRICAL_SURFACE('',#893,20.);
#762=CYLINDRICAL_SURFACE('',#895,10.11);
#763=ADVANCED_FACE('',(#54),#746,.F.);
#764=ADVANCED_FACE('',(#55),#28,.T.);
#765=ADVANCED_FACE('',(#56),#747,.T.);
#766=ADVANCED_FACE('',(#57),#29,.T.);
#767=ADVANCED_FACE('',(#58,#18),#30,.F.);
#768=ADVANCED_FACE('',(#59),#748,.T.);
#769=ADVANCED_FACE('',(#60),#749,.T.);
#770=ADVANCED_FACE('',(#61),#31,.T.);
#771=ADVANCED_FACE('',(#62,#19),#32,.T.);
#772=ADVANCED_FACE('',(#63),#750,.T.);
#773=ADVANCED_FACE('',(#64),#33,.T.);
#774=ADVANCED_FACE('',(#65,#20),#34,.T.);
#775=ADVANCED_FACE('',(#66),#35,.T.);
#776=ADVANCED_FACE('',(#67,#21),#36,.F.);
#777=ADVANCED_FACE('',(#68),#17,.T.);
#778=ADVANCED_FACE('',(#69),#751,.T.);
#779=ADVANCED_FACE('',(#70),#752,.F.);
#780=ADVANCED_FACE('',(#71),#753,.F.);
#781=ADVANCED_FACE('',(#72),#37,.T.);
#782=ADVANCED_FACE('',(#73),#754,.F.);
#783=ADVANCED_FACE('',(#74),#38,.T.);
#784=ADVANCED_FACE('',(#75,#22,#23,#24),#39,.F.);
#785=ADVANCED_FACE('',(#76,#25,#26,#27),#40,.T.);
#786=ADVANCED_FACE('',(#77),#41,.T.);
#787=ADVANCED_FACE('',(#78),#42,.T.);
#788=ADVANCED_FACE('',(#79),#755,.F.);
#789=ADVANCED_FACE('',(#80),#43,.T.);
#790=ADVANCED_FACE('',(#81),#44,.T.);
#791=ADVANCED_FACE('',(#82),#45,.T.);
#792=ADVANCED_FACE('',(#83),#46,.T.);
#793=ADVANCED_FACE('',(#84),#47,.T.);
#794=ADVANCED_FACE('',(#85),#756,.F.);
#795=ADVANCED_FACE('',(#86),#757,.F.);
#796=ADVANCED_FACE('',(#87),#758,.F.);
#797=ADVANCED_FACE('',(#88),#759,.F.);
#798=ADVANCED_FACE('',(#89),#48,.T.);
#799=ADVANCED_FACE('',(#90),#760,.T.);
#800=ADVANCED_FACE('',(#91),#49,.T.);
#801=ADVANCED_FACE('',(#92),#50,.T.);
#802=ADVANCED_FACE('',(#93),#51,.T.);
#803=ADVANCED_FACE('',(#94),#52,.T.);
#804=ADVANCED_FACE('',(#95),#761,.T.);
#805=ADVANCED_FACE('',(#96),#53,.T.);
#806=ADVANCED_FACE('',(#97),#762,.T.);
#807=CLOSED_SHELL('',(#763,#764,#765,#766,#767,#768,#769,#770,#771,#772,
#773,#774,#775,#776,#777,#778,#779,#780,#781,#782,#783,#784,#785,#786,#787,
#788,#789,#790,#791,#792,#793,#794,#795,#796,#797,#798,#799,#800,#801,#802,
#803,#804,#805,#806));
#808=DERIVED_UNIT_ELEMENT(#810,1.);
#809=DERIVED_UNIT_ELEMENT(#1379,-3.);
#810=(
MASS_UNIT()
NAMED_UNIT(*)
SI_UNIT(.KILO.,.GRAM.)
);
#811=DERIVED_UNIT((#808,#809));
#812=MEASURE_REPRESENTATION_ITEM('density measure',
POSITIVE_RATIO_MEASURE(7850.),#811);
#813=PROPERTY_DEFINITION_REPRESENTATION(#818,#815);
#814=PROPERTY_DEFINITION_REPRESENTATION(#819,#816);
#815=REPRESENTATION('material name',(#817),#1376);
#816=REPRESENTATION('density',(#812),#1376);
#817=DESCRIPTIVE_REPRESENTATION_ITEM('Steel','Steel');
#818=PROPERTY_DEFINITION('material property','material name',#1386);
#819=PROPERTY_DEFINITION('material property','density of part',#1386);
#820=AXIS2_PLACEMENT_3D('',#1126,#896,#897);
#821=AXIS2_PLACEMENT_3D('',#1127,#898,#899);
#822=AXIS2_PLACEMENT_3D('',#1130,#900,#901);
#823=AXIS2_PLACEMENT_3D('',#1134,#903,#904);
#824=AXIS2_PLACEMENT_3D('',#1136,#906,#907);
#825=AXIS2_PLACEMENT_3D('',#1142,#911,#912);
#826=AXIS2_PLACEMENT_3D('',#1145,#913,#914);
#827=AXIS2_PLACEMENT_3D('',#1149,#916,#917);
#828=AXIS2_PLACEMENT_3D('',#1151,#919,#920);
#829=AXIS2_PLACEMENT_3D('',#1157,#924,#925);
#830=AXIS2_PLACEMENT_3D('',#1163,#928,#929);
#831=AXIS2_PLACEMENT_3D('',#1167,#931,#932);
#832=AXIS2_PLACEMENT_3D('',#1170,#934,#935);
#833=AXIS2_PLACEMENT_3D('',#1172,#936,#937);
#834=AXIS2_PLACEMENT_3D('',#1173,#938,#939);
#835=AXIS2_PLACEMENT_3D('',#1175,#940,#941);
#836=AXIS2_PLACEMENT_3D('',#1177,#943,#944);
#837=AXIS2_PLACEMENT_3D('',#1180,#945,#946);
#838=AXIS2_PLACEMENT_3D('',#1184,#948,#949);
#839=AXIS2_PLACEMENT_3D('',#1186,#951,#952);
#840=AXIS2_PLACEMENT_3D('',#1192,#956,#957);
#841=AXIS2_PLACEMENT_3D('',#1198,#960,#961);
#842=AXIS2_PLACEMENT_3D('',#1204,#965,#966);
#843=AXIS2_PLACEMENT_3D('',#1213,#971,#972);
#844=AXIS2_PLACEMENT_3D('',#1215,#973,#974);
#845=AXIS2_PLACEMENT_3D('',#1217,#976,#977);
#846=AXIS2_PLACEMENT_3D('',#1221,#980,#981);
#847=AXIS2_PLACEMENT_3D('',#1225,#983,#984);
#848=AXIS2_PLACEMENT_3D('',#1229,#986,#987);
#849=AXIS2_PLACEMENT_3D('',#1232,#989,#990);
#850=AXIS2_PLACEMENT_3D('',#1233,#991,#992);
#851=AXIS2_PLACEMENT_3D('',#1237,#995,#996);
#852=AXIS2_PLACEMENT_3D('',#1244,#1000,#1001);
#853=AXIS2_PLACEMENT_3D('',#1284,#1011,#1012);
#854=AXIS2_PLACEMENT_3D('',#1285,#1013,#1014);
#855=AXIS2_PLACEMENT_3D('',#1286,#1015,#1016);
#856=AXIS2_PLACEMENT_3D('',#1288,#1018,#1019);
#857=AXIS2_PLACEMENT_3D('',#1289,#1020,#1021);
#858=AXIS2_PLACEMENT_3D('',#1290,#1022,#1023);
#859=AXIS2_PLACEMENT_3D('',#1299,#1028,#1029);
#860=AXIS2_PLACEMENT_3D('',#1302,#1031,#1032);
#861=AXIS2_PLACEMENT_3D('',#1303,#1033,#1034);
#862=AXIS2_PLACEMENT_3D('',#1304,#1035,#1036);
#863=AXIS2_PLACEMENT_3D('',#1307,#1038,#1039);
#864=AXIS2_PLACEMENT_3D('',#1309,#1041,#1042);
#865=AXIS2_PLACEMENT_3D('',#1316,#1046,#1047);
#866=AXIS2_PLACEMENT_3D('',#1319,#1049,#1050);
#867=AXIS2_PLACEMENT_3D('',#1321,#1051,#1052);
#868=AXIS2_PLACEMENT_3D('',#1323,#1053,#1054);
#869=AXIS2_PLACEMENT_3D('',#1324,#1055,#1056);
#870=AXIS2_PLACEMENT_3D('',#1328,#1058,#1059);
#871=AXIS2_PLACEMENT_3D('',#1333,#1062,#1063);
#872=AXIS2_PLACEMENT_3D('',#1335,#1064,#1065);
#873=AXIS2_PLACEMENT_3D('',#1337,#1066,#1067);
#874=AXIS2_PLACEMENT_3D('',#1338,#1068,#1069);
#875=AXIS2_PLACEMENT_3D('',#1339,#1070,#1071);
#876=AXIS2_PLACEMENT_3D('',#1340,#1072,#1073);
#877=AXIS2_PLACEMENT_3D('',#1341,#1074,#1075);
#878=AXIS2_PLACEMENT_3D('',#1343,#1077,#1078);
#879=AXIS2_PLACEMENT_3D('',#1344,#1079,#1080);
#880=AXIS2_PLACEMENT_3D('',#1347,#1083,#1084);
#881=AXIS2_PLACEMENT_3D('',#1349,#1086,#1087);
#882=AXIS2_PLACEMENT_3D('',#1351,#1089,#1090);
#883=AXIS2_PLACEMENT_3D('',#1352,#1091,#1092);
#884=AXIS2_PLACEMENT_3D('',#1354,#1094,#1095);
#885=AXIS2_PLACEMENT_3D('',#1356,#1097,#1098);
#886=AXIS2_PLACEMENT_3D('',#1358,#1100,#1101);
#887=AXIS2_PLACEMENT_3D('',#1360,#1103,#1104);
#888=AXIS2_PLACEMENT_3D('',#1362,#1106,#1107);
#889=AXIS2_PLACEMENT_3D('',#1364,#1109,#1110);
#890=AXIS2_PLACEMENT_3D('',#1365,#1111,#1112);
#891=AXIS2_PLACEMENT_3D('',#1366,#1113,#1114);
#892=AXIS2_PLACEMENT_3D('',#1368,#1116,#1117);
#893=AXIS2_PLACEMENT_3D('',#1370,#1119,#1120);
#894=AXIS2_PLACEMENT_3D('',#1372,#1122,#1123);
#895=AXIS2_PLACEMENT_3D('',#1373,#1124,#1125);
#896=DIRECTION('axis',(0.,0.,1.));
#897=DIRECTION('refdir',(1.,0.,0.));
#898=DIRECTION('center_axis',(0.,0.,1.));
#899=DIRECTION('ref_axis',(-0.707106781186548,-0.707106781186547,0.));
#900=DIRECTION('center_axis',(0.,0.,-1.));
#901=DIRECTION('ref_axis',(-0.707106781186548,-0.707106781186547,0.));
#902=DIRECTION('',(0.,0.,1.));
#903=DIRECTION('center_axis',(0.,0.,1.));
#904=DIRECTION('ref_axis',(-0.707106781186548,-0.707106781186547,0.));
#905=DIRECTION('',(0.,0.,-1.));
#906=DIRECTION('center_axis',(1.,-2.96059473233375E-16,0.));
#907=DIRECTION('ref_axis',(2.96059473233375E-16,1.,0.));
#908=DIRECTION('',(-2.96059473233375E-16,-1.,0.));
#909=DIRECTION('',(0.,0.,-1.));
#910=DIRECTION('',(2.96059473233375E-16,1.,0.));
#911=DIRECTION('center_axis',(0.0871557427476585,-2.32229549584218E-16,
-0.996194698091746));
#912=DIRECTION('ref_axis',(0.381227206369653,-0.923879532511287,0.0333530587850029));
#913=DIRECTION('center_axis',(-0.0871557427476585,2.32229549584218E-16,
0.996194698091746));
#914=DIRECTION('ref_axis',(0.381227206369653,-0.923879532511287,0.0333530587850029));
#915=DIRECTION('',(-0.0871557427476585,2.37136088517605E-16,0.996194698091746));
#916=DIRECTION('center_axis',(0.0871557427476585,-2.32229549584218E-16,
-0.996194698091746));
#917=DIRECTION('ref_axis',(0.381227206369653,-0.923879532511287,0.0333530587850029));
#918=DIRECTION('',(0.0871557427476585,-2.32229549584218E-16,-0.996194698091746));
#919=DIRECTION('center_axis',(0.704416026402758,-0.707106781186548,0.0616284167162197));
#920=DIRECTION('ref_axis',(0.0871557427476587,0.,-0.996194698091746));
#921=DIRECTION('',(0.704416026402759,0.707106781186547,0.0616284167162195));
#922=DIRECTION('',(0.0871557427476585,-2.30598892914447E-16,-0.996194698091746));
#923=DIRECTION('',(-0.704416026402759,-0.707106781186547,-0.0616284167162195));
#924=DIRECTION('center_axis',(-0.0871557427476585,2.32229549584218E-16,
0.996194698091746));
#925=DIRECTION('ref_axis',(0.996194698091746,1.01393611060657E-17,0.0871557427476585));
#926=DIRECTION('',(0.996194698091746,-8.85471299717259E-17,0.0871557427476585));
#927=DIRECTION('',(2.6642070273188E-15,1.,-2.87165598974067E-20));
#928=DIRECTION('center_axis',(0.0871557427476585,-2.32229549584218E-16,
-0.996194698091746));
#929=DIRECTION('ref_axis',(0.653562526315562,-0.754709580222772,0.0571793119579755));
#930=DIRECTION('',(0.138643505293405,0.99026806874157,0.0121297349846692));
#931=DIRECTION('center_axis',(-0.0871557427476585,2.32229549584218E-16,
0.996194698091746));
#932=DIRECTION('ref_axis',(0.996194698091746,1.01393611060657E-17,0.0871557427476585));
#933=DIRECTION('',(0.138643505293404,0.99026806874157,0.0121297349846691));
#934=DIRECTION('center_axis',(-0.0871557427476585,2.32229549584218E-16,
0.996194698091746));
#935=DIRECTION('ref_axis',(0.891528866168058,-0.446197813109809,0.0779986689958262));
#936=DIRECTION('center_axis',(0.0871557427476585,-2.32229549584218E-16,
-0.996194698091746));
#937=DIRECTION('ref_axis',(0.996194698091745,1.01393611060657E-17,0.0871557427476585));
#938=DIRECTION('center_axis',(-0.0871557427476585,2.30598892914447E-16,
0.996194698091746));
#939=DIRECTION('ref_axis',(0.891528866168058,-0.446197813109809,0.0779986689958262));
#940=DIRECTION('center_axis',(0.0871557427476585,-2.32229549584218E-16,
-0.996194698091746));
#941=DIRECTION('ref_axis',(0.891528866168058,-0.446197813109809,0.0779986689958262));
#942=DIRECTION('',(-0.0871557427476585,2.30598892914447E-16,0.996194698091746));
#943=DIRECTION('center_axis',(0.,0.,1.));
#944=DIRECTION('ref_axis',(-0.38268343236509,-0.923879532511287,0.));
#945=DIRECTION('center_axis',(0.,0.,-1.));
#946=DIRECTION('ref_axis',(-0.38268343236509,-0.923879532511287,0.));
#947=DIRECTION('',(0.,0.,-1.));
#948=DIRECTION('center_axis',(0.,0.,1.));
#949=DIRECTION('ref_axis',(-0.38268343236509,-0.923879532511287,0.));
#950=DIRECTION('',(0.,0.,1.));
#951=DIRECTION('center_axis',(-0.707106781186548,-0.707106781186547,0.));
#952=DIRECTION('ref_axis',(0.,0.,1.));
#953=DIRECTION('',(-0.707106781186547,0.707106781186548,0.));
#954=DIRECTION('',(0.,0.,1.));
#955=DIRECTION('',(0.707106781186547,-0.707106781186548,0.));
#956=DIRECTION('center_axis',(0.,0.,1.));
#957=DIRECTION('ref_axis',(1.,0.,0.));
#958=DIRECTION('',(1.,-9.86864910777917E-17,0.));
#959=DIRECTION('',(-2.66420577352671E-15,-1.,0.));
#960=DIRECTION('center_axis',(0.,0.,1.));
#961=DIRECTION('ref_axis',(0.656059028990507,-0.754709580222772,0.));
#962=DIRECTION('',(-1.,-1.77635683940025E-16,0.));
#963=DIRECTION('',(1.,0.,0.));
#964=DIRECTION('',(0.,-1.,0.));
#965=DIRECTION('center_axis',(0.,0.,-1.));
#966=DIRECTION('ref_axis',(-0.923879532511287,-0.38268343236509,0.));
#967=DIRECTION('',(1.,9.91270557701033E-17,0.));
#968=DIRECTION('',(-3.96508223080413E-16,-1.,0.));
#969=DIRECTION('',(-1.,9.91270557701034E-17,0.));
#970=DIRECTION('',(-3.96508223080413E-16,1.,0.));
#971=DIRECTION('center_axis',(0.,0.,-1.));
#972=DIRECTION('ref_axis',(-0.923879532511287,-0.38268343236509,0.));
#973=DIRECTION('center_axis',(0.,0.,1.));
#974=DIRECTION('ref_axis',(-0.923879532511287,-0.38268343236509,0.));
#975=DIRECTION('',(0.,0.,-1.));
#976=DIRECTION('center_axis',(-1.0845032029104E-16,-1.,2.23628455155173E-16));
#977=DIRECTION('ref_axis',(0.996194698091746,-8.85471299717259E-17,0.0871557427476585));
#978=DIRECTION('',(0.996194698091746,-8.85471299717259E-17,0.0871557427476585));
#979=DIRECTION('',(0.0871557427476585,-2.32229549584218E-16,-0.996194698091746));
#980=DIRECTION('center_axis',(-0.0871557427476585,2.32229549584218E-16,
0.996194698091746));
#981=DIRECTION('ref_axis',(0.996194698091746,1.01393611060657E-17,0.0871557427476585));
#982=DIRECTION('',(0.138643505293404,0.99026806874157,0.0121297349846691));
#983=DIRECTION('center_axis',(-0.0871557427476585,2.32229549584218E-16,
0.996194698091746));
#984=DIRECTION('ref_axis',(0.996194698091746,1.01393611060657E-17,0.0871557427476585));
#985=DIRECTION('',(-0.138643505293405,-0.99026806874157,-0.0121297349846692));
#986=DIRECTION('center_axis',(-0.0871557427476585,2.32229549584218E-16,
0.996194698091746));
#987=DIRECTION('ref_axis',(0.653562526315562,-0.754709580222772,0.0571793119579755));
#988=DIRECTION('',(-2.6642070273188E-15,-1.,2.87165598974067E-20));
#989=DIRECTION('center_axis',(0.0871557427476585,-2.32229549584218E-16,
-0.996194698091746));
#990=DIRECTION('ref_axis',(0.996194698091745,1.01393611060657E-17,0.0871557427476585));
#991=DIRECTION('center_axis',(-9.86864910777917E-17,-1.,0.));
#992=DIRECTION('ref_axis',(1.,-9.86864910777917E-17,0.));
#993=DIRECTION('',(1.,-9.86864910777917E-17,0.));
#994=DIRECTION('',(0.,0.,-1.));
#995=DIRECTION('center_axis',(0.,0.,1.));
#996=DIRECTION('ref_axis',(1.,0.,0.));
#997=DIRECTION('',(0.,-1.,0.));
#998=DIRECTION('',(-1.,0.,0.));
#999=DIRECTION('',(-1.,-1.77635683940025E-16,0.));
#1000=DIRECTION('center_axis',(0.,0.,-1.));
#1001=DIRECTION('ref_axis',(0.656059028990507,-0.754709580222772,0.));
#1002=DIRECTION('',(2.66420577352671E-15,1.,0.));
#1003=DIRECTION('',(1.,9.91270557701033E-17,0.));
#1004=DIRECTION('',(-3.96508223080413E-16,1.,0.));
#1005=DIRECTION('',(-1.,9.91270557701034E-17,0.));
#1006=DIRECTION('',(-3.96508223080413E-16,-1.,0.));
#1007=DIRECTION('',(-0.0871557427476585,2.32229549584218E-16,0.996194698091746));
#1008=DIRECTION('',(0.,0.,1.));
#1009=DIRECTION('',(0.,0.,1.));
#1010=DIRECTION('',(-0.0871557427476585,2.32229549584218E-16,0.996194698091746));
#1011=DIRECTION('center_axis',(-2.66453525910038E-15,-1.,0.));
#1012=DIRECTION('ref_axis',(0.,0.,-1.));
#1013=DIRECTION('center_axis',(-2.66453525910038E-15,-1.,0.));
#1014=DIRECTION('ref_axis',(4.39257378684533E-16,0.,-1.));
#1015=DIRECTION('center_axis',(-0.0871557427476585,2.32229549584218E-16,
0.996194698091746));
#1016=DIRECTION('ref_axis',(0.653562526315562,-0.754709580222772,0.0571793119579755));
#1017=DIRECTION('',(0.0871557427476585,-2.32229549584218E-16,-0.996194698091746));
#1018=DIRECTION('center_axis',(-2.66453525910038E-15,-1.,0.));
#1019=DIRECTION('ref_axis',(0.,0.,-1.));
#1020=DIRECTION('center_axis',(-2.66453525910038E-15,-1.,0.));
#1021=DIRECTION('ref_axis',(5.82794238648376E-16,0.,-1.));
#1022=DIRECTION('center_axis',(1.,5.07778855834716E-31,-2.96059473233375E-16));
#1023=DIRECTION('ref_axis',(2.96059473233375E-16,-1.71512449944288E-15,
1.));
#1024=DIRECTION('',(0.,1.,1.71512449944288E-15));
#1025=DIRECTION('',(-2.96059473233375E-16,1.71512449944288E-15,-1.));
#1026=DIRECTION('',(0.,-1.,-1.71512449944288E-15));
#1027=DIRECTION('',(2.96059473233375E-16,-1.71512449944288E-15,1.));
#1028=DIRECTION('center_axis',(1.,0.,0.));
#1029=DIRECTION('ref_axis',(0.,0.,-1.));
#1030=DIRECTION('',(1.,0.,0.));
#1031=DIRECTION('center_axis',(-1.,0.,0.));
#1032=DIRECTION('ref_axis',(0.,1.,1.74838271594513E-15));
#1033=DIRECTION('center_axis',(1.,0.,0.));
#1034=DIRECTION('ref_axis',(0.,0.,-1.));
#1035=DIRECTION('center_axis',(-1.,0.,0.));
#1036=DIRECTION('ref_axis',(0.,0.,1.));
#1037=DIRECTION('',(0.,-1.,-1.71512449944288E-15));
#1038=DIRECTION('center_axis',(-1.,0.,0.));
#1039=DIRECTION('ref_axis',(0.,1.,1.75702951473813E-15));
#1040=DIRECTION('',(0.,0.,1.));
#1041=DIRECTION('center_axis',(0.,-1.,-1.71512449944288E-15));
#1042=DIRECTION('ref_axis',(1.,0.,0.));
#1043=DIRECTION('',(-1.,0.,0.));
#1044=DIRECTION('',(0.,1.71512449944288E-15,-1.));
#1045=DIRECTION('',(-0.0871557427476589,-1.70859793291226E-15,0.996194698091746));
#1046=DIRECTION('center_axis',(0.,-1.,-1.71512449944288E-15));
#1047=DIRECTION('ref_axis',(1.,0.,0.));
#1048=DIRECTION('',(-0.0871557427476582,-1.70859793291226E-15,0.996194698091746));
#1049=DIRECTION('center_axis',(0.,1.,1.71512449944288E-15));
#1050=DIRECTION('ref_axis',(1.,0.,0.));
#1051=DIRECTION('center_axis',(0.,1.,1.71512449944288E-15));
#1052=DIRECTION('ref_axis',(1.,0.,0.));
#1053=DIRECTION('center_axis',(0.,1.,1.71512449944288E-15));
#1054=DIRECTION('ref_axis',(1.,0.,0.));
#1055=DIRECTION('center_axis',(0.,-1.,-1.71512449944288E-15));
#1056=DIRECTION('ref_axis',(1.,0.,0.));
#1057=DIRECTION('',(-0.0871557427476582,-1.70859793291226E-15,0.996194698091746));
#1058=DIRECTION('center_axis',(0.,-1.,-1.71512449944288E-15));
#1059=DIRECTION('ref_axis',(1.,0.,0.));
#1060=DIRECTION('',(0.0871557427476589,1.70859793291226E-15,-0.996194698091746));
#1061=DIRECTION('',(0.,1.71512449944288E-15,-1.));
#1062=DIRECTION('center_axis',(0.,1.,1.71512449944288E-15));
#1063=DIRECTION('ref_axis',(1.,0.,0.));
#1064=DIRECTION('center_axis',(0.,1.,1.71512449944288E-15));
#1065=DIRECTION('ref_axis',(1.,0.,0.));
#1066=DIRECTION('center_axis',(0.,1.,1.71512449944288E-15));
#1067=DIRECTION('ref_axis',(1.,0.,0.));
#1068=DIRECTION('center_axis',(-1.,0.,0.));
#1069=DIRECTION('ref_axis',(0.,-1.,0.));
#1070=DIRECTION('center_axis',(1.,0.,0.));
#1071=DIRECTION('ref_axis',(0.,0.,-1.));
#1072=DIRECTION('center_axis',(-1.,0.,0.));
#1073=DIRECTION('ref_axis',(0.,1.,1.75702951473813E-15));
#1074=DIRECTION('center_axis',(0.,0.,1.));
#1075=DIRECTION('ref_axis',(0.656059028990507,-0.754709580222772,0.));
#1076=DIRECTION('',(0.,0.,1.));
#1077=DIRECTION('center_axis',(-1.77635683940025E-16,1.,0.));
#1078=DIRECTION('ref_axis',(-1.,-1.77635683940025E-16,0.));
#1079=DIRECTION('center_axis',(1.,3.96508223080413E-16,0.));
#1080=DIRECTION('ref_axis',(-3.96508223080413E-16,1.,0.));
#1081=DIRECTION('',(0.,0.,1.));
#1082=DIRECTION('',(0.,0.,1.));
#1083=DIRECTION('center_axis',(9.91270557701034E-17,1.,0.));
#1084=DIRECTION('ref_axis',(-1.,9.91270557701034E-17,0.));
#1085=DIRECTION('',(0.,0.,1.));
#1086=DIRECTION('center_axis',(-1.,3.96508223080413E-16,0.));
#1087=DIRECTION('ref_axis',(-3.96508223080413E-16,-1.,0.));
#1088=DIRECTION('',(0.,0.,1.));
#1089=DIRECTION('center_axis',(9.91270557701033E-17,-1.,0.));
#1090=DIRECTION('ref_axis',(1.,9.91270557701033E-17,0.));
#1091=DIRECTION('center_axis',(0.,-1.,-1.71512449944288E-15));
#1092=DIRECTION('ref_axis',(1.,0.,0.));
#1093=DIRECTION('',(0.,1.,1.71512449944288E-15));
#1094=DIRECTION('center_axis',(0.,-1.,-1.71512449944288E-15));
#1095=DIRECTION('ref_axis',(1.,0.,0.));
#1096=DIRECTION('',(0.,1.,1.71512449944288E-15));
#1097=DIRECTION('center_axis',(0.,-1.,-1.71512449944288E-15));
#1098=DIRECTION('ref_axis',(1.,0.,0.));
#1099=DIRECTION('',(0.,1.,1.71512449944288E-15));
#1100=DIRECTION('center_axis',(-0.0871557427476585,2.32229549584218E-16,
0.996194698091746));
#1101=DIRECTION('ref_axis',(0.996194698091745,1.01393611060657E-17,0.0871557427476585));
#1102=DIRECTION('',(0.0871557427476585,-2.32229549584218E-16,-0.996194698091745));
#1103=DIRECTION('center_axis',(-0.986499799769904,0.139173100960066,-0.0863075490504609));
#1104=DIRECTION('ref_axis',(-0.138643505293405,-0.99026806874157,-0.0121297349846692));
#1105=DIRECTION('',(-0.0871557427476585,2.32229549584218E-16,0.996194698091746));
#1106=DIRECTION('center_axis',(-0.0871557427476585,2.32229549584218E-16,
0.996194698091746));
#1107=DIRECTION('ref_axis',(0.996194698091746,1.01393611060657E-17,0.0871557427476585));
#1108=DIRECTION('',(-0.0871557427476585,2.32229549584218E-16,0.996194698091746));
#1109=DIRECTION('center_axis',(0.986499799769905,-0.139173100960065,0.086307549050461));
#1110=DIRECTION('ref_axis',(0.138643505293404,0.99026806874157,0.0121297349846691));
#1111=DIRECTION('center_axis',(-2.66453525910038E-15,-1.,0.));
#1112=DIRECTION('ref_axis',(0.,0.,-1.));
#1113=DIRECTION('center_axis',(-1.,0.,0.));
#1114=DIRECTION('ref_axis',(0.,1.71512449944288E-15,-1.));
#1115=DIRECTION('',(0.,-1.,-1.71512449944288E-15));
#1116=DIRECTION('center_axis',(-0.996194698091746,1.49482949653651E-16,
-0.0871557427476589));
#1117=DIRECTION('ref_axis',(0.0871557427476589,1.70859793291226E-15,-0.996194698091746));
#1118=DIRECTION('',(0.,-1.,-1.71512449944288E-15));
#1119=DIRECTION('center_axis',(0.,-1.,-1.71512449944288E-15));
#1120=DIRECTION('ref_axis',(-0.0255373714924711,-1.71456514271284E-15,0.999673868147635));
#1121=DIRECTION('',(0.,-1.,-1.71512449944288E-15));
#1122=DIRECTION('center_axis',(0.996194698091746,-1.4948294965365E-16,0.0871557427476582));
#1123=DIRECTION('ref_axis',(-0.0871557427476582,-1.70859793291226E-15,0.996194698091746));
#1124=DIRECTION('center_axis',(1.,0.,0.));
#1125=DIRECTION('ref_axis',(0.,0.,-1.));
#1126=CARTESIAN_POINT('',(0.,0.,0.));
#1127=CARTESIAN_POINT('Origin',(-40.,29.6807828327316,0.));
#1128=CARTESIAN_POINT('',(-40.,19.6807828327316,0.));
#1129=CARTESIAN_POINT('',(-50.,29.6807828327316,0.));
#1130=CARTESIAN_POINT('Origin',(-40.,29.6807828327316,0.));
#1131=CARTESIAN_POINT('',(-50.,29.6807828327316,6.3));
#1132=CARTESIAN_POINT('',(-50.,29.6807828327316,0.));
#1133=CARTESIAN_POINT('',(-40.,19.6807828327316,6.3));
#1134=CARTESIAN_POINT('Origin',(-40.,29.6807828327316,6.3));
#1135=CARTESIAN_POINT('',(-40.,19.6807828327316,0.));
#1136=CARTESIAN_POINT('Origin',(-50.,19.6807828327316,0.));
#1137=CARTESIAN_POINT('',(-50.,49.6807828327316,0.));
#1138=CARTESIAN_POINT('',(-50.,49.6807828327316,0.));
#1139=CARTESIAN_POINT('',(-50.,49.6807828327316,6.3));
#1140=CARTESIAN_POINT('',(-50.,49.6807828327316,0.));
#1141=CARTESIAN_POINT('',(-50.,49.6807828327316,6.3));
#1142=CARTESIAN_POINT('Origin',(28.7886327566779,-0.319217167268375,1.16773049416828));
#1143=CARTESIAN_POINT('',(28.7886327566779,-20.3192171672684,1.16773049416829));
#1144=CARTESIAN_POINT('',(42.876953284733,-14.4613527909993,2.40029882849268));
#1145=CARTESIAN_POINT('Origin',(28.7886327566779,-0.319217167268375,1.16773049416828));
#1146=CARTESIAN_POINT('',(42.3278721054228,-14.4613527909993,8.67632542647067));
#1147=CARTESIAN_POINT('',(42.876953284733,-14.4613527909993,2.40029882849267));
#1148=CARTESIAN_POINT('',(28.2395515773676,-20.3192171672684,7.44375709214628));
#1149=CARTESIAN_POINT('Origin',(28.2395515773676,-0.319217167268374,7.44375709214628));
#1150=CARTESIAN_POINT('',(28.7886327566779,-20.3192171672684,1.16773049416828));
#1151=CARTESIAN_POINT('Origin',(50.3709707036939,-6.93870944295106,3.05594039691755));
#1152=CARTESIAN_POINT('',(58.9866754481022,1.70990589390233,3.8097168903398));
#1153=CARTESIAN_POINT('',(55.3564485725465,-1.93418785856347,3.49211319270155));
#1154=CARTESIAN_POINT('',(58.437594268792,1.70990589390234,10.0857434883178));
#1155=CARTESIAN_POINT('',(58.9866754481022,1.70990589390234,3.8097168903398));
#1156=CARTESIAN_POINT('',(54.8073673932363,-1.93418785856347,9.76813979067954));
#1157=CARTESIAN_POINT('Origin',(-13.4761887972629,77.1704221724541,-2.5299622577477));
#1158=CARTESIAN_POINT('',(15.8811445591788,-20.3192171672684,0.0384716022924531));
#1159=CARTESIAN_POINT('',(-89.2476859468471,-20.3192171672684,-9.15910927672319));
#1160=CARTESIAN_POINT('',(15.8811445591789,21.3141085965693,0.0384716022924528));
#1161=CARTESIAN_POINT('',(15.881144559179,38.585211086227,0.0384716022924528));
#1162=CARTESIAN_POINT('',(27.7251235424218,36.8973208135303,1.07468549436551));
#1163=CARTESIAN_POINT('Origin',(7.99512754702372,39.6807828327316,-0.651465486643714));
#1164=CARTESIAN_POINT('',(30.4895757905992,56.6425572249837,1.31654372693977));
#1165=CARTESIAN_POINT('',(25.3147043337036,19.6807828327316,0.863801139257537));
#1166=CARTESIAN_POINT('',(69.9495677813954,51.0756331865811,4.76884568895821));
#1167=CARTESIAN_POINT('Origin',(50.2195717859972,53.8590952057824,3.04269470794899));
#1168=CARTESIAN_POINT('',(64.6283509154451,13.068579498432,4.30329953702463));
#1169=CARTESIAN_POINT('',(59.9538579070634,-20.3192171672681,3.89433439106004));
#1170=CARTESIAN_POINT('Origin',(44.898354920047,15.8520415176333,2.57714855601541));
#1171=CARTESIAN_POINT('',(43.7443062484009,53.8590952057824,2.47618238008921));
#1172=CARTESIAN_POINT('Origin',(50.2195717859972,53.8590952057824,3.04269470794899));
#1173=CARTESIAN_POINT('Origin',(44.898354920047,15.8520415176333,2.57714855601541));
#1174=CARTESIAN_POINT('',(64.0792697361349,13.068579498432,10.5793261350026));
#1175=CARTESIAN_POINT('Origin',(44.3492737407368,15.8520415176333,8.85317515399341));
#1176=CARTESIAN_POINT('',(64.6283509154451,13.068579498432,4.30329953702463));
#1177=CARTESIAN_POINT('Origin',(-51.7157287525381,-0.319217167268369,0.));
#1178=CARTESIAN_POINT('',(-51.7157287525381,-20.3192171672684,6.3));
#1179=CARTESIAN_POINT('',(-65.857864376269,-14.4613527909993,6.3));
#1180=CARTESIAN_POINT('Origin',(-51.7157287525381,-0.319217167268369,6.3));
#1181=CARTESIAN_POINT('',(-65.857864376269,-14.4613527909993,0.));
#1182=CARTESIAN_POINT('',(-65.857864376269,-14.4613527909993,0.));
#1183=CARTESIAN_POINT('',(-51.7157287525381,-20.3192171672684,0.));
#1184=CARTESIAN_POINT('Origin',(-51.7157287525381,-0.319217167268369,0.));
#1185=CARTESIAN_POINT('',(-51.7157287525381,-20.3192171672684,0.));
#1186=CARTESIAN_POINT('Origin',(-75.,-5.31921716726836,0.));
#1187=CARTESIAN_POINT('',(-84.142135623731,3.82291845646259,6.3));
#1188=CARTESIAN_POINT('',(-80.3571768451527,0.0379596778842917,6.3));
#1189=CARTESIAN_POINT('',(-84.142135623731,3.82291845646259,0.));
#1190=CARTESIAN_POINT('',(-84.142135623731,3.82291845646259,0.));
#1191=CARTESIAN_POINT('',(-80.3571768451527,0.0379596778842917,0.));
#1192=CARTESIAN_POINT('Origin',(-13.9390680408882,77.1704221724541,6.3));
#1193=CARTESIAN_POINT('',(15.,-20.3192171672684,6.3));
#1194=CARTESIAN_POINT('',(-90.,-20.3192171672684,6.3));
#1195=CARTESIAN_POINT('',(15.0000000000001,21.0944727602827,6.3));
#1196=CARTESIAN_POINT('',(15.0000000000002,38.585211086227,6.3));
#1197=CARTESIAN_POINT('',(7.61426524367547,19.6807828327316,6.3));
#1198=CARTESIAN_POINT('Origin',(7.61426524367547,39.6807828327316,6.3));
#1199=CARTESIAN_POINT('',(25.,19.6807828327316,6.3));
#1200=CARTESIAN_POINT('',(-90.,49.6807828327316,6.3));
#1201=CARTESIAN_POINT('',(-6.96953402044408,49.6807828327316,6.3));
#1202=CARTESIAN_POINT('',(-90.,17.9650540801935,6.3));
#1203=CARTESIAN_POINT('',(-90.,63.7393351910325,6.3));
#1204=CARTESIAN_POINT('Origin',(-70.,17.9650540801935,6.3));
#1205=CARTESIAN_POINT('',(-15.6,5.28078283273164,6.3));
#1206=CARTESIAN_POINT('',(-4.4,5.28078283273164,6.3));
#1207=CARTESIAN_POINT('',(-15.6,5.28078283273164,6.3));
#1208=CARTESIAN_POINT('',(-4.4,-5.91921716726836,6.3));
#1209=CARTESIAN_POINT('',(-4.4,5.28078283273164,6.3));
#1210=CARTESIAN_POINT('',(-15.6,-5.91921716726836,6.3));
#1211=CARTESIAN_POINT('',(-4.4,-5.91921716726836,6.3));
#1212=CARTESIAN_POINT('',(-15.6,-5.91921716726836,6.3));
#1213=CARTESIAN_POINT('Origin',(-70.,17.9650540801935,0.));
#1214=CARTESIAN_POINT('',(-90.,17.9650540801935,0.));
#1215=CARTESIAN_POINT('Origin',(-70.,17.9650540801935,0.));
#1216=CARTESIAN_POINT('',(-90.,17.9650540801935,0.));
#1217=CARTESIAN_POINT('Origin',(-89.2476859468471,-20.3192171672684,-9.15910927672319));
#1218=CARTESIAN_POINT('',(15.3320633798686,-20.3192171672684,6.31449820027045));
#1219=CARTESIAN_POINT('',(-89.7967671261574,-20.3192171672684,-2.88308267874519));
#1220=CARTESIAN_POINT('',(15.8811445591788,-20.3192171672684,0.0384716022924531));
#1221=CARTESIAN_POINT('Origin',(-14.0252699765732,77.1704221724541,3.7460643402303));
#1222=CARTESIAN_POINT('',(69.4004866020851,51.0756331865811,11.0448722869362));
#1223=CARTESIAN_POINT('',(59.4047767277532,-20.3192171672681,10.170360989038));
#1224=CARTESIAN_POINT('',(29.9404946112889,56.6425572249837,7.59257032491777));
#1225=CARTESIAN_POINT('Origin',(49.670490606687,53.8590952057824,9.31872130592699));
#1226=CARTESIAN_POINT('',(27.1760423631116,36.8973208135303,7.3507120923435));
#1227=CARTESIAN_POINT('',(24.7656231543934,19.6807828327316,7.13982773723553));
#1228=CARTESIAN_POINT('',(15.3320633798687,21.3141085965693,6.31449820027045));
#1229=CARTESIAN_POINT('Origin',(7.44604636771347,39.6807828327316,5.62456111133428));
#1230=CARTESIAN_POINT('',(15.3320633798687,38.585211086227,6.31449820027045));
#1231=CARTESIAN_POINT('',(43.1952250690906,53.8590952057824,8.75220897806721));
#1232=CARTESIAN_POINT('Origin',(49.670490606687,53.8590952057824,9.31872130592699));
#1233=CARTESIAN_POINT('Origin',(-90.,-20.3192171672684,0.));
#1234=CARTESIAN_POINT('',(15.,-20.3192171672684,0.));
#1235=CARTESIAN_POINT('',(-90.,-20.3192171672684,0.));
#1236=CARTESIAN_POINT('',(15.,-20.3192171672684,0.));
#1237=CARTESIAN_POINT('Origin',(-13.9390680408882,77.1704221724541,0.));
#1238=CARTESIAN_POINT('',(-90.,49.6807828327316,0.));
#1239=CARTESIAN_POINT('',(-90.,63.7393351910325,0.));
#1240=CARTESIAN_POINT('',(-6.96953402044408,49.6807828327316,0.));
#1241=CARTESIAN_POINT('',(7.61426524367547,19.6807828327316,0.));
#1242=CARTESIAN_POINT('',(25.,19.6807828327316,0.));
#1243=CARTESIAN_POINT('',(15.0000000000001,21.0944727602827,0.));
#1244=CARTESIAN_POINT('Origin',(7.61426524367547,39.6807828327316,0.));
#1245=CARTESIAN_POINT('',(15.0000000000002,38.585211086227,0.));
#1246=CARTESIAN_POINT('',(-15.6,5.28078283273164,0.));
#1247=CARTESIAN_POINT('',(-4.4,5.28078283273164,0.));
#1248=CARTESIAN_POINT('',(-15.6,5.28078283273164,0.));
#1249=CARTESIAN_POINT('',(-15.6,-5.91921716726836,0.));
#1250=CARTESIAN_POINT('',(-15.6,-5.91921716726836,0.));
#1251=CARTESIAN_POINT('',(-4.4,-5.91921716726836,0.));
#1252=CARTESIAN_POINT('',(-4.4,-5.91921716726836,0.));
#1253=CARTESIAN_POINT('',(-4.4,5.28078283273164,0.));
#1254=CARTESIAN_POINT('Ctrl Pts',(15.0000000000001,21.0944727602827,0.));
#1255=CARTESIAN_POINT('Ctrl Pts',(15.2958156229266,21.1651421230877,1.31368526246737E-16));
#1256=CARTESIAN_POINT('Ctrl Pts',(15.5899369775655,21.2383641228691,0.0129942401684784));
#1257=CARTESIAN_POINT('Ctrl Pts',(15.8811445591789,21.3141085965693,0.0384716022924536));
#1258=CARTESIAN_POINT('Ctrl Pts',(15.0000000000001,21.0944727602827,2.1));
#1259=CARTESIAN_POINT('Ctrl Pts',(15.2343702413098,21.1651421230877,2.1));
#1260=CARTESIAN_POINT('Ctrl Pts',(15.4673981394956,21.2383641228691,2.11029513983675));
#1261=CARTESIAN_POINT('Ctrl Pts',(15.6981174994089,21.3141085965693,2.13048046828512));
#1262=CARTESIAN_POINT('Ctrl Pts',(15.0000000000001,21.0944727602827,4.2));
#1263=CARTESIAN_POINT('Ctrl Pts',(15.1729248596931,21.1651421230877,4.2));
#1264=CARTESIAN_POINT('Ctrl Pts',(15.3448593014256,21.2383641228691,4.20759603950501));
#1265=CARTESIAN_POINT('Ctrl Pts',(15.5150904396388,21.3141085965693,4.22248933427778));
#1266=CARTESIAN_POINT('Ctrl Pts',(15.0000000000001,21.0944727602827,6.3));
#1267=CARTESIAN_POINT('Ctrl Pts',(15.1114794780763,21.1651421230877,6.3));
#1268=CARTESIAN_POINT('Ctrl Pts',(15.2223204633556,21.2383641228691,6.30489693917328));
#1269=CARTESIAN_POINT('Ctrl Pts',(15.3320633798687,21.3141085965693,6.31449820027045));
#1270=CARTESIAN_POINT('',(15.5297326044204,21.3141085965693,4.05512862499837));
#1271=CARTESIAN_POINT('',(15.8811445591789,21.3141085965693,0.0384716022924528));
#1272=CARTESIAN_POINT('Ctrl Pts',(15.8811445591789,21.3141085965693,0.0384716022924536));
#1273=CARTESIAN_POINT('Ctrl Pts',(15.5899369775655,21.2383641228691,0.0129942401684784));
#1274=CARTESIAN_POINT('Ctrl Pts',(15.2958156229266,21.1651421230877,1.31368526246737E-16));
#1275=CARTESIAN_POINT('Ctrl Pts',(15.0000000000001,21.0944727602827,0.));
#1276=CARTESIAN_POINT('',(15.0000000000001,21.0944727602827,4.032));
#1277=CARTESIAN_POINT('',(15.0000000000001,21.0944727602827,0.));
#1278=CARTESIAN_POINT('',(15.0000000000001,21.0944727602827,0.));
#1279=CARTESIAN_POINT('Ctrl Pts',(15.0000000000001,21.0944727602827,6.3));
#1280=CARTESIAN_POINT('Ctrl Pts',(15.1114794780763,21.1651421230877,6.3));
#1281=CARTESIAN_POINT('Ctrl Pts',(15.2223204633556,21.2383641228691,6.30489693917328));
#1282=CARTESIAN_POINT('Ctrl Pts',(15.3320633798687,21.3141085965693,6.31449820027045));
#1283=CARTESIAN_POINT('',(15.8811445591789,21.3141085965693,0.0384716022924528));
#1284=CARTESIAN_POINT('Origin',(15.0000000000001,-0.319217167268335,10.11));
#1285=CARTESIAN_POINT('Origin',(15.,-20.3192171672684,10.11));
#1286=CARTESIAN_POINT('Origin',(7.99512754702372,39.6807828327316,-0.651465486643714));
#1287=CARTESIAN_POINT('',(27.7251235424218,36.8973208135303,1.07468549436551));
#1288=CARTESIAN_POINT('Origin',(15.0000000000001,-0.319217167268335,10.11));
#1289=CARTESIAN_POINT('Origin',(15.,-20.3192171672684,10.11));
#1290=CARTESIAN_POINT('Origin',(-50.,59.7907828327317,-29.4373000742594));
#1291=CARTESIAN_POINT('',(-50.,53.4907828327316,10.11));
#1292=CARTESIAN_POINT('',(-50.,59.7907828327316,10.11));
#1293=CARTESIAN_POINT('',(-50.,59.7907828327316,10.11));
#1294=CARTESIAN_POINT('',(-50.,59.7907828327316,14.6212522840415));
#1295=CARTESIAN_POINT('',(-50.,59.7907828327316,0.562699925740633));
#1296=CARTESIAN_POINT('',(-50.,53.4907828327316,14.6212522840415));
#1297=CARTESIAN_POINT('',(-50.,59.7907828327316,14.6212522840415));
#1298=CARTESIAN_POINT('',(-50.,53.4907828327316,0.562699925740624));
#1299=CARTESIAN_POINT('Origin',(-67.5,49.6807828327316,10.11));
#1300=CARTESIAN_POINT('',(-90.,53.4907828327316,10.11));
#1301=CARTESIAN_POINT('',(-6.96953402044408,53.4907828327316,10.11));
#1302=CARTESIAN_POINT('Origin',(-90.,49.6807828327316,10.11));
#1303=CARTESIAN_POINT('Origin',(-50.,49.6807828327316,10.11));
#1304=CARTESIAN_POINT('Origin',(-90.,59.7907828327316,10.11));
#1305=CARTESIAN_POINT('',(-90.,59.7907828327316,10.11));
#1306=CARTESIAN_POINT('',(-90.,59.7907828327316,10.11));
#1307=CARTESIAN_POINT('Origin',(-90.,49.6807828327316,10.11));
#1308=CARTESIAN_POINT('',(-90.,49.6807828327316,0.));
#1309=CARTESIAN_POINT('Origin',(-13.9390680408882,59.7907828327316,28.0523392654631));
#1310=CARTESIAN_POINT('',(-6.96953402044408,59.7907828327316,10.11));
#1311=CARTESIAN_POINT('',(-90.,59.7907828327316,14.6212522840415));
#1312=CARTESIAN_POINT('',(-90.,59.7907828327316,14.6212522840415));
#1313=CARTESIAN_POINT('',(-97.8020300268641,59.7907828327315,103.798863558812));
#1314=CARTESIAN_POINT('',(-90.,59.7907828327316,14.6212522840415));
#1315=CARTESIAN_POINT('',(-57.8912290464089,59.7907828327315,104.818413017565));
#1316=CARTESIAN_POINT('Origin',(-77.8781360817763,59.7907828327315,105.541978605186));
#1317=CARTESIAN_POINT('',(-50.,59.7907828327316,14.6212522840415));
#1318=CARTESIAN_POINT('',(-84.3781360817763,59.7907828327315,105.541978605186));
#1319=CARTESIAN_POINT('Origin',(-77.8781360817763,59.7907828327315,105.541978605186));
#1320=CARTESIAN_POINT('',(-80.0961754724757,59.7907828327316,55.7257260243467));
#1321=CARTESIAN_POINT('Origin',(-73.5961754724757,59.7907828327316,55.7257260243467));
#1322=CARTESIAN_POINT('',(-82.2750690411672,59.7907828327315,80.6305934766403));
#1323=CARTESIAN_POINT('Origin',(-75.7750690411672,59.7907828327315,80.6305934766403));
#1324=CARTESIAN_POINT('Origin',(-13.9390680408882,53.4907828327316,28.0523392654631));
#1325=CARTESIAN_POINT('',(-57.8912290464089,53.4907828327315,104.818413017565));
#1326=CARTESIAN_POINT('',(-50.,53.4907828327316,14.6212522840415));
#1327=CARTESIAN_POINT('',(-97.8020300268641,53.4907828327315,103.798863558812));
#1328=CARTESIAN_POINT('Origin',(-77.8781360817763,53.4907828327315,105.541978605186));
#1329=CARTESIAN_POINT('',(-90.,53.4907828327316,14.6212522840415));
#1330=CARTESIAN_POINT('',(-90.,53.4907828327316,14.6212522840415));
#1331=CARTESIAN_POINT('',(-90.,53.4907828327316,14.6212522840415));
#1332=CARTESIAN_POINT('',(-84.3781360817763,53.4907828327315,105.541978605186));
#1333=CARTESIAN_POINT('Origin',(-77.8781360817763,53.4907828327315,105.541978605186));
#1334=CARTESIAN_POINT('',(-80.0961754724757,53.4907828327316,55.7257260243467));
#1335=CARTESIAN_POINT('Origin',(-73.5961754724757,53.4907828327316,55.7257260243467));
#1336=CARTESIAN_POINT('',(-82.2750690411672,53.4907828327315,80.6305934766403));
#1337=CARTESIAN_POINT('Origin',(-75.7750690411672,53.4907828327315,80.6305934766403));
#1338=CARTESIAN_POINT('Origin',(-90.,63.7393351910325,0.));
#1339=CARTESIAN_POINT('Origin',(-50.,53.4907828327316,10.11));
#1340=CARTESIAN_POINT('Origin',(-50.,49.6807828327316,10.11));
#1341=CARTESIAN_POINT('Origin',(7.61426524367547,39.6807828327316,0.));
#1342=CARTESIAN_POINT('',(7.61426524367547,19.6807828327316,0.));
#1343=CARTESIAN_POINT('Origin',(25.,19.6807828327316,0.));
#1344=CARTESIAN_POINT('Origin',(-15.6,-5.91921716726836,0.));
#1345=CARTESIAN_POINT('',(-15.6,5.28078283273164,0.));
#1346=CARTESIAN_POINT('',(-15.6,-5.91921716726836,0.));
#1347=CARTESIAN_POINT('Origin',(-4.4,-5.91921716726836,0.));
#1348=CARTESIAN_POINT('',(-4.4,-5.91921716726836,0.));
#1349=CARTESIAN_POINT('Origin',(-4.4,5.28078283273164,0.));
#1350=CARTESIAN_POINT('',(-4.4,5.28078283273164,0.));
#1351=CARTESIAN_POINT('Origin',(-15.6,5.28078283273164,0.));
#1352=CARTESIAN_POINT('Origin',(-77.8781360817763,59.7907828327315,105.541978605186));
#1353=CARTESIAN_POINT('',(-84.3781360817763,59.7907828327315,105.541978605186));
#1354=CARTESIAN_POINT('Origin',(-73.5961754724757,59.7907828327316,55.7257260243467));
#1355=CARTESIAN_POINT('',(-80.0961754724757,59.7907828327316,55.7257260243467));
#1356=CARTESIAN_POINT('Origin',(-75.7750690411672,59.7907828327315,80.6305934766403));
#1357=CARTESIAN_POINT('',(-82.2750690411672,59.7907828327315,80.6305934766403));
#1358=CARTESIAN_POINT('Origin',(50.2195717859972,53.8590952057824,3.04269470794899));
#1359=CARTESIAN_POINT('',(43.7443062484009,53.8590952057824,2.47618238008921));
#1360=CARTESIAN_POINT('Origin',(30.4895757905992,56.6425572249837,1.31654372693977));
#1361=CARTESIAN_POINT('',(30.4895757905992,56.6425572249837,1.31654372693977));
#1362=CARTESIAN_POINT('Origin',(50.2195717859972,53.8590952057824,3.04269470794899));
#1363=CARTESIAN_POINT('',(69.9495677813954,51.0756331865811,4.76884568895821));
#1364=CARTESIAN_POINT('Origin',(59.9538579070634,-20.3192171672681,3.89433439106004));
#1365=CARTESIAN_POINT('Origin',(15.3320633798686,-20.3192171672684,6.31449820027045));
#1366=CARTESIAN_POINT('Origin',(-90.,59.7907828327316,14.6212522840415));
#1367=CARTESIAN_POINT('',(-90.,59.7907828327316,14.6212522840415));
#1368=CARTESIAN_POINT('Origin',(-97.8020300268641,59.7907828327315,103.798863558812));
#1369=CARTESIAN_POINT('',(-97.8020300268641,59.7907828327315,103.798863558812));
#1370=CARTESIAN_POINT('Origin',(-77.8781360817763,59.7907828327315,105.541978605186));
#1371=CARTESIAN_POINT('',(-57.8912290464089,59.7907828327315,104.818413017565));
#1372=CARTESIAN_POINT('Origin',(-50.,59.7907828327316,14.6212522840415));
#1373=CARTESIAN_POINT('Origin',(-67.5,49.6807828327316,10.11));
#1374=UNCERTAINTY_MEASURE_WITH_UNIT(LENGTH_MEASURE(0.01),#1378,
'DISTANCE_ACCURACY_VALUE',
'Maximum model space distance between geometric entities at asserted c
onnectivities');
#1375=UNCERTAINTY_MEASURE_WITH_UNIT(LENGTH_MEASURE(0.01),#1378,
'DISTANCE_ACCURACY_VALUE',
'Maximum model space distance between geometric entities at asserted c
onnectivities');
#1376=(
GEOMETRIC_REPRESENTATION_CONTEXT(3)
GLOBAL_UNCERTAINTY_ASSIGNED_CONTEXT((#1374))
GLOBAL_UNIT_ASSIGNED_CONTEXT((#1378,#1380,#1381))
REPRESENTATION_CONTEXT('','3D')
);
#1377=(
GEOMETRIC_REPRESENTATION_CONTEXT(3)
GLOBAL_UNCERTAINTY_ASSIGNED_CONTEXT((#1375))
GLOBAL_UNIT_ASSIGNED_CONTEXT((#1378,#1380,#1381))
REPRESENTATION_CONTEXT('','3D')
);
#1378=(
LENGTH_UNIT()
NAMED_UNIT(*)
SI_UNIT(.MILLI.,.METRE.)
);
#1379=(
LENGTH_UNIT()
NAMED_UNIT(*)
SI_UNIT($,.METRE.)
);
#1380=(
NAMED_UNIT(*)
PLANE_ANGLE_UNIT()
SI_UNIT($,.RADIAN.)
);
#1381=(
NAMED_UNIT(*)
SI_UNIT($,.STERADIAN.)
SOLID_ANGLE_UNIT()
);
#1382=SHAPE_DEFINITION_REPRESENTATION(#1383,#1384);
#1383=PRODUCT_DEFINITION_SHAPE('',$,#1386);
#1384=SHAPE_REPRESENTATION('',(#820),#1376);
#1385=PRODUCT_DEFINITION_CONTEXT('part definition',#1390,'design');
#1386=PRODUCT_DEFINITION('(Unsaved)','(Unsaved)',#1387,#1385);
#1387=PRODUCT_DEFINITION_FORMATION('',$,#1392);
#1388=PRODUCT_RELATED_PRODUCT_CATEGORY('(Unsaved)','(Unsaved)',(#1392));
#1389=APPLICATION_PROTOCOL_DEFINITION('international standard',
'automotive_design',2009,#1390);
#1390=APPLICATION_CONTEXT(
'Core Data for Automotive Mechanical Design Process');
#1391=PRODUCT_CONTEXT('part definition',#1390,'mechanical');
#1392=PRODUCT('(Unsaved)','(Unsaved)',$,(#1391));
#1393=PRESENTATION_STYLE_ASSIGNMENT((#1394));
#1394=SURFACE_STYLE_USAGE(.BOTH.,#1395);
#1395=SURFACE_SIDE_STYLE('',(#1396));
#1396=SURFACE_STYLE_FILL_AREA(#1397);
#1397=FILL_AREA_STYLE('Steel - Satin',(#1398));
#1398=FILL_AREA_STYLE_COLOUR('Steel - Satin',#1399);
#1399=COLOUR_RGB('Steel - Satin',0.627450980392157,0.627450980392157,0.627450980392157);
ENDSEC;
END-ISO-10303-21;
